<?xml version="1.0" encoding="UTF-8"?><svg id="Layer_2" xmlns="http://www.w3.org/2000/svg" viewBox="0 0 85.59 65.38"><defs><style>.cls-1{fill:#c13d40;}.cls-1,.cls-2{fill-rule:evenodd;}.cls-1,.cls-2,.cls-3,.cls-4{stroke-width:0px;}.cls-2,.cls-4{fill:#59595b;}.cls-3{fill:#81b950;}</style></defs><g id="Layer_1-2"><path class="cls-3" d="M77.6,11.3h7.99v3.17h-11.22v11.32h-3.26v-8.41c0-1.2-.46-1.96-1.05-2.37-.68-.33-1.43-.5-2.18-.51l-7.99-.02v-3.17h11.22V0h3.26v11.3h3.23Z"/><polygon class="cls-1" points="17.32 46.47 17.32 42.26 4.33 42.26 4.33 17.94 .04 17.94 .04 46.47 17.32 46.47"/><path class="cls-1" d="M67.4,46.47s-4.17-6.83-7.48-12.14c-.12-.21-.26-.42-.41-.61.89-.21,1.75-.55,2.54-1.02,2.26-1.36,3.43-3.88,3.43-6.7s-1.17-5.35-3.43-6.73c-1.96-1.19-4.33-1.31-6.13-1.31h-10.22v28.52h4.33v-12.43h3.15c.56-.01,1.12.18,1.55.53.61.56,1.12,1.22,1.51,1.96,2.86,4.66,6.1,9.93,6.1,9.93h5.05ZM61.15,25.99c0,1.55-.57,2.61-1.39,3.15-.94.53-2.33.65-3.84.65h-5.88v-7.64h5.88c1.51,0,2.9.16,3.84.7.77.53,1.39,1.55,1.39,3.15Z"/><path class="cls-1" d="M41.93,42.05l-3.97-2.92c-1.87,2.34-4.15,3.33-6.95,3.33-3.04,0-5.43-1.29-6.53-2.98-.93-1.34-1.28-3.39-1.34-5.26h18.56c.06-3.5.29-8.16-1.69-11.26-2.17-3.27-5.49-5.01-9.52-5.01-4.44,0-8,1.69-10.21,5.02-1.93,2.98-2.16,6.65-2.16,9.57,0,2.61.18,6.59,2.16,9.57,2.16,3.26,6.13,5.2,10.74,5.14,4.2,0,7.94-1.53,10.92-5.2ZM36.74,29.44h-13.48c.53-4.08,2.61-6.71,7.24-6.71,2.39,0,4.09.93,5.31,2.86.47.7.82,2.28.93,3.85Z"/><path class="cls-2" d="M4.31,53.05c.03-.58-.25-1.12-.74-1.44-.4-.22-.85-.32-1.31-.29H0v5.91h.9v-2.46h1.35c.45.03.9-.07,1.31-.28.49-.31.77-.86.75-1.44ZM3.41,53.05c.02.27-.11.53-.33.69-.26.12-.56.17-.85.15H.9v-1.7h1.35c.29-.02.58.03.85.15.22.16.34.43.31.71Z"/><polygon class="cls-2" points="8.77 57.24 8.77 56.36 6.08 56.36 6.08 51.32 5.19 51.32 5.19 57.24 8.77 57.24"/><path class="cls-2" d="M14.63,57.24l-2.35-5.91h-.85l-2.34,5.91h.96l.65-1.66h2.29l.65,1.66h.98ZM12.68,54.72h-1.62l.81-2.03.81,2.03Z"/><polygon class="cls-2" points="19.53 57.24 19.53 51.32 18.64 51.32 18.64 55.41 16.12 51.32 15.3 51.32 15.3 57.24 16.2 57.24 16.2 53.15 18.71 57.24 19.53 57.24"/><path class="cls-2" d="M25.37,54.28c0-.9-.13-1.48-.47-2.01-.43-.66-1.17-1.04-1.96-1.03-.79-.02-1.53.37-1.96,1.03-.36.53-.48,1.11-.48,2.01s.13,1.47.48,2c.43.66,1.17,1.05,1.96,1.03.79.02,1.53-.37,1.96-1.03.35-.53.47-1.12.47-2ZM24.48,54.28c0,.78-.1,1.18-.33,1.53-.48.66-1.4.82-2.07.34-.13-.09-.24-.21-.34-.34-.24-.36-.33-.75-.33-1.53s.1-1.18.33-1.53c.48-.66,1.4-.82,2.07-.34.13.09.24.21.34.34.23.36.33.75.33,1.53h0Z"/><polygon class="cls-2" points="33.09 57.24 33.09 51.32 32.2 51.32 32.2 55.41 29.68 51.32 28.85 51.32 28.85 57.24 29.75 57.24 29.75 53.15 32.27 57.24 33.09 57.24"/><path class="cls-2" d="M39.29,57.24l-2.34-5.91h-.85l-2.34,5.91h.98l.65-1.66h2.29l.65,1.66h.97ZM37.34,54.72h-1.61l.8-2.03.81,2.03Z"/><path class="cls-2" d="M43.91,52.38c-.74-.86-1.24-1.13-2.03-1.13-.79-.02-1.53.37-1.96,1.03-.35.53-.47,1.11-.47,2.01s.13,1.47.47,2c.43.66,1.17,1.05,1.96,1.03.8,0,1.31-.27,2.03-1.13l-.7-.57c-.58.7-.86.81-1.34.81-.48.02-.93-.22-1.19-.62-.23-.36-.33-.75-.33-1.53s.1-1.18.33-1.53c.26-.4.71-.64,1.19-.62.48,0,.75.12,1.34.81l.7-.57Z"/><rect class="cls-4" x="44.91" y="51.32" width=".92" height="5.91"/><path class="cls-2" d="M51.71,54.28c0-.9-.13-1.48-.47-2.01-.43-.66-1.17-1.04-1.96-1.03-.79-.02-1.53.37-1.96,1.03-.36.53-.48,1.11-.48,2.01s.13,1.47.48,2c.43.66,1.17,1.05,1.96,1.03.79.02,1.53-.37,1.96-1.03.35-.53.47-1.12.47-2ZM50.81,54.28c0,.78-.1,1.18-.33,1.53-.48.66-1.4.82-2.06.34-.13-.09-.25-.21-.34-.34-.24-.36-.33-.75-.33-1.53s.1-1.18.33-1.53c.48-.66,1.4-.82,2.06-.34.13.09.25.21.34.34.23.36.33.75.33,1.53Z"/><polygon class="cls-2" points="56.9 57.24 56.9 51.32 56.01 51.32 56.01 55.41 53.49 51.32 52.67 51.32 52.67 57.24 53.56 57.24 53.56 53.15 56.08 57.24 56.9 57.24"/><path class="cls-2" d="M63.11,57.24l-2.34-5.91h-.85l-2.35,5.91h.98l.65-1.66h2.29l.65,1.66h.97ZM61.15,54.72h-1.61l.8-2.03.81,2.03Z"/><polygon class="cls-2" points="67.35 57.24 67.35 56.36 64.66 56.36 64.66 51.32 63.77 51.32 63.77 57.24 67.35 57.24"/><path class="cls-2" d="M4.43,62.35c0-.46-.04-1.09-.07-1.29-.19-1.47-1.31-1.67-2.45-1.67H.04v5.89h1.87c1.16,0,2.26-.21,2.45-1.67.03-.19.07-.81.07-1.27ZM3.54,62.35c0,.39-.02.78-.06,1.17-.06.43-.2.64-.41.74-.37.14-.76.19-1.15.17h-.98v-4.17h.98c.39-.02.78.04,1.15.18.21.1.36.3.41.73.04.39.06.79.06,1.19Z"/><polygon class="cls-2" points="12.13 65.3 12.13 64.42 9.09 64.42 9.09 62.66 11.75 62.66 11.75 61.79 9.09 61.79 9.09 60.26 12.13 60.26 12.13 59.39 8.2 59.39 8.2 65.3 12.13 65.3"/><polygon class="cls-2" points="22.75 65.3 22.75 64.42 20.06 64.42 20.06 59.39 19.17 59.39 19.17 65.3 22.75 65.3"/><polygon class="cls-2" points="30.11 65.3 30.11 64.42 27.07 64.42 27.07 62.66 29.73 62.66 29.73 61.79 27.07 61.79 27.07 60.26 30.11 60.26 30.11 59.39 26.18 59.39 26.18 65.3 30.11 65.3"/><rect class="cls-4" x="33.88" y="59.39" width=".92" height="5.91"/><polygon class="cls-2" points="42.74 60.26 42.74 59.39 38.31 59.39 38.31 60.26 40.08 60.26 40.08 65.3 40.98 65.3 40.98 60.26 42.74 60.26"/><path class="cls-2" d="M50.6,62.72v-3.34h-.9v3.33c.03.43-.05.87-.24,1.26-.24.35-.66.55-1.08.52-.43.03-.84-.17-1.08-.52-.19-.39-.27-.82-.24-1.25v-3.34h-.9v3.34c-.03.59.09,1.18.37,1.7.41.62,1.11.98,1.85.95.74.03,1.44-.33,1.85-.95.27-.52.4-1.11.36-1.7Z"/><path class="cls-2" d="M59,65.29s-.86-1.41-1.55-2.52c-.03-.04-.05-.09-.08-.13.18-.04.36-.11.53-.21.47-.31.74-.83.71-1.39.02-.56-.25-1.09-.71-1.4-.39-.2-.83-.3-1.27-.27h-2.11v5.91h.9v-2.58h.65c.12,0,.24.03.33.11.13.12.24.25.33.4l1.26,2.06h1.02ZM57.69,61.05c.02.25-.09.5-.29.65-.25.11-.52.15-.8.13h-1.22v-1.58h1.22c.27-.02.55.03.8.15.2.15.32.4.3.65h-.01Z"/><path class="cls-2" d="M67.45,65.29l-2.34-5.91h-.85l-2.35,5.91h.98l.65-1.66h2.29l.65,1.66h.97ZM65.5,62.77h-1.61l.8-2.03.81,2.03Z"/><path class="cls-4" d="M78.96,58.86v6.43h6.44v-6.43h-6.44ZM83.82,60.23c-1.17,1.03-1.91,2.47-2.05,4.02h-.48c.14-1.51.7-2.61,2.09-4.02l-2.74-.02v-.37l3.19.02v.37Z"/><path class="cls-4" d="M71.51,58.86v6.43h6.44v-6.43h-6.44ZM76.08,63.89v.37l-3.26-.02c.05-1.33,1.56-1.63,2.41-2.39.26-.2.42-.51.42-.84,0-.58-.5-.92-1.1-.92-.81,0-1.14.58-1.13,1.23h-.45c0-.92.53-1.57,1.61-1.57.87,0,1.53.44,1.52,1.27,0,.74-.62,1.2-1.26,1.58-.49.29-1.38.68-1.5,1.28l2.75.02Z"/><path class="cls-4" d="M78.96,51.41v4.8c0,.9.73,1.63,1.63,1.63h4.8v-6.43h-6.43ZM82.19,56.75c-1.45,0-1.72-1.27-1.7-2.3s.31-2.29,1.75-2.29,1.72,1.27,1.7,2.3-.31,2.29-1.75,2.29h0Z"/><path class="cls-4" d="M82.24,52.49c-1.13,0-1.31,1.18-1.31,1.96s.13,1.96,1.26,1.96,1.31-1.18,1.31-1.96-.12-1.95-1.26-1.96Z"/><path class="cls-4" d="M71.51,51.41v6.44h6.44v-6.44h-6.44ZM76.08,56.31v.37l-3.26-.02c.05-1.33,1.56-1.63,2.41-2.39.26-.2.42-.51.42-.84,0-.58-.5-.92-1.1-.92-.81,0-1.14.58-1.13,1.24h-.45c0-.92.53-1.58,1.61-1.57.87,0,1.53.44,1.52,1.27,0,.74-.62,1.2-1.26,1.58-.49.29-1.38.68-1.5,1.28l2.75.02Z"/></g></svg>