<?xml version="1.0" encoding="UTF-8"?><svg id="Layer_2" xmlns="http://www.w3.org/2000/svg" viewBox="0 0 101.16 57.05"><defs><style>.cls-1{fill:#949494;}.cls-1,.cls-2{stroke-width:0px;}.cls-2{fill:#fff;}</style></defs><g id="Layer_1-2"><path class="cls-1" d="M100.97,30.47c-.65-.5-1.26-1.04-1.91-1.52-.38-.28-.56-.57-.53-1.06.02-.46.03-.94-.05-1.4-.01-.09-.08-.2-.05-.25.09-.17.06-.36.06-.53-.03-1.28-.02-2.55-.1-3.83-.03-.55-.13-1.08-.33-1.59-.37-.92-.96-1.66-1.77-2.24-.45-.32-.9-.62-1.43-.81-.3-.11-.41-.23-.37-.42.12-.62.03-1.24-.03-1.86-.06-.63-.2-1.25-.39-1.85-.2-.64-.52-1.22-.9-1.76-.51-.72-1.2-1.21-2-1.54-.33-.13-.67-.28-1.04-.32-.3-.03-.59-.07-.89-.1-.69-.07-1.38-.05-2.06.08-.51.1-.99.26-1.46.5-.55.28-1,.67-1.41,1.1-.66.69-1.14,1.52-1.71,2.28-.15.19-.29.21-.46.17-.47-.1-.93-.24-1.4-.36-.27-.06-.53-.16-.82-.15-.13,0-.19.08-.27.16-.12.13-.08.3-.14.45-.32.76-.71,1.47-1.22,2.12-.18.23-.18.22-.44.07-.13-.07-.26-.13-.38-.21-.9-.58-1.84-1.1-2.75-1.66-.09-.06-.15-.05-.19.05-.29.59-.72,1.1-1.13,1.6-.17.21-.37.38-.56.57-.54.58-1.18,1.03-1.86,1.47-.08-.31-.16-.6-.22-.9-.03-.14-.1-.19-.22-.23-.69-.23-1.37-.47-2.06-.7-.55-.19-1.1-.37-1.65-.56-.18-.06-.3-.07-.42.11-.13.2-.3.38-.45.57-.2.25-.4.49-.63.77-.59-4.02-1.17-7.99-1.75-11.99-.66.56-1.29,1.09-1.92,1.62-.41.35-.82.69-1.23,1.04-.32.28-.67.54-.96.86-.04.04-.09.05-.12.05-.08,0-.03-.07-.05-.11-.1-.29,0-.6-.12-.89-.11-.25-.13-.53-.18-.78-.07-.35-.17-.69-.29-1.02-.68-1.85-1.84-3.31-3.59-4.27-.98-.53-2.03-.82-3.12-.98-.68-.1-1.36-.04-2.02.07-.86.15-1.69.45-2.49.81-.99.45-1.92,1-2.77,1.68-.13.1-.18.08-.27-.03-.63-.76-1.34-1.42-2.26-1.82-.38-.16-.77-.33-1.18-.31-.27.01-.54.01-.81.07-.8.16-1.49.53-2.12,1.02-.56.44-1.06.95-1.55,1.46-.09.1-.15.09-.25.01-.61-.47-1.26-.88-1.96-1.2-.27-.13-.56-.18-.85-.25-.49-.11-.91,0-1.34.18-.92.37-1.67,1-2.34,1.72-.14.15-.22.16-.37.03-.49-.42-.96-.86-1.45-1.31-.27.33-.49.69-.72,1.04-.27.43-.54.86-.89,1.22-.88.91-1.97,1.49-3.17,1.96v-1.18q0-.34-.32-.45c-.78-.27-1.57-.54-2.33-.87-.45-.2-.9-.38-1.35-.59-.51-.24-.51-.25-.8.25-.02.04-.04.07-.06.11-.32.56-.6,1.14-.99,1.65-.5.66-1.12,1.14-1.92,1.39-.13.04-.18.02-.17-.12,0-.13.01-.25,0-.38-.07-.62-.08-1.24-.06-1.86,0-.1-.03-.15-.11-.2-.35-.22-.7-.45-1.05-.67-.85-.54-1.71-1.08-2.56-1.62-.97-.61-1.95-1.21-2.92-1.81-.13-.08-.29-.25-.39-.22-.15.05-.09.28-.12.43-.18.81-.35,1.61-.62,2.4-.49,1.46-1.15,2.84-2.17,4.01-.72.83-1.56,1.49-2.59,1.89-.28.11-.57.27-.86.31-.54.07-1.08.22-1.63.18-.09,0-.12.02-.13.11-.03.83,0,1.65-.04,2.48-.02.48,0,.96.02,1.44,0,.25.04.51.02.76-.03.38-.02.77-.04,1.15,0,.11.05.12.14.11.61-.05,1.2-.03,1.79.14.86.24,1.4.77,1.55,1.64.09.5.09,1.02.08,1.53,0,.17-.05.35,0,.51.09.39.05.78.09,1.17.05.55.05,1.1.09,1.65.06.68.15,1.36.3,2.03.27,1.2.53,2.4.89,3.57.1.34.05.55-.21.78-.8.7-1.52,1.49-2.11,2.38-.8,1.21-1.32,2.52-1.43,3.97-.06.73-.05,1.47.07,2.2.15.93.38,1.83.87,2.64.04.07.05.12.01.19-.16.28-.32.57-.47.85-.46.86-.88,1.73-1.15,2.66-.25.86-.4,1.73-.39,2.63,0,.51,0,1.02.04,1.53.03.43.11.85.17,1.27.09.66.18,1.31.4,1.94.79,2.3,2.28,4.04,4.29,5.36.79.52,1.64.92,2.59,1.06.83.13,1.65.04,2.46-.09,1.18-.19,2.29-.58,3.34-1.13,1.51-.8,2.81-1.89,3.99-3.1.15-.16.31-.22.51-.2.54.06,1.06-.05,1.58-.17.41-.1.79-.28,1.16-.48.47-.25.94-.5,1.41-.76.11-.06.15-.04.19.07.09.24.18.47.28.7.23.54.46,1.09.67,1.64.26.66.53,1.32.77,1.99.03.08.04.15.17.12.89-.2,1.8-.38,2.69-.6.81-.19,1.63-.36,2.44-.55.62-.15,1.26-.27,1.89-.4.11-.02.27-.04.24-.2-.04-.29-.02-.57-.04-.86-.04-.62-.1-1.24-.11-1.85,0-.37-.07-.73-.07-1.1,0-.36,0-.74-.06-1.1-.06-.43-.02-.88-.09-1.32-.05-.34,0-.37.32-.26.39.14.79.3,1.21.31.7.02,1.4.01,2.09-.11,1.32-.24,2.51-.77,3.61-1.54.57-.4,1.1-.87,1.57-1.39.04-.04.06-.12.13-.1.11.67.02,1.34.09,2.01.03.24,0,.25.25.18,1.49-.43,2.96-.91,4.44-1.39,1.49-.49,2.98-1,4.47-1.51,1.36-.46,2.71-.94,4.07-1.42.14-.05.19-.04.2.12.02.15,0,.3.05.44.21.73.39,1.47.67,2.17.63,1.56,1.54,2.9,2.95,3.85,1.12.76,2.36,1.15,3.71,1.21.56.02,1.12.02,1.68-.06,1.2-.18,2.35-.55,3.44-1.09,1.22-.6,2.33-1.37,3.32-2.3.61-.58,1.19-1.18,1.69-1.86.26-.36.52-.72.76-1.1.63-1.01,1.13-2.08,1.49-3.22.05-.16.03-.26-.11-.35-.2-.13-.38-.29-.57-.43-.12-.08-.15-.14-.04-.25.14-.14.26-.3.38-.46.08-.1.14-.12.25-.04.29.22.6.42.89.64.13.1.19.11.29-.05.21-.35.45-.68.68-1.02.08-.11.11-.25.25-.33.14.3.28.6.41.9.06.14.13.18.28.13,1.49-.39,2.99-.76,4.48-1.15.14-.04.22,0,.31.12.31.45.66.86,1.07,1.23.49.44,1.05.77,1.66,1.03.61.26,1.24.27,1.88.32.57.05,1.13-.07,1.68-.2,1.6-.4,3.01-1.18,4.31-2.18.14-.11.25-.13.42-.07.79.27,1.62.36,2.45.25.78-.11,1.5-.39,2.17-.81,1.1-.69,1.94-1.63,2.67-2.69.81-1.18,1.44-2.45,1.95-3.79.05-.12.05-.26.13-.38.13-.2.07-.33-.12-.48Z"/><path class="cls-2" d="M9.34,31.6c.72.22,1.3.62,1.73,1.21.68.93.98,1.99.86,3.14-.07.65-.46,1.17-.91,1.62-.57.58-1.26.95-2.06,1.11-1.04.2-1.91-.12-2.66-.82-.91-.86-1.33-1.94-1.33-3.18,0-.83.36-1.52.81-2.19.46-.68,1.11-1.15,1.75-1.62.46-.34.98-.58,1.51-.78.63-.23,1.3-.3,1.98-.21.58.08,1.15-.05,1.69-.31.37-.18.7-.42,1.04-.63.28-.17.58-.29.9-.3.26,0,.53.04.79.07.34.05.68.07,1.01.17.41.13.78.3,1.07.63.14.16.19.35.28.53.03.07-.02.1-.04.14-.16.31-.38.57-.61.82-.5.54-1.08.97-1.75,1.27-.21.1-.24.22-.22.42.08.66.14,1.33.2,2,.03.39.03.39.42.35.73-.07,1.46-.08,2.18.08.51.11.92.34,1.24.81.3.45.35.93.42,1.41.09.64.14,1.28.2,1.92.05.62.09,1.24.16,1.85.13,1.02.22,2.06.58,3.04.06.16.13.31.22.45.27.44.62.52,1.02.18.19-.16.3-.14.48,0,.47.35.48.35.26.88-.38.91-.86,1.75-1.62,2.41-.67.58-1.44.91-2.31,1.04-.51.08-1.02.11-1.52,0-.42-.09-.83-.25-1.22-.42-.12-.05-.17-.05-.24.08-.91,1.77-2.32,2.98-4.19,3.64-.92.32-1.87.45-2.84.44-1.1-.01-1.99-.5-2.79-1.22-.27-.24-.54-.51-.73-.8-.49-.78-.92-1.62-1.08-2.55-.35-2.01-.18-3.97.66-5.85.21-.48.5-.92.85-1.3.68-.73,1.51-1.25,2.45-1.6.93-.34,1.89-.52,2.86-.67.65-.1,1.31-.18,1.94-.38.16-.05.32-.11.47-.18.43-.21.66-.55.63-1.05-.04-.7-.04-1.4-.09-2.09-.07-.92-.1-1.84-.33-2.74,0-.02,0-.04-.01-.06-.19-.66-.46-1.28-1.2-1.49-.83-.23-1.65-.28-2.38.32-.16.13-.33.25-.52.4ZM14.72,43.78c.03-.28-.06-.67-.05-1.06,0-.57-.13-1.11-.4-1.61-.51-.92-1.4-1.19-2.33-.67-.9.5-1.45,1.28-1.74,2.26-.17.56-.12,1.13-.09,1.7.04.69.15,1.36.39,2.01.18.49.43.94.88,1.25.51.36,1.08.39,1.68.3,1.02-.15,1.66-.85,1.71-1.84.02-.43-.01-.85-.03-1.28-.02-.31,0-.63,0-1.05Z"/><path class="cls-2" d="M10.29,4.79c.58.45,1.22.74,1.83,1.07.3.16.23.43.3.65.02.07-.02.18,0,.26.06.25.02.5.06.75.08.5.07,1.01.14,1.5.08.58.07,1.17.15,1.75.05.32.07.65.1.98.06.71.12,1.42.18,2.13.06.65.13,1.29.19,1.94.07.73.14,1.45.22,2.18.07.62.16,1.23.24,1.85.13.98.28,1.96.51,2.93.12.49.31.95.82,1.18.63.29,1.33.11,1.76-.42.18-.23.15-.5.17-.76.04-.58,0-1.16-.04-1.74-.04-.41-.04-.82-.09-1.22-.09-.76-.09-1.53-.2-2.29-.06-.4-.03-.82-.08-1.22-.07-.5-.05-1-.12-1.49-.05-.36-.01-.73-.05-1.09-.04-.35-.06-.7-.17-1.03-.24-.68-.76-1.03-1.5-.98-.3.02-.3.02-.32-.28-.01-.21-.03-.42-.05-.63,0-.08,0-.12.1-.14.46-.09.89-.23,1.33-.39.76-.26,1.47-.62,2.12-1.08.67-.48,1.24-1.05,1.67-1.76.21-.34.2-.34.58-.22.1.03.2.08.3.09.22.03.3.15.24.36-.08.31-.03.63-.03.94,0,.73,0,1.46.04,2.19,0,.17-.02.37.08.54.04.07-.07.18-.06.29.03.18.05.36.06.54.03.71.12,1.41.25,2.11.2,1.16.4,2.32.61,3.48.14.79.3,1.57.44,2.36.11.64.48,1.05,1.08,1.25.19.06.38.15.59.13.09,0,.11.05.12.13.04.38.1.76.12,1.14,0,.11.12.23,0,.33-.09.08-.22.09-.33.14-.25.1-.5.18-.74.29-.16.07-.23.07-.29-.12-.24-.73-.5-1.46-.75-2.19-.05-.15-.11-.21-.28-.19-.55.07-1.1.13-1.64.17-.15.01-.14.14-.15.21-.02.23-.03.46-.02.68,0,.09-.02.18-.03.26-.04.43-.07.86-.09,1.29-.03.56-.06,1.13-.08,1.69,0,.08-.04.12-.11.16-.41.24-.83.48-1.23.72-.16.09-.21-.01-.28-.11-.37-.51-.73-1.02-1.11-1.55-.06.12-.11.22-.17.32-.36.62-.82,1.15-1.33,1.66-.68.67-1.42,1.25-2.25,1.72-.75.42-1.55.72-2.41.7-.72-.01-1.38-.29-1.88-.85-.25-.27-.45-.58-.61-.91-.32-.64-.62-1.67-.74-2.56-.08-.54-.2-1.07-.22-1.61-.02-.55-.11-1.09-.13-1.63-.03-.63-.07-1.25-.14-1.88-.03-.22-.04-.46-.05-.69,0-.15-.02-.28-.07-.43-.04-.11,0-.24-.01-.37-.12-1.14-.29-2.28-.72-3.35-.21-.51-.5-.98-.9-1.36-.45-.41-.99-.64-1.61-.63-.53,0-.53,0-.57-.51-.03-.37-.03-.36.31-.51.69-.3,1.39-.6,2.08-.92,1.18-.56,2.26-1.27,3.07-2.31.54-.69.97-1.44,1.3-2.26.18-.46.37-.92.5-1.43Z"/><path class="cls-2" d="M37.62,18.93c0,.66,0,1.32,0,1.97,0,.06-.02.12-.1.14-1.17.3-2.3.7-3.45,1.04-.16.05-.19.03-.2-.14-.06-.96-.24-1.9-.72-2.76-.22-.38-.51-.7-.88-.92-.44-.25-.54-.64-.54-1.1,0-.69-.09-1.37-.12-2.05-.02-.36-.05-.71-.05-1.07-.01-.95-.09-1.9-.38-2.81-.08-.24-.18-.47-.33-.68-.38-.52-.97-.47-1.27.1-.23.44-.27.93-.29,1.41-.03.59.02,1.18.09,1.77,0,.09.02.18.02.27.02.69.01,1.37.05,2.06.02.38.02.76.06,1.13.02.17-.04.23-.19.28-1.26.42-2.41,1.02-3.38,1.95-.3.29-.56.61-.79.96-.07-.03-.04-.09-.04-.13,0-.5.01-1-.02-1.5-.05-.76-.05-1.52-.16-2.28-.09-.63-.15-1.27-.3-1.89-.19-.79-.43-1.55-.86-2.24-.27-.43-.6-.8-1.04-1.07-.28-.17-.56-.33-.89-.38-.14-.02-.15-.09-.15-.2,0-.32.02-.65,0-.97-.01-.19.07-.25.23-.28.83-.15,1.64-.39,2.44-.68.66-.24,1.29-.52,1.88-.89.6-.38,1.17-.81,1.6-1.39.05-.07.09-.12.18-.07.25.14.5.26.71.44.11.1.17.18.09.36-.08.18-.09.4-.11.6-.06.58-.12,1.15-.15,1.75.2-.28.42-.55.59-.84.05-.09.13-.13.19-.2.26-.33.53-.64.79-.96.43-.52.92-.98,1.45-1.39.54-.42,1.13-.78,1.84-.89.94-.14,1.82.24,2.25,1.12.16.32.24.66.33,1,.08.28.03.56.04.83.08.04.09-.02.12-.06.61-.92,1.21-1.85,1.89-2.71.47-.59.97-1.15,1.63-1.52.24-.14.52-.25.85-.18.21.04.45.03.67.08.61.16,1.05.53,1.37,1.06.38.63.53,1.33.65,2.04.08.45.08.89.09,1.34,0,.05.04.1.07.15.02.03.07.06.04.1-.17.24-.02.49-.02.73,0,.35.04.71.08,1.06.06.67.13,1.34.18,2.01.03.32.07.64.07.97,0,.23.06.46.08.69.02.18,0,.36.02.53.06.53.11,1.06.16,1.59.03.35.05.71.11,1.06.04.2.07.44.02.67-.02.07,0,.18.06.27.05.09-.02.26.09.3.09.03.22-.03.33-.05.19-.04.38-.08.57-.14.14-.04.16,0,.17.13.04.47.03.94.03,1.41,0,.11-.04.15-.14.19-.33.11-.67.15-.99.28-.4.17-.84.2-1.24.37-.55.23-1.15.34-1.71.55-.33.13-.71.2-1.04.33-.32.12-.67.17-.97.37-.2.13-.45.19-.69.27-.19.07-.18-.1-.19-.21-.02-.36-.02-.73-.03-1.09,0-.03,0-.06,0-.08-.04-.2.02-.32.24-.39.36-.12.7-.29,1.05-.43.12-.05.17-.12.14-.24-.07-.24-.06-.49-.07-.72-.01-.38-.07-.75-.1-1.13-.04-.57-.09-1.14-.16-1.71-.04-.35-.06-.71-.09-1.06-.02-.3-.03-.6-.08-.89-.05-.31-.02-.63-.05-.95-.05-.51-.11-1.02-.19-1.53-.06-.35-.16-.68-.25-1.02-.12-.45-.31-.88-.62-1.25-.42-.5-1.33-.47-1.66.16-.2.37-.3.77-.36,1.18-.11.78-.07,1.55,0,2.33.11,1.21.3,2.4.38,3.61.04.6.15,1.2.17,1.81,0,.06.03.12.04.18.03.3.03.3.34.22.18-.04.35-.09.5-.12Z"/><path class="cls-2" d="M56.8,27.38c-.45.14-.89.27-1.34.42-.77.25-1.54.5-2.29.79-.12.05-.21.05-.21-.12,0-.03-.03-.05-.02-.08.04-.36-.07-.72-.04-1.09,0-.06,0-.08.08-.12,1.58-.77,2.92-1.84,3.99-3.22,1.05-1.35,1.76-2.88,2.2-4.53.19-.72.35-1.46.43-2.2.14-1.16.21-2.33.12-3.5-.05-.61-.04-1.22-.2-1.82-.03-.1,0-.19.11-.26.71-.42,1.42-.86,2.13-1.29.13-.08.16-.05.16.09.02.57.04,1.14.09,1.71.03.31.07.63.08.94,0,.34.04.69.05,1.03.02.57.08,1.14.12,1.71.03.45.05.91.08,1.36.06.89.12,1.78.18,2.67.03.43.04.87.07,1.3.04.55.08,1.1.12,1.64,0,.14,0,.28,0,.42,0,.18.05.23.23.17,2.03-.66,4.06-1.31,6.09-1.96.25-.08.26-.14.26.18,0,.82,0,1.63,0,2.45,0,.14-.03.21-.17.26-1.37.52-2.76.98-4.17,1.38-.6.17-1.2.32-1.8.48-.15.04-.28.03-.26.3.02.29,0,.6,0,.89,0,.41,0,.82.01,1.22.01.38.03.77.04,1.15.01.46.07.92.05,1.38-.01.27.09.58.11.87.06.89.18,1.78.25,2.68.04.57.17,1.13.25,1.69.15.96.34,1.92.57,2.86.14.54.27,1.08.45,1.6.21.61.68.97,1.33.99.52.01.95-.17,1.36-.5.39-.32.68-.7.95-1.11.06-.08.12-.17.1-.29.31.19.6.37.89.54.1.06.14.11.09.23-.42,1-.92,1.95-1.59,2.81-.66.85-1.43,1.56-2.35,2.1-1.31.76-2.72,1.12-4.23,1-.7-.06-1.32-.31-1.85-.76-.6-.51-.92-1.2-1.17-1.93-.24-.72-.36-1.47-.43-2.22-.06-.64-.1-1.28-.14-1.92-.06-1.11-.14-2.23-.21-3.34-.04-.66-.08-1.33-.13-1.99-.04-.54-.09-1.08-.12-1.62-.05-.71-.08-1.41-.12-2.12-.04-.68-.09-1.37-.13-2.05-.03-.43-.07-.86-.1-1.31Z"/><path class="cls-2" d="M29.34,26.34c-.37.25-.75.46-1.19.56-.87.19-2.11-.34-2.59-1.16-.41-.7-.51-1.44-.44-2.23.01-.14,0-.28.01-.43.01-.58.21-1.12.46-1.63.76-1.54,1.96-2.56,3.62-3.01,1.88-.52,3.5.7,4.01,2.2.09.27.18.55.18.84,0,.59-.13,1.15-.47,1.66-.44.64-.86,1.29-1.27,1.96-1.6,2.62-2.72,5.44-3.47,8.41-.1.38-.14.79-.24,1.16-.2.77-.27,1.57-.39,2.35-.09.56-.06,1.13-.04,1.7.08,2.67.16,5.34.24,8.01.04,1.39.08,2.78.13,4.17,0,.15-.03.22-.19.25-.57.1-1.13.2-1.69.31-.14.03-.18,0-.22-.13-.46-1.46-.93-2.91-1.4-4.37-.27-.85-.54-1.7-.82-2.55-.21-.65-.4-1.3-.63-1.94-.4-1.13-.65-2.31-1.05-3.44-.16-.45-.33-.9-.55-1.33-.04-.09-.07-.18-.17-.23-.12-.06-.03-.17-.08-.26-.82-1.44-1.93-2.5-3.64-2.76-.39-.06-.78-.08-1.18-.06-.13,0-.17-.03-.18-.16-.02-.16-.09-.34-.09-.48,0-.29-.05-.58-.05-.86,0-.08.06-.1.11-.14.42-.25.8-.54,1.14-.89.3-.32.65-.59.94-.92.82-.97,1.51-2.01,1.87-3.25.18-.62.23-1.26.26-1.9.03-.53.02-1.06.07-1.59.05-.53.05-1.06.05-1.6,0-.24.04-.47.05-.71,0-.09.05-.1.12-.11.23-.03.47-.05.7-.09.13-.02.18.03.22.15.31.96.62,1.92.93,2.88.42,1.3.85,2.6,1.27,3.9.44,1.37.87,2.74,1.32,4.11.15.44.26.89.41,1.33.15.45.29.9.44,1.35.15.46.3.92.45,1.38.02.06.04.11.06.19.6-3.68,1.45-7.26,3.04-10.63,0-.02.01-.05,0-.05-.02-.02-.03,0-.04.02Z"/><path class="cls-2" d="M46.67,26.25c.28-.57.55-1.07.85-1.57.34-.56.68-1.12,1.06-1.65.26-.36.56-.7.83-1.05.06-.07.13-.06.2-.07.2-.04.39.03.58-.01.51-.1.95-.35,1.32-.7.06-.05.1-.11.2-.09.84.23,1.62.55,2.2,1.24.53.62.69,1.37.76,2.16.04.47-.13.77-.49,1.04-.61.46-1.24.85-1.98,1.04-.13.03-.16.09-.16.21-.02.69.06,1.37.06,2.06,0,.29.03.58.03.88,0,.14.05.14.16.1.86-.3,1.72-.6,2.58-.89.2-.07.27-.03.25.17-.02.44.03.88.06,1.32.03.36.03.72.05,1.08.03.45.05.9.07,1.34.03.55.05,1.1.08,1.65.03.49.08.98.07,1.48,0,.16.08.16.18.13.14-.04.28-.08.42-.13.09-.03.12-.03.12.08,0,.55,0,1.1,0,1.65,0,.12-.07.13-.15.15-.64.16-1.28.34-1.91.53-.63.18-1.25.36-1.88.55-.68.21-1.37.39-2.06.59-.14.04-.16.01-.17-.12-.02-.46-.05-.92-.08-1.38,0-.12.04-.17.16-.22.16-.07.32-.1.48-.17.12-.05.13-.11.13-.21,0-.8-.09-1.59-.1-2.39,0-.56-.05-1.12-.08-1.67-.04-.9-.05-1.8-.09-2.7-.03-.68-.1-1.36-.22-2.03-.06-.33-.07-.66-.17-.98-.11-.33-.18-.68-.33-1-.16-.36-.35-.71-.71-.92-.34-.2-.72-.18-1.01.11-.19.19-.3.42-.38.67-.28.81-.3,1.65-.33,2.49-.02.42,0,.84.01,1.25.01.28.02.56.06.85.08.6.07,1.2.06,1.81,0,.37.06.75.09,1.12.03.42.02.84.08,1.26.07.51.07,1.03.13,1.54.06.48.08.97.11,1.46,0,.14.05.15.16.11.29-.09.58-.16.87-.25.13-.04.19-.03.2.14.04.46,0,.92.08,1.38.03.16-.02.24-.2.29-2,.59-3.99,1.19-5.99,1.8-.19.06-.23.02-.23-.17,0-.43,0-.86-.03-1.29-.01-.19.05-.27.23-.32.28-.08.56-.19.84-.28.11-.03.15-.08.15-.21,0-.63-.08-1.26-.12-1.88-.02-.25-.03-.5-.04-.75-.03-.65-.08-1.31-.13-1.96-.03-.44-.03-.88-.1-1.31-.14-.97-.38-1.91-.96-2.73-.54-.74-1.25-1.11-2.18-.96-.11.02-.15-.03-.14-.14,0-.32.02-.63,0-.95-.02-.23-.04-.35.27-.36.42-.02.85-.11,1.24-.28.47-.2.87-.48,1.26-.82.64-.57,1.1-1.27,1.43-2.03.22-.51.46-1.01.57-1.57.02-.13.05-.17.21-.15.28.04.57.02.86.01.12,0,.17.03.19.16.12.81.25,1.62.39,2.49Z"/><path class="cls-2" d="M52.74,18.68c-.76,1.25-1.7,2.29-3.14,2.73-1.45.44-2.77.07-4.03-.7.09-.03.18-.07.27-.1.34-.12.35-.12.3-.47-.04-.26-.02-.52-.03-.77-.01-.68-.03-1.36-.03-2.04,0-.19-.07-.19-.21-.16-.22.05-.44.09-.66.14-.09.02-.16.03-.16-.11,0-.51-.03-1.03-.03-1.54,0-.25.11-.48.2-.7.27-.61.59-1.2,1.05-1.69.27-.28.58-.52.92-.72.7-.4,1.46-.56,2.25-.65.48-.06.96-.06,1.43-.17.2-.04.41-.05.6-.13.38-.15.55-.42.55-.83,0-.57-.18-1.11-.22-1.67-.02-.33-.08-.66-.11-.99-.06-.63-.14-1.25-.39-1.84-.28-.66-.75-.97-1.42-.95-.46.02-.85.19-1.16.55-.1.12-.1.17.04.26.96.63,1.54,1.5,1.43,2.68-.1,1.06-.58,1.96-1.45,2.6-.79.58-1.68.56-2.58.34-.65-.17-1.13-.58-1.44-1.15-.18-.34-.26-.72-.29-1.11-.05-.64.03-1.27.26-1.88.39-1.03,1.12-1.79,1.92-2.37.49-.36,1.02-.65,1.57-.89,1.28-.58,2.84-.96,4.1-.96,1.11,0,2.11.3,2.87,1.15.5.56.8,1.23.99,1.95.2.75.3,1.51.35,2.28.05.71.08,1.42.1,2.13.02.61,0,1.23.02,1.85.01.82.09,1.64.36,2.43.09.27.23.51.43.71.3.29.51.3.85.06.12-.09.2-.29.34-.27.12.02.21.2.33.28.2.12.17.24.09.42-.28.61-.64,1.17-1.08,1.67-.86.96-1.91,1.57-3.21,1.71-.46.05-.84-.1-1.2-.37-.29-.22-.53-.49-.8-.75ZM52.47,15.72c0-.61.04-1.22-.09-1.83-.2-.91-.55-1.18-1.29-1.28-.76-.11-1.26.27-1.55,1.06-.15.41-.22.84-.23,1.28-.03.63,0,1.26.08,1.89.07.65.4,1.11.96,1.42.23.13.47.21.76.13.49-.13.84-.44,1.13-.83.17-.24.26-.5.25-.81-.02-.34,0-.69,0-1.03Z"/><path class="cls-2" d="M39.41,29.08c0,.39,0,.77,0,1.16,0,.13.03.17.17.16.59-.03,1.15.1,1.65.39.37.22.66.56.84.97.06.15-.06.13-.12.16-.9.37-1.81.73-2.71,1.1-1.68.68-3.37,1.37-5.05,2.04-.15.06-.19.13-.19.29,0,.74.06,1.47.3,2.17.28.82.82,1.33,1.71,1.44.7.09,1.33-.09,1.93-.41.89-.47,1.56-1.18,2.16-1.98.39-.52.74-1.08,1.03-1.67.07-.14.12-.14.25-.08.49.26.49.26.28.77-.82,2-1.8,3.92-3.11,5.64-.75.98-1.6,1.87-2.68,2.51-.55.32-1.14.56-1.77.64-.66.08-1.32,0-1.95-.25-.72-.28-1.34-.71-1.86-1.28-.82-.89-1.32-1.94-1.61-3.11-.07-.29-.08-.6-.15-.88-.16-.68-.08-1.35-.13-2.03-.02-.29.06-.59.08-.88.02-.24.12-.47.05-.72-.03-.1.11-.15.12-.27.03-.27.1-.53.15-.8.18-.83.38-1.65.63-2.45.2-.62.38-1.25.65-1.84.15-.34.29-.68.45-1.01.14-.29.33-.57.39-.9.02-.12.16-.16.22-.27.29-.51.6-1.01.98-1.45,1.16-1.36,2.53-2.34,4.43-2.29,1.76.05,3.15.79,4.18,2.22.27.38.49.78.67,1.21.04.11.06.17-.09.2-.58.14-1.16.25-1.76.18-.15-.02-.14.03-.14.13,0,.39,0,.79,0,1.18ZM33.95,33.35s.05.01.05.01c1.17-.44,2.34-.88,3.51-1.32.21-.08.35-.19.36-.43,0-.08,0-.15,0-.23-.02-.63-.07-1.26-.07-1.89,0-.49-.05-.98-.14-1.46-.12-.64-.28-1.26-.62-1.82-.43-.72-1.17-.71-1.67-.13-.18.21-.33.44-.44.69-.54,1.23-.88,2.5-.89,3.85,0,.16,0,.32-.01.48-.05.75-.07,1.49-.08,2.24Z"/><path class="cls-2" d="M87.11,22.2c.26.18.52.37.78.54,1.33.86,1.44,3.06.08,4.11-.59.46-1.25.69-2,.73-.39.02-.75-.02-1.1-.14-.6-.2-.97-.64-1.17-1.23-.26-.76-.26-1.54-.07-2.29.21-.81.66-1.51,1.29-2.08,1.03-.93,2.24-1.36,3.61-1.44.45-.03.89-.08,1.3-.27.47-.22.95-.37,1.48-.36.84.02,1.65.18,2.34.68.54.39.9.94,1.1,1.57.17.52.24,1.05.25,1.59,0,1.79-.02,3.57.01,5.36.01.74.07,1.49.26,2.21.05.21.14.42.28.6.19.24.32.28.61.17.05-.02.12-.02.16-.06.23-.23.44-.09.66.02.1.05.12.11.07.2-.19.39-.41.76-.66,1.12-.18.25-.4.46-.61.68-.22.23-.49.4-.76.58-.38.26-.8.41-1.24.47-.57.07-1.12.02-1.67-.2-.28-.11-.56-.23-.83-.35-.12-.05-.17.03-.2.09-.29.49-.71.86-1.1,1.26-.09.09-.15.25-.25.3-.13.07-.25.15-.37.24-.61.45-1.28.78-1.98,1.04-.18.06-.37.08-.55.12-.71.13-1.42.2-2.11-.1-.89-.39-1.42-1.05-1.5-2.04,0-.11,0-.18.14-.2.42-.06.83-.14,1.25-.2.17-.03.17-.17.17-.27,0-.98,0-1.97,0-2.95,0-.14-.05-.2-.21-.19-.29.02-.58,0-.86,0-.21.01-.22-.09-.13-.21.16-.22.23-.48.34-.72.19-.42.43-.81.71-1.17.26-.33.57-.62.89-.9,1.09-.95,2.43-1.27,3.78-1.58.22-.05.44-.1.64-.2.2-.09.29-.22.25-.46-.03-.27-.04-.54-.04-.82,0-.43-.05-.87-.06-1.3,0-.5,0-1.01-.09-1.5-.2-1.01-.87-1.5-1.91-1.17-.4.12-.73.36-.99.7ZM87.66,31.85c.04.2-.03.43.04.68.08.28.16.56.31.81.25.41.66.51,1.11.5.25,0,.49-.05.71-.19.62-.38.82-1.03.96-1.67.12-.55.09-1.13.11-1.7,0-.11.06-.21.04-.3-.06-.32-.03-.65-.16-.96-.1-.22-.21-.43-.42-.55-.52-.3-1.05-.23-1.53.05-.78.45-.99,1.24-1.12,2.06-.07.42-.04.84-.04,1.29Z"/><path class="cls-2" d="M70.19,24.02c0-.91,0-1.81,0-2.7,0-.11.06-.12.14-.13.57-.12,1.12-.28,1.64-.52.57-.27,1.12-.58,1.64-.97.67-.51,1.28-1.06,1.78-1.73.08-.11.13-.11.24-.04.37.24.74.47,1.11.69.08.05.12.09.12.2,0,.34.01.69-.03,1.02-.04.35-.02.69-.05,1.03,0,.13-.08.16-.17.19-.55.2-1.09.4-1.64.6-.13.04-.17.1-.17.24.02.61.03,1.22.04,1.83,0,.12.03.17.15.2.56.15,1.08.41,1.51.81.29.27.53.59.54,1.03,0,.49.08.99.09,1.48.01.29.03.59.03.89.01.59.04,1.19.08,1.78.05.71.07,1.42.14,2.12.04.42-.12.54-.45.68-.72.3-1.34.74-1.93,1.26-.65.57-1.19,1.21-1.65,1.92-.08.12-.12.1-.2.01-.23-.25-.45-.5-.63-.79-.13-.2-.2-.2-.33-.02-.41.63-.86,1.22-1.35,1.79-.54.62-1.13,1.2-1.82,1.65-.56.37-1.17.67-1.86.64-.89-.03-1.62-.43-2-1.33-.25-.59-.38-1.2-.46-1.84-.1-.85-.12-1.71-.17-2.56-.06-.89-.05-1.78-.1-2.67-.02-.35-.04-.72-.04-1.07,0-.4,0-.8,0-1.19,0-.45-.01-.9-.02-1.35,0-.02,0-.04,0-.06,0-.12-.13-.26-.02-.35.09-.08.24-.1.37-.13.47-.15.93-.29,1.4-.44.71-.22,1.43-.45,2.14-.68.15-.05.18-.02.18.13,0,1.08,0,2.17.02,3.25,0,.47.05.93.08,1.4.06.98.18,1.95.46,2.89.1.33.22.65.4.95.48.78,1.26.95,2.02.42.53-.37.76-.93.87-1.53.07-.38.08-.77.07-1.16-.02-1.57.01-3.14.03-4.7.01-.79-.06-1.58-.31-2.35-.06-.19-.15-.38-.26-.55-.33-.51-.81-.65-1.37-.4-.08.04-.16.08-.28.14Z"/><path class="cls-2" d="M82.58,19.56c.28-.73.59-1.43.92-2.12.39-.81.88-1.57,1.39-2.3.43-.61.97-1.13,1.55-1.59.37-.29.78-.52,1.24-.67.8-.26,1.59-.25,2.37.04,1.03.38,1.63,1.59,1.62,2.42,0,.15.07.31.08.48.04.82-.11,1.62-.52,2.33-.47.82-1.18,1.37-2.13,1.6-.57.14-1.13.12-1.68-.04-.48-.13-.87-.45-1.17-.86-.39-.54-.56-1.15-.65-1.79-.02-.12-.04-.23-.07-.37-.18.25-.31.51-.45.77-.6,1.11-1.1,2.26-1.49,3.45-.25.74-.46,1.48-.62,2.25-.26,1.22-.39,2.44-.33,3.69.02.33-.01.67.05,1,.06.33.02.66.04.99.04.58.1,1.15.12,1.73.01.36.06.71.06,1.07,0,.21.04.43.04.65,0,.14.13.13.21.1.16-.05.32-.02.48-.04.11-.02.15.02.15.13,0,.49,0,.98,0,1.48,0,.13-.06.15-.16.17-.88.18-1.76.35-2.64.53-1.13.24-2.22.61-3.24,1.16-.03.02-.06.03-.11.05,0-.22-.06-.41-.05-.61.02-.43-.06-.86-.05-1.29,0-.12.03-.14.12-.16.25-.07.48-.19.72-.3.06-.03.11-.04.11-.13.04-.85.04-1.71-.05-2.56-.02-.2,0-.4,0-.59-.03-.74-.07-1.48-.09-2.22-.02-.82-.08-1.64-.41-2.41-.26-.61-.61-1.16-1.11-1.59-.33-.28-.69-.51-1.1-.66-.1-.04-.14-.09-.14-.2,0-.17.02-.34,0-.51-.02-.22.05-.31.27-.37.79-.19,1.55-.48,2.27-.87.99-.54,1.75-1.33,2.3-2.3.34-.59.68-1.18.94-1.81.03-.07.06-.11.15-.08.24.07.47.16.72.22.15.03.15.2.15.32.02.51.14,1.01.13,1.52,0,.1.07.19.06.3Z"/><path class="cls-2" d="M64.31,22c.39-.24.68-.54,1.01-.79.34-.27.67-.55.96-.88.37-.42.78-.79,1.11-1.24.11-.16.24-.17.37-.09.17.1.36.08.53.13.05.01.1.02.14.03.14.04.22.07.21.27-.01.38-.06.75-.05,1.13,0,.11-.04.17-.14.2-.17.05-.34.15-.52.13-.13-.02-.17.11-.28.15-1.03.31-2.06.63-3.09.96-.07.02-.14.03-.25.02Z"/></g></svg>