<?xml version="1.0" encoding="UTF-8"?><svg id="Layer_2" xmlns="http://www.w3.org/2000/svg" viewBox="0 0 32.66 32.66"><defs><style>.cls-1{fill:#000;stroke-width:0px;}</style></defs><g id="Layer_1-2"><g id="Layer_2-2"><g id="_04.youtube"><path class="cls-1" d="M14.38,13.2l5.09,3.13-5.09,3.13v-6.26Z"/><path class="cls-1" d="M16.33,0C7.31,0,0,7.31,0,16.33s7.31,16.33,16.33,16.33,16.33-7.31,16.33-16.33S25.35,0,16.33,0ZM24.11,20.26c-.33,1-1.41,1.61-2.4,1.75-3.58.38-7.18.38-10.76,0-.99-.14-2.08-.75-2.4-1.75-.51-2.59-.51-5.26,0-7.86.33-1.01,1.41-1.61,2.41-1.75,3.58-.38,7.18-.38,10.76,0,.99.14,2.08.75,2.4,1.75.51,2.6.5,5.26,0,7.86h0Z"/></g></g></g></svg>