<?xml version="1.0" encoding="UTF-8"?><svg id="Layer_2" xmlns="http://www.w3.org/2000/svg" viewBox="0 0 191.12 91.39"><defs><style>.cls-1{fill:#000;}.cls-1,.cls-2,.cls-3,.cls-4,.cls-5,.cls-6{stroke-width:0px;}.cls-2{fill:#ff0;}.cls-3{fill:#c13d40;}.cls-3,.cls-4{fill-rule:evenodd;}.cls-4,.cls-6{fill:#59595b;}.cls-5{fill:#81b950;}</style></defs><g id="Layer_1-2"><path class="cls-1" d="M156.54,47.24c-1-.77-1.95-1.61-2.97-2.36-.59-.43-.86-.89-.83-1.64.04-.72.04-1.45-.08-2.17-.02-.14-.12-.31-.08-.39.14-.27.1-.56.09-.82-.05-1.98-.04-3.96-.15-5.94-.05-.85-.2-1.68-.52-2.47-.57-1.42-1.48-2.57-2.75-3.47-.7-.5-1.4-.96-2.21-1.25-.47-.17-.63-.35-.58-.65.18-.97.05-1.93-.05-2.88-.1-.97-.31-1.93-.61-2.87-.32-.99-.8-1.89-1.4-2.73-.79-1.12-1.86-1.88-3.1-2.39-.51-.21-1.03-.43-1.61-.5-.46-.05-.92-.12-1.38-.16-1.07-.11-2.13-.08-3.19.13-.79.16-1.53.4-2.26.77-.85.43-1.55,1.05-2.18,1.71-1.02,1.07-1.77,2.36-2.66,3.54-.22.3-.45.32-.71.26-.73-.16-1.45-.38-2.17-.55-.42-.1-.82-.25-1.26-.24-.21,0-.3.12-.43.25-.19.21-.12.47-.21.7-.49,1.18-1.1,2.29-1.89,3.29-.28.36-.28.35-.69.11-.2-.11-.41-.21-.59-.33-1.4-.9-2.85-1.7-4.27-2.58-.15-.09-.23-.07-.3.08-.46.92-1.11,1.7-1.75,2.49-.26.32-.58.58-.86.88-.84.89-1.82,1.6-2.88,2.28-.12-.49-.25-.94-.34-1.39-.04-.22-.15-.3-.35-.36-1.07-.35-2.13-.72-3.19-1.08-.85-.29-1.71-.57-2.56-.88-.28-.1-.46-.11-.64.16-.21.31-.46.59-.7.89-.31.38-.62.76-.97,1.2-.91-6.24-1.81-12.39-2.71-18.59-1.02.86-2,1.69-2.97,2.51-.63.54-1.28,1.07-1.9,1.62-.5.44-1.05.83-1.49,1.33-.06.07-.14.08-.19.08-.12.01-.05-.11-.07-.17-.15-.45.01-.94-.18-1.39-.16-.38-.2-.81-.28-1.21-.11-.54-.26-1.07-.45-1.58-1.06-2.87-2.85-5.14-5.56-6.62-1.51-.83-3.15-1.26-4.84-1.52-1.06-.16-2.1-.07-3.14.11-1.34.24-2.62.7-3.85,1.26-1.53.7-2.97,1.55-4.29,2.61-.2.16-.27.13-.42-.05-.97-1.18-2.08-2.2-3.51-2.82-.58-.25-1.19-.52-1.83-.48-.41.02-.83.02-1.25.1-1.24.24-2.32.81-3.29,1.58-.86.68-1.64,1.47-2.4,2.26-.15.15-.24.14-.39.02-.94-.74-1.96-1.36-3.04-1.87-.42-.19-.87-.28-1.32-.39-.76-.17-1.42.01-2.07.28-1.43.58-2.59,1.55-3.63,2.67-.21.23-.34.24-.57.04-.76-.66-1.5-1.34-2.25-2.03-.42.51-.77,1.06-1.12,1.61-.42.66-.84,1.33-1.38,1.89-1.36,1.42-3.06,2.32-4.92,3.04v-1.83q0-.52-.49-.69c-1.21-.42-2.43-.84-3.61-1.35-.7-.3-1.4-.6-2.09-.92-.8-.38-.79-.39-1.24.39-.03.06-.06.11-.1.17-.49.87-.94,1.76-1.54,2.56-.77,1.02-1.74,1.77-2.98,2.15-.21.06-.27.03-.26-.19.01-.19.02-.39,0-.59-.11-.96-.13-1.92-.1-2.88,0-.16-.05-.23-.17-.31-.55-.34-1.09-.69-1.63-1.04-1.32-.84-2.65-1.67-3.98-2.51-1.51-.94-3.02-1.88-4.53-2.81-.2-.13-.45-.38-.61-.33-.24.07-.14.43-.19.66-.27,1.25-.55,2.5-.96,3.72-.76,2.27-1.78,4.4-3.37,6.22-1.11,1.28-2.42,2.3-4.01,2.94-.44.17-.88.42-1.34.48-.84.1-1.67.35-2.53.28-.13,0-.19.03-.2.18-.05,1.28,0,2.56-.05,3.84-.03.74.01,1.49.02,2.23,0,.39.07.8.04,1.18-.05.59-.04,1.19-.07,1.78,0,.17.07.18.22.17.94-.08,1.86-.04,2.78.22,1.33.37,2.17,1.19,2.41,2.55.13.78.14,1.58.13,2.37,0,.27-.07.54-.01.79.14.6.08,1.22.14,1.82.08.85.07,1.71.15,2.56.09,1.06.23,2.11.46,3.14.41,1.86.81,3.72,1.38,5.54.16.52.08.85-.33,1.21-1.24,1.09-2.35,2.31-3.27,3.69-1.24,1.87-2.04,3.91-2.22,6.15-.09,1.13-.07,2.27.11,3.41.24,1.44.58,2.83,1.35,4.09.06.1.08.18.02.29-.25.44-.49.88-.73,1.33-.71,1.33-1.36,2.68-1.79,4.13-.39,1.33-.62,2.69-.6,4.08.01.79,0,1.58.06,2.37.05.66.17,1.31.26,1.97.14,1.02.28,2.04.62,3.01,1.23,3.56,3.54,6.26,6.65,8.31,1.23.81,2.55,1.42,4.01,1.65,1.28.2,2.55.06,3.82-.14,1.82-.3,3.55-.89,5.18-1.75,2.35-1.24,4.35-2.93,6.19-4.81.24-.24.48-.34.8-.31.84.09,1.65-.07,2.45-.26.64-.15,1.23-.44,1.8-.75.73-.39,1.46-.78,2.18-1.18.17-.1.23-.05.29.11.13.37.28.73.43,1.09.36.84.71,1.7,1.04,2.55.4,1.03.82,2.04,1.2,3.08.05.13.07.23.26.18,1.39-.31,2.78-.59,4.17-.92,1.26-.3,2.52-.56,3.78-.86.97-.23,1.95-.42,2.93-.62.17-.04.42-.06.38-.32-.07-.44-.04-.89-.07-1.33-.06-.96-.16-1.92-.18-2.87-.01-.57-.11-1.13-.11-1.7,0-.56,0-1.14-.09-1.71-.1-.67-.03-1.36-.13-2.04-.08-.53,0-.58.5-.4.61.21,1.22.47,1.87.49,1.08.03,2.17.02,3.24-.18,2.05-.37,3.9-1.19,5.59-2.38.89-.63,1.71-1.34,2.44-2.15.06-.06.09-.18.2-.16.18,1.04.03,2.08.14,3.11.04.37,0,.39.39.27,2.31-.67,4.59-1.41,6.88-2.16,2.31-.76,4.62-1.55,6.93-2.34,2.11-.72,4.21-1.46,6.31-2.2.21-.07.29-.05.31.18.02.23.01.47.07.68.32,1.13.6,2.27,1.04,3.36.98,2.41,2.39,4.5,4.58,5.98,1.74,1.17,3.66,1.78,5.76,1.87.87.04,1.74.03,2.6-.1,1.86-.28,3.64-.85,5.33-1.68,1.89-.94,3.61-2.13,5.15-3.57.95-.89,1.85-1.83,2.62-2.89.41-.56.81-1.12,1.18-1.71.97-1.57,1.75-3.23,2.31-4.99.08-.24.05-.4-.17-.55-.31-.21-.59-.45-.89-.66-.18-.12-.23-.21-.06-.39.21-.22.4-.46.58-.71.12-.16.21-.19.39-.06.45.34.93.65,1.38,1,.2.15.3.16.44-.07.33-.54.69-1.06,1.05-1.58.12-.17.17-.39.38-.51.21.46.44.92.63,1.39.09.22.2.27.44.21,2.32-.6,4.64-1.18,6.95-1.78.22-.06.34,0,.47.18.48.7,1.02,1.34,1.66,1.9.77.68,1.62,1.19,2.57,1.59.94.4,1.93.42,2.91.5.88.07,1.75-.1,2.6-.32,2.48-.62,4.66-1.83,6.68-3.38.22-.17.39-.2.64-.11,1.23.43,2.51.55,3.79.38,1.2-.16,2.33-.6,3.36-1.26,1.7-1.07,3.01-2.53,4.14-4.17,1.26-1.83,2.23-3.8,3.02-5.88.07-.19.08-.4.2-.59.2-.3.11-.52-.19-.75Z"/><path class="cls-2" d="M14.48,48.99c1.12.34,2.02.95,2.68,1.87,1.05,1.45,1.52,3.08,1.33,4.86-.11,1.01-.71,1.81-1.41,2.52-.89.89-1.95,1.48-3.2,1.72-1.61.32-2.97-.19-4.12-1.27-1.41-1.33-2.06-3.01-2.06-4.93,0-1.29.56-2.36,1.26-3.39.72-1.05,1.72-1.78,2.72-2.51.71-.52,1.52-.9,2.34-1.21.98-.36,2.01-.47,3.07-.32.9.12,1.79-.08,2.62-.48.57-.28,1.08-.65,1.62-.98.43-.27.9-.46,1.4-.46.41,0,.82.06,1.23.11.52.07,1.06.11,1.57.27.63.2,1.22.46,1.66.98.21.25.3.55.43.83.05.1-.03.16-.07.22-.25.48-.59.89-.95,1.28-.77.84-1.67,1.5-2.71,1.97-.33.15-.37.34-.34.65.12,1.03.21,2.06.31,3.09.05.6.04.6.66.54,1.13-.11,2.26-.12,3.38.12.79.17,1.43.52,1.93,1.26.47.7.54,1.44.65,2.19.14.99.22,1.98.3,2.97.08.96.13,1.92.25,2.87.2,1.59.34,3.19.9,4.71.09.24.2.48.34.7.42.68.97.8,1.58.28.3-.25.47-.22.75,0,.73.55.74.54.4,1.37-.58,1.41-1.34,2.71-2.51,3.73-1.03.9-2.24,1.41-3.58,1.61-.78.12-1.58.17-2.36,0-.66-.14-1.28-.38-1.9-.65-.18-.08-.27-.08-.37.12-1.42,2.74-3.59,4.62-6.5,5.64-1.42.5-2.89.7-4.4.68-1.71-.02-3.09-.78-4.33-1.89-.42-.38-.84-.79-1.13-1.24-.76-1.22-1.42-2.51-1.67-3.95-.54-3.12-.28-6.15,1.02-9.07.33-.74.77-1.43,1.31-2.01,1.05-1.13,2.34-1.94,3.79-2.47,1.44-.53,2.94-.8,4.44-1.04,1.01-.16,2.03-.28,3.01-.59.25-.08.5-.17.73-.29.66-.33,1.02-.85.98-1.62-.06-1.08-.06-2.17-.15-3.25-.11-1.42-.15-2.86-.52-4.25,0-.03-.01-.06-.02-.1-.3-1.03-.72-1.99-1.85-2.31-1.28-.36-2.56-.44-3.69.49-.25.2-.51.39-.8.61ZM22.83,67.88c.04-.44-.09-1.04-.08-1.65.02-.89-.19-1.73-.62-2.5-.79-1.43-2.18-1.84-3.61-1.04-1.39.78-2.25,1.99-2.7,3.5-.26.86-.19,1.75-.13,2.63.07,1.07.23,2.11.6,3.12.28.76.67,1.46,1.36,1.93.8.55,1.68.61,2.6.47,1.59-.24,2.57-1.32,2.64-2.85.03-.66-.02-1.32-.05-1.98-.02-.48,0-.97,0-1.63Z"/><path class="cls-2" d="M15.95,7.42c.89.7,1.88,1.15,2.83,1.66.46.25.36.66.46,1.01.03.1-.02.28,0,.41.09.38.03.78.09,1.16.12.77.11,1.56.21,2.33.12.9.1,1.81.23,2.71.07.5.11,1.01.15,1.52.09,1.1.18,2.2.28,3.3.09,1,.2,2.01.3,3.01.11,1.13.21,2.25.34,3.38.11.96.25,1.91.38,2.86.2,1.52.43,3.04.8,4.54.19.76.48,1.47,1.26,1.83.98.45,2.06.18,2.72-.66.28-.36.23-.78.26-1.18.07-.9.01-1.8-.07-2.7-.06-.63-.05-1.27-.13-1.9-.15-1.18-.14-2.37-.31-3.55-.09-.62-.04-1.27-.13-1.89-.11-.77-.08-1.55-.19-2.32-.08-.55-.02-1.13-.08-1.69-.06-.54-.09-1.08-.27-1.6-.37-1.05-1.18-1.59-2.32-1.52-.47.03-.46.03-.5-.44-.02-.33-.05-.65-.08-.98-.01-.13,0-.19.15-.22.71-.14,1.39-.36,2.07-.6,1.18-.41,2.27-.96,3.28-1.68,1.04-.74,1.92-1.63,2.59-2.72.32-.53.32-.53.9-.34.16.05.31.13.47.15.35.05.46.24.38.56-.13.48-.04.97-.04,1.46,0,1.13,0,2.27.06,3.4.01.27-.03.57.13.84.07.11-.11.27-.09.44.04.28.08.56.09.84.04,1.1.19,2.19.38,3.28.31,1.8.62,3.6.94,5.4.22,1.22.47,2.43.68,3.66.17,1,.74,1.62,1.67,1.94.29.1.59.23.91.21.15-.01.17.08.18.2.06.59.15,1.18.18,1.77,0,.17.18.36.01.52-.14.13-.33.15-.51.21-.38.15-.78.28-1.15.45-.25.11-.35.1-.45-.19-.37-1.14-.78-2.26-1.16-3.4-.08-.24-.17-.33-.43-.3-.85.11-1.7.19-2.55.27-.24.02-.22.21-.23.33-.04.35-.04.71-.03,1.06,0,.14-.03.27-.04.41-.06.67-.1,1.34-.14,2.01-.05.87-.09,1.75-.13,2.62,0,.13-.06.19-.16.25-.64.37-1.28.74-1.91,1.12-.24.15-.33-.02-.43-.17-.57-.79-1.13-1.58-1.72-2.41-.09.18-.17.34-.26.49-.56.96-1.27,1.79-2.06,2.57-1.05,1.04-2.2,1.94-3.49,2.67-1.16.65-2.4,1.11-3.73,1.08-1.11-.02-2.13-.44-2.92-1.31-.38-.42-.69-.89-.95-1.4-.49-.99-.96-2.59-1.15-3.97-.12-.83-.31-1.66-.34-2.5-.03-.85-.16-1.68-.2-2.53-.05-.97-.11-1.94-.22-2.91-.04-.35-.07-.71-.08-1.07,0-.23-.03-.44-.11-.66-.06-.17,0-.37-.02-.57-.19-1.77-.45-3.53-1.12-5.2-.32-.8-.77-1.52-1.4-2.1-.7-.64-1.53-.99-2.5-.97-.81.01-.82,0-.88-.79-.05-.57-.04-.56.49-.79,1.08-.47,2.16-.93,3.22-1.43,1.82-.87,3.5-1.96,4.76-3.58.84-1.07,1.51-2.24,2.01-3.5.28-.71.57-1.42.78-2.21Z"/><path class="cls-2" d="M58.33,29.35c0,1.03,0,2.04,0,3.05,0,.1-.04.18-.16.21-1.81.47-3.57,1.08-5.35,1.62-.25.08-.29.05-.31-.22-.09-1.49-.37-2.95-1.12-4.27-.33-.59-.79-1.09-1.37-1.42-.69-.39-.84-.99-.84-1.7,0-1.06-.13-2.12-.18-3.18-.02-.55-.07-1.1-.08-1.65-.02-1.48-.14-2.94-.59-4.36-.12-.38-.28-.73-.51-1.05-.59-.8-1.51-.74-1.97.15-.35.69-.41,1.44-.45,2.19-.05.92.04,1.83.13,2.74.02.14.03.28.04.42.03,1.06.02,2.13.09,3.19.04.59.03,1.17.09,1.76.03.26-.06.35-.3.43-1.96.64-3.74,1.59-5.24,3.03-.46.45-.87.94-1.22,1.48-.11-.05-.06-.14-.06-.2-.01-.77.02-1.55-.03-2.32-.07-1.18-.08-2.36-.24-3.53-.14-.98-.23-1.97-.47-2.93-.29-1.22-.67-2.4-1.34-3.47-.42-.67-.93-1.24-1.62-1.66-.44-.26-.87-.51-1.38-.59-.22-.03-.23-.14-.23-.31,0-.5.03-1,0-1.5-.02-.3.1-.38.36-.43,1.29-.24,2.55-.61,3.79-1.05,1.02-.36,2-.81,2.92-1.38.94-.59,1.82-1.25,2.48-2.16.08-.1.13-.19.29-.1.38.21.78.4,1.11.69.17.15.27.28.14.55-.13.28-.13.62-.17.93-.1.89-.18,1.78-.23,2.71.31-.43.65-.85.92-1.31.08-.14.2-.2.29-.31.4-.51.81-.99,1.23-1.49.67-.8,1.43-1.53,2.25-2.16.84-.64,1.75-1.21,2.85-1.38,1.45-.22,2.82.37,3.5,1.73.24.49.37,1.02.51,1.54.12.44.05.87.07,1.29.12.05.15-.04.19-.09.94-1.43,1.87-2.87,2.93-4.21.72-.91,1.5-1.78,2.52-2.36.37-.21.8-.39,1.32-.28.32.07.7.04,1.03.13.94.24,1.62.83,2.12,1.65.59.97.82,2.06,1,3.16.12.69.13,1.38.13,2.08,0,.08.06.16.11.23.03.05.11.09.06.16-.26.37-.03.76-.03,1.14,0,.55.07,1.1.12,1.65.09,1.04.19,2.07.29,3.11.04.5.1,1,.11,1.5,0,.36.09.72.12,1.08.02.27,0,.55.03.82.1.82.18,1.64.25,2.47.05.54.07,1.1.17,1.64.06.3.11.68.03,1.03-.02.1.01.28.09.43.07.14-.03.4.14.46.14.05.34-.04.51-.08.3-.07.59-.13.88-.22.21-.06.25,0,.27.21.06.73.04,1.46.05,2.19,0,.18-.06.23-.22.29-.5.17-1.04.23-1.53.44-.62.27-1.3.31-1.93.57-.86.36-1.78.52-2.66.86-.52.2-1.09.31-1.61.5-.49.19-1.03.27-1.5.57-.32.2-.7.3-1.07.42-.3.1-.28-.15-.29-.32-.03-.56-.04-1.13-.05-1.69,0-.04,0-.09,0-.13-.06-.32.03-.49.38-.6.56-.18,1.08-.45,1.63-.66.19-.07.26-.18.21-.37-.1-.37-.1-.75-.11-1.12-.02-.59-.11-1.16-.16-1.75-.07-.88-.14-1.77-.24-2.65-.06-.54-.1-1.09-.14-1.64-.04-.46-.04-.92-.12-1.39-.08-.48-.02-.98-.07-1.47-.08-.8-.17-1.59-.29-2.38-.09-.54-.24-1.06-.38-1.58-.19-.7-.49-1.37-.96-1.94-.64-.78-2.06-.73-2.58.25-.31.58-.47,1.19-.56,1.83-.17,1.2-.12,2.41,0,3.61.18,1.87.46,3.73.59,5.6.06.94.23,1.87.26,2.81,0,.09.05.19.06.28.05.47.05.47.53.35.27-.07.54-.13.78-.19Z"/><path class="cls-2" d="M88.07,42.46c-.69.22-1.39.43-2.07.65-1.19.39-2.38.77-3.55,1.22-.19.07-.33.08-.32-.18,0-.04-.04-.08-.04-.12.06-.57-.1-1.12-.06-1.69,0-.09.01-.13.12-.18,2.44-1.19,4.52-2.85,6.19-5,1.63-2.1,2.73-4.46,3.41-7.02.3-1.12.54-2.26.67-3.41.21-1.8.33-3.61.19-5.42-.07-.94-.06-1.89-.31-2.82-.04-.16,0-.3.18-.41,1.1-.66,2.2-1.33,3.29-2,.2-.13.24-.08.25.14.03.89.06,1.77.14,2.66.04.49.11.97.12,1.46.01.53.06,1.07.08,1.6.03.89.13,1.77.19,2.66.05.7.08,1.41.13,2.11.09,1.38.19,2.76.28,4.13.04.67.07,1.34.11,2.01.06.85.13,1.7.19,2.55.02.22.01.44,0,.65-.01.28.07.35.36.26,3.14-1.02,6.29-2.03,9.44-3.03.39-.12.4-.22.4.29,0,1.26,0,2.53,0,3.79,0,.21-.05.33-.26.41-2.12.81-4.28,1.51-6.47,2.14-.92.27-1.86.5-2.78.75-.23.06-.44.05-.41.47.03.45,0,.92,0,1.39-.01.63,0,1.26.02,1.89.02.59.05,1.19.07,1.78.02.71.11,1.42.07,2.15-.02.43.14.9.17,1.35.1,1.39.28,2.76.39,4.15.07.88.26,1.75.39,2.62.23,1.49.52,2.97.89,4.43.21.83.42,1.67.7,2.48.32.95,1.05,1.51,2.06,1.54.8.02,1.47-.27,2.11-.78.61-.49,1.06-1.08,1.48-1.72.09-.13.18-.26.16-.45.48.29.93.57,1.38.84.16.09.21.17.13.36-.65,1.55-1.43,3.02-2.46,4.35-1.02,1.31-2.21,2.42-3.65,3.26-2.03,1.18-4.21,1.73-6.56,1.55-1.08-.09-2.04-.47-2.87-1.18-.93-.8-1.43-1.86-1.81-2.99-.37-1.12-.55-2.28-.66-3.45-.09-.99-.16-1.98-.21-2.98-.09-1.73-.21-3.45-.32-5.18-.06-1.03-.13-2.06-.2-3.08-.06-.84-.14-1.68-.19-2.52-.07-1.09-.12-2.19-.19-3.29-.06-1.06-.13-2.12-.21-3.18-.05-.66-.1-1.33-.16-2.02Z"/><path class="cls-2" d="M45.49,40.84c-.57.39-1.16.72-1.85.87-1.35.29-3.28-.53-4.02-1.8-.64-1.08-.78-2.24-.69-3.46.02-.21.01-.44.02-.66.02-.9.32-1.74.71-2.53,1.17-2.38,3.04-3.97,5.61-4.67,2.91-.8,5.43,1.08,6.22,3.42.14.42.28.86.28,1.31,0,.92-.2,1.78-.73,2.57-.67,1-1.33,2-1.96,3.03-2.49,4.06-4.22,8.43-5.38,13.04-.15.6-.22,1.22-.38,1.81-.32,1.2-.42,2.43-.61,3.64-.14.87-.09,1.75-.06,2.63.13,4.14.25,8.28.37,12.42.06,2.16.13,4.31.2,6.47,0,.24-.05.34-.29.38-.88.15-1.75.31-2.63.49-.22.04-.28-.02-.34-.2-.72-2.26-1.45-4.51-2.17-6.77-.42-1.32-.84-2.63-1.26-3.95-.32-1-.62-2.01-.97-3-.62-1.76-1-3.59-1.63-5.34-.25-.7-.52-1.4-.86-2.06-.07-.13-.11-.28-.26-.35-.18-.09-.05-.27-.12-.4-1.28-2.23-2.99-3.87-5.64-4.28-.61-.09-1.22-.12-1.83-.09-.2.01-.26-.05-.29-.24-.03-.25-.14-.53-.14-.75,0-.45-.08-.89-.08-1.34,0-.13.09-.16.17-.21.64-.39,1.24-.84,1.77-1.39.47-.49,1.01-.91,1.45-1.43,1.27-1.5,2.33-3.12,2.9-5.03.29-.96.36-1.95.4-2.95.04-.82.03-1.64.1-2.46.07-.82.07-1.65.07-2.47,0-.37.07-.73.07-1.1,0-.13.08-.16.19-.17.36-.05.73-.08,1.09-.14.21-.03.28.04.34.23.47,1.49.95,2.98,1.44,4.47.65,2.02,1.31,4.03,1.96,6.05.68,2.12,1.34,4.26,2.05,6.37.23.68.41,1.38.64,2.06.24.7.45,1.4.68,2.1.23.71.46,1.43.69,2.14.03.09.06.18.1.29.93-5.7,2.25-11.26,4.72-16.48,0-.03.02-.07.01-.08-.03-.03-.05,0-.07.03Z"/><path class="cls-2" d="M72.36,40.7c.44-.88.86-1.67,1.32-2.43.52-.87,1.05-1.74,1.64-2.56.4-.56.87-1.08,1.29-1.63.09-.11.2-.09.31-.12.3-.06.6.04.91-.02.79-.16,1.47-.54,2.05-1.09.09-.08.16-.17.3-.13,1.3.35,2.52.86,3.42,1.92.82.97,1.07,2.12,1.18,3.35.07.72-.2,1.19-.76,1.62-.94.71-1.92,1.31-3.07,1.62-.2.05-.24.14-.25.33-.03,1.07.09,2.13.09,3.2,0,.45.04.91.04,1.36,0,.22.07.22.25.15,1.33-.47,2.66-.93,4-1.38.31-.11.41-.05.4.27-.04.69.04,1.37.09,2.04.04.56.04,1.12.08,1.67.05.69.07,1.39.11,2.09.04.85.08,1.7.12,2.55.04.76.12,1.53.11,2.29,0,.24.12.24.28.2.22-.06.44-.12.65-.2.14-.05.19-.05.19.12,0,.85,0,1.7,0,2.55,0,.18-.11.21-.24.24-.99.25-1.98.53-2.96.82-.97.28-1.94.56-2.91.85-1.06.32-2.13.6-3.19.91-.22.06-.25.02-.26-.19-.03-.71-.08-1.42-.13-2.14-.01-.19.06-.26.24-.34.24-.11.5-.16.74-.27.18-.08.2-.17.2-.33.01-1.24-.13-2.47-.15-3.71-.01-.87-.08-1.73-.12-2.6-.07-1.4-.07-2.79-.14-4.19-.05-1.05-.15-2.11-.34-3.14-.09-.51-.1-1.03-.26-1.52-.17-.52-.28-1.05-.5-1.55-.25-.57-.54-1.09-1.11-1.43-.53-.31-1.12-.29-1.57.17-.29.29-.46.66-.59,1.04-.43,1.25-.46,2.56-.51,3.86-.02.65,0,1.3.02,1.94.02.43.03.87.09,1.31.13.93.11,1.87.09,2.8-.01.58.09,1.16.13,1.74.05.65.04,1.3.13,1.95.11.8.12,1.6.21,2.39.09.75.13,1.51.17,2.26.01.22.08.22.25.17.45-.14.9-.26,1.35-.39.21-.06.29-.05.31.22.07.71,0,1.43.12,2.14.04.25-.03.37-.3.45-3.1.92-6.19,1.85-9.28,2.79-.29.09-.36.04-.36-.27,0-.66,0-1.33-.05-1.99-.02-.3.08-.42.36-.5.44-.12.86-.3,1.3-.44.17-.05.23-.13.23-.32-.01-.98-.12-1.95-.19-2.92-.03-.39-.04-.78-.06-1.16-.05-1.01-.13-2.03-.19-3.04-.04-.68-.05-1.36-.15-2.04-.22-1.51-.59-2.97-1.49-4.22-.83-1.15-1.93-1.73-3.38-1.48-.17.03-.22-.05-.22-.22,0-.49.03-.98-.01-1.47-.04-.36-.07-.54.42-.56.65-.03,1.31-.17,1.93-.43.72-.31,1.35-.74,1.95-1.27.99-.89,1.7-1.96,2.22-3.15.35-.78.72-1.57.88-2.43.04-.2.08-.26.33-.23.44.07.89.03,1.34.02.18,0,.27.04.3.24.19,1.25.39,2.51.61,3.86Z"/><path class="cls-2" d="M81.77,28.96c-1.18,1.93-2.64,3.54-4.87,4.23-2.24.69-4.3.1-6.25-1.08.14-.05.28-.1.41-.15.52-.19.55-.19.47-.72-.06-.4-.04-.8-.05-1.2-.02-1.06-.05-2.11-.05-3.17,0-.29-.12-.3-.33-.25-.34.08-.68.14-1.02.22-.15.03-.24.04-.24-.17,0-.8-.04-1.59-.05-2.39,0-.39.16-.75.31-1.08.42-.94.91-1.85,1.63-2.61.42-.44.9-.81,1.42-1.11,1.08-.62,2.26-.87,3.49-1.01.74-.09,1.48-.09,2.22-.26.3-.07.63-.08.93-.2.6-.23.85-.64.85-1.29.01-.88-.29-1.71-.35-2.58-.04-.51-.12-1.02-.17-1.53-.1-.97-.22-1.95-.61-2.85-.44-1.02-1.17-1.51-2.2-1.48-.72.02-1.32.3-1.79.86-.15.18-.16.26.07.4,1.49.98,2.39,2.33,2.22,4.15-.15,1.64-.9,3.04-2.25,4.04-1.22.9-2.6.88-4,.52-1.02-.26-1.75-.89-2.23-1.78-.28-.52-.41-1.12-.45-1.72-.07-1,.05-1.97.41-2.91.61-1.59,1.73-2.77,2.98-3.68.76-.55,1.58-1,2.44-1.39,1.98-.89,4.4-1.48,6.36-1.48,1.71,0,3.26.46,4.45,1.79.78.87,1.24,1.91,1.53,3.03.31,1.16.46,2.34.54,3.54.07,1.1.13,2.2.16,3.3.03.95.01,1.91.03,2.87.02,1.28.14,2.55.56,3.77.14.42.35.79.67,1.1.47.45.79.47,1.32.09.19-.14.3-.45.53-.42.19.03.32.31.52.43.31.19.27.37.13.66-.44.95-.99,1.81-1.68,2.59-1.33,1.49-2.96,2.43-4.97,2.66-.71.08-1.3-.16-1.86-.57-.46-.34-.83-.76-1.24-1.17ZM81.36,24.37c0-.95.07-1.9-.13-2.83-.31-1.41-.86-1.83-2-1.99-1.18-.17-1.96.42-2.4,1.65-.23.64-.33,1.31-.36,1.98-.04.98,0,1.95.12,2.92.12,1.01.62,1.72,1.48,2.2.35.19.73.32,1.17.21.76-.2,1.3-.68,1.75-1.29.27-.37.41-.78.39-1.25-.03-.53,0-1.07,0-1.6Z"/><path class="cls-2" d="M61.1,45.08c0,.6,0,1.2,0,1.8,0,.2.05.26.26.25.91-.05,1.78.16,2.56.61.58.34,1.02.86,1.3,1.5.1.23-.09.21-.19.24-1.4.57-2.8,1.14-4.2,1.71-2.61,1.06-5.22,2.12-7.83,3.17-.23.09-.29.21-.3.45,0,1.15.1,2.28.47,3.37.43,1.28,1.28,2.07,2.65,2.24,1.08.14,2.06-.14,3-.63,1.38-.73,2.42-1.84,3.35-3.06.61-.81,1.14-1.67,1.59-2.58.1-.21.19-.22.39-.12.75.4.76.4.43,1.19-1.27,3.11-2.79,6.07-4.83,8.75-1.16,1.53-2.48,2.9-4.15,3.89-.85.5-1.77.87-2.74.99-1.02.13-2.05,0-3.02-.39-1.11-.44-2.07-1.11-2.88-1.99-1.27-1.38-2.05-3.01-2.5-4.82-.11-.45-.12-.93-.23-1.36-.25-1.05-.12-2.1-.2-3.14-.03-.45.09-.91.12-1.37.03-.37.18-.73.07-1.11-.04-.16.17-.23.19-.42.04-.42.15-.83.24-1.24.28-1.28.58-2.55.98-3.8.31-.96.59-1.93,1.01-2.85.24-.52.44-1.06.7-1.57.22-.45.51-.89.6-1.4.04-.19.25-.26.34-.42.44-.79.93-1.57,1.51-2.25,1.8-2.11,3.93-3.63,6.86-3.55,2.72.08,4.89,1.23,6.49,3.44.42.58.77,1.21,1.04,1.88.07.17.09.26-.14.31-.9.21-1.8.38-2.73.28-.23-.03-.22.05-.22.21,0,.61,0,1.22,0,1.83ZM52.64,51.71c.06.01.07.02.08.02,1.81-.68,3.62-1.37,5.43-2.05.32-.12.55-.29.55-.66,0-.12,0-.24,0-.36-.04-.98-.11-1.95-.1-2.93,0-.76-.08-1.51-.21-2.26-.18-.99-.44-1.95-.96-2.82-.67-1.12-1.82-1.1-2.59-.2-.28.33-.52.68-.69,1.07-.84,1.9-1.36,3.88-1.38,5.97,0,.25,0,.5-.02.75-.08,1.16-.11,2.31-.12,3.47Z"/><path class="cls-2" d="M135.06,34.41c.41.29.8.58,1.21.84,2.06,1.33,2.23,4.75.12,6.37-.91.71-1.93,1.07-3.1,1.14-.6.04-1.16-.03-1.71-.21-.93-.32-1.5-.99-1.81-1.9-.4-1.17-.41-2.38-.11-3.55.32-1.26,1.02-2.34,2-3.23,1.59-1.44,3.48-2.11,5.59-2.24.69-.04,1.37-.12,2.02-.43.72-.34,1.48-.57,2.29-.55,1.3.03,2.56.28,3.63,1.06.83.61,1.39,1.45,1.71,2.44.26.8.38,1.63.38,2.47,0,2.77-.03,5.54.02,8.3.02,1.15.11,2.31.4,3.43.08.33.22.66.43.94.29.37.5.43.95.27.08-.03.18-.03.24-.09.36-.35.69-.13,1.03.04.15.08.18.17.12.31-.29.61-.63,1.18-1.02,1.74-.27.39-.61.71-.94,1.05-.35.36-.76.62-1.18.9-.6.41-1.23.64-1.93.72-.88.1-1.74.04-2.6-.31-.43-.17-.87-.35-1.29-.54-.18-.08-.26.05-.31.14-.45.76-1.1,1.33-1.7,1.95-.14.15-.23.38-.38.46-.21.11-.39.23-.58.37-.94.69-1.98,1.21-3.07,1.61-.27.1-.57.13-.86.18-1.1.2-2.2.31-3.27-.16-1.38-.61-2.21-1.63-2.32-3.17-.01-.17,0-.29.22-.32.65-.09,1.29-.22,1.94-.31.27-.04.26-.26.26-.41.01-1.53,0-3.05,0-4.58,0-.22-.08-.32-.33-.3-.45.03-.89-.01-1.34.01-.32.02-.34-.14-.2-.32.25-.34.35-.75.52-1.12.3-.66.67-1.25,1.11-1.81.4-.51.88-.96,1.38-1.39,1.69-1.47,3.77-1.97,5.87-2.45.34-.08.68-.16,1-.31.3-.14.44-.34.4-.71-.05-.42-.06-.84-.06-1.26,0-.67-.08-1.34-.09-2.02,0-.78,0-1.57-.14-2.33-.31-1.57-1.35-2.32-2.97-1.82-.61.19-1.13.55-1.53,1.08ZM135.92,49.38c.06.31-.04.67.07,1.05.13.44.25.87.49,1.26.39.64,1.02.79,1.72.77.39-.01.77-.08,1.11-.29.96-.6,1.27-1.6,1.48-2.59.18-.85.13-1.75.17-2.63,0-.16.09-.33.06-.47-.09-.49-.04-1.01-.25-1.49-.15-.35-.32-.66-.65-.86-.8-.47-1.63-.36-2.38.07-1.21.69-1.54,1.92-1.74,3.19-.1.65-.07,1.3-.07,2Z"/><path class="cls-2" d="M108.83,37.25c0-1.42,0-2.8,0-4.18,0-.17.09-.18.22-.21.88-.18,1.73-.43,2.54-.81.89-.42,1.74-.9,2.54-1.5,1.04-.78,1.98-1.65,2.76-2.69.12-.16.2-.16.36-.06.57.37,1.14.72,1.72,1.08.12.07.19.15.19.31,0,.53.02,1.07-.05,1.58-.07.54-.04,1.07-.07,1.6-.01.21-.13.25-.27.3-.85.31-1.69.63-2.54.93-.19.07-.26.16-.26.37.03.95.05,1.9.06,2.84,0,.18.05.27.24.32.87.24,1.68.64,2.33,1.25.44.42.83.92.83,1.6,0,.77.12,1.53.15,2.29.02.45.04.92.05,1.38.02.92.06,1.84.12,2.76.08,1.09.1,2.19.22,3.28.07.65-.18.83-.7,1.05-1.11.46-2.08,1.15-2.99,1.95-1,.88-1.84,1.87-2.56,2.98-.12.18-.18.15-.31.02-.36-.38-.7-.78-.98-1.22-.2-.31-.31-.32-.51-.02-.64.97-1.33,1.9-2.09,2.78-.84.96-1.75,1.86-2.82,2.56-.87.58-1.81,1.03-2.88,1-1.38-.04-2.51-.66-3.11-2.06-.39-.91-.59-1.87-.71-2.85-.16-1.32-.18-2.65-.27-3.97-.09-1.38-.08-2.76-.15-4.13-.03-.55-.06-1.11-.06-1.65,0-.61,0-1.23,0-1.85,0-.7-.02-1.39-.03-2.09,0-.03,0-.07,0-.1,0-.19-.2-.4-.03-.55.15-.12.37-.15.57-.21.72-.23,1.45-.45,2.17-.68,1.11-.35,2.21-.69,3.32-1.05.23-.08.27-.03.27.2,0,1.68,0,3.36.03,5.04.01.72.08,1.45.13,2.17.1,1.52.28,3.02.71,4.49.15.51.34,1.01.62,1.47.75,1.22,1.95,1.47,3.13.65.83-.57,1.17-1.43,1.34-2.38.11-.59.12-1.19.11-1.79-.03-2.43.02-4.86.05-7.29.02-1.23-.09-2.45-.48-3.64-.1-.3-.23-.59-.4-.85-.51-.79-1.26-1.01-2.12-.63-.13.06-.25.13-.43.22Z"/><path class="cls-2" d="M128.03,30.32c.43-1.13.91-2.22,1.43-3.29.61-1.26,1.36-2.43,2.16-3.57.67-.95,1.5-1.75,2.4-2.47.57-.45,1.22-.81,1.92-1.04,1.23-.4,2.46-.39,3.68.05,1.59.59,2.52,2.47,2.51,3.75,0,.24.11.49.12.74.05,1.28-.17,2.52-.8,3.62-.73,1.27-1.83,2.13-3.3,2.49-.88.22-1.76.18-2.6-.05-.74-.21-1.35-.69-1.82-1.33-.6-.83-.87-1.78-1.01-2.77-.03-.18-.06-.36-.1-.58-.28.39-.49.79-.7,1.19-.92,1.72-1.7,3.5-2.32,5.35-.38,1.14-.71,2.3-.96,3.48-.4,1.89-.61,3.79-.51,5.71.03.52-.02,1.04.08,1.56.1.51.03,1.03.06,1.54.06.89.15,1.78.18,2.68.02.56.1,1.11.09,1.67,0,.33.06.67.06,1,0,.22.2.19.32.16.25-.08.5-.03.74-.07.17-.02.23.03.23.21,0,.76,0,1.53,0,2.29,0,.19-.1.23-.25.26-1.36.27-2.73.54-4.09.83-1.76.37-3.44.95-5.02,1.79-.05.02-.09.04-.17.08-.01-.34-.1-.64-.08-.95.03-.67-.09-1.33-.08-2,0-.18.05-.22.18-.25.39-.11.75-.3,1.11-.47.09-.04.17-.07.17-.2.05-1.32.06-2.64-.07-3.97-.03-.3.01-.61,0-.92-.05-1.15-.11-2.29-.15-3.44-.04-1.27-.13-2.54-.63-3.74-.4-.95-.94-1.79-1.73-2.46-.51-.44-1.08-.79-1.71-1.03-.16-.06-.22-.14-.21-.31.01-.26.03-.53,0-.78-.04-.34.07-.48.42-.57,1.23-.3,2.41-.74,3.52-1.35,1.54-.84,2.71-2.06,3.57-3.57.52-.92,1.05-1.83,1.46-2.81.04-.11.09-.16.24-.12.37.11.74.26,1.12.34.24.05.23.32.24.5.03.79.22,1.57.2,2.36,0,.16.11.3.1.47Z"/><path class="cls-2" d="M99.71,34.1c.61-.37,1.06-.83,1.56-1.22.53-.41,1.04-.85,1.49-1.36.57-.65,1.22-1.23,1.72-1.93.17-.24.38-.26.57-.14.26.16.56.12.83.2.07.02.15.02.22.04.21.06.33.11.32.42-.02.58-.09,1.16-.08,1.75,0,.18-.07.27-.22.31-.27.07-.52.23-.81.2-.2-.03-.26.18-.43.23-1.6.48-3.2.98-4.79,1.48-.11.03-.21.05-.39.03Z"/><path class="cls-5" d="M188.1,68.59h3.03v1.2h-4.25v4.29h-1.24v-3.18c0-.45-.17-.74-.4-.9-.26-.12-.54-.19-.83-.19h-3.03v-1.21h4.25v-4.28h1.24v4.28h1.22Z"/><polygon class="cls-3" points="165.27 81.91 165.27 80.32 160.35 80.32 160.35 71.11 158.73 71.11 158.73 81.91 165.27 81.91"/><path class="cls-3" d="M184.23,81.91s-1.58-2.58-2.83-4.6c-.05-.08-.1-.16-.16-.23.34-.08.66-.21.96-.39.86-.51,1.3-1.47,1.3-2.54s-.44-2.03-1.3-2.55c-.74-.45-1.64-.49-2.32-.49h-3.87v10.8h1.64v-4.71h1.19c.21,0,.42.07.59.2.23.21.42.46.57.74,1.08,1.77,2.31,3.76,2.31,3.76h1.91ZM181.87,74.16c0,.59-.22.99-.53,1.19-.36.2-.88.25-1.45.25h-2.22v-2.89h2.22c.57,0,1.1.06,1.45.26.29.2.53.59.53,1.19Z"/><path class="cls-3" d="M174.59,80.24l-1.5-1.11c-.71.88-1.57,1.26-2.63,1.26-1.15,0-2.06-.49-2.47-1.13-.35-.51-.49-1.28-.51-1.99h7.03c.02-1.33.11-3.09-.64-4.26-.82-1.24-2.08-1.9-3.61-1.9-1.68,0-3.03.64-3.87,1.9-.73,1.13-.82,2.52-.82,3.62,0,.99.07,2.5.82,3.62.82,1.24,2.32,1.97,4.07,1.95,1.59,0,3.01-.58,4.13-1.97ZM172.62,75.47h-5.1c.2-1.55.99-2.54,2.74-2.54.91,0,1.55.35,2.01,1.08.18.27.31.86.35,1.46Z"/><path class="cls-4" d="M160.35,84.41c0-.22-.1-.43-.28-.55-.15-.08-.32-.12-.49-.11h-.86v2.24h.34v-.93h.51c.17,0,.34-.03.49-.11.18-.12.29-.33.28-.54ZM160.01,84.41c0,.1-.04.2-.12.26-.1.05-.21.07-.32.06h-.51v-.64h.51c.11,0,.22.01.32.06.08.06.13.16.12.27Z"/><polygon class="cls-4" points="162.03 85.99 162.03 85.66 161.01 85.66 161.01 83.75 160.68 83.75 160.68 85.99 162.03 85.99"/><path class="cls-4" d="M164.25,85.99l-.89-2.24h-.32l-.89,2.24h.36l.25-.63h.87l.25.63h.37ZM163.51,85.04h-.61l.31-.77.31.77Z"/><polygon class="cls-4" points="166.11 85.99 166.11 83.75 165.77 83.75 165.77 85.3 164.82 83.75 164.51 83.75 164.51 85.99 164.85 85.99 164.85 84.44 165.8 85.99 166.11 85.99"/><path class="cls-4" d="M168.32,84.87c0-.34-.05-.56-.18-.76-.16-.25-.44-.39-.74-.39-.3,0-.58.14-.74.39-.13.2-.18.42-.18.76s.05.56.18.76c.16.25.44.4.74.39.3,0,.58-.14.74-.39.13-.2.18-.42.18-.76ZM167.98,84.87c0,.29-.04.44-.12.58-.18.25-.53.31-.78.13-.05-.04-.09-.08-.13-.13-.09-.13-.12-.29-.12-.58s.04-.45.12-.58c.18-.25.53-.31.78-.13.05.04.09.08.13.13.09.13.13.29.13.58h0Z"/><polygon class="cls-4" points="171.24 85.99 171.24 83.75 170.91 83.75 170.91 85.3 169.95 83.75 169.64 83.75 169.64 85.99 169.98 85.99 169.98 84.44 170.93 85.99 171.24 85.99"/><path class="cls-4" d="M173.59,85.99l-.89-2.24h-.32l-.89,2.24h.37l.25-.63h.87l.25.63h.37ZM172.85,85.04h-.61l.3-.77.31.77Z"/><path class="cls-4" d="M175.34,84.15c-.28-.32-.47-.43-.77-.43-.3,0-.58.14-.74.39-.13.2-.18.42-.18.76s.05.56.18.76c.16.25.44.4.74.39.3,0,.49-.1.77-.43l-.26-.22c-.22.26-.32.31-.51.31-.18,0-.35-.08-.45-.23-.09-.13-.12-.29-.12-.58s.04-.45.12-.58c.1-.15.27-.24.45-.23.18,0,.29.04.51.31l.26-.22Z"/><rect class="cls-6" x="175.72" y="83.75" width=".35" height="2.24"/><path class="cls-4" d="M178.29,84.87c0-.34-.05-.56-.18-.76-.16-.25-.44-.39-.74-.39-.3,0-.58.14-.74.39-.13.2-.18.42-.18.76s.05.56.18.76c.16.25.44.4.74.39.3,0,.58-.14.74-.39.13-.2.18-.42.18-.76ZM177.95,84.87c0,.29-.04.44-.12.58-.18.25-.53.31-.78.13-.05-.04-.09-.08-.13-.13-.09-.13-.12-.29-.12-.58s.04-.45.12-.58c.18-.25.53-.31.78-.13.05.04.09.08.13.13.09.13.12.29.12.58Z"/><polygon class="cls-4" points="180.26 85.99 180.26 83.75 179.92 83.75 179.92 85.3 178.97 83.75 178.66 83.75 178.66 85.99 178.99 85.99 178.99 84.44 179.95 85.99 180.26 85.99"/><path class="cls-4" d="M182.61,85.99l-.89-2.24h-.32l-.89,2.24h.37l.25-.63h.87l.25.63h.37ZM181.87,85.04h-.61l.3-.77.31.77Z"/><polygon class="cls-4" points="184.22 85.99 184.22 85.66 183.2 85.66 183.2 83.75 182.86 83.75 182.86 85.99 184.22 85.99"/><path class="cls-4" d="M160.39,87.93c0-.18-.02-.41-.03-.49-.07-.55-.49-.63-.93-.63h-.71v2.23h.71c.44,0,.86-.08.93-.63,0-.07.03-.31.03-.48ZM160.05,87.93c0,.15,0,.3-.02.44-.02.16-.08.24-.16.28-.14.05-.29.07-.44.06h-.37v-1.58h.37c.15,0,.3.02.44.07.08.04.13.11.16.28.01.15.02.3.02.45Z"/><polygon class="cls-4" points="163.31 89.04 163.31 88.71 162.15 88.71 162.15 88.04 163.16 88.04 163.16 87.71 162.15 87.71 162.15 87.13 163.31 87.13 163.31 86.8 161.82 86.8 161.82 89.04 163.31 89.04"/><polygon class="cls-4" points="167.33 89.04 167.33 88.71 166.31 88.71 166.31 86.8 165.97 86.8 165.97 89.04 167.33 89.04"/><polygon class="cls-4" points="170.11 89.04 170.11 88.71 168.96 88.71 168.96 88.04 169.97 88.04 169.97 87.71 168.96 87.71 168.96 87.13 170.11 87.13 170.11 86.8 168.63 86.8 168.63 89.04 170.11 89.04"/><rect class="cls-6" x="171.54" y="86.8" width=".35" height="2.24"/><polygon class="cls-4" points="174.9 87.13 174.9 86.8 173.22 86.8 173.22 87.13 173.89 87.13 173.89 89.04 174.23 89.04 174.23 87.13 174.9 87.13"/><path class="cls-4" d="M177.87,88.07v-1.26h-.34v1.26c.01.16-.02.33-.09.48-.09.13-.25.21-.41.2-.16.01-.32-.06-.41-.2-.07-.15-.1-.31-.09-.47v-1.26h-.34v1.26c-.01.22.04.45.14.64.15.24.42.37.7.36.28.01.55-.13.7-.36.1-.2.15-.42.14-.64Z"/><path class="cls-4" d="M181.05,89.04s-.33-.54-.59-.95c0-.02-.02-.03-.03-.05.07-.02.14-.04.2-.08.18-.12.28-.32.27-.53,0-.21-.09-.41-.27-.53-.15-.08-.31-.11-.48-.1h-.8v2.24h.34v-.98h.25s.09.01.12.04c.05.04.09.1.12.15l.48.78h.38ZM180.56,87.43c0,.1-.03.19-.11.25-.09.04-.2.06-.3.05h-.46v-.6h.46c.1,0,.21.01.3.06.08.06.12.15.11.25h0Z"/><path class="cls-4" d="M184.25,89.04l-.89-2.24h-.32l-.89,2.24h.37l.25-.63h.87l.25.63h.37ZM183.51,88.09h-.61l.3-.77.31.77Z"/><path class="cls-6" d="M188.61,86.6v2.44h2.44v-2.44h-2.44ZM190.45,87.12c-.44.39-.72.93-.78,1.52h-.18c.05-.57.26-.99.79-1.52h-1.04v-.15h1.21s0,.15,0,.15Z"/><path class="cls-6" d="M185.79,86.6v2.44h2.44v-2.44h-2.44ZM187.52,88.51v.14h-1.24c.02-.51.59-.63.91-.91.1-.07.16-.19.16-.32,0-.22-.19-.35-.42-.35-.31,0-.43.22-.43.47h-.17c0-.35.2-.6.61-.59.33,0,.58.17.58.48,0,.28-.23.46-.48.6-.18.11-.52.26-.57.48h1.04Z"/><path class="cls-6" d="M188.61,83.78v1.82c0,.34.28.62.62.62h1.82v-2.43h-2.43ZM189.83,85.8c-.55,0-.65-.48-.65-.87s.12-.87.66-.87.65.48.65.87-.12.87-.66.87h0Z"/><path class="cls-6" d="M189.85,84.19c-.43,0-.49.45-.49.74s.05.74.48.74.49-.45.49-.74-.05-.74-.48-.74Z"/><path class="cls-6" d="M185.79,83.78v2.44h2.44v-2.44h-2.44ZM187.52,85.64v.14h-1.24c.02-.51.59-.63.91-.91.1-.07.16-.19.16-.32,0-.22-.19-.35-.42-.35-.31,0-.43.22-.43.47h-.17c0-.35.2-.6.61-.59.33,0,.58.17.58.48,0,.28-.23.46-.48.6-.18.11-.52.26-.57.48h1.04Z"/><path class="cls-1" d="M55.19,89.12c-.6,0-1.14-.12-1.6-.36-.46-.24-.83-.57-1.09-1-.26-.43-.4-.92-.4-1.47s.13-1.03.39-1.45c.26-.42.61-.76,1.05-1s.95-.37,1.51-.37,1.03.12,1.45.35c.42.23.75.55.99.96.24.41.36.87.36,1.4,0,.11,0,.22-.02.34-.01.11-.04.24-.07.39l-4.76.02v-1.24l4-.03-.86.54c0-.3-.05-.55-.13-.74-.08-.19-.2-.34-.35-.45-.15-.1-.35-.15-.58-.15s-.45.06-.63.18c-.18.12-.31.28-.41.5s-.14.47-.14.77.05.57.15.79c.1.22.25.38.44.49.19.11.43.17.71.17.26,0,.5-.04.7-.13.2-.09.38-.22.55-.41l1,1c-.26.3-.59.53-.97.68-.38.15-.81.23-1.29.23Z"/><path class="cls-1" d="M64.16,89.12c-.58,0-1.1-.12-1.55-.37-.45-.25-.81-.59-1.08-1.02-.26-.43-.4-.91-.4-1.45s.13-1.02.39-1.44c.26-.42.62-.76,1.08-1s.97-.37,1.55-.37,1.09.12,1.54.37.81.58,1.08,1c.27.42.4.9.4,1.44s-.13,1.02-.39,1.45c-.26.43-.62.77-1.07,1.02-.45.25-.97.37-1.54.37ZM64.15,87.41c.21,0,.4-.05.56-.14.16-.09.28-.22.37-.39.09-.17.13-.36.13-.58s-.05-.41-.14-.58c-.09-.17-.22-.29-.37-.39-.15-.09-.34-.14-.55-.14s-.39.05-.55.14c-.16.1-.29.23-.38.39s-.13.36-.13.58.04.4.13.57c.09.17.21.3.38.39s.35.14.55.14Z"/><path class="cls-1" d="M70.84,89.12c-.51,0-.96-.1-1.35-.3-.39-.2-.7-.49-.93-.85-.22-.36-.34-.78-.34-1.24v-3.12h1.92v3.12c0,.15.03.28.09.39.06.11.14.19.24.25.1.06.22.09.36.09.21,0,.37-.07.5-.2.13-.13.19-.31.19-.53v-3.12h1.92v3.12c0,.47-.11.89-.33,1.25s-.53.64-.92.84c-.39.2-.85.3-1.36.3Z"/><path class="cls-1" d="M74.43,85.2v-1.6h4.3v1.6h-4.3ZM75.62,89v-7.63h1.92v7.63h-1.92Z"/><path class="cls-1" d="M79.85,89v-5.4h1.92v5.4h-1.92ZM81.77,86.06l-.86-.73c.21-.61.5-1.07.85-1.38.35-.31.81-.46,1.38-.46.26,0,.48.03.67.1.19.07.35.17.48.31l-1.12,1.49c-.06-.07-.14-.12-.25-.16-.11-.04-.23-.06-.36-.06-.25,0-.45.08-.58.23-.14.15-.21.37-.21.67Z"/><path class="cls-1" d="M87.21,89.11c-.5,0-.95-.12-1.34-.36-.39-.24-.7-.58-.92-1-.22-.42-.33-.9-.33-1.44s.11-1.03.33-1.46.53-.76.92-1c.39-.24.84-.36,1.34-.36.34,0,.65.06.93.18.28.12.51.29.69.51.18.22.29.47.33.75v2.72c-.04.29-.15.54-.33.76-.18.22-.41.39-.69.51-.28.13-.59.19-.93.19ZM87.62,87.39c.32,0,.57-.1.77-.31.19-.21.29-.47.29-.8,0-.21-.04-.4-.13-.56-.09-.16-.21-.29-.37-.39-.16-.1-.34-.14-.55-.14s-.39.05-.55.14c-.16.1-.28.23-.38.39-.09.17-.14.35-.14.56s.04.4.13.57c.09.17.21.3.38.39.16.1.34.14.54.14ZM88.6,89v-1.45l.28-1.32-.28-1.3v-1.32h1.89v5.4h-1.89Z"/><path class="cls-1" d="M94.11,89.15c-.33,0-.66-.04-.98-.13-.32-.09-.62-.21-.89-.36-.28-.15-.51-.33-.7-.52l1.05-1.07c.18.18.39.33.63.43.25.1.51.15.79.15.16,0,.29-.02.37-.07.08-.04.13-.11.13-.19,0-.12-.06-.21-.18-.27s-.28-.12-.47-.17c-.2-.05-.4-.11-.61-.18s-.42-.16-.62-.28c-.2-.12-.36-.28-.48-.5s-.18-.49-.18-.82.09-.65.28-.91c.19-.26.45-.47.79-.62s.74-.23,1.19-.23.91.08,1.32.24c.42.16.76.4,1.02.71l-1.06,1.07c-.18-.2-.37-.34-.59-.41s-.41-.12-.58-.12-.29.02-.36.07c-.07.05-.11.11-.11.19,0,.1.06.17.18.23s.28.11.47.16c.19.05.4.11.61.18.21.07.41.17.61.3.19.13.35.3.47.51.12.21.18.49.18.83,0,.54-.21.96-.62,1.27-.41.31-.96.47-1.66.47Z"/><path class="cls-1" d="M102.85,89.12c-.57,0-1.09-.12-1.55-.36-.46-.24-.82-.58-1.09-1-.26-.43-.4-.91-.4-1.45s.13-1.03.4-1.46c.27-.43.63-.76,1.09-1.01s.98-.37,1.56-.37c.42,0,.8.07,1.15.21.35.14.66.35.95.63l-1.21,1.21c-.11-.11-.24-.19-.38-.25-.14-.05-.31-.08-.5-.08-.21,0-.39.05-.56.14-.17.09-.3.22-.4.38-.1.16-.15.36-.15.58s.05.41.15.58c.1.17.23.3.4.39.17.1.35.14.56.14s.38-.03.53-.1c.15-.07.28-.16.39-.29l1.23,1.21c-.3.29-.63.51-.98.66-.35.15-.75.22-1.19.22Z"/><path class="cls-1" d="M108.67,89.12c-.58,0-1.1-.12-1.55-.37-.45-.25-.81-.59-1.08-1.02-.26-.43-.4-.91-.4-1.45s.13-1.02.39-1.44c.26-.42.62-.76,1.08-1s.97-.37,1.55-.37,1.09.12,1.54.37.81.58,1.08,1c.27.42.4.9.4,1.44s-.13,1.02-.39,1.45c-.26.43-.62.77-1.07,1.02-.45.25-.97.37-1.54.37ZM108.66,87.41c.21,0,.4-.05.56-.14.16-.09.28-.22.37-.39.09-.17.13-.36.13-.58s-.05-.41-.14-.58c-.09-.17-.22-.29-.37-.39-.15-.09-.34-.14-.55-.14s-.39.05-.55.14c-.16.1-.29.23-.38.39s-.13.36-.13.58.04.4.13.57c.09.17.21.3.38.39s.35.14.55.14Z"/><path class="cls-1" d="M112.87,89v-8.05h1.92v8.05h-1.92Z"/><path class="cls-1" d="M119.09,89.12c-.6,0-1.14-.12-1.6-.36-.46-.24-.83-.57-1.09-1-.26-.43-.4-.92-.4-1.47s.13-1.03.39-1.45c.26-.42.61-.76,1.05-1s.95-.37,1.51-.37,1.03.12,1.45.35c.42.23.75.55.99.96.24.41.36.87.36,1.4,0,.11,0,.22-.02.34-.01.11-.04.24-.07.39l-4.76.02v-1.24l4-.03-.86.54c0-.3-.05-.55-.13-.74-.08-.19-.2-.34-.35-.45-.15-.1-.35-.15-.58-.15s-.45.06-.63.18c-.18.12-.31.28-.41.5s-.14.47-.14.77.05.57.15.79c.1.22.25.38.44.49.19.11.43.17.71.17.26,0,.5-.04.7-.13.2-.09.38-.22.55-.41l1,1c-.26.3-.59.53-.97.68-.38.15-.81.23-1.29.23Z"/><path class="cls-1" d="M125.59,89.12c-.57,0-1.09-.12-1.55-.36-.46-.24-.82-.58-1.09-1-.26-.43-.4-.91-.4-1.45s.13-1.03.4-1.46c.27-.43.63-.76,1.09-1.01s.98-.37,1.56-.37c.42,0,.8.07,1.15.21.35.14.66.35.95.63l-1.21,1.21c-.11-.11-.24-.19-.38-.25-.14-.05-.31-.08-.5-.08-.21,0-.39.05-.56.14-.17.09-.3.22-.4.38-.1.16-.15.36-.15.58s.05.41.15.58c.1.17.23.3.4.39.17.1.35.14.56.14s.38-.03.53-.1c.15-.07.28-.16.39-.29l1.23,1.21c-.3.29-.63.51-.98.66-.35.15-.75.22-1.19.22ZM125.15,91.39c-.31,0-.57-.03-.77-.1-.21-.07-.42-.16-.64-.29l.54-.72c.1.07.21.12.32.15s.22.06.34.06c.14,0,.24-.02.29-.06.06-.04.08-.09.08-.16s-.04-.12-.12-.17c-.08-.04-.2-.07-.37-.07h-.24l.36-1.18h.99l-.31.82-.51-.43c.51,0,.89.1,1.16.29.26.19.4.45.4.78s-.14.56-.42.77c-.28.2-.65.3-1.12.3Z"/><path class="cls-1" d="M131.41,89.12c-.58,0-1.1-.12-1.55-.37-.45-.25-.81-.59-1.08-1.02-.26-.43-.4-.91-.4-1.45s.13-1.02.39-1.44c.26-.42.62-.76,1.08-1s.97-.37,1.55-.37,1.09.12,1.54.37.81.58,1.08,1c.27.42.4.9.4,1.44s-.13,1.02-.39,1.45c-.26.43-.62.77-1.07,1.02-.45.25-.97.37-1.54.37ZM132.21,83.06c-.24,0-.44-.04-.61-.12-.17-.08-.33-.16-.48-.24-.15-.08-.3-.12-.46-.12s-.31.04-.44.11-.23.18-.34.34l-.87-.88c.21-.35.44-.61.69-.76.25-.15.55-.23.88-.23.24,0,.44.04.61.12.17.08.33.16.48.24.15.08.3.12.45.12.18,0,.33-.04.45-.11.12-.07.23-.18.33-.33l.87.87c-.21.35-.43.61-.68.77-.25.16-.54.24-.87.24ZM131.4,87.41c.21,0,.4-.05.56-.14.16-.09.28-.22.37-.39.09-.17.13-.36.13-.58s-.05-.41-.14-.58c-.09-.17-.22-.29-.37-.39-.15-.09-.34-.14-.55-.14s-.39.05-.55.14c-.16.1-.29.23-.38.39s-.13.36-.13.58.04.4.13.57c.09.17.21.3.38.39s.35.14.55.14Z"/><path class="cls-1" d="M138.34,89.12c-.6,0-1.14-.12-1.6-.36-.46-.24-.83-.57-1.09-1-.26-.43-.4-.92-.4-1.47s.13-1.03.39-1.45c.26-.42.61-.76,1.05-1s.95-.37,1.51-.37,1.03.12,1.45.35c.42.23.75.55.99.96.24.41.36.87.36,1.4,0,.11,0,.22-.02.34-.01.11-.04.24-.07.39l-4.76.02v-1.24l4-.03-.86.54c0-.3-.05-.55-.13-.74-.08-.19-.2-.34-.35-.45-.15-.1-.35-.15-.58-.15s-.45.06-.63.18c-.18.12-.31.28-.41.5s-.14.47-.14.77.05.57.15.79c.1.22.25.38.44.49.19.11.43.17.71.17.26,0,.5-.04.7-.13.2-.09.38-.22.55-.41l1,1c-.26.3-.59.53-.97.68-.38.15-.81.23-1.29.23Z"/><path class="cls-1" d="M144.22,89.15c-.33,0-.66-.04-.98-.13-.32-.09-.62-.21-.89-.36-.28-.15-.51-.33-.7-.52l1.05-1.07c.18.18.39.33.63.43.25.1.51.15.79.15.16,0,.29-.02.37-.07.08-.04.13-.11.13-.19,0-.12-.06-.21-.18-.27s-.28-.12-.47-.17c-.2-.05-.4-.11-.61-.18s-.42-.16-.62-.28c-.2-.12-.36-.28-.48-.5s-.18-.49-.18-.82.09-.65.28-.91c.19-.26.45-.47.79-.62s.74-.23,1.19-.23.91.08,1.32.24c.42.16.76.4,1.02.71l-1.06,1.07c-.18-.2-.37-.34-.59-.41s-.41-.12-.58-.12-.29.02-.36.07c-.07.05-.11.11-.11.19,0,.1.06.17.18.23s.28.11.47.16c.19.05.4.11.61.18.21.07.41.17.61.3.19.13.35.3.47.51.12.21.18.49.18.83,0,.54-.21.96-.62,1.27-.41.31-.96.47-1.66.47Z"/><path class="cls-1" d="M148.88,89.12c-.32,0-.58-.11-.79-.32s-.31-.48-.31-.8.1-.58.31-.79.47-.32.79-.32.58.11.78.32.31.48.31.79-.1.58-.31.8-.47.32-.78.32ZM148.16,86.02l-.33-5.07h2.1l-.33,5.07h-1.43Z"/></g></svg>