<?xml version="1.0" encoding="UTF-8"?><svg id="Layer_2" xmlns="http://www.w3.org/2000/svg" viewBox="0 0 91.55 244.75"><defs><style>.cls-1{fill:#000;}.cls-1,.cls-2,.cls-3,.cls-4,.cls-5,.cls-6,.cls-7,.cls-8,.cls-9,.cls-10{stroke-width:0px;}.cls-2{fill:#ddbc38;}.cls-3{fill:#666c4d;}.cls-11{fill:none;stroke:#000;stroke-linecap:round;stroke-linejoin:round;stroke-width:.9px;}.cls-4{fill:#8e984a;}.cls-5{fill:#d7d7c3;}.cls-6{fill:#8a9278;}.cls-7{fill:#511f31;}.cls-8{fill:#9b2f4e;}.cls-9{fill:#fff;}.cls-10{fill:#e9d7bd;}</style></defs><g id="Layer_1-2"><path class="cls-3" d="M31.42,230.77c-4.17,4.85,3.74,9.54,7.73,9.96,5.56.58,11.45-.89,16.56-2.9,2.3-.9,7.29-2.15,6.72-5.44-.3-1.76-2.06-3.63-3.67-4.42-3.35-1.64-9.99-.35-12.54,2.15-2.15-1.97-3.85-3.09-6.97-2.58-1.43.23-2.97.6-4.31,1.2-1.1.49-2.71,1.09-3.52,2.03"/><path class="cls-6" d="M36.96,225.93c-2.49.32-3.16,2.6-3.68,4.7-.2.82-.77,2.35-.26,3.16.53.85,2.87,1.33,3.81,1.4,3.09.22,2.35-2.05,2.57-4.19.11-1.12.23-2.32.51-3.42.37-1.47.27-2.38-1.78-2.28-.79.04-1.46.42-2.18.76"/><path class="cls-6" d="M53.69,225.29c-.76-1.02-2.1-.31-2.41.63-.32.97-.04,2.09.13,3.04.2,1.15.57,2.17.75,3.3.13.79.1,2.42.48,3.07.92,1.59,7.67,1.05,7.63-1.04-.02-.93-1.4-2.39-1.81-3.27-.49-1.04-.53-2.12-.88-3.16-.57-1.7-2.86-3.44-4.66-2.69"/><path class="cls-2" d="M33.99,39.49s-13.16,9.38-13.33,10.2c-.16.82-.33,2.14-.33,2.14,0,0-8.39,15.63-10.04,18.26-1.65,2.63-5.43,11.68-5.76,14.81-.14,1.31,0,2.63,0,2.63,0,0-2.42,4.11-3.45,7.07-1.15,3.29-.66,10.86.82,12.5,1.48,1.65,10.36,12.83,11.35,13.33.99.49.16,2.8.16,2.8,0,0,2.14,1.64,2.96,2.3.82.66,1.48,33.07,1.65,33.56.16.49.66.99,2.63,1.48,1.97.49,5.1.16,5.1.16l.16-2.96s17.27-2.63,18.92-2.47,21.88.66,21.88.66l.16,3.62s2.98-.94,5.43-1.48c2.96-.66,3.13-2.3,3.13-2.3l-.33-39.16s1.93-.24,2.47-.49c3.13-1.48,11.8-12.22,12.67-13.33,1.15-1.48,1.15-6.58-.16-10.04-.84-2.2-6.42-20.07-6.74-22.21-.33-2.14-.49-5.76-1.32-7.57-.82-1.81-.66-3.45-1.32-4.44-.66-.99-.99-1.97-.99-1.97,0,0,0-1.15-.49-2.14-.49-.99-1.31-5.1-3.29-6.58-1.98-1.48-9.21-4.77-11.52-6.09-2.3-1.32-5.1-3.29-5.1-3.29"/><path class="cls-4" d="M39.66,33.21s-1.19,15.55-.35,18.77,6.51,21.01,6.51,21.01c0,0,6.86-15.76,7.98-16.67,1.12-.91,1.96-7.28,1.96-8.68s-3.08-14.99-3.08-14.99l-13.03.56Z"/><path class="cls-10" d="M34.38,15.23c.7-6.82,5.08-11.09,9.2-11.5,8.63-.86,14.06,11.55,12.51,19.99-1.58,8.63-4.89,15.1-9.49,15.24-3.75.12-10.21-7.19-10.35-16.97-.03-1.85-2.35-3.16-2.16-5.03"/><path class="cls-2" d="M39.62,33.67s-1.46,13.49-.3,19.13c.96,4.63,6.02,19.23,6.21,20,.19.78,0,1.55,0,1.55,0,0-9.32-6.02-11.46-9.13-2.14-3.11-5.24-9.71-5.24-9.71l6.21-4.08-5.83-.19s4.08-9.13,5.24-12.04,4.05-7.03,4.05-7.03"/><path class="cls-2" d="M53.1,34.08s3.31,10.56,2.54,15.22c-.78,4.66-3.11,9.52-3.88,10.68-.78,1.17-5.44,10.1-5.83,12.23l-.39,2.14s3.88-3.69,5.63-4.86c1.75-1.17,9.32-7.96,10.68-9.52,1.36-1.55,2.72-3.3,2.72-3.3,0,0-6.02-4.27-5.82-5.05.19-.78,5.44-3.5,5.44-3.5,0,0-7.72-15.93-9.86-17.49"/><path class="cls-9" d="M14.57,76.17l-1.32.33c-1.32.33-1.81,0-1.81,0l-.16-.99.82,20.73s-.17,4.11,4.11,2.96"/><path class="cls-9" d="M18.85,71.57s-.33.66-1.65.66-2.3-.82-2.3-.82v-.66l1.48,30.27s.33,2.15,1.65,2.3c2.8.33,2.14-3.13,2.14-3.13l-.99-29.61-.33.99Z"/><path class="cls-9" d="M19.67,72.39s.82,1.15,2.3.99c1.48-.16,2.47-1.32,2.47-1.32l.16-.49.49,27.97s-.16,2.14-2.3,2.14c-1.32,0-2.63-1.48-2.63-1.48"/><path class="cls-8" d="M25.77,157.8s.09-.01.15-.03h0c-.07.01-.11.02-.15.03"/><path class="cls-8" d="M25.77,157.8c-.13.02-.14.02,0,0"/><path class="cls-8" d="M65.74,193.47c.82-4.28.75-37.63.75-37.63l-18.5-.51-2.93-.1c-3.8.19-16.76,2.15-19.13,2.54,0,.01,1.65,23.85,1.48,26.81-.16,2.96-.66,6.09-.82,13-.16,6.91,1.97,7.24,2.96,8.72.99,1.48-.49.99-.99,2.14-.49,1.15.16,1.81.99,2.63s-.82,1.32-1.15,3.62c-.33,2.3,3.46,5.43,3.95,7.07.49,1.64-2.63,7.4-2.63,9.05s.49,1.15,1.81-.16c1.32-1.32,5.92-3.78,9.38-3.62,3.45.16,5.26,3.29,5.26,3.29,0,0,1.97-1.48,4.61-2.47,2.63-.99,4.94-.49,7.57.33,3.33,1.04,3.62,3.95,3.62,3.45s-.16-3.95-.82-5.26c-.66-1.32-.33-1.97-.16-4.11.16-2.14-1.97-1.97-1.97-3.78s1.48-1.32,1.81-2.63c.33-1.32-1.48-2.63-.99-4.94.49-2.3,5.1-13.16,5.92-17.44"/><path class="cls-5" d="M45.83,241.18v3.12l-19.08-.16-.33-3.45s1.25-3.21,2.96-4.61c2.63-2.14,4.3-2.31,6.91-2.63,3.95-.49,7.24,2.3,8.23,3.95.99,1.64,1.32,3.78,1.32,3.78"/><path class="cls-5" d="M66.4,240.85v3.13l-19.91.16-.33-3.45s1.25-3.21,2.96-4.61c2.63-2.14,5.78-2.47,8.39-2.8,3.95-.49,6.58,2.14,7.57,3.78.99,1.65,1.32,3.78,1.32,3.78"/><path class="cls-7" d="M24.92,99.82c-1.6.37-2.87.63-4.42.27-.08.65,1.74,1.81,2.39,1.88,1.05.12,2.34-1.21,2.15-2.28"/><path class="cls-1" d="M26.18,160.91c1.68-4.4-4.08-2.89-6.18-1.87-2.17,1.05.17,1.64,1.49,1.97,1.45.35,3.44.48,4.69-.1"/><path class="cls-1" d="M68.15,155.66c-2.42-.05-1.14,1.12-1.41,2.46-.41,2.06,1.59.9,2.92.61,1.34-.3,5.72-1.08,5.43-3.12-2.13-.12-4.3-.02-6.44-.02"/><path class="cls-1" d="M56.09,22.13s-.14-4.6-3.6-7.48c-3.45-2.88-7.91-2.3-10.5-4.17-2.59-1.87-4.89-3.88-4.89-3.88,0,0,.15-4.49,5.75-5.9,5.18-1.29,10.64,2.44,12.8,6.76,2.07,4.15.43,14.67.43,14.67"/><path class="cls-11" d="M56.09,22.13s-.14-4.6-3.6-7.48c-3.45-2.88-7.91-2.3-10.5-4.17-2.59-1.87-4.89-3.88-4.89-3.88,0,0,.15-4.49,5.75-5.9,5.18-1.29,10.64,2.44,12.8,6.76,2.07,4.15.43,14.67.43,14.67Z"/><path class="cls-1" d="M35.53,19.98s-.65-3.16.79-4.17c1.44-1.01,2.01-4.46,2.01-6.18s-.29-3.02-.29-3.02c0,0-2.79-.18-3.74,1.58-3.09,5.75,1.23,11.79,1.23,11.79"/><path class="cls-11" d="M35.53,19.98s-.65-3.16.79-4.17c1.44-1.01,2.01-4.46,2.01-6.18s-.29-3.02-.29-3.02c0,0-2.79-.18-3.74,1.58-3.09,5.75,1.23,11.79,1.23,11.79Z"/><path class="cls-11" d="M34.38,15.23c.7-6.82,5.08-11.09,9.2-11.5,8.63-.86,14.06,11.55,12.51,19.99-1.58,8.63-4.89,15.1-9.49,15.24-3.75.12-10.21-7.19-10.35-16.97-.03-1.85-2.35-3.16-2.16-5.03"/><path class="cls-9" d="M56.62,24.61c0,1.16-.87,2.09-1.95,2.09h-5.35c-1.08,0-1.95-.94-1.95-2.09v-2.66c0-1.16.87-2.09,1.95-2.09h5.35c1.08,0,1.95.94,1.95,2.09v2.66Z"/><path class="cls-11" d="M56.62,24.61c0,1.16-.87,2.09-1.95,2.09h-5.35c-1.08,0-1.95-.94-1.95-2.09v-2.66c0-1.16.87-2.09,1.95-2.09h5.35c1.08,0,1.95.94,1.95,2.09v2.66Z"/><path class="cls-9" d="M43.89,24.61c0,1.16-.88,2.09-1.98,2.09h-5.43c-1.09,0-1.98-.94-1.98-2.09v-2.66c0-1.16.88-2.09,1.98-2.09h5.43c1.09,0,1.98.94,1.98,2.09v2.66Z"/><path class="cls-11" d="M43.89,24.61c0,1.16-.88,2.09-1.98,2.09h-5.43c-1.09,0-1.98-.94-1.98-2.09v-2.66c0-1.16.88-2.09,1.98-2.09h5.43c1.09,0,1.98.94,1.98,2.09v2.66Z"/><path class="cls-11" d="M56.81,20.12c1.73.14.45,1.22.86,2.73.33,1.22.58,2.78-.14,4.03-.48.83-1.26,1.33-2.16,1.44"/><path class="cls-11" d="M45.02,26.45c.64.24.86,0,1.58,0"/><path class="cls-11" d="M37.4,19.4c.72-1.44,3.74-1.01,5.9-.58"/><path class="cls-11" d="M52.93,19.11c-.19-1.72-3.74-.39-5.03-.86"/><path class="cls-11" d="M38.41,21.13c1.73-.29,2.68,0,4.03,0"/><path class="cls-11" d="M49.05,21.27c.96-.43,2.52-.29,3.6-.14"/><path class="cls-11" d="M44.59,21.85c.54.04,1.07-.03,1.58-.14"/><path class="cls-11" d="M42.29,30.19s1.01.57,3.74.43c2.73-.14,3.74-.43,3.74-.43,0,0-1.72,2.88-3.88,2.73-2.16-.14-3.6-2.73-3.6-2.73Z"/><path class="cls-11" d="M36.8,26.68c-.26-.58-.31-1.49-.4-2.25"/><path class="cls-11" d="M55.38,24.57c.12.87.17,1.74-.08,2.66"/><path class="cls-11" d="M39.62,33.67s-1.46,13.49-.3,19.13c.96,4.63,6.02,19.23,6.21,20,.19.78,0,1.55,0,1.55,0,0-9.32-6.02-11.46-9.13-2.14-3.11-5.24-9.71-5.24-9.71l6.21-4.08-5.83-.19s4.08-9.13,5.24-12.04,4.05-7.03,4.05-7.03"/><path class="cls-11" d="M53.1,34.08s3.31,10.56,2.54,15.22c-.78,4.66-3.11,9.52-3.88,10.68-.78,1.17-5.44,10.1-5.83,12.23l-.39,2.14s3.88-3.69,5.63-4.86c1.75-1.17,9.32-7.96,10.68-9.52,1.36-1.55,2.72-3.3,2.72-3.3,0,0-6.02-4.27-5.82-5.05.19-.78,5.44-3.5,5.44-3.5,0,0-7.72-15.93-9.86-17.49"/><path class="cls-11" d="M39.17,43.92c2.7.89,5,1.38,7.87,1.63,1.07.09,7.08.86,6.45-1.47.79-.15,1.07-.7,1.82-.91"/><path class="cls-11" d="M39.41,35.93c.3.32.95.5,1.39.61"/><path class="cls-11" d="M46.88,40.8c1.55.55,3.66.12,5.12-.52,1.42-.62,1.64-1.06,2.33-1.92"/><path class="cls-11" d="M49.01,43.1c1.95-.45,4.49-.3,5.88-1.92"/><path class="cls-11" d="M41.31,35.72c-.98,2.95-1.19,6.42-.38,8.48"/><path class="cls-11" d="M42.62,37.53c-.61,1-.49,6.11,0,7.09"/><path class="cls-11" d="M44.25,38.84c-.65,2.29,0,3.82,0,5.74"/><path class="cls-11" d="M45.89,39c-.16,1.31,0,4.42,0,6.23"/><path class="cls-11" d="M48.19,38.67c.16,2.13-.08,4.58-.16,6.72"/><path class="cls-11" d="M50.48,37.53c.27.97,1.13,2.85.65,3.77"/><path class="cls-11" d="M50.32,44.57c.24-.53.07-2.26-.16-2.79"/><path class="cls-11" d="M51.96,35.72c.48.9.65,1.64.49,2.79"/><path class="cls-11" d="M52.94,40.31c.16.64.78,3.16.55,3.76"/><path class="cls-11" d="M51.96,42.61c.05.89-.21,1.67-.28,2.62"/><path class="cls-11" d="M39.5,48.01c1.52.87,3.99,1.69,5.73,1.64"/><path class="cls-11" d="M44.58,56.7c3.22-.02,6.71-1.47,9.83-2.62"/><path class="cls-11" d="M47.86,47.52c.41.07.46.4.33.82"/><line class="cls-11" x1="50.97" y1="47.85" x2="50.97" y2="48.67"/><line class="cls-11" x1="43.27" y1="52.93" x2="43.27" y2="53.75"/><path class="cls-11" d="M41.63,54.9c.15.33.26.66.33.98"/><path class="cls-11" d="M49.33,53.09c.11.08.16.19.16.33"/><path class="cls-11" d="M51.79,52.44c.31.26.42.59.33.98"/><path class="cls-11" d="M46.39,62.43c.17.36.23.75.16,1.15"/><path class="cls-11" d="M44.91,64.89c.17.41.22.86.16,1.31"/><path class="cls-11" d="M33.99,39.49s-13.16,9.38-13.33,10.2c-.16.82-.33,2.14-.33,2.14,0,0-8.39,15.63-10.04,18.26-1.65,2.63-5.43,11.68-5.76,14.81-.14,1.31,0,2.63,0,2.63,0,0-2.42,4.11-3.45,7.07-1.15,3.29-.66,10.86.82,12.5,1.48,1.65,10.36,12.83,11.35,13.33.99.49.16,2.8.16,2.8,0,0,2.14,1.64,2.96,2.3.82.66,1.48,33.07,1.65,33.56.16.49.66.99,2.63,1.48,1.97.49,5.1.16,5.1.16l.16-2.96s17.27-2.63,18.92-2.47,21.88.66,21.88.66l.16,3.62s2.98-.94,5.43-1.48c2.96-.66,3.13-2.3,3.13-2.3l-.33-39.16s1.93-.24,2.47-.49c3.13-1.48,11.8-12.22,12.67-13.33,1.15-1.48,1.15-6.58-.16-10.04-.84-2.2-6.42-20.07-6.74-22.21-.33-2.14-.49-5.76-1.32-7.57-.82-1.81-.66-3.45-1.32-4.44-.66-.99-.99-1.97-.99-1.97,0,0,0-1.15-.49-2.14-.49-.99-1.31-5.1-3.29-6.58-1.98-1.48-9.21-4.77-11.52-6.09-2.3-1.32-5.1-3.29-5.1-3.29"/><line class="cls-11" x1="45.53" y1="74.35" x2="46.82" y2="155.47"/><path class="cls-11" d="M20.83,51.33c-.03-.17-.31-.24-.05-.32,1.75,2.92,2.2,7.15,2.35,10.52.16,3.46.36,7.96-.66,11.18"/><path class="cls-11" d="M28.23,65.31c-.82.99-1.31,1.48-1.82,2.38-.53.94-.73,2.31-.65,3.38"/><path class="cls-11" d="M16.39,60.21c.49,1.33,1.81,4.28,1.15,6.25"/><path class="cls-11" d="M4.71,87.69c-.06-.07.17-.03.33-.49,1.13-.91,4.46-1.57,5.76-.66"/><path class="cls-11" d="M3.06,93.78c2.14-1.48,2.62-1.94,3.99-2.48,1.06-.42,3.64-.82,4.4.02"/><path class="cls-11" d="M6.68,88.68c2.3-.33,4.14-.31,4.77.82"/><path class="cls-11" d="M11.78,112.04c-.24,1.19.96,4.46,2.96,4.28"/><path class="cls-11" d="M19.84,103.15c-1.15,1.75-1.57,3.78-2.47,5.76-.65,1.44-.78,3.32-1.32,4.81-.87,2.36-1.22,4.82-1.97,7.2"/><path class="cls-11" d="M19.02,117.3c-1.14,2.03-1.81,5.92-2.63,8.23"/><path class="cls-11" d="M22.64,115.33c-.92,3.65-1.48,13.49-.99,17.44"/><path class="cls-11" d="M25.76,94.76c2.39-.98,3.62-4.34,6.75-3.95"/><path class="cls-11" d="M48.96,98.05c1.2.85,3.64.29,5.08.36,1.88.09,5.74-.26,7.26,1.12"/><path class="cls-11" d="M56.86,103.65c1.06.32,2.19.36,3.29.49"/><path class="cls-11" d="M42.05,108.75c1.11.36,2.45.16,3.62.16"/><path class="cls-11" d="M46.66,123.06c1.29.42,2.93.16,4.28.16"/><path class="cls-11" d="M65.41,99.04c1.73.83,2.47,2.89,3.13,4.56,1.12,2.8,2.79,12.39,2.62,16.34"/><path class="cls-11" d="M74.95,92.79c2.28.68,6.25,4.11,6.25,9.87"/><path class="cls-11" d="M86.96,100.85c-.1.01-1.28-2.2-1.85-2.84-1.18-1.31-2.42-2.76-3.92-3.71-2.41-1.52-5.41-1.84-8.87-1.34"/><path class="cls-11" d="M87.46,97.07c-1.97-4.61-11.52-5.92-15.96-3.62"/><path class="cls-11" d="M81.37,67.12c-.86,1.03-3.76,4.37-4.28,5.59-.88,2.08-2.38,4.18-3.13,6.25-.96,2.69-2.55,7.13-3.32,9.7"/><path class="cls-11" d="M76.6,67.78c-1.64,1.81-2.96,4.66-3.46,6.25-.74,2.36-1.28,5.12-1.64,7.57"/><path class="cls-11" d="M80.05,57.25c-2.61,1.01-4.29,4.31-4.94,6.91"/><path class="cls-11" d="M75.12,48.04c.34.66-1.33,3.72-1.64,4.77-.55,1.83-1.05,3.66-1.36,5.55-.51,3.15-1.17,6.18-1.93,9.25-1.69,6.82.29,14.42.49,21.4.12,3.94.66,8.06.66,10.69,0,3.61,2.37,7.57,3.25,11.06.47,1.87.71,3.97.53,5.88"/><path class="cls-11" d="M68.04,65.15c.96,3.35-.59,7.12-.66,10.53"/><path class="cls-11" d="M66.89,155.8c3.78-.49,6.09-.16,8.39.33"/><path class="cls-11" d="M11.28,75.51l.82,20.73s-.17,4.11,4.11,2.96"/><path class="cls-11" d="M14.9,70.74l1.48,30.27s.33,2.15,1.65,2.3c2.8.33,2.14-3.13,2.14-3.13l-.99-29.61"/><path class="cls-11" d="M24.61,71.57l.49,27.97s-.16,2.14-2.3,2.14c-1.32,0-2.63-1.48-2.63-1.48"/><path class="cls-11" d="M11.45,76.5s.5.33,1.81,0l1.32-.33"/><path class="cls-11" d="M14.9,71.4s.99.82,2.3.82,1.64-.66,1.64-.66"/><path class="cls-11" d="M19.67,72.39s.82,1.15,2.3.99c1.48-.16,2.47-1.32,2.47-1.32"/><line class="cls-11" x1="13.92" y1="76.5" x2="14.57" y2="86.87"/><line class="cls-11" x1="12.6" y1="77" x2="13.42" y2="88.84"/><line class="cls-11" x1="16.55" y1="72.39" x2="17.21" y2="87.36"/><line class="cls-11" x1="17.7" y1="72.22" x2="18.19" y2="79.96"/><line class="cls-11" x1="20.83" y1="73.71" x2="20.83" y2="86.04"/><line class="cls-11" x1="22.14" y1="74.03" x2="22.31" y2="82.1"/><path class="cls-11" d="M20.17,99.37s1.32,1.32,2.96.99c1.65-.33,1.97-.82,1.97-.82"/><path class="cls-11" d="M45.34,155.47l.82,74.85s-1.81-3.13-5.26-3.29c-3.45-.16-8.06,2.3-9.38,3.62-1.32,1.32-1.81,1.81-1.81.16s3.13-7.4,2.63-9.05c-.49-1.65-4.28-4.77-3.95-7.07.33-2.3,1.98-2.8,1.15-3.62-.82-.82-1.48-1.48-.99-2.63.49-1.15,1.97-.66.99-2.14-.99-1.48-3.13-1.81-2.96-8.72.16-6.91.66-10.04.82-13,.16-2.96-1.48-26.81-1.48-26.81-2.96.49-5.98.64-7.24,1.81"/><path class="cls-11" d="M66.73,157.11s-.17,32.08-.99,36.36c-.82,4.28-5.43,15.14-5.92,17.44-.49,2.3,1.32,3.62.99,4.94-.33,1.32-1.81.82-1.81,2.63s2.14,1.64,1.97,3.78c-.16,2.14-.49,2.8.16,4.11.66,1.32.82,4.77.82,5.26s-.29-2.41-3.62-3.45c-2.63-.82-4.94-1.32-7.57-.33-2.63.99-4.61,2.47-4.61,2.47"/><path class="cls-11" d="M32.84,175.37c-.46,4.98,4.68,3.63,5.93,7.24.84,2.44-5.49,3.46-3.93,6.09.67,1.13,2.24.11,2.46,1.69.19,1.32-1.97,3.83-2.36,5.17-.78,2.65-.2,5.33.37,7.94"/><path class="cls-11" d="M61.96,171.75c.32,2.38-.89,3.6-2.5,4.93-1.2,1-1.29,1.68-1.61,3.13"/><path class="cls-11" d="M61.3,180.47c-1.26.62-2.3,1.75-3.3,2.74-.92.91-1.59,2.11-2.46,2.69"/><path class="cls-11" d="M50.6,210.91c1.37-1.58,4.12-3.21,6.75-2.96"/><path class="cls-11" d="M57.02,202.19c-.68.79-1.47,1.59-2.3,2.3"/><path class="cls-11" d="M55.87,212.55c-.86.64-1.9.98-2.8,1.64"/><path class="cls-11" d="M58.5,209.92c.39.88-.4,1.55-.49,2.47"/><path class="cls-11" d="M45.83,241.18v3.12l-19.08-.16-.33-3.45s1.25-3.21,2.96-4.61c2.63-2.14,4.3-2.31,6.91-2.63,3.95-.49,7.24,2.3,8.23,3.95.99,1.64,1.32,3.78,1.32,3.78Z"/><line class="cls-11" x1="26.75" y1="241.51" x2="45.83" y2="241.18"/><path class="cls-11" d="M66.4,240.85v3.13l-19.91.16-.33-3.45s1.25-3.21,2.96-4.61c2.63-2.14,5.78-2.47,8.39-2.8,3.95-.49,6.58,2.14,7.57,3.78.99,1.65,1.32,3.78,1.32,3.78Z"/><line class="cls-11" x1="46.49" y1="241.51" x2="66.4" y2="240.85"/><path class="cls-11" d="M30.86,231.47c.05,1.37-.52,2.65-.49,3.95"/><path class="cls-11" d="M61.79,230.49c.19.95.87,2.92.16,3.45"/><path class="cls-11" d="M51.43,227.85c.29,1.51.49,4.61.82,6.09"/><path class="cls-11" d="M53.07,227.36c-.09,1.95.76,3.99.82,5.92"/><path class="cls-11" d="M57.18,227.69c.49,1.67,1.54,3.99,2.47,5.43"/><path class="cls-11" d="M38.59,227.36c0,1.88.06,4.07-.49,5.76"/><path class="cls-11" d="M33.82,229.33c-.33,1.48-.77,2.93-.99,4.11"/><path class="cls-11" d="M46.16,230.32c0,1.97-.35,3.47-.49,4.77-.18,1.62.22,3.11.33,4.6"/><path class="cls-11" d="M40.24,227.2c-.33,2.3.11,4.71-.49,6.42"/><path class="cls-11" d="M33.66,229.83c.75-.44,4.87-2.63,4.58-.35-1.84.25-3.49,1.41-5.06,2.37,1.03.67,2.45.21,3.44,1.27"/><path class="cls-11" d="M56.86,228.18c-1.25.75-2.8.52-3.77,1.78,1.66.12,3.32-.16,4.9.39-.1,1.11-2.65,2.05-3.59,2.77"/></g></svg>