<?xml version="1.0" encoding="UTF-8"?><svg id="Layer_2" xmlns="http://www.w3.org/2000/svg" viewBox="0 0 84.71 223.54"><defs><style>.cls-1{fill:#dfa13a;}.cls-1,.cls-2,.cls-3,.cls-4,.cls-5,.cls-6,.cls-7,.cls-8,.cls-9,.cls-10{stroke-width:0px;}.cls-2{fill:#ddbc38;}.cls-11{stroke:#231f20;stroke-miterlimit:10;stroke-width:.2px;}.cls-11,.cls-12{fill:none;}.cls-3{fill:#cc2d29;}.cls-4{fill:#f2f4ca;}.cls-5{fill:#231f20;}.cls-6{fill:#ffd350;}.cls-7{fill:#fff;}.cls-8{fill:#6f1b0d;}.cls-9{fill:#52909e;}.cls-10{fill:#e9d7bd;}.cls-12{stroke:#000;stroke-linecap:round;stroke-linejoin:round;stroke-width:.79px;}</style></defs><g id="Layer_1-2"><path class="cls-3" d="M67.49,75.36c2.36-3.99,5.98-7.34,6.39-12.2.36-4.19-4.82-8.88-7.47-11.77-3.53-3.86-7.91-6.71-12-9.9-2.46-1.92-7.83-6.65-11.32-5.86-4.31.97,1.86,5.7,3.09,7.24,1.96,2.47,3.32,5.24,4.31,8.19,1.9,5.7,3.91,11.91,6.07,17.37l3.85,6.3c-1.09.74-2.26,1.35-2.32,2.7-.03.75-.03,1.5-.05,2.25-.16,7.22-.32,14.44-.52,21.65-.1,3.53-.2,7.07-.34,10.6-.06,1.59.12,3.53-.31,5.08-.44,1.59,3.62-1.5,7.07-.88,3.45.62,8.04.09,8.57-.97,2.47-4.94-2.3-19.78-5.25-29.23l.21.35c-.11-.3-.23-.59-.37-.85-.71-2.27-1.29-4.19-1.63-5.55.33-1.59,1.22-3.19,2.01-4.51"/><path class="cls-3" d="M51.82,211.6s-.24,3.45.2,4.57c.44,1.12,31.29,3.08,31.29,3.08,0,0,.78-.18.92-.76.25-1.06-.13-1.52-.03-2.24.24-1.75-1.75-4.56-5.13-6.41-3.38-1.85-4.47-1.8-7.4-2.68-2.93-.88-3.63-2.49-3.63-2.49l-.18-.58s-13.8,5.69-14.62,6.3c-.82.61-1.42,1.22-1.42,1.22"/><path class="cls-2" d="M51.5,213.3s.4.13,1.14.31c.74.18,21.13,2.38,21.13,2.38,0,0,9.28.44,9.5.35.22-.09.95-.35.95-.35,0,0,.39,2.84-.28,3.11-.67.26-12.36-.64-12.36-.64,0,0-18.38-1.51-19.09-1.95-.72-.44-.99-3.21-.99-3.21"/><path class="cls-1" d="M68.49,210.75c-1.6-.64-3.16-1.58-4.27-2.93-.28-.35-.55-.72-.75-1.13-.29-.62-.26-.64.32-.97.87-.5,1.89-.71,2.76-1.23.6-.36,1.2-.89,1.66-.11.31.52.31.88.92,1.29.91.61,2.05,1.14,3.05,1.6.77.35,1.63.56,2.43.75.5.12,1.22.12,1.6.42-.29.2-.67.26-.96.51-.3.27-.43.69-.64,1.03-.73,1.18-1.15,1.62-2.57,1.58-1.22-.04-2.42-.35-3.55-.8"/><path class="cls-9" d="M70.98,207.09c-.09-1.22-.67-2.03-1.14-3.21-.58-1.46-.96-3.01-1.51-4.47-.5-1.33-.47-2.78-.74-4.15-.78-4.04-.82-8.78-.1-12.84.8-4.51.01-9.66,0-14.11-.01-5.73,1.24-9.51,1.25-15.17.01-6.23.4-12.95.63-19.15.15-4.18.16-12.54-.47-16.99-.21-1.48-8.48-.62-11.74.53,0,0,.98-9.11.1-20.98-.88.44-4.97-.28-5.01.09-.18,1.56-.75,4.94-.95,6.49-.49,3.77-1.01,7.53-1.63,11.28-.23,1.38-.45,2.78-.76,4.14-.48,2.06-2.05,1.74-3.96,1.74-3.21,0-6.13-.23-9.23.42-1.85.39-3.61.53-5.48.72-1.12.12-2.08.52-3.2.53-.91,0-1.82-.13-2.73-.05-1.08.09-1.06.38-1.32,1.39-.45,1.77-.83,3.55-1.16,5.34-.53,2.84-1,5.72-1.24,8.6-.43,5.22-.98,10.43-1.88,15.53-.4,2.25-.49,4.51-1.34,6.56-.88,2.12-2.4,3.98-3.4,6.06-2.19,4.56-2.4,9.06-2.6,14.1-.14,3.5.21,6.33-1.46,9.46-1.41,2.66-4.15,5.19-4.87,8.01-.35,1.35-.23,2.79-.72,4.13-.51,1.39-1.59,2.53-2.18,3.89-1.1,2.5-1.77,5.1.84,6.48.77-4.23,7.04-5.29,9.84-5.8,1.9-.35,4.47-1.03,6.08.3,1.32,1.08,1.9,1.11,2.42-2.19.73-4.61-.85-5.51,0-9.47.8-3.73,3.69-8.97,7.23-16.32,2.47-5.14,3.81-9.44,4.92-15,.91-4.59.26-9.63,2.6-13.6,4.37-7.42,7.04-17.33,10.67-25.54.15,2.19.22,4.57.22,5.5,0,2.44.56,4.36,1.14,6.68.97,3.9,3.33,7.53,3.61,11.53.27,3.73,1.18,5.22,1.39,8.9.23,4.11-1.19,7.56-.99,12.86.07,1.73-.41,5.24-.39,6.93,0,0,0,.02,0,.02.05,3.71.48,7.67.56,11.34.1,5.22-1.06,10.24-2.2,15.23-.85,3.71-.16,8.16,1.18,8.01,1.57-.18,5.26-.55,7.69-2.28,1.73-1.23,4.22-2.51,6.55-2.72.99-.09,2.03.08,2.94.44.82.32,1.51.62,2.56,1.37,0-.19,0-.38,0-.55"/><path class="cls-3" d="M18.28,205.7s-1,4.69-1.08,6.53c-.08,1.84,1.61,1.54,3.46,3.69,1.84,2.15.31,4.54.31,4.54h.69c.69,0,.31,1,.15,2-.15,1-9.68.69-13.14.46-3.46-.23-7.69-1.69-8.22-2.77-.54-1.08,2.47-10.52,4.64-11.82,0,0,4.18-2.01,6.5-2.39,2.32-.38,4.98-1.06,5.66-.84.68.23,1.03.6,1.03.6"/><path class="cls-2" d="M16.88,220.5c-1.65.09-2.95.5-4.63.5-2.18,0-4.28-.2-6.41-.67-1.52-.34-4.03-.45-5.08-1.71l-.52,1.53s2.73,2.51,8.16,2.81c5.43.3,10.21.27,11.27.19,1.06-.08,1.82-.23,2.09-.57.27-.34.71-2.14.3-2.13-.4.01-5.19.05-5.19.05"/><path class="cls-4" d="M49.28,47.95s-4.5-7.76-5.42-8.34-2.17-1.25-2.17-1.25c0,0,.83,2-.33,2.25-1.17.25-5.84,1-10.34-1.67-.68-.4,6.51,7.68,6.51,7.68l6.02,6.6,6.1,14.14,3.9,15.06-.67,6.26-1.25.23.72,7.48c1.86-.07,4.62.47,5.09-.05,0,0,1.78-17.01.86-21.1-.92-4.09-9.01-27.28-9.01-27.28"/><path class="cls-6" d="M43.95,13.27c0,1.59,1.79,3.02,2.04,3.32.89,1.06,1.94,1.78,2.8,3.02,1.66,2.42,2.03,4.27,2.25,6.69.09,1.01.22,2.09.02,3.1-.26,1.28-.84,1.35-2.05,1.35-1.05,0-2.05.06-3.08.27-.76.16-1.62.62-2.34.67"/><path class="cls-6" d="M27.39,17.05s5.07-3.62,8.98-4.61c.65-.17,1.39-.26,2.14-.32.38-.03-.07-2.03-.15-2.39-.53-2.42,1.27,2.49,1.59,2.49,2.04.04,4.43.13,4.43.13,0,0-2.17-7.92-7.76-10.35-5.58-2.43-10.38-1.58-12.61-.73-3.17,1.21-6.42,4.01-7.63,8.39-1.21,4.37.82,6.67,1.06,9.34.24,2.67-.93,3.24-1.21,5.99-.76,7.4,3.88,11.73,3.88,11.73,1.21.24,2.91-.97,2.91-.97l3.4-1.21-.24-1.21s2.19.73,3.4,0c1.21-.73,1.7-3.89.49-7.77-1.21-3.88-2.67-8.5-2.67-8.5"/><path class="cls-10" d="M31.04,30.64s8.69,2.95,11.41,1.7c1.78-.82,2.72-3.29,3.09-5.47.65-3.88-1.36-8.71-1.85-10.17-.49-1.46.3-4.32.3-4.32l-4.04-.17-1.17-2.04-.26,1.95-5.93,1.89-5.51,2.95,3.25,9.64.72,4.05Z"/><path class="cls-10" d="M41.48,32.59s0,4.37.24,6.31c.24,1.94-.72,2.11-2.67,2.19-2.38.1-4.75-.03-6.8-1.46-2.08-1.45-3.79-2.95-3.7-3.71.1-.83.2-2.24.2-2.24,0,0,.19.36.83-.36.64-.72,1.46-2.67,1.46-2.67l-.32-1.69,10.76,3.63Z"/><path class="cls-3" d="M53.86,71.68h-3.26c.18.09-.08-.44-.26-1.32-.33-1.65-.77-3.03-1.44-4.51-.72-1.6-1.2-3.32-1.85-4.95-.67-1.67-1.2-3.21-2.29-4.68-.19-.25-.36-.51-.53-.77-.73-1.13-1.04-2.43-1.69-3.56-.53-.92-1.57-1.73-2.29-2.52-1.81-1.98-3.61-3.97-5.4-5.96-2.16-2.39-4.32-4.79-6.48-7.19,0,0-7.53,2.19-9.96,5.83-2.43,3.64-8.26,14.33-3.4,29.38,4.86,15.05,5.83,20.4,9.71,20.88.64.08,1.37.06,2.15-.03-.6,4.31-2.42,8.12-3.61,10.23-2.25,3.98-2.44,8.09-3.89,12.14-.49,1.36-2.08,5.71-.97,7.04,1.24,1.47,5.61,0,7.53,0,5.24,0,9.41-.98,14.57-1.46,1.79-.17,8.22,1.09,8.55-1.21.49-3.43.88-6.78,1.4-10.2.49-3.16.9-6.29,1.46-9.71.16-.99-.16-7.47-.3-10.22.79.01,1.27.02,1.27.02,0,0,1.7-16.51.97-17.24"/><path class="cls-1" d="M9.96,213.38c.53.52,2.51-.38,3.17-.54.61-.15,1.19-.22,1.82-.19.79.04.88.09.88-.75,0-.59-.1-1.16-.14-1.7-.04-.59.17-1.05.21-1.61.04-.58.03-1.13.12-1.69.08-.56.23-1.04-.25-1.43-1.01-.84-2.76-.26-3.85.08-.48.15-1.38.29-1.61.73-.23.44-.24,1.64-.32,2.17-.11.76-.21,1.51-.25,2.29-.04.69-.27,2.37.24,2.89.08-.09.08-.19,0-.32"/><path class="cls-8" d="M37.46,25.06s2.42-1.66,3.63-1.81c1.21-.15,2.34.38,2.34.38,0,0-.6,2.57-2.04,3.1-1.42.52-3.93-1.66-3.93-1.66"/><path class="cls-7" d="M38.05,25.07s2.09-.48,2.81-.57c.71-.1,2.43-.86,2.43-.86l-1.71-.38-1.62.33-1.9,1.48Z"/><path class="cls-7" d="M39.52,26.07s1.09-.24,1.67-.38,1.19-.43,1.19-.43l.05.57-.81.76-1,.19-1.09-.71Z"/><path class="cls-10" d="M63.01,68.38c.31-.97.75-2.04,1.35-2.88.48-.69.92-1.69,1.48-2.31.65-.72,1.54-.91,2.15-1.67.37-.46,1.39-1.39.8-2.01-.84-.87-3.66.8-4.27,1.73-.15.14-.29.29-.44.44-.52.56-1.11,1.5-1.9,2.09l.39-.79c-.62-.16,1.83-3.3,2.17-3.93.47-.88,2.25-3.82-.07-3.59.74-.77.17-1.03-.29-1.25-.15-.07-.42.04-.56-.05-.16-.1-.06-.33-.16-.4-.31-.2-.29-.56-.8-.52-.83.06-1.61,1.06-2.18,1.63-1.28,1.28-2.35,2.68-3.33,4.19-.84,1.28-1.38,2.88-1.32,4.44.07,1.72.06,3.8-.44,5.42-.32,1.04-1.16,1.55-1.86,2.39l.35,7.22c.49-.67,2.02-1.49,2.73-1.95,1.75-1.13,3.46-.63,5.03-2.68.41-.53.65-1.29.73-1.95.15-1.19.05-2.34.44-3.56"/><path class="cls-12" d="M71.68,207.15c2.93.88,4.02.83,7.4,2.68,3.38,1.85,5.36,4.66,5.13,6.41-.1.72.28,1.18.03,2.24-.14.58-.92.76-.92.76,0,0-30.85-1.96-31.29-3.08-.44-1.12-.2-4.57-.2-4.57"/><path class="cls-12" d="M83.83,216.05c-.63.67-2.76.31-3.58.28-2.17-.09-4.32-.15-6.49-.34-3.29-.3-6.55-.54-9.83-.97-2.86-.38-5.71-.61-8.55-1.03-.94-.14-3.25,0-3.6-1.16"/><path class="cls-12" d="M76.57,208.53c-1.76.59-2.91,2.27-3.06,3.89-.08.84-.34,2.05.17,3.26"/><path class="cls-12" d="M73.38,211.47c-3.5.58-8.92-1.31-10.19-4.75"/><path class="cls-12" d="M74.12,210c-.83,0-1.9-.08-2.75-.25-1.01-.2-2.06-.8-2.97-1.29-1.36-.74-2.33-.67-2.88-2.16"/><path class="cls-12" d="M74.45,208.02c-1.17.61-3.78.74-5.09.8"/><path class="cls-12" d="M70.98,207.09c-.54.8-3.02.62-3.9.5"/><path class="cls-12" d="M71.27,206.98c-.1.56,1.14,2.46,1.47,2.97"/><path class="cls-12" d="M27.39,17.05s5.07-3.62,8.98-4.61c.65-.17,1.39-.26,2.14-.32.38-.03-.07-2.03-.15-2.39-.53-2.42,1.27,2.49,1.59,2.49,2.04.04,4.43.13,4.43.13,0,0-2.17-7.92-7.76-10.35-5.58-2.43-10.38-1.58-12.61-.73-3.17,1.21-6.42,4.01-7.63,8.39-1.21,4.37.82,6.67,1.06,9.34.24,2.67-.93,3.24-1.21,5.99-.76,7.4,3.88,11.73,3.88,11.73,1.21.24,2.91-.97,2.91-.97l3.4-1.21-.24-1.21s2.19.73,3.4,0c1.21-.73,1.7-3.89.49-7.77-1.21-3.88-2.67-8.5-2.67-8.5Z"/><path class="cls-12" d="M43.99,12.38s-.79,2.86-.3,4.32c.49,1.46,2.49,6.29,1.85,10.17-.36,2.18-1.31,4.66-3.09,5.47-2.73,1.25-11.41-1.7-11.41-1.7"/><path class="cls-12" d="M41.48,32.59s0,4.37.24,6.31c.24,1.94-.72,2.11-2.67,2.19-2.38.1-4.75-.03-6.8-1.46-2.08-1.45-3.79-2.95-3.7-3.71.1-.83,0-2.1,0-2.1"/><path class="cls-12" d="M50.6,71.67c.27-3.61-7.31-18.96-8.39-20.14-5.34-5.83-13.84-15.3-13.84-15.3,0,0-7.53,2.18-9.96,5.83-2.43,3.64-8.26,14.33-3.4,29.38,4.86,15.05,5.83,20.4,9.71,20.88,3.88.48,10.93-2.67,13.6-3.16,2.67-.49,14.57-.24,14.57-.24,0,0,1.7-16.51.97-17.24"/><path class="cls-12" d="M31.28,58.57s-1.94,3.89-.73,6.8c1.21,2.91,3.4,10.2,3.4,10.2l12.63-1.7s1.21-1.46,3.88-1.94c2.67-.49,3.4-.24,3.4-.24"/><path class="cls-12" d="M33.51,74.85c-2.44,1.24-3.21,1.73-4.66,4.6"/><path class="cls-12" d="M33.85,75.49c-2.64.8-5.19,6.03-3.79,8.57"/><path class="cls-12" d="M33.85,75.49c-.79,1.08-.47,6.54.17,6.76"/><path class="cls-12" d="M38.52,89.1c3.31-.05,7.57-4.79,9.88-6.63"/><path class="cls-12" d="M26.67,92.56c.12,3.28-1.8,7.13-3.4,9.96-2.25,3.98-2.44,8.09-3.89,12.14-.49,1.36-2.08,5.71-.97,7.04,1.23,1.47,5.61,0,7.53,0,5.24,0,9.41-.98,14.57-1.46,1.79-.17,8.22,1.09,8.55-1.21.49-3.43.88-6.78,1.4-10.2.49-3.16.9-6.29,1.46-9.71.19-1.17-.23-8.87-.3-10.22"/><path class="cls-12" d="M23.02,122.43c-1.21,5.58-2.17,11.72-2.43,14.81-.43,5.22-.98,10.44-1.88,15.53-.4,2.25-.49,4.51-1.34,6.56-.88,2.12-2.4,3.98-3.4,6.06-2.19,4.56-2.4,9.06-2.6,14.1-.14,3.5.21,6.33-1.46,9.46-1.41,2.66-4.15,5.19-4.87,8.01-.35,1.35-.23,2.79-.72,4.13-.51,1.39-1.59,2.53-2.18,3.89-1.1,2.5-1.77,5.1.84,6.48.77-4.23,7.04-5.29,9.84-5.8,1.9-.35,4.47-1.03,6.08.3,1.32,1.08,1.9,1.11,2.42-2.19.73-4.61-.85-5.51,0-9.47.8-3.73,3.69-8.97,7.23-16.32,2.47-5.14,3.81-9.44,4.92-15,.91-4.59.26-9.63,2.6-13.6,4.9-8.33,6.31-16.9,10.69-25.58.56-1.11,1.04-2.53,1.72-3.85"/><path class="cls-12" d="M34.67,43.19c1.67,1.24,11.72,2.35,9.73-2.35"/><path class="cls-12" d="M57.43,96.33c-.47.51-3.17.04-5.03.12"/><path class="cls-12" d="M54.08,78.53c.49-.67,2.02-1.49,2.73-1.95,1.75-1.13,3.47-.63,5.03-2.68.41-.53.65-1.29.73-1.95.15-1.19.05-2.34.44-3.56.44-1.38,1.17-2.63,1.95-3.86.55-.85,1.4-1.62,2.1-2.34.53-.56,1.87-1.26,1.94-2.09.08-.96-1.16-.76-1.74-.56-1.29.43-2.26,1.17-3.17,2.15-.52.56-.88,1.02-1.61,1.96"/><path class="cls-12" d="M62.44,63.47c.09-1.01.67-2.31,1.02-2.9.45-.77,1.18-1.78,1.77-2.66.37-.56.64-1.14.87-1.78.27-.77-.44-.94-1.08-.66-.62.27-1.52,1.22-1.97,1.8-.6.77-1.06,1.47-1.63,2.28-.48.68-.69,1.05-1.02,1.83-.26.6-.43,1.74-.43,2.22"/><path class="cls-12" d="M64.38,55.74c1.18-1.13.28-1.94-.98-1.02-1.07.78-1.86,1.51-2.73,2.49-.79.89-1.44,1.73-2,2.78-.38.72-.59,1.95-.78,2.78"/><path class="cls-12" d="M63.6,54.28c.29-.54-.17-1.07-.73-1.03-.83.06-1.61,1.06-2.18,1.63-1.28,1.28-2.35,2.68-3.33,4.19-.84,1.28-1.38,2.88-1.31,4.44.07,1.72.06,3.8-.44,5.42-.32,1.04-1.16,1.55-1.86,2.39"/><path class="cls-12" d="M46.76,123.8c.57,1.53.2,3.86.2,5.54,0,2.44.56,4.36,1.14,6.68.97,3.9,3.33,7.53,3.61,11.53.27,3.73,1.18,5.22,1.39,8.9.23,4.11-1.19,7.56-.99,12.86.07,1.73-.41,5.24-.39,6.93.02,1.51.33,5.41.5,6.39"/><path class="cls-12" d="M59.48,150.84c1.49.36,2.52,2.33,3.66,3.29.88.75,1.79.94,2.81,1.33"/><path class="cls-12" d="M61.8,156.65c2.46,1.39,3.67,2.84,4.15,5.74.25,1.56.04,3.86.6,5.14"/><path class="cls-12" d="M37.66,146.16c-1.32,1.64-4.66,5.75-6.97,7.67-2.48,2.07-3.98,5.42-4.9,8.55"/><path class="cls-12" d="M3.75,209.62c-.08.23-3.84,9.45-3.3,10.53.54,1.08,4.76,2.54,8.22,2.77,3.46.23,12.99.54,13.14-.46.15-1,.54-2-.15-2h-.69s1.54-2.38-.31-4.54c-1.84-2.15-3.54-1.84-3.46-3.69.08-1.85,1.08-6.53,1.08-6.53"/><path class="cls-12" d="M17.36,213.08c-4.2-1.44-12.06,1.36-11.91,6.61"/><path class="cls-12" d="M.76,218.61c1.05,1.26,3.56,1.37,5.08,1.71,2.13.48,4.23.67,6.41.67,1.68,0,3.28-.22,4.94-.31,1.18-.07,2.78.1,3.86-.31"/><path class="cls-12" d="M10.29,206.16c.15.6-.19,1.64-.29,2.28-.11.76-.21,1.51-.25,2.29-.04.69-.27,2.37.24,2.89.08-.09.08-.19,0-.32"/><path class="cls-12" d="M12.21,205.77c-.96,2.14-1,4.69.08,6.76"/><path class="cls-12" d="M15.98,205.47c.42,1.46-.25,3.02-.4,4.46-.1.93,0,1.67.17,2.53"/><path class="cls-12" d="M12.06,211c.88,0,2.84-.58,3.46-1.15"/><path class="cls-12" d="M11.59,208.62c1.27.1,3.2-2.16,4.46-2.46"/><path class="cls-12" d="M13.36,205.62c.59,1.01,1.66,2.42,2.54,3.15"/><path class="cls-12" d="M11.67,209.46c1.35-.1,2.73,2.68,4.07,3"/><path class="cls-12" d="M43.95,13.27c0,1.59,1.79,3.02,2.04,3.32.89,1.06,1.94,1.78,2.8,3.02,1.66,2.42,2.03,4.27,2.25,6.69.09,1.01.22,2.09.02,3.1-.26,1.28-.84,1.35-2.05,1.35-1.05,0-2.05.06-3.08.27-.76.16-1.62.62-2.34.67"/><path class="cls-12" d="M48.26,24.46s.69,3.42-.14,6.06"/><path class="cls-12" d="M24.91,18.64c1.36-.91,1.79-1.24,2.49-1.66"/><path class="cls-12" d="M23.4,1.49c1.24-.37,2.58-.53,3.87-.3.86.15,1.81.51,2.53.98.44.29.76.76,1.22.98"/><path class="cls-12" d="M42.9,12.06s-1.51-3.7-2.8-5.29c-1.28-1.59-2.49-2.64-2.49-2.64"/><line class="cls-12" x1="32.17" y1="13.95" x2="30.96" y2="11.38"/><path class="cls-12" d="M27.71,10.1s.02,2.77.3,3.85c.38,1.44.83,2.12.83,2.12"/><path class="cls-12" d="M24.54,25.44c.28,1.48.39,2.95.76,4.38.16.64.35,1.25.55,1.89.13.42.18,1.3.43,1.59"/><path class="cls-12" d="M21.67,31.25c.58,1.19.73,3.16,1.74,4.08"/><path class="cls-12" d="M18.27,29.06c.26.74.19,1.69.4,2.49.19.75.44,1.54.75,2.25.32.71,1.32,2.18,2.02,2.28"/><path class="cls-12" d="M31.71,18.18s2.79-.98,3.93-1.74"/><path class="cls-12" d="M41.01,15.46s1.81-.23,2.19-.15"/><line class="cls-12" x1="39.57" y1="20.6" x2="41.23" y2="20.22"/><path class="cls-12" d="M37.46,25.06s2.42-1.66,3.63-1.81c1.21-.15,2.34.38,2.34.38,0,0-.6,2.57-2.04,3.1-1.42.52-3.93-1.66-3.93-1.66Z"/><path class="cls-5" d="M32.25,21.55c0,.11-.09.21-.21.21s-.21-.09-.21-.21.09-.21.21-.21.21.09.21.21"/><path class="cls-11" d="M32.25,21.55c0,.11-.09.21-.21.21s-.21-.09-.21-.21.09-.21.21-.21.21.09.21.21Z"/><path class="cls-5" d="M34.09,19.63c0,.12-.04.28-.15.28s-.19-.08-.19-.19.08-.19.19-.19.15-.01.15.1"/><path class="cls-11" d="M34.09,19.63c0,.12-.04.28-.15.28s-.19-.08-.19-.19.08-.19.19-.19.15-.01.15.1Z"/><path class="cls-5" d="M42.76,17.27c0,.12-.04.28-.15.28s-.19-.08-.19-.19.08-.19.19-.19.15-.01.15.1"/><path class="cls-11" d="M42.76,17.27c0,.12-.04.28-.15.28s-.19-.08-.19-.19.08-.19.19-.19.15-.01.15.1Z"/><path class="cls-5" d="M43.59,18.85c0,.12-.04.28-.15.28s-.19-.08-.19-.19.08-.19.19-.19.15-.01.15.1"/><path class="cls-11" d="M43.59,18.85c0,.12-.04.28-.15.28s-.19-.08-.19-.19.08-.19.19-.19.15-.01.15.1Z"/><path class="cls-5" d="M36.39,20.92c0,.11-.09.21-.21.21s-.21-.09-.21-.21.09-.21.21-.21.21.09.21.21"/><path class="cls-11" d="M36.39,20.92c0,.11-.09.21-.21.21s-.21-.09-.21-.21.09-.21.21-.21.21.09.21.21Z"/><path class="cls-5" d="M41.97,19.01c0,.11-.09.21-.21.21s-.21-.09-.21-.21.09-.21.21-.21.21.09.21.21"/><path class="cls-11" d="M41.97,19.01c0,.11-.09.21-.21.21s-.21-.09-.21-.21.09-.21.21-.21.21.09.21.21Z"/><path class="cls-12" d="M68.91,116.58c-.1,1.05.52,2.39.47,3.44-.07,1.59-.04,3.43-.16,5.02-.1,1.44.11,2.11-.08,3.53-.24,1.85.16,4.58.08,6.44-.14,3.07-.95,6.32-.71,9.42.3,3.86.75,7.56.06,11.48-.23,1.3-.16,2.59-.31,3.89-.17,1.38-.57,2.73-.69,4.12-.28,3.22,0,6.5.16,9.72.12,2.36.23,4.85-.08,7.18-.14,1.02.09,2.12-.23,3.1-.48,1.44.26,20.64,3.58,22.75"/><path class="cls-12" d="M52.21,182.63c.06,1.26-.02,6.01-.18,7.24-.37,2.93-.21,5.45-1.02,8.32-.76,2.68-1.58,6.61-1.33,9.41.1,1.17,0,2.58,1.33,3.22.78.38,2.35-.32,3.14-.47,1.06-.2,2.47-.16,3.3-.86,6.67-5.65,12.29-2.73,13.5-2.63"/><path class="cls-12" d="M58.33,76.19c-.03.75.23,3.16.21,3.91-.16,7.22-.82,14.01-1.02,21.22-.1,3.53-.2,7.07-.34,10.6-.06,1.6.12,3.53-.31,5.08-.44,1.59,3.62-1.5,7.07-.88,3.45.62,8.04.09,8.57-.97,2.47-4.94-2.3-19.78-5.25-29.23,0,0-1.45-4.7-1.79-6.06.33-1.59,1.22-3.19,2.01-4.51,2.36-3.99,5.98-7.34,6.39-12.2.36-4.19-4.82-8.89-7.47-11.77-3.53-3.86-7.91-6.71-12-9.9-2.46-1.92-7.86-6.76-11.32-5.86-3.79.99.54,3.14,3.09,7.24,1.66,2.68,3.32,5.24,4.31,8.19,1.9,5.7,3.36,10.79,5.51,16.26"/><path class="cls-12" d="M58.12,51.55c.63,1.9,1.37,2.96,1.37,4.44"/><path class="cls-12" d="M63.41,68.15c.21,2.01.61,4.65.93,5.73.59,2.03.25,4.47,1.19,6.32"/></g></svg>