<?xml version="1.0" encoding="UTF-8"?><svg id="Layer_2" xmlns="http://www.w3.org/2000/svg" viewBox="0 0 32.66 32.66"><defs><style>.cls-1{fill:#000;stroke-width:0px;}</style></defs><g id="Layer_1-2"><path class="cls-1" d="M19.46,16.33c0,1.73-1.4,3.13-3.13,3.13s-3.13-1.4-3.13-3.13,1.4-3.13,3.13-3.13,3.13,1.4,3.13,3.13Z"/><path class="cls-1" d="M23.64,10.8c-.15-.41-.39-.78-.7-1.08-.3-.31-.67-.55-1.08-.7-.33-.13-.83-.28-1.74-.32-.99-.05-1.29-.05-3.79-.05s-2.8,0-3.79.05c-.91.04-1.41.19-1.74.32-.41.15-.78.39-1.08.7-.31.3-.55.67-.7,1.08-.13.33-.28.83-.32,1.74-.05.99-.05,1.29-.05,3.79s0,2.8.05,3.79c.04.91.19,1.41.32,1.74.15.41.39.78.7,1.08.3.31.67.55,1.08.7.33.13.83.28,1.74.32.99.05,1.29.05,3.79.05s2.8,0,3.79-.05c.91-.04,1.41-.19,1.74-.32.82-.32,1.46-.96,1.78-1.78.13-.33.28-.83.32-1.74.05-.99.05-1.29.05-3.79s0-2.8-.05-3.79c-.04-.91-.19-1.41-.32-1.74ZM16.33,21.15c-2.66,0-4.82-2.16-4.82-4.82s2.16-4.82,4.82-4.82,4.82,2.16,4.82,4.82-2.16,4.82-4.82,4.82ZM21.34,12.45c-.62,0-1.13-.5-1.13-1.13s.5-1.13,1.13-1.13,1.13.5,1.13,1.13c0,.62-.5,1.13-1.13,1.13Z"/><path class="cls-1" d="M16.33,0C7.31,0,0,7.31,0,16.33s7.31,16.33,16.33,16.33,16.33-7.31,16.33-16.33S25.35,0,16.33,0ZM25.65,20.2c-.05,1-.2,1.68-.44,2.28-.49,1.26-1.48,2.26-2.74,2.74-.6.23-1.28.39-2.28.44-1,.05-1.32.06-3.87.06s-2.87-.01-3.87-.06c-1-.05-1.68-.2-2.28-.44-.63-.24-1.19-.6-1.66-1.08-.48-.47-.85-1.04-1.08-1.66-.23-.6-.39-1.28-.44-2.28-.05-1-.06-1.32-.06-3.87s.01-2.87.06-3.87c.05-1,.2-1.68.44-2.28.24-.63.6-1.19,1.08-1.66.47-.48,1.04-.85,1.66-1.08.6-.23,1.28-.39,2.28-.44,1-.05,1.32-.06,3.87-.06s2.87.01,3.87.06c1,.05,1.68.2,2.28.44.63.24,1.19.6,1.66,1.08.48.47.85,1.04,1.08,1.66.23.6.39,1.28.44,2.28.05,1,.06,1.32.06,3.87s-.01,2.87-.06,3.87Z"/></g></svg>