<?xml version="1.0" encoding="UTF-8" standalone="no"?>
<!DOCTYPE svg PUBLIC "-//W3C//DTD SVG 1.1//EN" "http://www.w3.org/Graphics/SVG/1.1/DTD/svg11.dtd">
<svg width="100%" height="100%" viewBox="0 0 157 92" version="1.1" xmlns="http://www.w3.org/2000/svg" xmlns:xlink="http://www.w3.org/1999/xlink" xml:space="preserve" xmlns:serif="http://www.serif.com/" style="fill-rule:evenodd;clip-rule:evenodd;stroke-linejoin:round;stroke-miterlimit:2;">
    <g transform="matrix(1,0,0,1,0.0409638,0.0165172)">
        <g>
            <path d="M156.54,47.24C155.54,46.47 154.59,45.63 153.57,44.88C152.98,44.45 152.71,43.99 152.74,43.24C152.78,42.52 152.78,41.79 152.66,41.07C152.64,40.93 152.54,40.76 152.58,40.68C152.72,40.41 152.68,40.12 152.67,39.86C152.62,37.88 152.63,35.9 152.52,33.92C152.47,33.07 152.32,32.24 152,31.45C151.43,30.03 150.52,28.88 149.25,27.98C148.55,27.48 147.85,27.02 147.04,26.73C146.57,26.56 146.41,26.38 146.46,26.08C146.64,25.11 146.51,24.15 146.41,23.2C146.31,22.23 146.1,21.27 145.8,20.33C145.48,19.34 145,18.44 144.4,17.6C143.61,16.48 142.54,15.72 141.3,15.21C140.79,15 140.27,14.78 139.69,14.71C139.23,14.66 138.77,14.59 138.31,14.55C137.24,14.44 136.18,14.47 135.12,14.68C134.33,14.84 133.59,15.08 132.86,15.45C132.01,15.88 131.31,16.5 130.68,17.16C129.66,18.23 128.91,19.52 128.02,20.7C127.8,21 127.57,21.02 127.31,20.96C126.58,20.8 125.86,20.58 125.14,20.41C124.72,20.31 124.32,20.16 123.88,20.17C123.67,20.17 123.58,20.29 123.45,20.42C123.26,20.63 123.33,20.89 123.24,21.12C122.75,22.3 122.14,23.41 121.35,24.41C121.07,24.77 121.07,24.76 120.66,24.52C120.46,24.41 120.25,24.31 120.07,24.19C118.67,23.29 117.22,22.49 115.8,21.61C115.65,21.52 115.57,21.54 115.5,21.69C115.04,22.61 114.39,23.39 113.75,24.18C113.49,24.5 113.17,24.76 112.89,25.06C112.05,25.95 111.07,26.66 110.01,27.34C109.89,26.85 109.76,26.4 109.67,25.95C109.63,25.73 109.52,25.65 109.32,25.59C108.25,25.24 107.19,24.87 106.13,24.51C105.28,24.22 104.42,23.94 103.57,23.63C103.29,23.53 103.11,23.52 102.93,23.79C102.72,24.1 102.47,24.38 102.23,24.68C101.92,25.06 101.61,25.44 101.26,25.88C100.35,19.64 99.45,13.49 98.55,7.29C97.53,8.15 96.55,8.98 95.58,9.8C94.95,10.34 94.3,10.87 93.68,11.42C93.18,11.86 92.63,12.25 92.19,12.75C92.13,12.82 92.05,12.83 92,12.83C91.88,12.84 91.95,12.72 91.93,12.66C91.78,12.21 91.94,11.72 91.75,11.27C91.59,10.89 91.55,10.46 91.47,10.06C91.36,9.52 91.21,8.99 91.02,8.48C89.96,5.61 88.17,3.34 85.46,1.86C83.95,1.03 82.31,0.6 80.62,0.34C79.56,0.18 78.52,0.27 77.48,0.45C76.14,0.69 74.86,1.15 73.63,1.71C72.1,2.41 70.66,3.26 69.34,4.32C69.14,4.48 69.07,4.45 68.92,4.27C67.95,3.09 66.84,2.07 65.41,1.45C64.83,1.2 64.22,0.93 63.58,0.97C63.17,0.99 62.75,0.99 62.33,1.07C61.09,1.31 60.01,1.88 59.04,2.65C58.18,3.33 57.4,4.12 56.64,4.91C56.49,5.06 56.4,5.05 56.25,4.93C55.31,4.19 54.29,3.57 53.21,3.06C52.79,2.87 52.34,2.78 51.89,2.67C51.13,2.5 50.47,2.68 49.82,2.95C48.39,3.53 47.23,4.5 46.19,5.62C45.98,5.85 45.85,5.86 45.62,5.66C44.86,5 44.12,4.32 43.37,3.63C42.95,4.14 42.6,4.69 42.25,5.24C41.83,5.9 41.41,6.57 40.87,7.13C39.51,8.55 37.81,9.45 35.95,10.17L35.95,8.34C35.95,7.993 35.787,7.763 35.46,7.65C34.25,7.23 33.03,6.81 31.85,6.3C31.15,6 30.45,5.7 29.76,5.38C28.96,5 28.97,4.99 28.52,5.77C28.49,5.83 28.46,5.88 28.42,5.94C27.93,6.81 27.48,7.7 26.88,8.5C26.11,9.52 25.14,10.27 23.9,10.65C23.69,10.71 23.63,10.68 23.64,10.46C23.65,10.27 23.66,10.07 23.64,9.87C23.53,8.91 23.51,7.95 23.54,6.99C23.54,6.83 23.49,6.76 23.37,6.68C22.82,6.34 22.28,5.99 21.74,5.64C20.42,4.8 19.09,3.97 17.76,3.13C16.25,2.19 14.74,1.25 13.23,0.32C13.03,0.19 12.78,-0.06 12.62,-0.01C12.38,0.06 12.48,0.42 12.43,0.65C12.16,1.9 11.88,3.15 11.47,4.37C10.71,6.64 9.69,8.77 8.1,10.59C6.99,11.87 5.68,12.89 4.09,13.53C3.65,13.7 3.21,13.95 2.75,14.01C1.91,14.11 1.08,14.36 0.22,14.29C0.09,14.29 0.03,14.32 0.02,14.47C-0.03,15.75 0.02,17.03 -0.03,18.31C-0.06,19.05 -0.02,19.8 -0.01,20.54C-0.01,20.93 0.06,21.34 0.03,21.72C-0.02,22.31 -0.01,22.91 -0.04,23.5C-0.04,23.67 0.03,23.68 0.18,23.67C1.12,23.59 2.04,23.63 2.96,23.89C4.29,24.26 5.13,25.08 5.37,26.44C5.5,27.22 5.51,28.02 5.5,28.81C5.5,29.08 5.43,29.35 5.49,29.6C5.63,30.2 5.57,30.82 5.63,31.42C5.71,32.27 5.7,33.13 5.78,33.98C5.87,35.04 6.01,36.09 6.24,37.12C6.65,38.98 7.05,40.84 7.62,42.66C7.78,43.18 7.7,43.51 7.29,43.87C6.05,44.96 4.94,46.18 4.02,47.56C2.78,49.43 1.98,51.47 1.8,53.71C1.71,54.84 1.73,55.98 1.91,57.12C2.15,58.56 2.49,59.95 3.26,61.21C3.32,61.31 3.34,61.39 3.28,61.5C3.03,61.94 2.79,62.38 2.55,62.83C1.84,64.16 1.19,65.51 0.76,66.96C0.37,68.29 0.14,69.65 0.16,71.04C0.17,71.83 0.16,72.62 0.22,73.41C0.27,74.07 0.39,74.72 0.48,75.38C0.62,76.4 0.76,77.42 1.1,78.39C2.33,81.95 4.64,84.65 7.75,86.7C8.98,87.51 10.3,88.12 11.76,88.35C13.04,88.55 14.31,88.41 15.58,88.21C17.4,87.91 19.13,87.32 20.76,86.46C23.11,85.22 25.11,83.53 26.95,81.65C27.19,81.41 27.43,81.31 27.75,81.34C28.59,81.43 29.4,81.27 30.2,81.08C30.84,80.93 31.43,80.64 32,80.33C32.73,79.94 33.46,79.55 34.18,79.15C34.35,79.05 34.41,79.1 34.47,79.26C34.6,79.63 34.75,79.99 34.9,80.35C35.26,81.19 35.61,82.05 35.94,82.9C36.34,83.93 36.76,84.94 37.14,85.98C37.19,86.11 37.21,86.21 37.4,86.16C38.79,85.85 40.18,85.57 41.57,85.24C42.83,84.94 44.09,84.68 45.35,84.38C46.32,84.15 47.3,83.96 48.28,83.76C48.45,83.72 48.7,83.7 48.66,83.44C48.59,83 48.62,82.55 48.59,82.11C48.53,81.15 48.43,80.19 48.41,79.24C48.4,78.67 48.3,78.11 48.3,77.54C48.3,76.98 48.3,76.4 48.21,75.83C48.11,75.16 48.18,74.47 48.08,73.79C48,73.26 48.08,73.21 48.58,73.39C49.19,73.6 49.8,73.86 50.45,73.88C51.53,73.91 52.62,73.9 53.69,73.7C55.74,73.33 57.59,72.51 59.28,71.32C60.17,70.69 60.99,69.98 61.72,69.17C61.78,69.11 61.81,68.99 61.92,69.01C62.1,70.05 61.95,71.09 62.06,72.12C62.1,72.49 62.06,72.51 62.45,72.39C64.76,71.72 67.04,70.98 69.33,70.23C71.64,69.47 73.95,68.68 76.26,67.89C78.37,67.17 80.47,66.43 82.57,65.69C82.78,65.62 82.86,65.64 82.88,65.87C82.9,66.1 82.89,66.34 82.95,66.55C83.27,67.68 83.55,68.82 83.99,69.91C84.97,72.32 86.38,74.41 88.57,75.89C90.31,77.06 92.23,77.67 94.33,77.76C95.2,77.8 96.07,77.79 96.93,77.66C98.79,77.38 100.57,76.81 102.26,75.98C104.15,75.04 105.87,73.85 107.41,72.41C108.36,71.52 109.26,70.58 110.03,69.52C110.44,68.96 110.84,68.4 111.21,67.81C112.18,66.24 112.96,64.58 113.52,62.82C113.6,62.58 113.57,62.42 113.35,62.27C113.04,62.06 112.76,61.82 112.46,61.61C112.28,61.49 112.23,61.4 112.4,61.22C112.61,61 112.8,60.76 112.98,60.51C113.1,60.35 113.19,60.32 113.37,60.45C113.82,60.79 114.3,61.1 114.75,61.45C114.95,61.6 115.05,61.61 115.19,61.38C115.52,60.84 115.88,60.32 116.24,59.8C116.36,59.63 116.41,59.41 116.62,59.29C116.83,59.75 117.06,60.21 117.25,60.68C117.34,60.9 117.45,60.95 117.69,60.89C120.01,60.29 122.33,59.71 124.64,59.11C124.86,59.05 124.98,59.11 125.11,59.29C125.59,59.99 126.13,60.63 126.77,61.19C127.54,61.87 128.39,62.38 129.34,62.78C130.28,63.18 131.27,63.2 132.25,63.28C133.13,63.35 134,63.18 134.85,62.96C137.33,62.34 139.51,61.13 141.53,59.58C141.75,59.41 141.92,59.38 142.17,59.47C143.4,59.9 144.68,60.02 145.96,59.85C147.16,59.69 148.29,59.25 149.32,58.59C151.02,57.52 152.33,56.06 153.46,54.42C154.72,52.59 155.69,50.62 156.48,48.54C156.55,48.35 156.56,48.14 156.68,47.95C156.88,47.65 156.79,47.43 156.49,47.2L156.54,47.24Z"/>
            <path d="M14.48,48.99C15.6,49.33 16.5,49.94 17.16,50.86C18.21,52.31 18.68,53.94 18.49,55.72C18.38,56.73 17.78,57.53 17.08,58.24C16.19,59.13 15.13,59.72 13.88,59.96C12.27,60.28 10.91,59.77 9.76,58.69C8.35,57.36 7.7,55.68 7.7,53.76C7.7,52.47 8.26,51.4 8.96,50.37C9.68,49.32 10.68,48.59 11.68,47.86C12.39,47.34 13.2,46.96 14.02,46.65C15,46.29 16.03,46.18 17.09,46.33C17.99,46.45 18.88,46.25 19.71,45.85C20.28,45.57 20.79,45.2 21.33,44.87C21.76,44.6 22.23,44.41 22.73,44.41C23.14,44.41 23.55,44.47 23.96,44.52C24.48,44.59 25.02,44.63 25.53,44.79C26.16,44.99 26.75,45.25 27.19,45.77C27.4,46.02 27.49,46.32 27.62,46.6C27.67,46.7 27.59,46.76 27.55,46.82C27.3,47.3 26.96,47.71 26.6,48.1C25.83,48.94 24.93,49.6 23.89,50.07C23.56,50.22 23.52,50.41 23.55,50.72C23.67,51.75 23.76,52.78 23.86,53.81C23.91,54.41 23.9,54.41 24.52,54.35C25.65,54.24 26.78,54.23 27.9,54.47C28.69,54.64 29.33,54.99 29.83,55.73C30.3,56.43 30.37,57.17 30.48,57.92C30.62,58.91 30.7,59.9 30.78,60.89C30.86,61.85 30.91,62.81 31.03,63.76C31.23,65.35 31.37,66.95 31.93,68.47C32.02,68.71 32.13,68.95 32.27,69.17C32.69,69.85 33.24,69.97 33.85,69.45C34.15,69.2 34.32,69.23 34.6,69.45C35.33,70 35.34,69.99 35,70.82C34.42,72.23 33.66,73.53 32.49,74.55C31.46,75.45 30.25,75.96 28.91,76.16C28.13,76.28 27.33,76.33 26.55,76.16C25.89,76.02 25.27,75.78 24.65,75.51C24.47,75.43 24.38,75.43 24.28,75.63C22.86,78.37 20.69,80.25 17.78,81.27C16.36,81.77 14.89,81.97 13.38,81.95C11.67,81.93 10.29,81.17 9.05,80.06C8.63,79.68 8.21,79.27 7.92,78.82C7.16,77.6 6.5,76.31 6.25,74.87C5.71,71.75 5.97,68.72 7.27,65.8C7.6,65.06 8.04,64.37 8.58,63.79C9.63,62.66 10.92,61.85 12.37,61.32C13.81,60.79 15.31,60.52 16.81,60.28C17.82,60.12 18.84,60 19.82,59.69C20.07,59.61 20.32,59.52 20.55,59.4C21.21,59.07 21.57,58.55 21.53,57.78C21.47,56.7 21.47,55.61 21.38,54.53C21.27,53.11 21.23,51.67 20.86,50.28C20.86,50.25 20.85,50.22 20.84,50.18C20.54,49.15 20.12,48.19 18.99,47.87C17.71,47.51 16.43,47.43 15.3,48.36C15.05,48.56 14.79,48.75 14.5,48.97L14.48,48.99ZM22.83,67.88C22.87,67.44 22.74,66.84 22.75,66.23C22.77,65.34 22.56,64.5 22.13,63.73C21.34,62.3 19.95,61.89 18.52,62.69C17.13,63.47 16.27,64.68 15.82,66.19C15.56,67.05 15.63,67.94 15.69,68.82C15.76,69.89 15.92,70.93 16.29,71.94C16.57,72.7 16.96,73.4 17.65,73.87C18.45,74.42 19.33,74.48 20.25,74.34C21.84,74.1 22.82,73.02 22.89,71.49C22.92,70.83 22.87,70.17 22.84,69.51C22.82,69.03 22.84,68.54 22.84,67.88L22.83,67.88Z" style="fill:rgb(255,255,0);"/>
            <path d="M15.95,7.42C16.84,8.12 17.83,8.57 18.78,9.08C19.24,9.33 19.14,9.74 19.24,10.09C19.27,10.19 19.22,10.37 19.24,10.5C19.33,10.88 19.27,11.28 19.33,11.66C19.45,12.43 19.44,13.22 19.54,13.99C19.66,14.89 19.64,15.8 19.77,16.7C19.84,17.2 19.88,17.71 19.92,18.22C20.01,19.32 20.1,20.42 20.2,21.52C20.29,22.52 20.4,23.53 20.5,24.53C20.61,25.66 20.71,26.78 20.84,27.91C20.95,28.87 21.09,29.82 21.22,30.77C21.42,32.29 21.65,33.81 22.02,35.31C22.21,36.07 22.5,36.78 23.28,37.14C24.26,37.59 25.34,37.32 26,36.48C26.28,36.12 26.23,35.7 26.26,35.3C26.33,34.4 26.27,33.5 26.19,32.6C26.13,31.97 26.14,31.33 26.06,30.7C25.91,29.52 25.92,28.33 25.75,27.15C25.66,26.53 25.71,25.88 25.62,25.26C25.51,24.49 25.54,23.71 25.43,22.94C25.35,22.39 25.41,21.81 25.35,21.25C25.29,20.71 25.26,20.17 25.08,19.65C24.71,18.6 23.9,18.06 22.76,18.13C22.29,18.16 22.3,18.16 22.26,17.69C22.24,17.36 22.21,17.04 22.18,16.71C22.17,16.58 22.18,16.52 22.33,16.49C23.04,16.35 23.72,16.13 24.4,15.89C25.58,15.48 26.67,14.93 27.68,14.21C28.72,13.47 29.6,12.58 30.27,11.49C30.59,10.96 30.59,10.96 31.17,11.15C31.33,11.2 31.48,11.28 31.64,11.3C31.99,11.35 32.1,11.54 32.02,11.86C31.89,12.34 31.98,12.83 31.98,13.32C31.98,14.45 31.98,15.59 32.04,16.72C32.05,16.99 32.01,17.29 32.17,17.56C32.24,17.67 32.06,17.83 32.08,18C32.12,18.28 32.16,18.56 32.17,18.84C32.21,19.94 32.36,21.03 32.55,22.12C32.86,23.92 33.17,25.72 33.49,27.52C33.71,28.74 33.96,29.95 34.17,31.18C34.34,32.18 34.91,32.8 35.84,33.12C36.13,33.22 36.43,33.35 36.75,33.33C36.9,33.32 36.92,33.41 36.93,33.53C36.99,34.12 37.08,34.71 37.11,35.3C37.11,35.47 37.29,35.66 37.12,35.82C36.98,35.95 36.79,35.97 36.61,36.03C36.23,36.18 35.83,36.31 35.46,36.48C35.21,36.59 35.11,36.58 35.01,36.29C34.64,35.15 34.23,34.03 33.85,32.89C33.77,32.65 33.68,32.56 33.42,32.59C32.57,32.7 31.72,32.78 30.87,32.86C30.63,32.88 30.65,33.07 30.64,33.19C30.6,33.54 30.6,33.9 30.61,34.25C30.61,34.39 30.58,34.52 30.57,34.66C30.51,35.33 30.47,36 30.43,36.67C30.38,37.54 30.34,38.42 30.3,39.29C30.3,39.42 30.24,39.48 30.14,39.54C29.5,39.91 28.86,40.28 28.23,40.66C27.99,40.81 27.9,40.64 27.8,40.49C27.23,39.7 26.67,38.91 26.08,38.08C25.99,38.26 25.91,38.42 25.82,38.57C25.26,39.53 24.55,40.36 23.76,41.14C22.71,42.18 21.56,43.08 20.27,43.81C19.11,44.46 17.87,44.92 16.54,44.89C15.43,44.87 14.41,44.45 13.62,43.58C13.24,43.16 12.93,42.69 12.67,42.18C12.18,41.19 11.71,39.59 11.52,38.21C11.4,37.38 11.21,36.55 11.18,35.71C11.15,34.86 11.02,34.03 10.98,33.18C10.93,32.21 10.87,31.24 10.76,30.27C10.72,29.92 10.69,29.56 10.68,29.2C10.68,28.97 10.65,28.76 10.57,28.54C10.51,28.37 10.57,28.17 10.55,27.97C10.36,26.2 10.1,24.44 9.43,22.77C9.11,21.97 8.66,21.25 8.03,20.67C7.33,20.03 6.5,19.68 5.53,19.7C4.72,19.71 4.71,19.7 4.65,18.91C4.6,18.34 4.61,18.35 5.14,18.12C6.22,17.65 7.3,17.19 8.36,16.69C10.18,15.82 11.86,14.73 13.12,13.11C13.96,12.04 14.63,10.87 15.13,9.61C15.41,8.9 15.7,8.19 15.91,7.4L15.95,7.42Z" style="fill:rgb(255,255,0);"/>
            <path d="M58.33,29.35L58.33,32.4C58.33,32.5 58.29,32.58 58.17,32.61C56.36,33.08 54.6,33.69 52.82,34.23C52.57,34.31 52.53,34.28 52.51,34.01C52.42,32.52 52.14,31.06 51.39,29.74C51.06,29.15 50.6,28.65 50.02,28.32C49.33,27.93 49.18,27.33 49.18,26.62C49.18,25.56 49.05,24.5 49,23.44C48.98,22.89 48.93,22.34 48.92,21.79C48.9,20.31 48.78,18.85 48.33,17.43C48.21,17.05 48.05,16.7 47.82,16.38C47.23,15.58 46.31,15.64 45.85,16.53C45.5,17.22 45.44,17.97 45.4,18.72C45.35,19.64 45.44,20.55 45.53,21.46C45.55,21.6 45.56,21.74 45.57,21.88C45.6,22.94 45.59,24.01 45.66,25.07C45.7,25.66 45.69,26.24 45.75,26.83C45.78,27.09 45.69,27.18 45.45,27.26C43.49,27.9 41.71,28.85 40.21,30.29C39.75,30.74 39.34,31.23 38.99,31.77C38.88,31.72 38.93,31.63 38.93,31.57C38.92,30.8 38.95,30.02 38.9,29.25C38.83,28.07 38.82,26.89 38.66,25.72C38.52,24.74 38.43,23.75 38.19,22.79C37.9,21.57 37.52,20.39 36.85,19.32C36.43,18.65 35.92,18.08 35.23,17.66C34.79,17.4 34.36,17.15 33.85,17.07C33.63,17.04 33.62,16.93 33.62,16.76C33.62,16.26 33.65,15.76 33.62,15.26C33.6,14.96 33.72,14.88 33.98,14.83C35.27,14.59 36.53,14.22 37.77,13.78C38.79,13.42 39.77,12.97 40.69,12.4C41.63,11.81 42.51,11.15 43.17,10.24C43.25,10.14 43.3,10.05 43.46,10.14C43.84,10.35 44.24,10.54 44.57,10.83C44.74,10.98 44.84,11.11 44.71,11.38C44.58,11.66 44.58,12 44.54,12.31C44.44,13.2 44.36,14.09 44.31,15.02C44.62,14.59 44.96,14.17 45.23,13.71C45.31,13.57 45.43,13.51 45.52,13.4C45.92,12.89 46.33,12.41 46.75,11.91C47.42,11.11 48.18,10.38 49,9.75C49.84,9.11 50.75,8.54 51.85,8.37C53.3,8.15 54.67,8.74 55.35,10.1C55.59,10.59 55.72,11.12 55.86,11.64C55.98,12.08 55.91,12.51 55.93,12.93C56.05,12.98 56.08,12.89 56.12,12.84C57.06,11.41 57.99,9.97 59.05,8.63C59.77,7.72 60.55,6.85 61.57,6.27C61.94,6.06 62.37,5.88 62.89,5.99C63.21,6.06 63.59,6.03 63.92,6.12C64.86,6.36 65.54,6.95 66.04,7.77C66.63,8.74 66.86,9.83 67.04,10.93C67.16,11.62 67.17,12.31 67.17,13.01C67.17,13.09 67.23,13.17 67.28,13.24C67.31,13.29 67.39,13.33 67.34,13.4C67.08,13.77 67.31,14.16 67.31,14.54C67.31,15.09 67.38,15.64 67.43,16.19C67.52,17.23 67.62,18.26 67.72,19.3C67.76,19.8 67.82,20.3 67.83,20.8C67.83,21.16 67.92,21.52 67.95,21.88C67.97,22.15 67.95,22.43 67.98,22.7C68.08,23.52 68.16,24.34 68.23,25.17C68.28,25.71 68.3,26.27 68.4,26.81C68.46,27.11 68.51,27.49 68.43,27.84C68.41,27.94 68.44,28.12 68.52,28.27C68.59,28.41 68.49,28.67 68.66,28.73C68.8,28.78 69,28.69 69.17,28.65C69.47,28.58 69.76,28.52 70.05,28.43C70.26,28.37 70.3,28.43 70.32,28.64C70.38,29.37 70.36,30.1 70.37,30.83C70.37,31.01 70.31,31.06 70.15,31.12C69.65,31.29 69.11,31.35 68.62,31.56C68,31.83 67.32,31.87 66.69,32.13C65.83,32.49 64.91,32.65 64.03,32.99C63.51,33.19 62.94,33.3 62.42,33.49C61.93,33.68 61.39,33.76 60.92,34.06C60.6,34.26 60.22,34.36 59.85,34.48C59.55,34.58 59.57,34.33 59.56,34.16C59.53,33.6 59.52,33.03 59.51,32.47L59.51,32.34C59.45,32.02 59.54,31.85 59.89,31.74C60.45,31.56 60.97,31.29 61.52,31.08C61.71,31.01 61.78,30.9 61.73,30.71C61.63,30.34 61.63,29.96 61.62,29.59C61.6,29 61.51,28.43 61.46,27.84C61.39,26.96 61.32,26.07 61.22,25.19C61.16,24.65 61.12,24.1 61.08,23.55C61.04,23.09 61.04,22.63 60.96,22.16C60.88,21.68 60.94,21.18 60.89,20.69C60.81,19.89 60.72,19.1 60.6,18.31C60.51,17.77 60.36,17.25 60.22,16.73C60.03,16.03 59.73,15.36 59.26,14.79C58.62,14.01 57.2,14.06 56.68,15.04C56.37,15.62 56.21,16.23 56.12,16.87C55.95,18.07 56,19.28 56.12,20.48C56.3,22.35 56.58,24.21 56.71,26.08C56.77,27.02 56.94,27.95 56.97,28.89C56.97,28.98 57.02,29.08 57.03,29.17C57.08,29.64 57.08,29.64 57.56,29.52C57.83,29.45 58.1,29.39 58.34,29.33L58.33,29.35Z" style="fill:rgb(255,255,0);"/>
            <path d="M88.07,42.46C87.38,42.68 86.68,42.89 86,43.11C84.81,43.5 83.62,43.88 82.45,44.33C82.26,44.4 82.12,44.41 82.13,44.15C82.13,44.11 82.09,44.07 82.09,44.03C82.15,43.46 81.99,42.91 82.03,42.34C82.03,42.25 82.04,42.21 82.15,42.16C84.59,40.97 86.67,39.31 88.34,37.16C89.97,35.06 91.07,32.7 91.75,30.14C92.05,29.02 92.29,27.88 92.42,26.73C92.63,24.93 92.75,23.12 92.61,21.31C92.54,20.37 92.55,19.42 92.3,18.49C92.26,18.33 92.3,18.19 92.48,18.08C93.58,17.42 94.68,16.75 95.77,16.08C95.97,15.95 96.01,16 96.02,16.22C96.05,17.11 96.08,17.99 96.16,18.88C96.2,19.37 96.27,19.85 96.28,20.34C96.29,20.87 96.34,21.41 96.36,21.94C96.39,22.83 96.49,23.71 96.55,24.6C96.6,25.3 96.63,26.01 96.68,26.71C96.77,28.09 96.87,29.47 96.96,30.84C97,31.51 97.03,32.18 97.07,32.85C97.13,33.7 97.2,34.55 97.26,35.4C97.28,35.62 97.27,35.84 97.26,36.05C97.25,36.33 97.33,36.4 97.62,36.31C100.76,35.29 103.91,34.28 107.06,33.28C107.45,33.16 107.46,33.06 107.46,33.57L107.46,37.36C107.46,37.57 107.41,37.69 107.2,37.77C105.08,38.58 102.92,39.28 100.73,39.91C99.81,40.18 98.87,40.41 97.95,40.66C97.72,40.72 97.51,40.71 97.54,41.13C97.57,41.58 97.54,42.05 97.54,42.52C97.53,43.15 97.54,43.78 97.56,44.41C97.58,45 97.61,45.6 97.63,46.19C97.65,46.9 97.74,47.61 97.7,48.34C97.68,48.77 97.84,49.24 97.87,49.69C97.97,51.08 98.15,52.45 98.26,53.84C98.33,54.72 98.52,55.59 98.65,56.46C98.88,57.95 99.17,59.43 99.54,60.89C99.75,61.72 99.96,62.56 100.24,63.37C100.56,64.32 101.29,64.88 102.3,64.91C103.1,64.93 103.77,64.64 104.41,64.13C105.02,63.64 105.47,63.05 105.89,62.41C105.98,62.28 106.07,62.15 106.05,61.96C106.53,62.25 106.98,62.53 107.43,62.8C107.59,62.89 107.64,62.97 107.56,63.16C106.91,64.71 106.13,66.18 105.1,67.51C104.08,68.82 102.89,69.93 101.45,70.77C99.42,71.95 97.24,72.5 94.89,72.32C93.81,72.23 92.85,71.85 92.02,71.14C91.09,70.34 90.59,69.28 90.21,68.15C89.84,67.03 89.66,65.87 89.55,64.7C89.46,63.71 89.39,62.72 89.34,61.72C89.25,59.99 89.13,58.27 89.02,56.54C88.96,55.51 88.89,54.48 88.82,53.46C88.76,52.62 88.68,51.78 88.63,50.94C88.56,49.85 88.51,48.75 88.44,47.65C88.38,46.59 88.31,45.53 88.23,44.47C88.18,43.81 88.13,43.14 88.07,42.45L88.07,42.46Z" style="fill:rgb(255,255,0);"/>
            <path d="M45.49,40.84C44.92,41.23 44.33,41.56 43.64,41.71C42.29,42 40.36,41.18 39.62,39.91C38.98,38.83 38.84,37.67 38.93,36.45C38.95,36.24 38.94,36.01 38.95,35.79C38.97,34.89 39.27,34.05 39.66,33.26C40.83,30.88 42.7,29.29 45.27,28.59C48.18,27.79 50.7,29.67 51.49,32.01C51.63,32.43 51.77,32.87 51.77,33.32C51.77,34.24 51.57,35.1 51.04,35.89C50.37,36.89 49.71,37.89 49.08,38.92C46.59,42.98 44.86,47.35 43.7,51.96C43.55,52.56 43.48,53.18 43.32,53.77C43,54.97 42.9,56.2 42.71,57.41C42.57,58.28 42.62,59.16 42.65,60.04C42.78,64.18 42.9,68.32 43.02,72.46C43.08,74.62 43.15,76.77 43.22,78.93C43.22,79.17 43.17,79.27 42.93,79.31C42.05,79.46 41.18,79.62 40.3,79.8C40.08,79.84 40.02,79.78 39.96,79.6C39.24,77.34 38.51,75.09 37.79,72.83C37.37,71.51 36.95,70.2 36.53,68.88C36.21,67.88 35.91,66.87 35.56,65.88C34.94,64.12 34.56,62.29 33.93,60.54C33.68,59.84 33.41,59.14 33.07,58.48C33,58.35 32.96,58.2 32.81,58.13C32.63,58.04 32.76,57.86 32.69,57.73C31.41,55.5 29.7,53.86 27.05,53.45C26.44,53.36 25.83,53.33 25.22,53.36C25.02,53.37 24.96,53.31 24.93,53.12C24.9,52.87 24.79,52.59 24.79,52.37C24.79,51.92 24.71,51.48 24.71,51.03C24.71,50.9 24.8,50.87 24.88,50.82C25.52,50.43 26.12,49.98 26.65,49.43C27.12,48.94 27.66,48.52 28.1,48C29.37,46.5 30.43,44.88 31,42.97C31.29,42.01 31.36,41.02 31.4,40.02C31.44,39.2 31.43,38.38 31.5,37.56C31.57,36.74 31.57,35.91 31.57,35.09C31.57,34.72 31.64,34.36 31.64,33.99C31.64,33.86 31.72,33.83 31.83,33.82C32.19,33.77 32.56,33.74 32.92,33.68C33.13,33.65 33.2,33.72 33.26,33.91C33.73,35.4 34.21,36.89 34.7,38.38C35.35,40.4 36.01,42.41 36.66,44.43C37.34,46.55 38,48.69 38.71,50.8C38.94,51.48 39.12,52.18 39.35,52.86C39.59,53.56 39.8,54.26 40.03,54.96C40.26,55.67 40.49,56.39 40.72,57.1C40.75,57.19 40.78,57.28 40.82,57.39C41.75,51.69 43.07,46.13 45.54,40.91C45.54,40.88 45.56,40.84 45.55,40.83C45.52,40.8 45.5,40.83 45.48,40.86L45.49,40.84Z" style="fill:rgb(255,255,0);"/>
            <path d="M72.36,40.7C72.8,39.82 73.22,39.03 73.68,38.27C74.2,37.4 74.73,36.53 75.32,35.71C75.72,35.15 76.19,34.63 76.61,34.08C76.7,33.97 76.81,33.99 76.92,33.96C77.22,33.9 77.52,34 77.83,33.94C78.62,33.78 79.3,33.4 79.88,32.85C79.97,32.77 80.04,32.68 80.18,32.72C81.48,33.07 82.7,33.58 83.6,34.64C84.42,35.61 84.67,36.76 84.78,37.99C84.85,38.71 84.58,39.18 84.02,39.61C83.08,40.32 82.1,40.92 80.95,41.23C80.75,41.28 80.71,41.37 80.7,41.56C80.67,42.63 80.79,43.69 80.79,44.76C80.79,45.21 80.83,45.67 80.83,46.12C80.83,46.34 80.9,46.34 81.08,46.27C82.41,45.8 83.74,45.34 85.08,44.89C85.39,44.78 85.49,44.84 85.48,45.16C85.44,45.85 85.52,46.53 85.57,47.2C85.61,47.76 85.61,48.32 85.65,48.87C85.7,49.56 85.72,50.26 85.76,50.96C85.8,51.81 85.84,52.66 85.88,53.51C85.92,54.27 86,55.04 85.99,55.8C85.99,56.04 86.11,56.04 86.27,56C86.49,55.94 86.71,55.88 86.92,55.8C87.06,55.75 87.11,55.75 87.11,55.92L87.11,58.47C87.11,58.65 87,58.68 86.87,58.71C85.88,58.96 84.89,59.24 83.91,59.53C82.94,59.81 81.97,60.09 81,60.38C79.94,60.7 78.87,60.98 77.81,61.29C77.59,61.35 77.56,61.31 77.55,61.1C77.52,60.39 77.47,59.68 77.42,58.96C77.41,58.77 77.48,58.7 77.66,58.62C77.9,58.51 78.16,58.46 78.4,58.35C78.58,58.27 78.6,58.18 78.6,58.02C78.61,56.78 78.47,55.55 78.45,54.31C78.44,53.44 78.37,52.58 78.33,51.71C78.26,50.31 78.26,48.92 78.19,47.52C78.14,46.47 78.04,45.41 77.85,44.38C77.76,43.87 77.75,43.35 77.59,42.86C77.42,42.34 77.31,41.81 77.09,41.31C76.84,40.74 76.55,40.22 75.98,39.88C75.45,39.57 74.86,39.59 74.41,40.05C74.12,40.34 73.95,40.71 73.82,41.09C73.39,42.34 73.36,43.65 73.31,44.95C73.29,45.6 73.31,46.25 73.33,46.89C73.35,47.32 73.36,47.76 73.42,48.2C73.55,49.13 73.53,50.07 73.51,51C73.5,51.58 73.6,52.16 73.64,52.74C73.69,53.39 73.68,54.04 73.77,54.69C73.88,55.49 73.89,56.29 73.98,57.08C74.07,57.83 74.11,58.59 74.15,59.34C74.16,59.56 74.23,59.56 74.4,59.51C74.85,59.37 75.3,59.25 75.75,59.12C75.96,59.06 76.04,59.07 76.06,59.34C76.13,60.05 76.06,60.77 76.18,61.48C76.22,61.73 76.15,61.85 75.88,61.93C72.78,62.85 69.69,63.78 66.6,64.72C66.31,64.81 66.24,64.76 66.24,64.45C66.24,63.79 66.24,63.12 66.19,62.46C66.17,62.16 66.27,62.04 66.55,61.96C66.99,61.84 67.41,61.66 67.85,61.52C68.02,61.47 68.08,61.39 68.08,61.2C68.07,60.22 67.96,59.25 67.89,58.28C67.86,57.89 67.85,57.5 67.83,57.12C67.78,56.11 67.7,55.09 67.64,54.08C67.6,53.4 67.59,52.72 67.49,52.04C67.27,50.53 66.9,49.07 66,47.82C65.17,46.67 64.07,46.09 62.62,46.34C62.45,46.37 62.4,46.29 62.4,46.12C62.4,45.63 62.43,45.14 62.39,44.65C62.35,44.29 62.32,44.11 62.81,44.09C63.46,44.06 64.12,43.92 64.74,43.66C65.46,43.35 66.09,42.92 66.69,42.39C67.68,41.5 68.39,40.43 68.91,39.24C69.26,38.46 69.63,37.67 69.79,36.81C69.83,36.61 69.87,36.55 70.12,36.58C70.56,36.65 71.01,36.61 71.46,36.6C71.64,36.6 71.73,36.64 71.76,36.84C71.95,38.09 72.15,39.35 72.37,40.7L72.36,40.7Z" style="fill:rgb(255,255,0);"/>
            <path d="M81.77,28.96C80.59,30.89 79.13,32.5 76.9,33.19C74.66,33.88 72.6,33.29 70.65,32.11C70.79,32.06 70.93,32.01 71.06,31.96C71.58,31.77 71.61,31.77 71.53,31.24C71.47,30.84 71.49,30.44 71.48,30.04C71.46,28.98 71.43,27.93 71.43,26.87C71.43,26.58 71.31,26.57 71.1,26.62C70.76,26.7 70.42,26.76 70.08,26.84C69.93,26.87 69.84,26.88 69.84,26.67C69.84,25.87 69.8,25.08 69.79,24.28C69.79,23.89 69.95,23.53 70.1,23.2C70.52,22.26 71.01,21.35 71.73,20.59C72.15,20.15 72.63,19.78 73.15,19.48C74.23,18.86 75.41,18.61 76.64,18.47C77.38,18.38 78.12,18.38 78.86,18.21C79.16,18.14 79.49,18.13 79.79,18.01C80.39,17.78 80.64,17.37 80.64,16.72C80.65,15.84 80.35,15.01 80.29,14.14C80.25,13.63 80.17,13.12 80.12,12.61C80.02,11.64 79.9,10.66 79.51,9.76C79.07,8.74 78.34,8.25 77.31,8.28C76.59,8.3 75.99,8.58 75.52,9.14C75.37,9.32 75.36,9.4 75.59,9.54C77.08,10.52 77.98,11.87 77.81,13.69C77.66,15.33 76.91,16.73 75.56,17.73C74.34,18.63 72.96,18.61 71.56,18.25C70.54,17.99 69.81,17.36 69.33,16.47C69.05,15.95 68.92,15.35 68.88,14.75C68.81,13.75 68.93,12.78 69.29,11.84C69.9,10.25 71.02,9.07 72.27,8.16C73.03,7.61 73.85,7.16 74.71,6.77C76.69,5.88 79.11,5.29 81.07,5.29C82.78,5.29 84.33,5.75 85.52,7.08C86.3,7.95 86.76,8.99 87.05,10.11C87.36,11.27 87.51,12.45 87.59,13.65C87.66,14.75 87.72,15.85 87.75,16.95C87.78,17.9 87.76,18.86 87.78,19.82C87.8,21.1 87.92,22.37 88.34,23.59C88.48,24.01 88.69,24.38 89.01,24.69C89.48,25.14 89.8,25.16 90.33,24.78C90.52,24.64 90.63,24.33 90.86,24.36C91.05,24.39 91.18,24.67 91.38,24.79C91.69,24.98 91.65,25.16 91.51,25.45C91.07,26.4 90.52,27.26 89.83,28.04C88.5,29.53 86.87,30.47 84.86,30.7C84.15,30.78 83.56,30.54 83,30.13C82.54,29.79 82.17,29.37 81.76,28.96L81.77,28.96ZM81.36,24.37C81.36,23.42 81.43,22.47 81.23,21.54C80.92,20.13 80.37,19.71 79.23,19.55C78.05,19.38 77.27,19.97 76.83,21.2C76.6,21.84 76.5,22.51 76.47,23.18C76.43,24.16 76.47,25.13 76.59,26.1C76.71,27.11 77.21,27.82 78.07,28.3C78.42,28.49 78.8,28.62 79.24,28.51C80,28.31 80.54,27.83 80.99,27.22C81.26,26.85 81.4,26.44 81.38,25.97C81.35,25.44 81.38,24.9 81.38,24.37L81.36,24.37Z" style="fill:rgb(255,255,0);"/>
            <path d="M61.1,45.08L61.1,46.88C61.1,47.08 61.15,47.14 61.36,47.13C62.27,47.08 63.14,47.29 63.92,47.74C64.5,48.08 64.94,48.6 65.22,49.24C65.32,49.47 65.13,49.45 65.03,49.48C63.63,50.05 62.23,50.62 60.83,51.19C58.22,52.25 55.61,53.31 53,54.36C52.77,54.45 52.71,54.57 52.7,54.81C52.7,55.96 52.8,57.09 53.17,58.18C53.6,59.46 54.45,60.25 55.82,60.42C56.9,60.56 57.88,60.28 58.82,59.79C60.2,59.06 61.24,57.95 62.17,56.73C62.78,55.92 63.31,55.06 63.76,54.15C63.86,53.94 63.95,53.93 64.15,54.03C64.9,54.43 64.91,54.43 64.58,55.22C63.31,58.33 61.79,61.29 59.75,63.97C58.59,65.5 57.27,66.87 55.6,67.86C54.75,68.36 53.83,68.73 52.86,68.85C51.84,68.98 50.81,68.85 49.84,68.46C48.73,68.02 47.77,67.35 46.96,66.47C45.69,65.09 44.91,63.46 44.46,61.65C44.35,61.2 44.34,60.72 44.23,60.29C43.98,59.24 44.11,58.19 44.03,57.15C44,56.7 44.12,56.24 44.15,55.78C44.18,55.41 44.33,55.05 44.22,54.67C44.18,54.51 44.39,54.44 44.41,54.25C44.45,53.83 44.56,53.42 44.65,53.01C44.93,51.73 45.23,50.46 45.63,49.21C45.94,48.25 46.22,47.28 46.64,46.36C46.88,45.84 47.08,45.3 47.34,44.79C47.56,44.34 47.85,43.9 47.94,43.39C47.98,43.2 48.19,43.13 48.28,42.97C48.72,42.18 49.21,41.4 49.79,40.72C51.59,38.61 53.72,37.09 56.65,37.17C59.37,37.25 61.54,38.4 63.14,40.61C63.56,41.19 63.91,41.82 64.18,42.49C64.25,42.66 64.27,42.75 64.04,42.8C63.14,43.01 62.24,43.18 61.31,43.08C61.08,43.05 61.09,43.13 61.09,43.29L61.09,45.12L61.1,45.08ZM52.64,51.71C52.7,51.72 52.71,51.73 52.72,51.73C54.53,51.05 56.34,50.36 58.15,49.68C58.47,49.56 58.7,49.39 58.7,49.02L58.7,48.66C58.66,47.68 58.59,46.71 58.6,45.73C58.6,44.97 58.52,44.22 58.39,43.47C58.21,42.48 57.95,41.52 57.43,40.65C56.76,39.53 55.61,39.55 54.84,40.45C54.56,40.78 54.32,41.13 54.15,41.52C53.31,43.42 52.79,45.4 52.77,47.49C52.77,47.74 52.77,47.99 52.75,48.24C52.67,49.4 52.64,50.55 52.63,51.71L52.64,51.71Z" style="fill:rgb(255,255,0);"/>
            <path d="M135.06,34.41C135.47,34.7 135.86,34.99 136.27,35.25C138.33,36.58 138.5,40 136.39,41.62C135.48,42.33 134.46,42.69 133.29,42.76C132.69,42.8 132.13,42.73 131.58,42.55C130.65,42.23 130.08,41.56 129.77,40.65C129.37,39.48 129.36,38.27 129.66,37.1C129.98,35.84 130.68,34.76 131.66,33.87C133.25,32.43 135.14,31.76 137.25,31.63C137.94,31.59 138.62,31.51 139.27,31.2C139.99,30.86 140.75,30.63 141.56,30.65C142.86,30.68 144.12,30.93 145.19,31.71C146.02,32.32 146.58,33.16 146.9,34.15C147.16,34.95 147.28,35.78 147.28,36.62C147.28,39.39 147.25,42.16 147.3,44.92C147.32,46.07 147.41,47.23 147.7,48.35C147.78,48.68 147.92,49.01 148.13,49.29C148.42,49.66 148.63,49.72 149.08,49.56C149.16,49.53 149.26,49.53 149.32,49.47C149.68,49.12 150.01,49.34 150.35,49.51C150.5,49.59 150.53,49.68 150.47,49.82C150.18,50.43 149.84,51 149.45,51.56C149.18,51.95 148.84,52.27 148.51,52.61C148.16,52.97 147.75,53.23 147.33,53.51C146.73,53.92 146.1,54.15 145.4,54.23C144.52,54.33 143.66,54.27 142.8,53.92C142.37,53.75 141.93,53.57 141.51,53.38C141.33,53.3 141.25,53.43 141.2,53.52C140.75,54.28 140.1,54.85 139.5,55.47C139.36,55.62 139.27,55.85 139.12,55.93C138.91,56.04 138.73,56.16 138.54,56.3C137.6,56.99 136.56,57.51 135.47,57.91C135.2,58.01 134.9,58.04 134.61,58.09C133.51,58.29 132.41,58.4 131.34,57.93C129.96,57.32 129.13,56.3 129.02,54.76C129.01,54.59 129.02,54.47 129.24,54.44C129.89,54.35 130.53,54.22 131.18,54.13C131.45,54.09 131.44,53.87 131.44,53.72C131.45,52.19 131.44,50.67 131.44,49.14C131.44,48.92 131.36,48.82 131.11,48.84C130.66,48.87 130.22,48.83 129.77,48.85C129.45,48.87 129.43,48.71 129.57,48.53C129.82,48.19 129.92,47.78 130.09,47.41C130.39,46.75 130.76,46.16 131.2,45.6C131.6,45.09 132.08,44.64 132.58,44.21C134.27,42.74 136.35,42.24 138.45,41.76C138.79,41.68 139.13,41.6 139.45,41.45C139.75,41.31 139.89,41.11 139.85,40.74C139.8,40.32 139.79,39.9 139.79,39.48C139.79,38.81 139.71,38.14 139.7,37.46C139.7,36.68 139.7,35.89 139.56,35.13C139.25,33.56 138.21,32.81 136.59,33.31C135.98,33.5 135.46,33.86 135.06,34.39L135.06,34.41ZM135.92,49.38C135.98,49.69 135.88,50.05 135.99,50.43C136.12,50.87 136.24,51.3 136.48,51.69C136.87,52.33 137.5,52.48 138.2,52.46C138.59,52.45 138.97,52.38 139.31,52.17C140.27,51.57 140.58,50.57 140.79,49.58C140.97,48.73 140.92,47.83 140.96,46.95C140.96,46.79 141.05,46.62 141.02,46.48C140.93,45.99 140.98,45.47 140.77,44.99C140.62,44.64 140.45,44.33 140.12,44.13C139.32,43.66 138.49,43.77 137.74,44.2C136.53,44.89 136.2,46.12 136,47.39C135.9,48.04 135.93,48.69 135.93,49.39L135.92,49.38Z" style="fill:rgb(255,255,0);"/>
            <path d="M108.83,37.25L108.83,33.07C108.83,32.9 108.92,32.89 109.05,32.86C109.93,32.68 110.78,32.43 111.59,32.05C112.48,31.63 113.33,31.15 114.13,30.55C115.17,29.77 116.11,28.9 116.89,27.86C117.01,27.7 117.09,27.7 117.25,27.8C117.82,28.17 118.39,28.52 118.97,28.88C119.09,28.95 119.16,29.03 119.16,29.19C119.16,29.72 119.18,30.26 119.11,30.77C119.04,31.31 119.07,31.84 119.04,32.37C119.03,32.58 118.91,32.62 118.77,32.67C117.92,32.98 117.08,33.3 116.23,33.6C116.04,33.67 115.97,33.76 115.97,33.97C116,34.92 116.02,35.87 116.03,36.81C116.03,36.99 116.08,37.08 116.27,37.13C117.14,37.37 117.95,37.77 118.6,38.38C119.04,38.8 119.43,39.3 119.43,39.98C119.43,40.75 119.55,41.51 119.58,42.27C119.6,42.72 119.62,43.19 119.63,43.65C119.65,44.57 119.69,45.49 119.75,46.41C119.83,47.5 119.85,48.6 119.97,49.69C120.04,50.34 119.79,50.52 119.27,50.74C118.16,51.2 117.19,51.89 116.28,52.69C115.28,53.57 114.44,54.56 113.72,55.67C113.6,55.85 113.54,55.82 113.41,55.69C113.05,55.31 112.71,54.91 112.43,54.47C112.23,54.16 112.12,54.15 111.92,54.45C111.28,55.42 110.59,56.35 109.83,57.23C108.99,58.19 108.08,59.09 107.01,59.79C106.14,60.37 105.2,60.82 104.13,60.79C102.75,60.75 101.62,60.13 101.02,58.73C100.63,57.82 100.43,56.86 100.31,55.88C100.15,54.56 100.13,53.23 100.04,51.91C99.95,50.53 99.96,49.15 99.89,47.78C99.86,47.23 99.83,46.67 99.83,46.13L99.83,44.28C99.83,43.58 99.81,42.89 99.8,42.19L99.8,42.09C99.8,41.9 99.6,41.69 99.77,41.54C99.92,41.42 100.14,41.39 100.34,41.33C101.06,41.1 101.79,40.88 102.51,40.65C103.62,40.3 104.72,39.96 105.83,39.6C106.06,39.52 106.1,39.57 106.1,39.8C106.1,41.48 106.1,43.16 106.13,44.84C106.14,45.56 106.21,46.29 106.26,47.01C106.36,48.53 106.54,50.03 106.97,51.5C107.12,52.01 107.31,52.51 107.59,52.97C108.34,54.19 109.54,54.44 110.72,53.62C111.55,53.05 111.89,52.19 112.06,51.24C112.17,50.65 112.18,50.05 112.17,49.45C112.14,47.02 112.19,44.59 112.22,42.16C112.24,40.93 112.13,39.71 111.74,38.52C111.64,38.22 111.51,37.93 111.34,37.67C110.83,36.88 110.08,36.66 109.22,37.04C109.09,37.1 108.97,37.17 108.79,37.26L108.83,37.25Z" style="fill:rgb(255,255,0);"/>
            <path d="M128.03,30.32C128.46,29.19 128.94,28.1 129.46,27.03C130.07,25.77 130.82,24.6 131.62,23.46C132.29,22.51 133.12,21.71 134.02,20.99C134.59,20.54 135.24,20.18 135.94,19.95C137.17,19.55 138.4,19.56 139.62,20C141.21,20.59 142.14,22.47 142.13,23.75C142.13,23.99 142.24,24.24 142.25,24.49C142.3,25.77 142.08,27.01 141.45,28.11C140.72,29.38 139.62,30.24 138.15,30.6C137.27,30.82 136.39,30.78 135.55,30.55C134.81,30.34 134.2,29.86 133.73,29.22C133.13,28.39 132.86,27.44 132.72,26.45C132.69,26.27 132.66,26.09 132.62,25.87C132.34,26.26 132.13,26.66 131.92,27.06C131,28.78 130.22,30.56 129.6,32.41C129.22,33.55 128.89,34.71 128.64,35.89C128.24,37.78 128.03,39.68 128.13,41.6C128.16,42.12 128.11,42.64 128.21,43.16C128.31,43.67 128.24,44.19 128.27,44.7C128.33,45.59 128.42,46.48 128.45,47.38C128.47,47.94 128.55,48.49 128.54,49.05C128.54,49.38 128.6,49.72 128.6,50.05C128.6,50.27 128.8,50.24 128.92,50.21C129.17,50.13 129.42,50.18 129.66,50.14C129.83,50.12 129.89,50.17 129.89,50.35L129.89,52.64C129.89,52.83 129.79,52.87 129.64,52.9C128.28,53.17 126.91,53.44 125.55,53.73C123.79,54.1 122.11,54.68 120.53,55.52C120.48,55.54 120.44,55.56 120.36,55.6C120.35,55.26 120.26,54.96 120.28,54.65C120.31,53.98 120.19,53.32 120.2,52.65C120.2,52.47 120.25,52.43 120.38,52.4C120.77,52.29 121.13,52.1 121.49,51.93C121.58,51.89 121.66,51.86 121.66,51.73C121.71,50.41 121.72,49.09 121.59,47.76C121.56,47.46 121.6,47.15 121.59,46.84C121.54,45.69 121.48,44.55 121.44,43.4C121.4,42.13 121.31,40.86 120.81,39.66C120.41,38.71 119.87,37.87 119.08,37.2C118.57,36.76 118,36.41 117.37,36.17C117.21,36.11 117.15,36.03 117.16,35.86C117.17,35.6 117.19,35.33 117.16,35.08C117.12,34.74 117.23,34.6 117.58,34.51C118.81,34.21 119.99,33.77 121.1,33.16C122.64,32.32 123.81,31.1 124.67,29.59C125.19,28.67 125.72,27.76 126.13,26.78C126.17,26.67 126.22,26.62 126.37,26.66C126.74,26.77 127.11,26.92 127.49,27C127.73,27.05 127.72,27.32 127.73,27.5C127.76,28.29 127.95,29.07 127.93,29.86C127.93,30.02 128.04,30.16 128.03,30.33L128.03,30.32Z" style="fill:rgb(255,255,0);"/>
            <path d="M99.71,34.1C100.32,33.73 100.77,33.27 101.27,32.88C101.8,32.47 102.31,32.03 102.76,31.52C103.33,30.87 103.98,30.29 104.48,29.59C104.65,29.35 104.86,29.33 105.05,29.45C105.31,29.61 105.61,29.57 105.88,29.65C105.95,29.67 106.03,29.67 106.1,29.69C106.31,29.75 106.43,29.8 106.42,30.11C106.4,30.69 106.33,31.27 106.34,31.86C106.34,32.04 106.27,32.13 106.12,32.17C105.85,32.24 105.6,32.4 105.31,32.37C105.11,32.34 105.05,32.55 104.88,32.6C103.28,33.08 101.68,33.58 100.09,34.08C99.98,34.11 99.88,34.13 99.7,34.11L99.71,34.1Z" style="fill:rgb(255,255,0);"/>
            <path d="M55.19,89.12C54.59,89.12 54.05,89 53.59,88.76C53.13,88.52 52.76,88.19 52.5,87.76C52.24,87.33 52.1,86.84 52.1,86.29C52.1,85.74 52.23,85.26 52.49,84.84C52.75,84.42 53.1,84.08 53.54,83.84C53.98,83.6 54.49,83.47 55.05,83.47C55.61,83.47 56.08,83.59 56.5,83.82C56.92,84.05 57.25,84.37 57.49,84.78C57.73,85.19 57.85,85.65 57.85,86.18C57.85,86.29 57.85,86.4 57.83,86.52C57.82,86.63 57.79,86.76 57.76,86.91L53,86.93L53,85.69L57,85.66L56.14,86.2C56.14,85.9 56.09,85.65 56.01,85.46C55.93,85.27 55.81,85.12 55.66,85.01C55.51,84.91 55.31,84.86 55.08,84.86C54.85,84.86 54.63,84.92 54.45,85.04C54.27,85.16 54.14,85.32 54.04,85.54C53.94,85.76 53.9,86.01 53.9,86.31C53.9,86.61 53.95,86.88 54.05,87.1C54.15,87.32 54.3,87.48 54.49,87.59C54.68,87.7 54.92,87.76 55.2,87.76C55.46,87.76 55.7,87.72 55.9,87.63C56.1,87.54 56.28,87.41 56.45,87.22L57.45,88.22C57.19,88.52 56.86,88.75 56.48,88.9C56.1,89.05 55.67,89.13 55.19,89.13L55.19,89.12Z"/>
            <path d="M64.16,89.12C63.58,89.12 63.06,89 62.61,88.75C62.16,88.5 61.8,88.16 61.53,87.73C61.27,87.3 61.13,86.82 61.13,86.28C61.13,85.74 61.26,85.26 61.52,84.84C61.78,84.42 62.14,84.08 62.6,83.84C63.06,83.6 63.57,83.47 64.15,83.47C64.73,83.47 65.24,83.59 65.69,83.84C66.14,84.09 66.5,84.42 66.77,84.84C67.04,85.26 67.17,85.74 67.17,86.28C67.17,86.82 67.04,87.3 66.78,87.73C66.52,88.16 66.16,88.5 65.71,88.75C65.26,89 64.74,89.12 64.17,89.12L64.16,89.12ZM64.15,87.41C64.36,87.41 64.55,87.36 64.71,87.27C64.87,87.18 64.99,87.05 65.08,86.88C65.17,86.71 65.21,86.52 65.21,86.3C65.21,86.08 65.16,85.89 65.07,85.72C64.98,85.55 64.85,85.43 64.7,85.33C64.55,85.24 64.36,85.19 64.15,85.19C63.94,85.19 63.76,85.24 63.6,85.33C63.44,85.43 63.31,85.56 63.22,85.72C63.13,85.88 63.09,86.08 63.09,86.3C63.09,86.52 63.13,86.7 63.22,86.87C63.31,87.04 63.43,87.17 63.6,87.26C63.77,87.35 63.95,87.4 64.15,87.4L64.15,87.41Z"/>
            <path d="M70.84,89.12C70.33,89.12 69.88,89.02 69.49,88.82C69.1,88.62 68.79,88.33 68.56,87.97C68.34,87.61 68.22,87.19 68.22,86.73L68.22,83.61L70.14,83.61L70.14,86.73C70.14,86.88 70.17,87.01 70.23,87.12C70.29,87.23 70.37,87.31 70.47,87.37C70.57,87.43 70.69,87.46 70.83,87.46C71.04,87.46 71.2,87.39 71.33,87.26C71.46,87.13 71.52,86.95 71.52,86.73L71.52,83.61L73.44,83.61L73.44,86.73C73.44,87.2 73.33,87.62 73.11,87.98C72.89,88.34 72.58,88.62 72.19,88.82C71.8,89.02 71.34,89.12 70.83,89.12L70.84,89.12Z"/>
            <path d="M74.43,85.2L74.43,83.6L78.73,83.6L78.73,85.2L74.43,85.2ZM75.62,89L75.62,81.37L77.54,81.37L77.54,89L75.62,89Z"/>
            <path d="M79.85,89L79.85,83.6L81.77,83.6L81.77,89L79.85,89ZM81.77,86.06L80.91,85.33C81.12,84.72 81.41,84.26 81.76,83.95C82.11,83.64 82.57,83.49 83.14,83.49C83.4,83.49 83.62,83.52 83.81,83.59C84,83.66 84.16,83.76 84.29,83.9L83.17,85.39C83.11,85.32 83.03,85.27 82.92,85.23C82.81,85.19 82.69,85.17 82.56,85.17C82.31,85.17 82.11,85.25 81.98,85.4C81.84,85.55 81.77,85.77 81.77,86.07L81.77,86.06Z"/>
            <path d="M87.21,89.11C86.71,89.11 86.26,88.99 85.87,88.75C85.48,88.51 85.17,88.17 84.95,87.75C84.73,87.33 84.62,86.85 84.62,86.31C84.62,85.77 84.73,85.28 84.95,84.85C85.17,84.42 85.48,84.09 85.87,83.85C86.26,83.61 86.71,83.49 87.21,83.49C87.55,83.49 87.86,83.55 88.14,83.67C88.42,83.79 88.65,83.96 88.83,84.18C89.01,84.4 89.12,84.65 89.16,84.93L89.16,87.65C89.12,87.94 89.01,88.19 88.83,88.41C88.65,88.63 88.42,88.8 88.14,88.92C87.86,89.05 87.55,89.11 87.21,89.11ZM87.62,87.39C87.94,87.39 88.19,87.29 88.39,87.08C88.58,86.87 88.68,86.61 88.68,86.28C88.68,86.07 88.64,85.88 88.55,85.72C88.46,85.56 88.34,85.43 88.18,85.33C88.02,85.23 87.84,85.19 87.63,85.19C87.42,85.19 87.24,85.24 87.08,85.33C86.92,85.43 86.8,85.56 86.7,85.72C86.61,85.89 86.56,86.07 86.56,86.28C86.56,86.49 86.6,86.68 86.69,86.85C86.78,87.02 86.9,87.15 87.07,87.24C87.23,87.34 87.41,87.38 87.61,87.38L87.62,87.39ZM88.6,89.01L88.6,87.55L88.88,86.23L88.6,84.93L88.6,83.61L90.49,83.61L90.49,89.01L88.6,89.01Z"/>
            <path d="M94.11,89.15C93.78,89.15 93.45,89.11 93.13,89.02C92.81,88.93 92.51,88.81 92.24,88.66C91.96,88.51 91.73,88.33 91.54,88.14L92.59,87.07C92.77,87.25 92.98,87.4 93.22,87.5C93.47,87.6 93.73,87.65 94.01,87.65C94.17,87.65 94.3,87.63 94.38,87.58C94.46,87.54 94.51,87.47 94.51,87.39C94.51,87.27 94.45,87.18 94.33,87.12C94.21,87.06 94.05,87 93.86,86.95C93.66,86.9 93.46,86.84 93.25,86.77C93.04,86.7 92.83,86.61 92.63,86.49C92.43,86.37 92.27,86.21 92.15,85.99C92.03,85.77 91.97,85.5 91.97,85.17C91.97,84.84 92.06,84.52 92.25,84.26C92.44,84 92.7,83.79 93.04,83.64C93.38,83.49 93.78,83.41 94.23,83.41C94.68,83.41 95.14,83.49 95.55,83.65C95.97,83.81 96.31,84.05 96.57,84.36L95.51,85.43C95.33,85.23 95.14,85.09 94.92,85.02C94.7,84.95 94.51,84.9 94.34,84.9C94.17,84.9 94.05,84.92 93.98,84.97C93.91,85.02 93.87,85.08 93.87,85.16C93.87,85.26 93.93,85.33 94.05,85.39C94.17,85.45 94.33,85.5 94.52,85.55C94.71,85.6 94.92,85.66 95.13,85.73C95.34,85.8 95.54,85.9 95.74,86.03C95.93,86.16 96.09,86.33 96.21,86.54C96.33,86.75 96.39,87.03 96.39,87.37C96.39,87.91 96.18,88.33 95.77,88.64C95.36,88.95 94.81,89.11 94.11,89.11L94.11,89.15Z"/>
            <path d="M102.85,89.12C102.28,89.12 101.76,89 101.3,88.76C100.84,88.52 100.48,88.18 100.21,87.76C99.95,87.33 99.81,86.85 99.81,86.31C99.81,85.77 99.94,85.28 100.21,84.85C100.48,84.42 100.84,84.09 101.3,83.84C101.76,83.59 102.28,83.47 102.86,83.47C103.28,83.47 103.66,83.54 104.01,83.68C104.36,83.82 104.67,84.03 104.96,84.31L103.75,85.52C103.64,85.41 103.51,85.33 103.37,85.27C103.23,85.22 103.06,85.19 102.87,85.19C102.66,85.19 102.48,85.24 102.31,85.33C102.14,85.42 102.01,85.55 101.91,85.71C101.81,85.87 101.76,86.07 101.76,86.29C101.76,86.51 101.81,86.7 101.91,86.87C102.01,87.04 102.14,87.17 102.31,87.26C102.48,87.36 102.66,87.4 102.87,87.4C103.08,87.4 103.25,87.37 103.4,87.3C103.55,87.23 103.68,87.14 103.79,87.01L105.02,88.22C104.72,88.51 104.39,88.73 104.04,88.88C103.69,89.03 103.29,89.1 102.85,89.1L102.85,89.12Z"/>
            <path d="M108.67,89.12C108.09,89.12 107.57,89 107.12,88.75C106.67,88.5 106.31,88.16 106.04,87.73C105.78,87.3 105.64,86.82 105.64,86.28C105.64,85.74 105.77,85.26 106.03,84.84C106.29,84.42 106.65,84.08 107.11,83.84C107.57,83.6 108.08,83.47 108.66,83.47C109.24,83.47 109.75,83.59 110.2,83.84C110.65,84.09 111.01,84.42 111.28,84.84C111.55,85.26 111.68,85.74 111.68,86.28C111.68,86.82 111.55,87.3 111.29,87.73C111.03,88.16 110.67,88.5 110.22,88.75C109.77,89 109.25,89.12 108.68,89.12L108.67,89.12ZM108.66,87.41C108.87,87.41 109.06,87.36 109.22,87.27C109.38,87.18 109.5,87.05 109.59,86.88C109.68,86.71 109.72,86.52 109.72,86.3C109.72,86.08 109.67,85.89 109.58,85.72C109.49,85.55 109.36,85.43 109.21,85.33C109.06,85.24 108.87,85.19 108.66,85.19C108.45,85.19 108.27,85.24 108.11,85.33C107.95,85.43 107.82,85.56 107.73,85.72C107.64,85.88 107.6,86.08 107.6,86.3C107.6,86.52 107.64,86.7 107.73,86.87C107.82,87.04 107.94,87.17 108.11,87.26C108.28,87.35 108.46,87.4 108.66,87.4L108.66,87.41Z"/>
            <rect x="112.87" y="80.95" width="1.92" height="8.05"/>
            <path d="M119.09,89.12C118.49,89.12 117.95,89 117.49,88.76C117.03,88.52 116.66,88.19 116.4,87.76C116.14,87.33 116,86.84 116,86.29C116,85.74 116.13,85.26 116.39,84.84C116.65,84.42 117,84.08 117.44,83.84C117.88,83.6 118.39,83.47 118.95,83.47C119.51,83.47 119.98,83.59 120.4,83.82C120.82,84.05 121.15,84.37 121.39,84.78C121.63,85.19 121.75,85.65 121.75,86.18C121.75,86.29 121.75,86.4 121.73,86.52C121.72,86.63 121.69,86.76 121.66,86.91L116.9,86.93L116.9,85.69L120.9,85.66L120.04,86.2C120.04,85.9 119.99,85.65 119.91,85.46C119.83,85.27 119.71,85.12 119.56,85.01C119.41,84.91 119.21,84.86 118.98,84.86C118.75,84.86 118.53,84.92 118.35,85.04C118.17,85.16 118.04,85.32 117.94,85.54C117.84,85.76 117.8,86.01 117.8,86.31C117.8,86.61 117.85,86.88 117.95,87.1C118.05,87.32 118.2,87.48 118.39,87.59C118.58,87.7 118.82,87.76 119.1,87.76C119.36,87.76 119.6,87.72 119.8,87.63C120,87.54 120.18,87.41 120.35,87.22L121.35,88.22C121.09,88.52 120.76,88.75 120.38,88.9C120,89.05 119.57,89.13 119.09,89.13L119.09,89.12Z"/>
            <path d="M125.59,89.12C125.02,89.12 124.5,89 124.04,88.76C123.58,88.52 123.22,88.18 122.95,87.76C122.69,87.33 122.55,86.85 122.55,86.31C122.55,85.77 122.68,85.28 122.95,84.85C123.22,84.42 123.58,84.09 124.04,83.84C124.5,83.59 125.02,83.47 125.6,83.47C126.02,83.47 126.4,83.54 126.75,83.68C127.1,83.82 127.41,84.03 127.7,84.31L126.49,85.52C126.38,85.41 126.25,85.33 126.11,85.27C125.97,85.22 125.8,85.19 125.61,85.19C125.4,85.19 125.22,85.24 125.05,85.33C124.88,85.42 124.75,85.55 124.65,85.71C124.55,85.87 124.5,86.07 124.5,86.29C124.5,86.51 124.55,86.7 124.65,86.87C124.75,87.04 124.88,87.17 125.05,87.26C125.22,87.36 125.4,87.4 125.61,87.4C125.82,87.4 125.99,87.37 126.14,87.3C126.29,87.23 126.42,87.14 126.53,87.01L127.76,88.22C127.46,88.51 127.13,88.73 126.78,88.88C126.43,89.03 126.03,89.1 125.59,89.1L125.59,89.12ZM125.15,91.39C124.84,91.39 124.58,91.36 124.38,91.29C124.17,91.22 123.96,91.13 123.74,91L124.28,90.28C124.38,90.35 124.49,90.4 124.6,90.43C124.71,90.46 124.82,90.49 124.94,90.49C125.08,90.49 125.18,90.47 125.23,90.43C125.29,90.39 125.31,90.34 125.31,90.27C125.31,90.2 125.27,90.15 125.19,90.1C125.11,90.06 124.99,90.03 124.82,90.03L124.58,90.03L124.94,88.85L125.93,88.85L125.62,89.67L125.11,89.24C125.62,89.24 126,89.34 126.27,89.53C126.53,89.72 126.67,89.98 126.67,90.31C126.67,90.64 126.53,90.87 126.25,91.08C125.97,91.28 125.6,91.38 125.13,91.38L125.15,91.39Z"/>
            <path d="M131.41,89.12C130.83,89.12 130.31,89 129.86,88.75C129.41,88.5 129.05,88.16 128.78,87.73C128.52,87.3 128.38,86.82 128.38,86.28C128.38,85.74 128.51,85.26 128.77,84.84C129.03,84.42 129.39,84.08 129.85,83.84C130.31,83.6 130.82,83.47 131.4,83.47C131.98,83.47 132.49,83.59 132.94,83.84C133.39,84.09 133.75,84.42 134.02,84.84C134.29,85.26 134.42,85.74 134.42,86.28C134.42,86.82 134.29,87.3 134.03,87.73C133.77,88.16 133.41,88.5 132.96,88.75C132.51,89 131.99,89.12 131.42,89.12L131.41,89.12ZM132.21,83.06C131.97,83.06 131.77,83.02 131.6,82.94C131.43,82.86 131.27,82.78 131.12,82.7C130.97,82.62 130.82,82.58 130.66,82.58C130.5,82.58 130.35,82.62 130.22,82.69C130.09,82.76 129.99,82.87 129.88,83.03L129.01,82.15C129.22,81.8 129.45,81.54 129.7,81.39C129.95,81.24 130.25,81.16 130.58,81.16C130.82,81.16 131.02,81.2 131.19,81.28C131.36,81.36 131.52,81.44 131.67,81.52C131.82,81.6 131.97,81.64 132.12,81.64C132.3,81.64 132.45,81.6 132.57,81.53C132.69,81.46 132.8,81.35 132.9,81.2L133.77,82.07C133.56,82.42 133.34,82.68 133.09,82.84C132.84,83 132.55,83.08 132.22,83.08L132.21,83.06ZM131.4,87.41C131.61,87.41 131.8,87.36 131.96,87.27C132.12,87.18 132.24,87.05 132.33,86.88C132.42,86.71 132.46,86.52 132.46,86.3C132.46,86.08 132.41,85.89 132.32,85.72C132.23,85.55 132.1,85.43 131.95,85.33C131.8,85.24 131.61,85.19 131.4,85.19C131.19,85.19 131.01,85.24 130.85,85.33C130.69,85.43 130.56,85.56 130.47,85.72C130.38,85.88 130.34,86.08 130.34,86.3C130.34,86.52 130.38,86.7 130.47,86.87C130.56,87.04 130.68,87.17 130.85,87.26C131.02,87.35 131.2,87.4 131.4,87.4L131.4,87.41Z"/>
            <path d="M138.34,89.12C137.74,89.12 137.2,89 136.74,88.76C136.28,88.52 135.91,88.19 135.65,87.76C135.39,87.33 135.25,86.84 135.25,86.29C135.25,85.74 135.38,85.26 135.64,84.84C135.9,84.42 136.25,84.08 136.69,83.84C137.13,83.6 137.64,83.47 138.2,83.47C138.76,83.47 139.23,83.59 139.65,83.82C140.07,84.05 140.4,84.37 140.64,84.78C140.88,85.19 141,85.65 141,86.18C141,86.29 141,86.4 140.98,86.52C140.97,86.63 140.94,86.76 140.91,86.91L136.15,86.93L136.15,85.69L140.15,85.66L139.29,86.2C139.29,85.9 139.24,85.65 139.16,85.46C139.08,85.27 138.96,85.12 138.81,85.01C138.66,84.91 138.46,84.86 138.23,84.86C138,84.86 137.78,84.92 137.6,85.04C137.42,85.16 137.29,85.32 137.19,85.54C137.09,85.76 137.05,86.01 137.05,86.31C137.05,86.61 137.1,86.88 137.2,87.1C137.3,87.32 137.45,87.48 137.64,87.59C137.83,87.7 138.07,87.76 138.35,87.76C138.61,87.76 138.85,87.72 139.05,87.63C139.25,87.54 139.43,87.41 139.6,87.22L140.6,88.22C140.34,88.52 140.01,88.75 139.63,88.9C139.25,89.05 138.82,89.13 138.34,89.13L138.34,89.12Z"/>
            <path d="M144.22,89.15C143.89,89.15 143.56,89.11 143.24,89.02C142.92,88.93 142.62,88.81 142.35,88.66C142.07,88.51 141.84,88.33 141.65,88.14L142.7,87.07C142.88,87.25 143.09,87.4 143.33,87.5C143.58,87.6 143.84,87.65 144.12,87.65C144.28,87.65 144.41,87.63 144.49,87.58C144.57,87.54 144.62,87.47 144.62,87.39C144.62,87.27 144.56,87.18 144.44,87.12C144.32,87.06 144.16,87 143.97,86.95C143.77,86.9 143.57,86.84 143.36,86.77C143.15,86.7 142.94,86.61 142.74,86.49C142.54,86.37 142.38,86.21 142.26,85.99C142.14,85.77 142.08,85.5 142.08,85.17C142.08,84.84 142.17,84.52 142.36,84.26C142.55,84 142.81,83.79 143.15,83.64C143.49,83.49 143.89,83.41 144.34,83.41C144.79,83.41 145.25,83.49 145.66,83.65C146.08,83.81 146.42,84.05 146.68,84.36L145.62,85.43C145.44,85.23 145.25,85.09 145.03,85.02C144.81,84.95 144.62,84.9 144.45,84.9C144.28,84.9 144.16,84.92 144.09,84.97C144.02,85.02 143.98,85.08 143.98,85.16C143.98,85.26 144.04,85.33 144.16,85.39C144.28,85.45 144.44,85.5 144.63,85.55C144.82,85.6 145.03,85.66 145.24,85.73C145.45,85.8 145.65,85.9 145.85,86.03C146.04,86.16 146.2,86.33 146.32,86.54C146.44,86.75 146.5,87.03 146.5,87.37C146.5,87.91 146.29,88.33 145.88,88.64C145.47,88.95 144.92,89.11 144.22,89.11L144.22,89.15Z"/>
            <path d="M148.88,89.12C148.56,89.12 148.3,89.01 148.09,88.8C147.88,88.59 147.78,88.32 147.78,88C147.78,87.68 147.88,87.42 148.09,87.21C148.3,87 148.56,86.89 148.88,86.89C149.2,86.89 149.46,87 149.66,87.21C149.86,87.42 149.97,87.69 149.97,88C149.97,88.31 149.87,88.58 149.66,88.8C149.45,89.02 149.19,89.12 148.88,89.12ZM148.16,86.02L147.83,80.95L149.93,80.95L149.6,86.02L148.16,86.02Z"/>
        </g>
    </g>
</svg>
