<?xml version="1.0" encoding="UTF-8"?><svg id="Layer_2" xmlns="http://www.w3.org/2000/svg" viewBox="0 0 141.76 167.13"><defs><style>.cls-1{fill:#659b8c;}.cls-1,.cls-2,.cls-3,.cls-4,.cls-5,.cls-6,.cls-7,.cls-8,.cls-9,.cls-10,.cls-11,.cls-12,.cls-13,.cls-14,.cls-15{stroke-width:0px;}.cls-2{fill:#000;}.cls-3{fill:#a89357;}.cls-16,.cls-17{stroke-miterlimit:10;}.cls-16,.cls-17,.cls-18{stroke:#000;}.cls-16,.cls-17,.cls-18,.cls-19{fill:none;}.cls-16,.cls-18,.cls-19{stroke-width:.9px;}.cls-4{fill:#d1b66f;}.cls-5{fill:#2b2f20;}.cls-6{fill:#666c4d;}.cls-17{stroke-width:.45px;}.cls-18,.cls-19{stroke-linecap:round;stroke-linejoin:round;}.cls-7{fill:#d9c591;}.cls-8{fill:#cc2d29;}.cls-9{fill:#d2ba92;}.cls-10{fill:#a98960;}.cls-11{fill:#de812f;}.cls-12{fill:#a4a64b;}.cls-13{fill:#fff;}.cls-19{stroke:#2b2f20;}.cls-14{fill:#e9d7bd;}.cls-15{fill:#72baa0;}</style></defs><g id="Layer_1-2"><path class="cls-5" d="M116.39,40.32s1.22-5.4,3.57-7.43c2.04-1.76,5.27-5.39,6.97-5.16.92.12,1.02.91,1.02,1.59s.78,11.94-1.13,14.97c-1.47,2.32-1.53,4.65-1.98,6.24-.45,1.59-2.04,2.95-2.55,3.23"/><path class="cls-11" d="M23.05,159.71c-.35,1.47-.43,3.16.87,4.24,1.19.99,3.38,1.45,4.8,1.37,3.35-.19,6.37-1,8.78-3.79,1.51-1.75,3.29-5.19,4.43-7.37.98-1.86,2.83-5.09,2.23-6.82"/><path class="cls-6" d="M39.84,134.1c.43,1.9.78,3.22,1.38,4.41.4.78.25,1.58.71,2.34.67,1.1,1.35,2.19,1.71,3.46.34,1.23.31,2.28,0,3.55-.59,2.4-1.87,2.58-2.34,3.98-.34,1.02-.86,1.64-1.3,2.86-.16.46-1.59,3.53-2.01,4.05-1.28,1.58-3.15,2.94-4.22,3.39-2.41,1.03-4.77,1.68-7.17,1.3-.62-.1-2.04-1.11-2.52-1.54-.53-.47-.64-1.07-.77-1.75-.36-1.8,1.21-3.03,2.42-4.15,1.22-1.13,2.14-2.51,2.83-4.07.59-1.34.78-2.18,1.15-3.89.49-2.32,1.21-5.54,1.04-7.7"/><path class="cls-12" d="M67.16,104.21c0,2.4,1.28,6.48,1.11,8.14-.16,1.54-.69,3.16-1.02,4.8-.72,3.56,1.01,8.23,2.18,11.57,1.26,3.58,2.04,7.25,1.88,11.07-.19,4.52-.17,7.81.04,12.32.15,3.33.13,8.22-.34,11.14-.35,2.16-2.61,2.92-4.62,2.91-1.69,0-3.18.44-4.8.51-3.26.14-5.15-2.61-7.07-4.79-3.2-3.65-5.25-7.35-4.76-12.34.16-1.6-.46-2.78-.69-4.29-.26-1.72-.24-2.36-1.16-3.8-.91-1.41-.91-2.22-.59-3.77.56-2.74.43-5.76-.44-8.4-.62-1.87-.87-1.33-2.61-.99-1.48.29-3.12.25-4.62-.17l.13.48c.3,2.99.84.9-.13,5.01-.85,3.57-3.32,5.87-6.85,6.35-1.55.21-3.58.9-5.14.68-1.62-.22-2.23-1.44-2.96-2.92-1.23-2.48-1.62-4.9-3.72-6.85-1.39-1.29-1.94-1.43-3.08-2.91-1.12-1.46-1.37-1.2-2.91-3.6-.92-1.43-1.94-2.91-2.57-4.46-.81-1.99-1.24-5.43-1.37-7.54-.68-11.04-1.99-8.14,4.09-14.5"/><path class="cls-1" d="M93.2,69.83c-.59-.61-1.63-.97-2.26-1.57-.67-.63-1.68-1.56-2.31-2.16-2.83-2.71-5.62-4.85-8.65-7.23-2.1-1.65-4.07-4.56-7.18-6.43-.1-.39-.24-.74-.45-1.05-.95-1.34-2.63-1.49-3.93-2.35-1.3-.86-2.14-1.93-3.55-2.31l-8.1,26.45c-1.62,5.21-1.52,10.39-1.7,14.12-.21,4.4-.65,8.8-1.21,13.06-.52,3.97-2.92,7.18-3.58,11.33-.12.78-.51,1.88-.25,2.71.2.63,1.22.91,1.37,1.55.5,2.09-1.65,3.51-.05,5.43,1.3,1.56,8.37-5.63,10.2-7.16,1.59-1.33,3.12-2.98,4.94-3.75,2.25-.95.98-1.66.87-3.97-.17-3.51,2.2-2.12,1.81-5.98-.24-2.4-1.99-6.66-1.6-10.2.21-1.92.18-3.23.37-4.93,1.91-.62,4.42-1.24,5.92-1.13,2,.15,2.97,1.41,4.77,2.2,1.44.63,3.27,1.28,4.85,1.67,2.41.59,2.36-.08,3.36-2.35.83-1.87.89-3.72,1.9-5.56.84-1.52-.06-3.36,1.85-6.17,1.31-1.93,4.2-2.61,2.62-4.23"/><path class="cls-8" d="M39.49,39.2c-3.47,1.54-3.31,6.21-2.28,7.87,1.29,2.07,4.68,3.74,6.89,4.2,3.16.66,6.08.37,8.92-1.28,2.23-1.29,4.14-3.98,2.4-6.35-.35-.47-1.08-.98-1.55-1.2"/><path class="cls-1" d="M32.54,39.9c-1.23,1.24-1.56,1.17-3.17,1.57-1.81.45-3.39,1.29-4.8,2.47-1.89,1.58-2.79,1.66-4.11,2.95-1.22,1.19-1.68,2.27-1.69,3.33-3.56,5.14-7.31,11.11-10.35,16.51-1.09,1.94-2.75,3.42-3.05,5.73-.27,2.04.52,3.74-.34,5.59-1.12,2.43-5.87,6.02-4.26,9.29.86,1.74.47,1.95-.03,4.97-.26,1.61-.44,1.28,0,3.26.66,3.04,4.22,6.12,7.03,7.16,1.35.5,2.57,1.07,3.26-.3.66-1.31,2.65-1.99,2.91-3.25.35-1.73-.35-1.33-.17-3.09.13-1.24,1.74-4.24,2.91-5.31,1.88-1.71,3.75-2.01,4.42-2.57,1.21-1.02-.4-4.97,3.15-5.27.22-.02-.26,5.24-.35,5.76-.22,1.36-.26,2.18.65,3.34,1.62,2.06,3.93,3.52,5.73,5.36.62.63,1.64,1.95,2.22,2.65.76.92,3.55,2.6,4.21,3.29.54.57.89.13,1.05.92.09.44-.43,1.56-.51,1.61.38.36,2.26,2.72,2.75,3.13.88.74,1.96,2.6,2.11,3.82,0,.08.34-3.74.27-4.25-.15-1.2-.12-2.43-.28-3.64-.2-1.52-.86-2.85-1.18-4.35-.68-3.21-1.1-6.5-2.14-9.64-.59-1.8-1.49-3.48-2.17-5.23-.86-2.2-.82-4.33-.82-6.67,0-3.73-.69-7.66-.03-11.34.35-1.97.68-9.11.55-10.85-.24-3.11.27-6.29.27-9.4,0-2.27-.9-6.53,1.41-7.97,1.22-.76,1.55-.29,2.04-1.78.26-.8.41-1.68.53-2.5-2.79-1.13-6.34,3.02-8.04,4.72"/><path class="cls-14" d="M59.7,14.84c-3.26-2.57-4.26-5.58-9.25-5.31-6.97.37-9.24,6.99-9.96,10.58l.02-.3c-2.02.01-3.37.96-3.26,3.26.07,1.4,1.28,2.38,1.52,3.75.21,1.19-1.11,3.27,1.05,3.28,0,0,.13,2.1.34,2.74.11.32.37.88.75,1.56-.51,2.97-.95,6.63-1.09,8.04-.13,1.33-.62,2.25.3,3.47.81,1.08,2.47,1.76,3.68,2.15,2.77.88,5.96.82,8.54-.82,2.36-1.5,1.36-4,1.36-6.51,0-.34.42-1.88.63-2.83,1.58-1.87,2.72-3.98,3.19-4.83l-.02.11c2.82.17,3.87-4.84,2.48-6.97.69-2.15,1.26-3.99,1.26-3.99,0,0,1.71-4.8-1.54-7.37"/><path class="cls-15" d="M13.63,97.75c1.42,2.4,3.53,2.44,4.46,1.48-3.62-.71,1.73-6.56,2.92-7.22,1.19-.66,2.89-1.06,2.23-2.49-.55-1.2-2.67-1.03-3.69-.61l-2.87,1.85-2.41,3.6-.66,3.39Z"/><path class="cls-14" d="M17.03,98.13s.69.69,1.54,1.37c.86.69.86,3.43,1.03,5.48.17,2.06,4.38,11.57,4.84,12.11.35.41,1.67.57,1.5-.8-.11-.92-.5-2.07-.5-2.07l.16.45s1.08,3.05,1.42,3.74c.34.69,1.77.81,2.04-.58.2-1.01-1.89-11.21-1.89-11.21v.16s2.54,10.96,3.22,11.06c2.87.42-.37-12.8-.37-12.8,0,0,3.01,10.09,3.54,10.78,1.39,1.81,2.34-.21,2.12-1.43-.27-1.47-2.73-9.24-2.73-9.24,0,0,1.66.93,2.85.76,2.7-.38,1.23-2.08,1.23-2.08l-4.24-3.74c-1.08-1.31-1.46-1.18-2.5-2.73-.59-.89-2.7-2.67-3.54-3.32-.83-.65-2.69-1.91-3.16-2.81,0,0-2.3.31-3.49,1.38-1.2,1.07-2.84,4.1-3.03,4.6-.19.5-.05.9-.05.9"/><path class="cls-15" d="M35.51,71.12c-1.27-1.21-1.2-5.13-2.61-6.85-1.51-1.85-3.85-3.89-4.96-6.07-.91-1.77-1.44-5.23-.55-7.14.96-2.06,4.73-2.56,3.95-5.18-2.54-1.28-1.29-3.38.19-5.21,0,0,1.99-2.26,3.19-3.13,1.2-.87,2.29-1.42,3.5-1.86,1.2-.44,2.47-.61,2.47-.61l-.39,3.23s-2.3.87-2.73,1.86c-.44.98-.98,5.41-.98,5.41l-.7,7.16.26,7.22-.63,11.19"/><path class="cls-15" d="M56.19,45.51c1.84,4.66,1.82,8.13,2.08,13.32.13,2.56-.04,5.05-.52,7.44-.23,1.14-.16,2.5-.52,3.63-.37,1.18-.28,2.08-.46,3.27,1.28-1.16,1.7-2.58,2.62-3.96.91-1.36,1.77-2.79,2.62-4.27,1.85-3.25,4.11-6.06,3.98-9.89-.03-.97-.19-1.72-.63-2.62-.37-.75-1.07-1.27-1.39-1.88-1.04-1.95.79-1.8.78-3.57-.03-4.05-6.06-8.59-8.87-11.04l-1.49,2.35-.66,2.84.33,1.64,1.42,1.31.7,1.42Z"/><path class="cls-11" d="M36.55,138.69c.05.88.3,3.96.26,4.84-.09,1.88-.51,4.35-1.13,6.14-.26.76-.65,1.76-.95,2.51-.26.63-.35,1.67-.78,2.25-.79,1.06-3.56-.38-4.74-.43-.52-.02-1.05,0-1.57,0,0,0,2.2-5.84,2.41-6.79.21-.95.7-7.05.7-7.05,0,0,2.31-.33,3.26-.58.95-.25,2.55-.9,2.55-.9"/><path class="cls-7" d="M29.11,153.92c.94-1.48,1.28-3.81,1.82-5.56.41-1.35.98-2.64,1.13-4.05.13-1.23.73-2.95.35-4.15l2.68-.69s.12,2.72,0,3.21c-.12.5-2.27,9.36-2.51,9.64-.25.29-1.07,1.69-1.11,1.9-.04.21-2.34-.3-2.34-.3"/><path class="cls-4" d="M124.65,79.53c-.33-1.1-1.75-3.7-1.88-4.1-.46-1.37.13-1.67,1.17-4.04,1.16-2.66-.71-13.08-1.39-14.9-.68-1.83-.23-8.22-.91-10.27-.68-2.05-4.34-4.79-5.71-5.93-1.37-1.14-5.09,1.02-7.08.46-3.45-.98-5.15.66-5.15.66l-.17.11s-3.81,5.39-3.81,7.44-.46,3.65-.46,3.65c0,0-1.83,4.56-2.74,7.76-.91,3.2-1.83,8.9-1.83,8.9,0,0-4.11,3.65-5.48,6.62-1.37,2.97-.43,7.5-2.38,9.91-1.95,2.41-4.69,14.51-7.2,17.48-2.51,2.97-5.7,6.62-6.39,7.99-.69,1.37-3.65,4.56-4.56,5.48-.91.91-1.44,2.39-1.44,2.39l.31,3.06,3.37,11.76.46,10.3-.09,4.74s5.38,1.28,6.93,1.91,7.96,3.69,8.36,3.26c.4-.43,0,0,0,0l1.85-.7,1.28.36s-2.37,2.1-2.92,3.83c-.55,1.73-1.19,5.65-.18,5.84,1,.18,1.64,1,1.64,1,0,0,.29,1.14,1.33.84,1.04-.29,2.59-.48,2.59-.48,0,0,.46,1.22,1.09.91,1.96-.97,3.37-8.48,3.37-8.48,0,0,1.15-.94,1.19-1.55.04-.61-1.07-2.71-1.07-2.71l.31-5.55s5.61.9,6.75,1.36c1.14.46,2.21,1.48,3.12,1.25.91-.23.78-.71.78-.71,0,0,1.37,1.22,2.28.76.91-.46.68-.54.68-.54,0,0,.84.77,1.53-.37.69-1.14-1.59-4.59-7.23-5.33-2.27-.3-5.01-.79-5.01-.79,0,0,3.06-1.96,4.16-2.87,1.09-.91,6.84-5.38,7.75-7.2.91-1.82,4.19-7.48,3.83-8.94-.37-1.46-1.14-3.71-1.14-3.71l2.06-6.98s-.14,4.74,1.15,7.61c1.29,2.87,4.88,12.35,5.74,13.78.86,1.44.29,2.87.43,3.88.14,1-.14,6.6.43,7.32.57.72,2.06,2.01,2.06,2.01,0,0-.68,4.79.23,5.25.91.46.44,2.07,1.02,2.79.57.72,7.86,4.72,9.03,4.51,1.17-.21,2.97-.46,2.97-.46l.93-.76.86-.43s-.14-2.58-2.87-4.02q-2.73-1.44-3.59-1.87c-.86-.43-.86-.72-1.29-1.87-.43-1.15-.72-4.02-2.58-6.03-1.14-1.23-2.44-12.2-2.44-12.2,0,0,.31,2.35,0,0-.31-2.35-1.31-19.66-1.44-21.39-.14-2.01-1.72-7.46-1.72-7.46,0,0,1-5.31,0-8.33-1-3.01-.86-16.22-.86-16.22"/><path class="cls-5" d="M103.84,40.91s-3.19-5.03-4.17-5.97c-.55-.53-.74-.68-.91-.85-.17-.17-.57-.62-.79-.79-.23-.17-3.12-2.78-4.31-2.95-1.19-.17-1.76,3.4-1.64,5.44.2,3.61,1.1,8.31,1.98,10.55,1.19,3.01,4.88,7.09,4.88,7.09"/><path class="cls-3" d="M104.59,50.87c0,.45-.42.82-.94.82s-.94-.37-.94-.82.42-.82.94-.82.94.37.94.82"/><path class="cls-3" d="M114.67,50.34c0,.45-.42.82-.94.82s-.94-.37-.94-.82.42-.82.94-.82.94.37.94.82"/><path class="cls-13" d="M55.23,32.29c-1.5.83-4.71,1.62-6.1,1.31-1.15-.25-3.55-2.82-5.6-3.68,0,0,3.74.42,6.65,1.04,2.91.62,5.05,1.33,5.05,1.33"/><path class="cls-8" d="M40.07,39.16c-1.13.28-1.57,1.66-1.62,2.71-.04.78.23,1.91.9,2.39.27-.34.45-.88.55-1.3.16-.65.33-1.35.37-2.02.03-.47.13-1.36-.12-1.77"/><path class="cls-8" d="M36.58,45.56l-.75,8.31.3,6.51-.67,14.15.37,12.05,1.5,4.79,1.57,2.02-.91,4.72,2.11,3.59s.37,1.57.15,1.57-.9.3-.9.3c0,0,3.22,3.44,3.29,3.67.08.22,3.22,2.55,3.22,2.55l4.42,1.5,2.55-6.96,1.87-9.66.45-12.88,1.2-8.09s2.02-10.41,2.1-15.2c.07-4.79-2.1-12.65-2.1-12.65,0,0-.75,3.22-7.04,4.72-6.29,1.5-12.73-5.02-12.73-5.02"/><path class="cls-5" d="M88.97,77.82c.38,1.21,1.3,2.13,1.85,3.25.58-.13,1.42.21,2,.09-.7,3.19,5.31,3.45,7.2,5.58-5.73-.82-10.42,2.07-11.27,7.94-.37,2.58-.24,3.01-.24,5.79,0,3.39.66,6.24.32,7.79-.67,3.02-1.83,4.49-1.65,7.89.13,2.56.6,4.85.6,7.47,0,5.96,1.21,11.4,1.8,17.08.25,2.41.82,6.15.62,8.47-1.69-2.17-9.08-3.05-12.51-3.66,3.91-3.49,9.77-6.52,9.14-19.16-.26-5.13-4.1-9.08-5-10.19-1.22-1.5-4.11-1.7-6.01-1.86-2.05-.18-5.63,1.96-2.12,3.28-1.57.84.71,7.76,2.07,8.76-2.25,1.61-.19,7.42-.26,9.88-.06,2.29-.53,8.04-2.95,8.74.15,1.11-.64,2.04-1.56,2.61-.4-4.58.88-9.64-.48-14.38-1.5-5.23-5.42-10.14-2.5-15.83,1.32-2.57,4.12-3.54,5.23-6.27.5-1.22.87-1.51,1.77-2.57.79-.93,1.6-1.82,2.52-2.9,8.13-9.59,5.67-13.2,7.35-16.28,1.66-3.06,4.03-8.19,3.8-11.8"/><path class="cls-5" d="M124.77,80.92c1.31,1.48,1.84,3.37,1.11,5.25-.33.85-.85,1.61-1.44,2.29-.15.17-.3.34-.46.5-.15.15-.34.2-.47.32-.29.26-.03.5-.05.84-.14,0,.34.56.2.57-.06.35,0,.13-.69.2-.51.05-.41-.04-.36.46-.27.08-.52-.01-.79,0-.04.17.05.32.06.48-.37.02-.88-.15-1.02.23-.04.12.08.38-.03.47-.08.06-.33-.02-.43-.02,0,.32-.19.28-.4.36-1.11.4-1.96,1.64-2.91,2.39-.61.48-1.78,1.45-2.62.99.65-1.1,1.43-2.02,2.59-2.5.07-.43.04-.85.11-1.27.53-.29.99-.68,1.42-1.1.2-.19.43-.39.58-.63.13-.2.14-.39.38-.5-.14-.2-.18-.42-.28-.64-.09-.19-.52-.43-.47-.67.05-.25.33-.15.5-.19-.34-.32.36-.34.54-.35.19-.01.37.05.42-.13-.05.18-.18-.64,0-.38-.09-.12-.39-.23-.3-.43.08-.17.54-.09.69-.14-.15-.11-.97-.26-.6-.56.19-.15.54.08.74-.09.31-.27-.24-.28-.27-.53-.04-.35.77.05.92-.08.34-.3-.36-.6-.33-.89.02-.23.33-.23.36-.39.03-.14-.18-.26-.22-.37-.27-.63.5-.53.91-.56-.18-.15-.57-.33-.35-.6.07-.1.47-.1.59-.12-.01-.08.03-.2.01-.28.15-.05.3-.04.46-.05-.09-.13-.24-.22-.24-.39.07-.04.35-.06.39-.13.08-.12-.12-.31-.05-.46.1-.2.4-.15.58-.21-.43-.49.58-.73.9-.72"/><path class="cls-14" d="M125.9,74.83c-2.24,1.52-3.62,3.55-3.33,4.35.8,2.19,2.6.97,3.75.26,1.02-.63,2.13-1.51,2.25-2.79.11-1.23-1.48-2.67-2.67-1.81"/><path class="cls-14" d="M128,78.31c3.27.65,0,4.32-1.63,5-1.2.5-2.43.77-2.28-.76.12-1.27.59-1.3,1.09-2.39"/><path class="cls-14" d="M127.67,82.77c2.61,1.3-.33,4.68-2.28,4.24-2.24-.5-.66-2.84.54-3.37"/><path class="cls-14" d="M125.39,88.42c1.3-.33,2.13-.19,2.5.87.29.83-.11,1.85-1.64,2.26-.6.16-1.8.2-2.28-.41-.82-1.05-.11-2.18,1.41-2.72"/><path class="cls-9" d="M100.35,116.78c-.97,2.3-.07,3.17-.73,5.44-.96,3.35-3.37,3.88-2.64,7.52.32,1.6.46,2.9.1,4.69-.31,1.53-.4,5.44-.48,7.01-.34,6.21,4.57,1.24,7.51-1.21,1.09-.91,6.84-5.38,7.75-7.2.91-1.82,5.18-10.09,2.76-12.39-2.76-2.62,6.77-21.16-1.67-20.16-2.97.35-4.75,5.11-6.28,7.22-1.47,2.03-2.47,3.11-3.79,5.2-.23.36-2.36,3.45-2.54,3.87"/><path class="cls-19" d="M90.19,92.96c-1.1.79-2.56,1.18-3.39,2.3"/><path class="cls-19" d="M88.02,99.12c.01-.81.35-2.27,1.33-2.42"/><path class="cls-19" d="M87.41,96.46c.83-.44,1.85-.88,2.48-1.58-.29-.03-.6.06-.91.13"/><path class="cls-19" d="M87.53,94.53c.58.14,1.07-.06,1.69,0"/><path class="cls-19" d="M87.89,98.28c.47-.07.91-.24,1.33-.48"/><path class="cls-19" d="M87.53,99.97c.58.12,1.3-.31,1.94-.48"/><path class="cls-18" d="M40.17,22.38s-.51,8.91,0,10.45c.51,1.54,4.46,8.4,8.57,8.4,4.63,0,8.23-7.2,8.91-8.4.69-1.2,3.6-10.62,3.6-10.62,0,0,1.71-4.8-1.54-7.37-3.26-2.57-4.26-5.58-9.25-5.31-9.6.51-10.28,12.85-10.28,12.85Z"/><path class="cls-2" d="M37.44,21.33c-.07.16-.05.61-.12.81-.22.73-.55,2.98-.07,3.7-1.07-1.6-.84-2.36-.67-4.59-1.99,1.41-.83-2.13-.54-2.79-.44.19-1.07.47-1.5.65.06-.86.46-1.96.99-2.72.82-1.18,2.74-1.84,3.07-3.23-1.66-.03-3.55,1.33-4.44,2.66.26-2.73,3.56-4.86,5.78-5.78-.72.01-1.45.03-2.16-.02.54-.79,1.78-.9,2.55-1.3-.76-.28-1.56-.23-2.36-.24.12-1.22,2.55-.79,3.49-.86-.51-.49-1.54-.68-1.6-1.49,1.06.04,2.11.43,3.22.29-.09-.8-.61-1.52-1.44-1.7,1.27.15,2.11,1.27,3.49,1.01.04-1.02.02-2.07.02-3.1.04.3-.07,1.51-.14,2.09.44-.63.71-1.45,1.32-2.05.87-.85,2.24-1.18,3.26-1.82-.56.71-1.06,1.57-1.82,2.11,1.81-2.01,7.03-.93,9.24-.12,3.06,1.11,4.61,3.82,6.77,6.02-.85-.04-1.68-.23-2.53-.14.56-.02,1.97,3.84,2.25,4.38.62,1.2,1.35,2.31,1.73,3.63.46,1.59-.24,2.59-.17,3.98-.03-.53-1.19-1.38-1.19-1.21-.12,2.44-.4,4.83-.36,7.29-.08-.45-.33-1.03-.48-1.48-1.24,1.5-2.94,4-4.48,5.08.11-3.71,2.08-6.66,1.83-10.55-.51.52-.99,1.21-1.48,1.82.24-2.52.28-4.36-1.87-6.1-.76,1.53.32,3.45-1.53,4.57-.29-2.64-.14-5.6-3.28-6.63-.12,2.57.44,5.49-1.18,7.72-1-2.98-.84-7.19-4.72-8.08-4.34-.99-4.24,4.49-6.26,6.15-1.01.83-2.09.82-2.59,2.04"/><path class="cls-18" d="M37.44,21.33c-.07.16-.05.61-.12.81-.22.73-.55,2.98-.07,3.7-1.07-1.6-.84-2.36-.67-4.59-1.99,1.41-.83-2.13-.54-2.79-.44.19-1.07.47-1.5.65.06-.86.46-1.96.99-2.72.82-1.18,2.74-1.84,3.07-3.23-1.66-.03-3.55,1.33-4.44,2.66.26-2.73,3.56-4.86,5.78-5.78-.72.01-1.45.03-2.16-.02.54-.79,1.78-.9,2.55-1.3-.76-.28-1.56-.23-2.36-.24.12-1.22,2.55-.79,3.49-.86-.51-.49-1.54-.68-1.6-1.49,1.06.04,2.11.43,3.22.29-.09-.8-.61-1.52-1.44-1.7,1.27.15,2.11,1.27,3.49,1.01.04-1.02.02-2.07.02-3.1.04.3-.07,1.51-.14,2.09.44-.63.71-1.45,1.32-2.05.87-.85,2.24-1.18,3.26-1.82-.56.71-1.06,1.57-1.82,2.11,1.81-2.01,7.03-.93,9.24-.12,3.06,1.11,4.61,3.82,6.77,6.02-.85-.04-1.68-.23-2.53-.14.56-.02,1.97,3.84,2.25,4.38.62,1.2,1.35,2.31,1.73,3.63.46,1.59-.24,2.59-.17,3.98-.03-.53-1.19-1.38-1.19-1.21-.12,2.44-.4,4.83-.36,7.29-.08-.45-.33-1.03-.48-1.48-1.24,1.5-2.94,4-4.48,5.08.11-3.71,2.08-6.66,1.83-10.55-.51.52-.99,1.21-1.48,1.82.24-2.52.28-4.36-1.87-6.1-.76,1.53.32,3.45-1.53,4.57-.29-2.64-.14-5.6-3.28-6.63-.12,2.57.44,5.49-1.18,7.72-1-2.98-.84-7.19-4.72-8.08-4.34-.99-4.24,4.49-6.26,6.15-1.01.83-2.09.82-2.59,2.04Z"/><path class="cls-18" d="M40.79,34.38c-.58,3.09-.81,6.5-.96,8.06-.13,1.33-.62,2.25.3,3.47.81,1.08,2.47,1.76,3.68,2.15,2.77.88,5.96.82,8.54-.82,2.36-1.5,1.36-4,1.36-6.51,0-.46.51-1.94.51-2.4"/><path class="cls-18" d="M39.66,39.14c-3.87,1.08-3.48,6.27-2.45,7.92,1.29,2.07,4.57,3.68,6.78,4.14,3.16.66,6.19.43,9.03-1.22,2.23-1.29,4.14-3.98,2.4-6.35-.35-.47-1.08-.98-1.55-1.2"/><path class="cls-18" d="M36.74,105.63c2.22,2.48,4.89,4.35,4.83,8.01.66-1.08.23-2.03.48-3.17.24-1.13.92-1.58.66-2.73-.41-1.81-2.03-3.53-3.68-4.16,1.61-.08,1.46-1.09.8-2.19-1.03-1.71-1.37-2.4-1.83-3.26.12-.51,1.71-4.3.29-5.81-1.99-2.12-2.43-5.7-2.57-8.58-.13-2.62-.49-5.39-.34-8.05.26-4.76.45-9.48.69-14.23.14-2.86-.56-5.93-.17-8.74.37-2.68.41-4.93.51-7.54.04-.97.04-3.01.59-3.82"/><path class="cls-18" d="M40.68,35.07c-3.34-.26-6.02,2.7-8.14,4.84-1.23,1.24-1.56,1.17-3.17,1.57-1.81.45-3.39,1.29-4.8,2.47-1.89,1.58-2.79,1.66-4.11,2.95-3.37,3.28-.93,5.76.69,9.04,3.4,6.91,3.43,14.57,3.08,22.01-.16,3.43.33,6.71-.16,10.08-.16,1.08-.91,2.37-.46,3.23.47.9,2.33,2.16,3.16,2.81.84.65,2.95,2.43,3.54,3.32,1.04,1.56,1.42,1.42,2.5,2.73"/><path class="cls-18" d="M18.58,50.15c-3.72,5.32-6.95,10.88-10.15,16.58-1.09,1.94-2.75,3.42-3.05,5.73-.27,2.04.52,3.74-.34,5.59-1.12,2.43-5.87,6.02-4.26,9.29.86,1.74.47,1.94-.03,4.97-.26,1.61-.44,1.28,0,3.26.66,3.04,4.22,6.12,7.03,7.16,1.35.5,2.57,1.07,3.26-.3.66-1.31,2.65-1.99,2.91-3.25.35-1.73-.35-1.33-.17-3.09.13-1.24,1.74-4.24,2.91-5.31,1.88-1.71,3.75-2.01,4.42-2.57,1.31-1.1.07-4.37,2.95-5.14"/><path class="cls-18" d="M40.51,19.81c-2.02.01-3.37.96-3.26,3.26.07,1.4,1.28,2.38,1.52,3.75.21,1.19-1.11,3.27,1.05,3.28"/><path class="cls-18" d="M38.56,22.84c.28-.42.79-1.17,1.47-1.2"/><path class="cls-18" d="M60.73,27.01c-.17,1.2.18,6.37-3.23,6.16"/><path class="cls-18" d="M45.14.45c-.15,2.78-1.4,4.19.69,6.68"/><path class="cls-18" d="M43.25,1.13c.63,1.44-1.02,3.91,1.03,4.63"/><path class="cls-18" d="M37.6,6.45c1.4.18,3.18-.33,4.63.17"/><path class="cls-18" d="M36.23,9.02c1.65.24,3.53-.77,5.31-.69"/><path class="cls-18" d="M39.65,4.56c1.67.41,3.56,1.13,4.63,2.57"/><path class="cls-18" d="M64.85,18.27c.41,1.55-.14,3.15.69,4.63"/><path class="cls-18" d="M62.62,11.93c1.19,1.1,2.89,1.15,3.77,2.91"/><path class="cls-18" d="M64.16,15.7c1.23.35,2.62,1.05,3.26,2.23"/><path class="cls-18" d="M61.42,10.39c.98,1.02,2.38.96,3.26,2.4"/><path class="cls-18" d="M61.76,9.87c1.14-.03,2.14.13,3.26.34"/><path class="cls-18" d="M34.17,23.41c-.28-1.9,1.35-2.48,2.06-3.77"/><path class="cls-18" d="M35.71,22.04c-.21.93-.64,1.68-.51,2.74"/><path class="cls-18" d="M42.4,3.19c0,1.37-.21,2.89.86,3.94"/><path class="cls-18" d="M20.63,50.32c.85,1.75,1.29,4.02,2.74,5.31"/><path class="cls-18" d="M17.89,55.46c-.24.65,2.57,3.37,3.05,4.45.39.88.37,1.86.89,2.57"/><path class="cls-18" d="M17.38,60.09c-.04,1.81,1.54,2.84,2.24,4.33.44.94.77,2.2.97,3.22.34,1.73.04,3.5.04,5.3"/><path class="cls-18" d="M14.98,62.31c-.49,3.05.21,5.37.68,8.26.27,1.64.64,3.95,1.2,5.1"/><path class="cls-18" d="M11.89,82.71c2.34.01,5.03.42,6.33,2.23.7.97,1.12,3.5,2.45,3.51"/><path class="cls-18" d="M6.75,84.59c2.77.95,5.8-.36,8.75.81,1.35.54,3.23,1.33,3.93,2.61"/><path class="cls-18" d="M7.78,86.99c1.81.53,3.93-1.79,6.17-.51"/><path class="cls-18" d="M12.41,87.85c1.22.4,2.64-.37,3.94-.35,1.13.02,2.41.28,3.42.69"/><path class="cls-18" d="M13.95,90.59c-2.87,1.2-3.08,2.91-2.57,4.97"/><path class="cls-18" d="M37.77,98.47c-1.3.59-3.19.22-4.46-.34"/><path class="cls-18" d="M39.66,103.5c-.85.31-1.27-.08-2-.43"/><path class="cls-18" d="M19.56,88.91c1.02-.42,3.14-.58,3.69.61.66,1.43-1.04,1.83-2.23,2.49-1.2.66-6.54,6.5-2.92,7.22-.93.96-3.28.58-3.89-.73"/><path class="cls-18" d="M23.55,106.36s2.28,9.02,2.4,9.94c.17,1.37-1.15,1.21-1.5.8-.46-.54-4.67-10.06-4.84-12.11-.17-2.06-.17-4.8-1.03-5.48-.86-.68-1.54-1.37-1.54-1.37"/><path class="cls-18" d="M25.6,114.67s1.08,3.05,1.42,3.74c.34.69,1.77.81,2.04-.58.2-1.01-1.89-11.21-1.89-11.21"/><path class="cls-18" d="M28.72,114.67s1,3.07,1.68,3.17c2.87.42-.37-12.8-.37-12.8,0,0,3.01,10.09,3.54,10.78,1.39,1.81,2.34-.21,2.12-1.43-.27-1.47-3.87-12.82-3.87-12.82"/><path class="cls-18" d="M32.96,105.17s1.66.93,2.85.76c2.7-.38,1.23-2.08,1.23-2.08l-4.24-3.74"/><path class="cls-18" d="M35.03,116.64c-.35,2.64,1.12,6.69,2.78,8.74,2.44,3.02,2.83,4.12,1.85,8.23-.85,3.57-3.32,5.87-6.85,6.35-1.55.21-3.58.9-5.14.68-1.62-.22-2.23-1.44-2.96-2.92-1.23-2.48-1.62-4.9-3.72-6.85-1.39-1.29-1.94-1.43-3.08-2.91-1.12-1.46-1.37-1.2-2.91-3.6-.92-1.43-1.94-2.91-2.57-4.46-.81-1.99-1.04-5.45-1.37-7.54-.44-2.83-1.37-7.03-.34-9.43"/><path class="cls-18" d="M39.65,128.12c1.5.42,3.14.46,4.62.17,1.74-.34,1.99-.88,2.61.99.87,2.64.99,5.66.44,8.4-.32,1.55-.31,2.36.59,3.77.92,1.44.9,2.08,1.16,3.8.22,1.51.84,2.69.69,4.29-.49,4.99,1.56,8.69,4.76,12.34,1.91,2.19,3.81,4.94,7.07,4.79,1.63-.07,3.11-.52,4.8-.51,2.02,0,4.27-.75,4.62-2.91.47-2.91.5-7.81.34-11.14-.21-4.5-.23-7.8-.04-12.32.16-3.83-.62-7.49-1.88-11.07-1.17-3.34-2.9-8.01-2.18-11.57.33-1.64.86-3.26,1.02-4.8.17-1.66-.34-.51-.34-2.91"/><path class="cls-18" d="M47.02,119.04c.07,1.64,4.47,5.77,5.83,6.85"/><path class="cls-18" d="M43.6,115.44c.59,1.83.44,3.92,1.02,5.84.51,1.68,1.44,3.14,2.57,4.45,2.12,2.45,4.95,4.35,7.2,6.68"/><path class="cls-18" d="M40.17,115.95c1.77,1.67,2.67,4.65,3.64,6.82.7,1.57,1.45,4.55,2.7,5.52"/><path class="cls-18" d="M31.53,40.66c-1.48,1.83-2.73,3.93-.19,5.21.78,2.62-2.99,3.12-3.95,5.18-.89,1.92-.36,5.37.55,7.14,1.11,2.18,3.45,4.21,4.96,6.07,1.41,1.73,1.33,5.64,2.61,6.85"/><path class="cls-18" d="M55.88,35.94c2.81,2.45,8.85,6.99,8.87,11.04.01,1.78-1.82,1.63-.78,3.57.32.61,1.02,1.13,1.39,1.88.44.9.6,1.65.63,2.62.13,3.83-2.13,6.65-3.98,9.89-.85,1.48-1.71,2.92-2.62,4.27-.92,1.38-1.35,2.8-2.62,3.96.18-1.19.09-2.09.46-3.27.36-1.14.29-2.49.52-3.63.48-2.39.64-4.88.52-7.44-.25-5.19-.24-8.66-2.08-13.32"/><path class="cls-18" d="M56.77,73.18c-1.62,5.21-1.53,10.39-1.7,14.12-.21,4.4-.65,8.8-1.21,13.06-.52,3.97-2.92,7.18-3.58,11.33-.12.78-.51,1.88-.25,2.71.2.63,1.22.91,1.37,1.55.5,2.09-1.65,3.51-.05,5.43,1.3,1.56,8.36-5.63,10.2-7.16,1.59-1.33,3.12-2.98,4.94-3.75,2.25-.95.98-1.66.87-3.97-.17-3.51,2.2-2.12,1.81-5.98-.24-2.4-1.99-6.66-1.6-10.2.24-2.17.16-3.55.46-5.61.27-1.9.36-3.5.83-5.39.7-2.85.11-4.84.66-7.61.8-4.06,2.3-8.31,2.77-12.55.25-2.23,1.37-5.95.07-7.79-.95-1.34-2.63-1.49-3.93-2.35-1.3-.86-2.14-1.93-3.55-2.31"/><path class="cls-18" d="M68.13,85.74c1.64-.69,3.65-1.62,5.73-1.47,2,.15,2.97,1.41,4.77,2.2,1.44.63,3.27,1.28,4.85,1.67,2.41.59,2.36-.08,3.36-2.35.83-1.87.89-3.72,1.9-5.56.84-1.52-.06-3.36,1.85-6.17,1.31-1.93,4.2-2.61,2.62-4.23-.6-.61-1.63-.97-2.26-1.57-.67-.63-1.68-1.56-2.31-2.16-2.83-2.71-5.62-4.85-8.65-7.23-2.39-1.88-3.11-4.54-7.02-6.29"/><path class="cls-18" d="M69.59,57.75c1.81.07.21,9.07-.62,10.79-1.79,3.71-3.43,7.46-3.43,11.69"/><path class="cls-18" d="M80.83,64.04c-3.21-.46-4.27,9.94-5.11,12.37-.71,2.05-1.1,3.79-2.53,5.38-.92,1.03-2.05,1.89-2.92,2.93"/><path class="cls-18" d="M72.89,84.1c3.2-1.23,9.95-6.32,10.87-9.94"/><path class="cls-18" d="M67.61,104.52c-.89.57-2.69,1.62-3.41,2.29-1.5,1.4-.7,1.69-1.35,3.49-.82,2.29-5.36,3.8-7.65,4.32"/><path class="cls-18" d="M39.66,62.99c3.46,2.33,6.71,3.8,10.8,4.39,2.25.33,4.59.11,6.85.11"/><path class="cls-18" d="M50.04,69.82c1.68.55,2.94.95,4.74.95.68,0,1.63-.03,2.1-.09"/><path class="cls-18" d="M47.45,83.66c.31.32,2.07,0,2.71,0,.92,0,1.83,0,2.75,0h2.25"/><path class="cls-18" d="M44.25,104.17c1.65,1.34,5.49,3.08,7.7,2.25"/><path class="cls-18" d="M42.43,106.94c.35,1.13,3.79,2.97,4.54,3.38.86.46,2.11.8,2.81,1.03"/><path class="cls-18" d="M39.84,134.1c.43,1.9.78,3.22,1.38,4.41.4.78.25,1.58.71,2.34.67,1.1,1.35,2.19,1.71,3.46.34,1.23.31,2.28,0,3.55-.59,2.4-1.87,2.58-2.34,3.98-.34,1.02-.86,1.64-1.3,2.86-.16.46-1.59,3.53-2.01,4.05-1.28,1.58-3.21,2.81-4.22,3.39-2.23,1.3-4.45,1.73-6.86,1.34-.62-.1-2.3-.83-2.79-1.26-.53-.48-.66-1.89-.49-2.56.54-2.16,1.17-2.43,2.09-3.67.99-1.33,2.14-2.51,2.83-4.07.59-1.34.78-2.18,1.15-3.89.49-2.32,1.21-5.54,1.04-7.7"/><path class="cls-18" d="M23.51,159.62c-.35,1.47-.71,3.32.58,4.4,1.19.99,3.03,1.48,4.45,1.39,3.35-.19,6.55-1.09,8.96-3.88,1.51-1.75,3.29-5.19,4.43-7.37.98-1.86,2.83-5.09,2.23-6.82"/><path class="cls-18" d="M36.55,138.69c.05.88.3,3.96.26,4.84-.09,1.88-.51,4.35-1.13,6.14-.26.76-.65,1.76-.95,2.51-.26.63-.35,1.67-.78,2.25-.79,1.06-3.56-.38-4.74-.43-.52-.02-1.05,0-1.57,0"/><path class="cls-18" d="M34.82,139.47c.6.84.17,3.18-.11,4.3-.32,1.31-.43,2.62-.86,3.92-.42,1.25-.68,2.49-1.04,3.72-.29,1-1,1.67-1.37,2.6"/><path class="cls-18" d="M32.4,140.16c.38,1.19-.21,2.91-.35,4.15-.15,1.41-.72,2.7-1.13,4.05-.53,1.75-.87,4.07-1.82,5.56"/><path class="cls-18" d="M31.79,143.54c-.32,0,.91-.01,1.07-.02.58-.03,2.91-.25,2.99.37"/><path class="cls-18" d="M31.53,145.53c1.04.05,3.01-.15,3.89.35"/><path class="cls-18" d="M30.67,147.17c1.06,0,3.72-.31,4.41.52"/><path class="cls-18" d="M30.15,148.64c1.38.17,2.95-.12,4.07.86"/><path class="cls-18" d="M30.06,150.72c1.11.41,2.49.02,3.63.43"/><path class="cls-18" d="M29.19,152.79c1.16.45,2.46.35,3.72.43"/><path class="cls-18" d="M31.7,141.37c1.08.38,2.7,0,3.89,0"/><path class="cls-18" d="M103.53,41.51s-3.81,5.39-3.81,7.44-.46,3.65-.46,3.65c0,0-1.83,4.56-2.74,7.76-.91,3.2-1.83,8.9-1.83,8.9,0,0-4.11,3.65-5.48,6.62-1.37,2.97-.43,7.5-2.38,9.91-1.95,2.41-4.69,14.51-7.2,17.48-2.51,2.97-5.71,6.62-6.39,7.99-.69,1.37-3.65,4.56-4.56,5.48-.91.91-1.44,2.39-1.44,2.39"/><path class="cls-18" d="M124.85,91.68c0,1.83.8,3.57,1.13,7.49.34,4.03-.55,5.2-2.38,7.03-1.83,1.83-5.62,4.15-6.53,6.43-.91,2.28-2.51,7.76-2.51,7.76,0,0,1.6,1.6.91,4.56-.68,2.97-3.2,7.76-4.56,8.9-1.37,1.14-3.42,3.2-5.48,5.25-2.05,2.05-6.75,4.68-8.19,5.48"/><path class="cls-18" d="M103.69,41.4s1.7-1.64,5.15-.66c1.99.57,5.71-1.6,7.08-.46,1.37,1.14,5.02,3.88,5.71,5.93.68,2.05.23,8.44.91,10.27.68,1.83,2.55,12.24,1.39,14.9-1.03,2.37-1.62,2.67-1.17,4.04.13.4.22.69.56,1.79"/><path class="cls-18" d="M74.38,114.46s2.44-.53,4.79.23c4.46,1.45,7.5,6.73,7.76,11.26.13,2.34-.64,4.71-.87,7.04-.3,2.95-1.5,6.3-3.63,8.43-1.6,1.6-4.86,4.32-4.86,4.32,0,0,6.05.78,8.22,1.14,2.25.38,4.58,2.25,4.58,2.25,0,0,.8,3.74-.79,4.19-1.6.46-2.18-.28-2.18-.28,0,0,.78.91-.82,1.14-1.6.23-7.77-3.69-11.73-4.56-.89-.2-3.2-.46-3.2-.46"/><path class="cls-18" d="M92.64,88.44s-3.65,1.6-4.11,5.71c-.46,4.11.46,12.55,0,15.29-.46,2.74-1.37,2.97-1.14,5.71.23,2.74,1.83,23.96,2.51,28.53.69,4.56,1.14,7.53,0,9.59-1.14,2.05-2.45,3.31-3.2,4.79-.76,1.5-.79,4.32-.68,4.56.59,1.4,1.63.74,1.63.74,0,0,.79,1.98,1.93,1.98s2.15-1.12,2.15-1.12c0,0,.79,2.15,2.16,1.24,1.37-.91,2.86-8.54,2.86-8.54,0,0,1.11-.64,1.11-1.78s-1.11-2.1-1.11-2.1c0,0,.46-21.91.23-24.65-.23-2.74,1.6-2.97,2.51-6.16.91-3.2-.91-3.42,1.37-5.93,2.28-2.51,7.3-8.22,7.3-8.22"/><path class="cls-18" d="M97.06,147.47s5.61.9,6.75,1.36c1.14.46,2.21,1.48,3.12,1.25.91-.23.78-.71.78-.71,0,0,1.37,1.22,2.28.76.91-.46.68-.54.68-.54,0,0,.84.77,1.53-.37.69-1.14-1.59-4.59-7.23-5.33-2.27-.3-5.01-.79-5.01-.79"/><path class="cls-18" d="M117.06,112.63s-.23,3.88,1.14,8.67c1.37,4.79,6.16,13.44,6.07,16.7-.09,3.5-.37,6.12.09,7.49.46,1.37,1.83,1.37,2.05,2.51s.23,5.25.23,5.25l.91.46s-.64,2.26,1.65,3.85c2.28,1.6,6.34,3.22,7.48,2.99,1.14-.23.96-.78.96-.78,0,0,1.13.91,2,.33.6-.4.23-.69.23-.69,0,0,1.75-.04,1.37-1.14-1.39-4.05-6.72-4.61-7.17-6.44-.46-1.83-1.19-4.25-1.76-4.99-1.12-1.46-1.68-2.35-2.1-4.25-.51-2.32-1.42-4.49-1.87-12.02-.46-7.53-.8-11.1-.8-16.35s-1.83-10.5-1.83-10.5"/><path class="cls-18" d="M103.84,40.91s-3.19-5.03-4.17-5.97c-.55-.53-.74-.68-.91-.85-.17-.17-.57-.62-.79-.79-.23-.17-3.12-2.78-4.31-2.95-1.19-.17-1.76,3.4-1.64,5.44.2,3.61,1.1,8.31,1.98,10.55,1.19,3.01,4.88,7.09,4.88,7.09"/><path class="cls-18" d="M116.39,40.32s1.22-5.4,3.57-7.43c2.04-1.76,5.27-5.39,6.97-5.16.92.12,1.02.91,1.02,1.59s.78,11.94-1.13,14.97c-1.47,2.32-1.53,4.65-1.98,6.24-.45,1.59-2.04,2.95-2.55,3.23"/><path class="cls-18" d="M109.65,83.24c.44.13,1.41.17,2,.12.57-.05,1.12-.42,1.68-.4"/><path class="cls-18" d="M117.02,79.27c1.73-.63,2.62-2.08,3.86-3.36.32-.33.65-.61.97-.94.32-.32.56-.77.85-1.03"/><path class="cls-18" d="M116.28,80.52c-.43.48-.87.61-1.47.79"/><path class="cls-18" d="M105.34,95.54c-1.29.25-3.33,1.6-3.18,3.12"/><path class="cls-18" d="M93.21,92.82c.25.56-.32,1.43-.34,2.04"/><path class="cls-18" d="M94.79,94.92c0,.76-.05,1.58.11,2.33"/><path class="cls-18" d="M93.66,96.79c-.16.65-.39,1.3-.4,1.98"/><path class="cls-18" d="M91.85,98.09c.06-.06.11-.06.16,0,.23.8-.04,1.67.29,2.44"/><path class="cls-18" d="M103.36,100.36c-.09.24-.21.47-.23.74"/><path class="cls-18" d="M100.35,96.5c-.12.42-.2.87-.17,1.3"/><path class="cls-18" d="M104.72,84.99c.04-.07.1-.12.17-.15-.06.64-.51,1.22-.85,1.74"/><path class="cls-18" d="M102.96,83.69c.14.46-.25,1.01-.51,1.36"/><path class="cls-18" d="M101.6,82.9c.24.38-.49.84-.74,1.08"/><path class="cls-18" d="M100.97,82.22c.06.02.11.05.14.11-.12.33-.35.6-.59.85"/><path class="cls-18" d="M99.39,81.82c-.2.22-.37.47-.51.74"/><path class="cls-18" d="M89.92,74.68c.43-.04,1.16-.06,1.7-.06"/><line class="cls-18" x1="89.64" y1="75.53" x2="90.88" y2="75.53"/><path class="cls-18" d="M88.78,76.49c.16.41,1.26.1,1.64.11"/><path class="cls-18" d="M90.15,78.36c-.36.01-.71.15-1.02-.06"/><path class="cls-18" d="M89.98,73.77c.24.04.5.09.74.17"/><path class="cls-18" d="M90.15,75.19c-.28.06-.57.1-.85,0"/><path class="cls-18" d="M91.17,72.86c.34.1.8-.08,1.13-.17"/><path class="cls-18" d="M90.88,72.18c.37-.22.89-.11,1.3-.11"/><path class="cls-18" d="M88.33,79.44c.24.09.49.08.74,0"/><path class="cls-18" d="M95.36,72.35c-.51-.05-1.12.16-1.53.45"/><path class="cls-18" d="M95.81,73.09c-.64.34-1.25.63-1.87,1.02"/><path class="cls-18" d="M96.21,73.94c-.41.31-1,.54-1.47.74"/><path class="cls-18" d="M97.06,74.79c-.18.36-.69.56-.96.91"/><path class="cls-18" d="M98.08,75.53c-.31.14-.57.38-.74.68"/><path class="cls-18" d="M97.97,71.27c-.1.21-1.37.54-1.81.68"/><path class="cls-18" d="M97.01,70.42c-.75-.1-1.41.54-2.04.85"/><path class="cls-18" d="M95.47,69.69c-.48.23-1,.33-1.47.57"/><path class="cls-18" d="M99.39,73.71c.01.15-1.08.39-1.36.51"/><path class="cls-18" d="M100.86,75.02h.23c-.77-.07-1.53.21-2.1.74"/><path class="cls-18" d="M101.71,76.26c-.63.27-1.43.11-1.93.68"/><path class="cls-18" d="M102.05,77.28c-.63.43-1.48.23-2.04.85"/><path class="cls-18" d="M102.79,78.48c-.58.05-1.8.19-1.98.85"/><path class="cls-18" d="M103.3,79.44c-.47.17-1.29.08-1.47.62"/><path class="cls-18" d="M104.43,80.35c-.24.12-.42.22-.51.45"/><path class="cls-18" d="M106.25,81.37s-.04.04-.06.06"/><path class="cls-18" d="M98.82,87.6c-.4.42-1.37.4-1.93.51"/><path class="cls-18" d="M98.08,86.75c-.71-.05-1.34.27-1.98.51"/><path class="cls-18" d="M97.46,85.96c-.85-.06-1.64.33-2.44.57"/><path class="cls-18" d="M96.89,85.05c-.77.14-1.61.23-2.32.57"/><path class="cls-18" d="M96.04,84.2c-.82-.31-1.79.37-2.44.85"/><path class="cls-18" d="M94.79,83.12c-.77-.06-1.45.47-1.87,1.08"/><path class="cls-18" d="M93.26,81.93c-.73-.05-1.2,1.16-1.59,1.64"/><path class="cls-18" d="M90.6,81.76c.14-.34.26-1.3.74-1.25"/><path class="cls-18" d="M89.64,81.48c.51.13,1.03.12,1.53.28"/><path class="cls-18" d="M88.39,82.33c.59.36,1.43.54,2.1.74"/><path class="cls-18" d="M89.24,84.03c.49.33,1.46.3,2.04.4"/><path class="cls-18" d="M89.92,85.11c.38.37,1.34.29,1.87.45"/><path class="cls-18" d="M92.13,86.75c.24.09.49.08.74,0"/><path class="cls-18" d="M90.66,79.16s.06.09.09.14c-.47.2-1.05.39-1.57.54"/><path class="cls-18" d="M94.57,82.67c-.62.43-1.48.44-2.15.79"/><path class="cls-18" d="M93.94,86.41c-.07.47-.9.73-1.08,1.3"/><path class="cls-18" d="M94.96,86.87c.24.5-.37,1.42-.34,2.04"/><path class="cls-18" d="M95.98,87.49c.19.53-.06,1.11.23,1.64"/><path class="cls-18" d="M97.29,88.23c.17.51-.04,1.07.17,1.59"/><path class="cls-18" d="M98.42,89.36c.07.4,0,.88,0,1.3"/><path class="cls-18" d="M100.41,89.81c-.16.42-.7.65-.79,1.08"/><path class="cls-18" d="M102.67,90.04c.09.04.13.09.1.17-.39.16-1,.48-1.12.91"/><path class="cls-18" d="M103.87,91.06c-.35.15-.93.12-1.08.51"/><path class="cls-18" d="M105.62,91.57c-.4.23-.85.32-1.25.57"/><path class="cls-18" d="M107.21,94.75c.02-.08,0-.16-.06-.23"/><path class="cls-18" d="M104.15,71.5c.62-.62,1.42-1.44,1.76-2.27"/><path class="cls-18" d="M106.53,70.82c-.05.71-1.44,1.78-1.87,2.38"/><path class="cls-18" d="M106.98,72.47c.2.69-1.35,2.03-1.81,2.49"/><path class="cls-18" d="M106.87,74.9c-.04.59-1.05,1.2-1.53,1.47"/><path class="cls-18" d="M104.66,68.27c.38.68-1.03,1.45-1.47,1.7"/><path class="cls-18" d="M104.89,72.12c-.04.15-1.15.98-1.42,1.19"/><path class="cls-18" d="M105.74,73.94c-.99.42-1.9,1.04-2.66,1.81"/><path class="cls-18" d="M105.28,76.15c-.65.38-1.3.57-1.76,1.25"/><path class="cls-18" d="M105.4,77.34c.06.02.1.05.13.11-.24.41-.75.63-1.09.97"/><path class="cls-18" d="M106.13,67.36c-.29.18-.38.58-.51.91"/><path class="cls-18" d="M108.85,75.3c-1.14.52-2.13,1.87-3.17,2.61"/><path class="cls-18" d="M106.47,82.27c-.13.16-.31.28-.51.34"/><path class="cls-18" d="M107.95,82.95c0,.21-.25.22-.45.4"/><path class="cls-18" d="M108.68,83.41c-.07.08-.14.16-.21.25.08-.07.15-.15.21-.25"/><path class="cls-18" d="M109.48,83.92c0,.07,0,.12-.06.17"/><path class="cls-18" d="M111.8,90.15c-.12,1.39-.95,2.57-.91,4.03"/><path class="cls-18" d="M113.39,92.54c.27.51-.32,1.21-.62,1.59"/><path class="cls-18" d="M113.9,93.95c.1.3-.08.54-.34.68"/><path class="cls-18" d="M101.14,99.96c0,.09-.14.73-.11,1.02"/><path class="cls-18" d="M100.69,99.45c-.03.47-.28.93-.45,1.36"/><path class="cls-18" d="M92.3,93.44c-.06.37-.41.68-.62.96"/><path class="cls-18" d="M91.51,87.43c-.27.62-1.82,1.15-2.44,1.59"/><path class="cls-18" d="M90.26,86.64c-.83-.02-1.38,1.37-2.04,1.76"/><path class="cls-18" d="M89.64,85.96c-.68.13-1.32.91-1.81,1.36"/><path class="cls-18" d="M88.39,85.56c-.36.37-.73.69-.91,1.19"/><path class="cls-18" d="M87.59,89.02c.24.15-.23,1.34-.23,1.76"/><path class="cls-18" d="M88.56,90.21c.21.49-.37.96-.51,1.42"/><path class="cls-18" d="M122.52,81.82c.05.31,1.12,1.06,1.47,1.42"/><path class="cls-18" d="M121.61,82.95c-.01.33.76.75,1.08.96"/><path class="cls-18" d="M121.21,83.86c.14.3.75.72,1.08,1.02"/><path class="cls-18" d="M120.7,84.77c.1.39.64.64.96.85"/><path class="cls-18" d="M120.14,85.56c-.05.37.68.73.96.96"/><path class="cls-18" d="M119.4,86.47c.17.28.65.43.96.57"/><path class="cls-18" d="M119.46,89.59c-.33-.34-.96-1.69-.17-1.81"/><path class="cls-18" d="M118.32,91.23c-.23-.23-.98-.74-.79-1.08"/><path class="cls-18" d="M117.76,92.65c-.24-.05-.85-.17-.74-.45"/><path class="cls-18" d="M116.34,93.33c.44.18,1.01.2,1.47.23"/><path class="cls-18" d="M116.85,94.35c.1.48-.51.9-.85,1.13"/><path class="cls-18" d="M117.87,95.43c-.23.23-.55.37-.68.68"/><path class="cls-18" d="M119.29,94.01c-.13.3-.17.66-.06.96"/><path class="cls-18" d="M120.36,92.08c-.36-.07-.15.76.06.96"/><path class="cls-18" d="M121.1,90.55c-.15,0-.05,1.14.06,1.42"/><path class="cls-18" d="M122.29,89.02c-.23.3-.33,1.75,0,2.27"/><path class="cls-18" d="M122.8,88.4c-.68.31-.3,2.28.28,2.61"/><path class="cls-18" d="M124.67,87.32c0,.53-.1,1.5-.59,1.64"/><path class="cls-18" d="M124.3,86.35c-.86.29-1.33.63-1.96,1.31"/><path class="cls-18" d="M124.39,85.22c-.73-.05-1.41.37-1.87.91"/><path class="cls-18" d="M124.16,84.31c-.48-.18-1.09.23-1.36.62"/><path class="cls-18" d="M121.95,89.02c-.74.11-1.53.31-2.15.74"/><path class="cls-18" d="M121.44,90.04c.12.03.14.05.04.06-.77-.06-1.55.13-2.19.56"/><path class="cls-18" d="M120.53,91.23c-.09.35-1.3.44-1.7.74"/><path class="cls-18" d="M120.19,92.48c-.45.38-1.02.49-1.53.74"/><path class="cls-18" d="M94.57,69.74c.1-.37.34-1.44.62-1.59"/><path class="cls-18" d="M94.17,68.33c.39.2.65.71.68,1.13"/><path class="cls-18" d="M96.04,68.16c.4.6-.33,1.49-.74,1.93"/><path class="cls-18" d="M96.89,69.01c-.4.35-.54.79-.79,1.25"/><path class="cls-18" d="M97.52,69.74c-.02.32-.54.69-.74,1.02"/><path class="cls-18" d="M98.14,70.71c-.22.51-.8.74-1.02,1.3"/><path class="cls-18" d="M93.89,70.48c.36.35,1.28.35,1.76.34"/><path class="cls-18" d="M95.47,72.41c-.55-.12-1.22.06-1.7-.11"/><path class="cls-18" d="M94.28,73.37c-.12-.39.21-1.34-.51-.91"/><path class="cls-18" d="M92.98,70.42c.42.48.13,1.52,0,2.1"/><path class="cls-18" d="M94.34,70.48c.05-.12.09-.14.13-.05-.04.61-.2,1.2-.3,1.81"/><path class="cls-18" d="M96.32,71.96c.49.29-.09,1.52-.17,1.98"/><path class="cls-18" d="M98.08,71.79c-.26.62-.48,1.25-.74,1.87"/><path class="cls-18" d="M99.22,71.33c.13.72-.58,1.49-.79,2.15"/><path class="cls-18" d="M99.95,72.47c.1.59-.58,1.37-.79,1.93"/><path class="cls-18" d="M100.29,74.22c-.25.57-.82,1.03-1.19,1.53"/><path class="cls-18" d="M98.14,74.22c-.43.28-.13,1.62-.11,2.1"/><path class="cls-18" d="M97.01,73.49c-.23.6.08,1.4.06,2.04"/><path class="cls-18" d="M96.1,74.51c.16.5.06,1.13.06,1.64"/><path class="cls-18" d="M99.27,75.7c-.32.12-.24,1.08-.23,1.42"/><path class="cls-18" d="M100.69,75.3c.36.64,0,1.51-.4,2.04"/><path class="cls-18" d="M102.05,76.04c-.25.62-.79.99-.91,1.7"/><path class="cls-18" d="M94.68,70.03c-.06-.59-.38-1.01-.62-1.53"/><path class="cls-18" d="M95.19,66.91c.01.35.15.68.23,1.02"/><path class="cls-18" d="M95.81,66.12c.16.16.14.44.11.68"/><path class="cls-18" d="M96.1,65.04c.35.04.6.31.74.62"/><path class="cls-18" d="M95.25,67.14c.22.32.17.8.28,1.19"/><path class="cls-18" d="M94.28,67.19c.2.27.47.68.57,1.08"/><path class="cls-18" d="M93.77,69.35c.24.2.1.8.17,1.13"/><path class="cls-18" d="M91.96,70.88c.14.39.49.65.45,1.13"/><path class="cls-18" d="M91.45,74.11c.02-.25-.02-.5-.11-.74"/><path class="cls-18" d="M91.79,75.81c.08-.06.16-.06.24,0,.12.46.12.95.1,1.43"/><path class="cls-18" d="M90.6,77c.33.19.56.53.57.91"/><path class="cls-18" d="M90.6,78.36c-.15.13-.14.33,0,.51"/><path class="cls-18" d="M104.26,79.21c-.45.38-.99.82-.96,1.47"/><path class="cls-18" d="M105.96,81.76c-.19-.24-.32-.54-.28-.85"/><path class="cls-18" d="M90.6,82.44s.06-.08.06-.13c-.03.46,0,1.15.22,1.66"/><path class="cls-18" d="M91.96,83.63c.37.33.17,1.37.17,1.87"/><path class="cls-18" d="M93.49,84.83c.48.33-.16,1.23-.28,1.64"/><path class="cls-18" d="M94.34,84.88c.23.34.13.93.28,1.36"/><path class="cls-18" d="M94.68,83.46c.26.41.29,1.02.17,1.47"/><line class="cls-18" x1="95.87" y1="83.97" x2="95.87" y2="85.34"/><path class="cls-18" d="M96.61,84.71c.07.91.1,1.82.23,2.72"/><path class="cls-18" d="M95.65,86.13c.3.42.44,1.08.11,1.53"/><path class="cls-18" d="M93.66,86.41c.24-.17.64-.38.74-.68"/><path class="cls-18" d="M93.32,84.54c-.33.13-.48.5-.79.68"/><path class="cls-18" d="M92.64,84.03c-.33.14-.62.4-.91.62"/><path class="cls-18" d="M91.9,83.35c-.42-.06-.78.2-1.13.4"/><path class="cls-18" d="M89.3,82.1c.34.12,1.07-.09,1.19.17"/><path class="cls-18" d="M88.96,80.63c.22.05.54.08.51.23"/><path class="cls-18" d="M89.75,79.67c0-.26-.26-.35-.51-.34"/><path class="cls-18" d="M100.41,89.25c.02-.12,0-.23-.06-.34"/><path class="cls-18" d="M101.82,89.36c.07.04.14.1.17.17"/><path class="cls-18" d="M99.39,88.68c.16.18.08.38-.11.57"/><path class="cls-18" d="M92.02,78.82c-.08.08-.17.14-.28.17"/><path class="cls-18" d="M93.55,79.55c-.23.19-.51.41-.68.68"/><path class="cls-18" d="M93.83,81.25c.07.13.03.18-.11.17"/><path class="cls-18" d="M94,75.41c.09.04.11.1.07.16-.16.04-.36.08-.52.06"/><path class="cls-18" d="M93.49,74.39c-.1.03-.17.09-.23.17"/><path class="cls-18" d="M96.38,62.43c.44,0,.83-.25,1.25-.34"/><path class="cls-18" d="M96.44,61.3c.3.02.56-.08.85-.11"/><path class="cls-18" d="M99.39,64.25c.17-.13.27-.31.28-.51"/><path class="cls-18" d="M99.78,64.81c.01.15-.08.26-.23.34"/><path class="cls-2" d="M108.37,45.59s-.92,4.13-1.91,6.88c-.41,1.13-1.17,1.99-1.35,2.29-.61,1.02-1.83,2.44-2.44,3.87-.61,1.42.59,7.2,1.32,7.86,1.41,1.28,4.6,1.3,6.43.89,1.83-.41,4.35.23,4.47-2.47.11-2.38,2.2-3.1.6-7.11-.34-.85-.22-1.79-3.02-1.49-1.62.17-2.47.69-3.9-1.14-1.42-1.83-1.22-1.63-1.22-1.63"/><path class="cls-18" d="M108.37,45.59s-.92,4.13-1.91,6.88c-.41,1.13-1.17,1.99-1.35,2.29-.61,1.02-1.83,2.44-2.44,3.87-.61,1.42.59,7.2,1.32,7.86,1.41,1.28,4.6,1.3,6.43.89,1.83-.41,4.35.23,4.47-2.47.11-2.38,2.2-3.1.6-7.11-.34-.85-.22-1.79-3.02-1.49-1.62.17-2.47.69-3.9-1.14-1.42-1.83-1.22-1.63-1.22-1.63"/><path class="cls-9" d="M109.07,57.66c-.17.06-.51-.03-.74-.04-.42-.02-.89-.03-1.3.05-.75.15-1.5.64-2.13,1.06-.65.43-1.88,1.98-.9,2.61.47.3.83.16,1.19-.18.45-.43.61-1.17,1.14-1.53,1.34-.89,2.91-.11,2.99-1.16.02-.27.01-.62-.25-.77"/><path class="cls-16" d="M109.07,57.66c-.17.06-.51-.03-.74-.04-.42-.02-.89-.03-1.3.05-.75.15-1.5.64-2.13,1.06-.65.43-1.88,1.98-.9,2.61.47.3.83.16,1.19-.18.45-.43.61-1.17,1.14-1.53,1.34-.89,2.91-.11,2.99-1.16.02-.27.01-.62-.25-.77"/><path class="cls-10" d="M111.94,63.59c-.35-.16-3.2.74-4.52.79-.27.01-1-.09-.96.37.02.28.41.62.64.69.92.26,2.28.2,3.86-.4.85-.32,1.84-1.15.97-1.46"/><path class="cls-16" d="M111.94,63.59c-.35-.16-3.2.74-4.52.79-.27.01-1-.09-.96.37.02.28.41.62.64.69.92.26,2.28.2,3.86-.4.85-.32,1.84-1.15.97-1.46"/><path class="cls-18" d="M107.36,55.83c.39-.66.37-1.52.52-2.26.08-.37.44-1.13.29-1.45"/><path class="cls-18" d="M108.81,52.8c.56,1-.39,2.24-.34,3.28"/><path class="cls-18" d="M107.23,52.04c.13.31-.12.73-.22,1.02-.19.54-.39,1.08-.37,1.67"/><path class="cls-18" d="M109.75,54.59c-.24.7-.34,1.3-.34,2.05"/><path class="cls-18" d="M111.62,55.66c.05.1-.05.62-.04.85"/><path class="cls-18" d="M112.73,56.72c0-.34.01-.71,0-1.02"/><path class="cls-18" d="M113.28,55.83c.07.26.11.62.09.89"/><path class="cls-18" d="M114.09,56.08c0,.21-.08.39-.13.6"/><path class="cls-18" d="M110.39,56.08c-.02.13-.04.26-.08.38"/><path class="cls-18" d="M103.14,56.21c.18.34.26.74.38,1.11"/><path class="cls-18" d="M102.89,57.4c.04.28.16.67.3.94"/><path class="cls-2" d="M107.53,48.46c-.44.73-1.72.39-2.05-.08-.38-.56-.62-1.53-1.41-1.58-.74-.05-1,.61-1.25,1.18-.26.6-.42.95-.88,1.41-.61.61-1.24,1.61-2.24,1.5,1.06.09,1.49.72,2.29,1.32.76.57,1.8.66,2.64.38.5-.17,1.57-.33,1.95-.73.29-.3.44-1.19.52-1.6.08-.41.35-.89.43-1.29"/><path class="cls-18" d="M107.53,48.46c-.44.73-1.72.39-2.05-.08-.38-.56-.62-1.53-1.41-1.58-.74-.05-1,.61-1.25,1.18-.26.6-.42.95-.88,1.41-.61.61-1.24,1.61-2.24,1.5,1.06.09,1.49.72,2.29,1.32.76.57,1.8.66,2.64.38.5-.17,1.57-.33,1.95-.73.29-.3.44-1.19.52-1.6.08-.41.35-.89.43-1.29"/><path class="cls-2" d="M114.18,47.43c-.56-.62.21-.93.72-.94-.13-.3-1.57-.28-1.87-.33-.06-.37.69-.5.94-.68-1.03-.16-1.64-.31-2.26.64-.17.26-.26.56-.39.84-.05.11-.13.34-.24.41-.23.13-.43-.11-.65-.05-.36.09-.51.7-.46,1.06.06.4.3.75.36,1.17.06.43.06.88.11,1.31.07.55.04,1.2.18,1.73.06.21.45.65.59.73,0,0,.63.93.64.94-.38-1.28-.15-1.58.77-1.58,1.03,0,1.61-.46,2.42-1.02,1.02-.71,1.38-2.05,2.81-1.92.52.05,1.25.43,1.66.77-1.04-.36-1.87-1.45-2.62-2.22-.38-.38-.87-.79-1.41-.93-.3-.08-.99-.21-1.24,0"/><path class="cls-18" d="M114.18,47.43c-.56-.62.21-.93.72-.94-.13-.3-1.57-.28-1.87-.33-.06-.37.69-.5.94-.68-1.03-.16-1.64-.31-2.26.64-.17.26-.26.56-.39.84-.05.11-.13.34-.24.41-.23.13-.43-.11-.65-.05-.36.09-.51.7-.46,1.06.06.4.3.75.36,1.17.06.43.06.88.11,1.31.07.55.04,1.2.18,1.73.06.21.45.65.59.73,0,0,.63.93.64.94-.38-1.28-.15-1.58.77-1.58,1.03,0,1.61-.46,2.42-1.02,1.02-.71,1.38-2.05,2.81-1.92.52.05,1.25.43,1.66.77-1.04-.36-1.87-1.45-2.62-2.22-.38-.38-.87-.79-1.41-.93-.3-.08-.99-.21-1.24,0"/><path class="cls-18" d="M118.01,47.31c.13.29.41.5.6.75.32.44.55.94.68,1.47"/><path class="cls-18" d="M118.91,46.58c.58.58.93,1.67,1.28,2.47"/><path class="cls-18" d="M119.97,46.03c.23.22.28.67.38.98.16.47.44.95.47,1.45"/><path class="cls-18" d="M120.91,46.2c.32.57.4,1.57.43,2.22"/><path class="cls-18" d="M120.31,49.61c.39.2.3,1.3.3,1.7"/><path class="cls-18" d="M121.25,49.95c.25.1.05,1.05.04,1.32"/><path class="cls-18" d="M119.89,49.95c-.04.56.06.94-.17,1.49"/><line class="cls-18" x1="120.95" y1="51.87" x2="120.95" y2="52.46"/><path class="cls-18" d="M119.21,45.43c.09.08.16.18.17.3"/><path class="cls-18" d="M120.31,45.05c-.21.22,0,.5.17.68"/><path class="cls-18" d="M104.46,41.77c.09.41-1.14,1.96-1.45,2.51"/><path class="cls-18" d="M105.49,41.68c.13.1-.41,1.1-.51,1.41"/><path class="cls-18" d="M106.21,42.07c.13.3-.1.67-.17.98"/><path class="cls-18" d="M106.85,41.98c.1.19,0,.54-.04.77"/><path class="cls-18" d="M107.53,42.11c.05.15.06.31.04.47"/><path class="cls-18" d="M110.56,41.64c.14.15-.46.81-.6,1.02"/><path class="cls-18" d="M111.58,41.26c-.02.44-.16.94-.3,1.36"/><path class="cls-18" d="M112.47,41.13c.24.13.01.64-.08.85"/><path class="cls-18" d="M113.62,41.13c.02.15,0,.29-.04.43"/><path class="cls-18" d="M114.35,41.26c.05.03.08.07.08.12-.06.03-.02.05-.04.09"/><path class="cls-18" d="M108.85,41.81c.09.59-.54,1.4-.77,1.92"/><path class="cls-18" d="M99.48,51.99c-.2.48.13,1.5.26,1.99.17.62.4,1.28.72,1.84.3.55.85.96,1.24,1.4.25.28.63.45.85.77"/><path class="cls-18" d="M109.88,46.54c-.17.45-.06,1.48.17,1.92"/><path class="cls-18" d="M112.05,52.63c.31.73,1.02,1.07,1.66,1.53"/><path class="cls-18" d="M117.42,63.33c.11.29.01.57.26.85"/><path class="cls-18" d="M118.74,63.5c.04.25.18.46.43.55"/><path class="cls-18" d="M119.42,62.64c.08.01.15.06.21.13"/><path class="cls-18" d="M119.97,61.96c.07.09.15.16.26.21"/><path class="cls-18" d="M115.37,70.74c.46.25.94,1.08,1.06,1.58"/><path class="cls-18" d="M116.52,69.85c.3.54.53,1.19.73,1.78.26.77.22,1.53.38,2.31"/><path class="cls-18" d="M118.14,69.59c.13.35.04.74.21,1.11"/><path class="cls-18" d="M119.08,69.12c.23.03.31.33.34.55"/><path class="cls-18" d="M119.67,68.35c.2.08.35.23.55.3"/><path class="cls-18" d="M120.53,67.84c.1.04.2.09.3.13"/><path class="cls-18" d="M111.45,67.5c.44,1.48,1.27,3.13,2.39,4.22"/><path class="cls-18" d="M110.56,67.72c.67,1.29,1.07,2.72,1.66,4.05"/><path class="cls-18" d="M109.71,67.84c.58.77.72,1.83,1.02,2.73"/><path class="cls-18" d="M109.66,70.23c.18.34.23.75.39,1.11.28.62.73,1.14,1.02,1.75"/><path class="cls-18" d="M111.71,72.19c0,.65.79,1.2,1.15,1.66"/><path class="cls-18" d="M112.39,74.23c.49.37.95,1.05,1.32,1.53"/><path class="cls-18" d="M113.45,73.08c.24.57.82,1.16,1.28,1.58"/><path class="cls-18" d="M111.28,74.36c1.15,1.02,1.82,2.54,3.02,3.54"/><path class="cls-18" d="M110.86,75.3c.29.87,1.15,1.72,1.75,2.39"/><path class="cls-18" d="M110.51,76.83c.54.2.53.91.81,1.32"/><path class="cls-18" d="M111.45,78.67c-.07.41.39.68.64.94"/><path class="cls-18" d="M112.82,79.18c.23.18.43.4.68.55"/><path class="cls-18" d="M113.88,78.54c.3.33.66.6,1.02.85"/><path class="cls-18" d="M114.99,76.92c.24.29.54.48.89.6"/><path class="cls-18" d="M112.01,80.54c.36.15.76.54.98.85"/><path class="cls-18" d="M108.9,73.47s.08.04.12.04c-.3.18-.52.44-.72.73"/><path class="cls-18" d="M108.64,76.92c-.04.2-.16.24-.3.38-.34.35-.63.7-.89,1.11"/><path class="cls-18" d="M104.55,66.91c-.17.57-.7,1.07-1.06,1.54-.56.73-1.05,1.52-1.88,2"/><path class="cls-18" d="M107.23,68.06c.06.17-.16.38-.3.55"/><path class="cls-18" d="M100.93,66.48c.23.2.57.29.85.38"/><path class="cls-18" d="M99.65,67.8c.52,0,1.05-.03,1.53.21"/><path class="cls-18" d="M99.05,68.74c.4.34,1.17.17,1.66.3"/><path class="cls-18" d="M100.03,61.07c-.06.09-.18.15-.3.17"/><path class="cls-3" d="M104.59,50.87c0,.45-.42.82-.94.82s-.94-.37-.94-.82.42-.82.94-.82.94.37.94.82"/><path class="cls-2" d="M103.99,50.99c0,.32-.18.58-.4.58s-.41-.26-.41-.58.18-.58.41-.58.4.26.4.58"/><path class="cls-17" d="M103.99,50.99c0,.32-.18.58-.4.58s-.41-.26-.41-.58.18-.58.41-.58.4.26.4.58Z"/><path class="cls-3" d="M114.67,50.34c0,.45-.42.82-.94.82s-.94-.37-.94-.82.42-.82.94-.82.94.37.94.82"/><path class="cls-2" d="M114.07,50.46c0,.32-.18.57-.4.57s-.41-.26-.41-.57.18-.58.41-.58.4.26.4.58"/><path class="cls-17" d="M114.07,50.46c0,.32-.18.57-.4.57s-.41-.26-.41-.57.18-.58.41-.58.4.26.4.58Z"/><path class="cls-18" d="M107.66,52.76c-.32.22-.58.54-.85.81"/><path class="cls-18" d="M109.15,53.61c-.4-.21-1.09.89-1.24,1.24"/><path class="cls-18" d="M110.26,54.93c-.17.21-.36.48-.38.77"/><path class="cls-18" d="M110.86,55.7c.04.15.04.31,0,.47"/><path class="cls-18" d="M119.04,47.73c.96.6,1.21,1.85,1.24,2.9"/><path class="cls-18" d="M120.82,47.86c.03.09-.08.41-.14.6-.17.57-.29,1.14-.29,1.74"/><path class="cls-18" d="M121.68,48.24c.1.23-.1.54-.18.77-.17.49-.32.97-.29,1.49"/><path class="cls-18" d="M120.19,46.71c-.29.48-.03,1.34.17,1.79"/><path class="cls-18" d="M118.65,49.14c.21.21.24.61.34.89"/><path class="cls-18" d="M119.5,49.48c-.03.41.07.76.17,1.15"/><path class="cls-18" d="M121.55,50.97c-.03.53.28,1.06.38,1.58"/><path class="cls-18" d="M95.65,68.23c-.38.37-1.06.77-1.11,1.36"/><path class="cls-18" d="M94.88,70.78c.03-.61.74-1.27,1.28-1.49"/><path class="cls-18" d="M96.71,70.23c-.13.36-.84.62-1.15.85-.39.29-.98.65-1.19,1.11"/><path class="cls-18" d="M96.75,71.25c-.5.69-1.55.86-2.13,1.49"/><path class="cls-18" d="M97.73,71.68c-.19.55-1.41.79-1.83,1.24"/><path class="cls-18" d="M98.54,72.49c-.07.48-1.24.81-1.62,1.11"/><path class="cls-18" d="M99.56,73c-.19.44-1.58.86-2.13,1.19"/><path class="cls-18" d="M99.65,73.85c.11.13-1.62,1.05-1.92,1.19"/><path class="cls-18" d="M99.86,74.7c-.24.48-1.21.62-1.66.89"/><path class="cls-18" d="M94.92,72.4c-.04-.2-2.09.55-2.39.68"/><path class="cls-18" d="M94.28,71.46c-.58-.04-1.1.28-1.62.47"/><path class="cls-18" d="M94.15,70.91c-.29-.02-.57.07-.85.09"/><path class="cls-18" d="M95.22,68.65c.06-.01.15,0,.21,0,.16.56.07,1.13,0,1.7"/><path class="cls-18" d="M95.94,70.4c.17.23.05.57.04.85-.02.5-.04,1.05.09,1.54"/><path class="cls-18" d="M95.35,71.12c.41.7.6,1.42.85,2.17"/><path class="cls-18" d="M97.56,71.76c.62.58.47,1.77.77,2.51"/><path class="cls-18" d="M98.71,73.3c-.34.72-.08,1.84.55,2.34"/><path class="cls-18" d="M101.01,77.3c-.17-.46-.24-1.04-.51-1.45"/><path class="cls-18" d="M101.82,77.34c.06.2.05.39.04.6"/><path class="cls-18" d="M95.39,74.45c-.35.15-.67.28-.98.51"/><path class="cls-18" d="M93.26,73.08c-.14.41-.31.76-.55,1.11"/><path class="cls-18" d="M92.24,73.34c-.39.19-.49.74-.64,1.11"/><path class="cls-18" d="M101.69,75.13s-.08.12-.13.21"/><path class="cls-18" d="M102.29,77.39s-.05-.06-.09-.03c-.18.6-.02,1.4.26,1.95"/><path class="cls-18" d="M103.23,78.24c.11.36-.07.85-.08,1.24"/><path class="cls-18" d="M103.78,79.05s.08,0,.1.04c-.05.14-.14.26-.27.35"/><path class="cls-18" d="M101.52,77.81c.06,0,.09.04.09.09-.2.37-.54.6-.77.93"/><path class="cls-18" d="M100.89,77.56c-.27.06-.43.43-.51.68"/><path class="cls-18" d="M98.75,78.24c-.01-.9.36-1.77,1.24-2.13"/><path class="cls-18" d="M99.56,78.37s.04.08.04.12c-.15.08-.17.19-.17.35"/><path class="cls-18" d="M99.91,79.3s.06.03.09.04"/><line class="cls-18" x1="105.02" y1="81.09" x2="105.02" y2="81.39"/><path class="cls-18" d="M122.74,75.6c-.3.27-.52.71-.6,1.11"/><path class="cls-18" d="M121.04,76.79c0-.15-.04-.29-.09-.43"/><path class="cls-18" d="M120.06,75.43c.04.48.44.87.6,1.32"/><path class="cls-18" d="M121.21,75.47c.16,0,.13.43.21.64"/><path class="cls-18" d="M122.32,74.92c-.06-.21-.12-.42-.17-.64"/><path class="cls-18" d="M120.91,74.66c.08.16.14.33.17.51"/><path class="cls-18" d="M121.98,75.9c.06-.12.14-.27.17-.34"/><path class="cls-18" d="M121.76,76.66c0,.18-.11.33-.17.51"/><path class="cls-18" d="M120.31,76.96c.05.25,0,.51,0,.77"/><path class="cls-18" d="M120.1,76.49c-.06.37-.14.73-.13,1.11"/><path class="cls-18" d="M119.21,77.43c-.08.24-.06.49-.17.72"/><path class="cls-18" d="M121.51,73.94c.15.15.06.3-.04.51"/><path class="cls-18" d="M122.4,72.74c.01.26,0,.52-.09.77"/><path class="cls-18" d="M122.87,72.23c.03.23-.07.42-.21.6"/><path class="cls-18" d="M121.93,73.47c-.02.2-.09.36-.17.55"/><path class="cls-18" d="M122.02,76.11c-.06.08-.15.14-.26.17"/><path class="cls-18" d="M119.5,76.15c.04.06.14.44.13.64"/><path class="cls-18" d="M119.21,77.34c.08.03.11.09.09.17"/><line class="cls-18" x1="118.4" y1="78.58" x2="118.4" y2="78.79"/><path class="cls-18" d="M117.84,79.22s-.05.08-.04.13"/><path class="cls-18" d="M119.72,78.07c.08.03.11.09.08.17"/><path class="cls-18" d="M92.53,80.97c-.88.65-2.33,1.93-2.39,3.11"/><path class="cls-18" d="M91.34,80.24c-.73.9-1.25,2.12-1.66,3.2"/><path class="cls-18" d="M90.02,79.99c.02-.06.04-.12.06-.18-.76.47-1.3,1.99-1.55,2.82"/><path class="cls-18" d="M89.81,78.45s.09-.07,0-.09c-.52.98-.93,2.03-1.33,3.07"/><path class="cls-18" d="M90.19,77.35c.05-.05.12-.04.08-.12-.38.37-.63.86-.89,1.31"/><path class="cls-18" d="M90.4,76.02c-.52.18-.97.44-1.41.77"/><path class="cls-18" d="M89.08,82.07c-.71.14-1.45.88-1.87,1.45"/><path class="cls-18" d="M88.49,83.57c-.37.5-.98.78-1.32,1.32"/><path class="cls-18" d="M88.4,84.84c-.14.32-.63.45-.9.68"/><path class="cls-18" d="M93.13,82.97c-.07-.04-.14-.05-.21-.04"/><path class="cls-18" d="M92.53,82.54c-.33.62-.8,1.14-1.22,1.7-.42.56-.76,1.26-1.25,1.75"/><path class="cls-18" d="M90.19,82.5c-.71.7-1.51,1.52-1.92,2.43"/><path class="cls-18" d="M89.3,82.54c-.4.54-.94.96-1.32,1.53"/><path class="cls-18" d="M93.13,81.14c-.41.47-1.12.68-1.58,1.15"/><path class="cls-18" d="M91.77,79.77c-.25-.24-1.68.93-1.96,1.15"/><path class="cls-18" d="M91.34,78.75c-.14.36-.78.71-1.11.89"/><path class="cls-18" d="M94.37,83.05c-.3.51-.96.87-1.41,1.24-.67.55-1.44,1.14-1.87,1.92"/><path class="cls-18" d="M95.09,84.25c-.08.32-.51.48-.75.64-.56.37-1.09.78-1.62,1.19-.44.34-1.45.91-1.63,1.49"/><path class="cls-18" d="M94.67,85.65c.06.02.12.03.18.05-.21.89-1.86,1.14-1.97,2.08"/><path class="cls-18" d="M96.75,86.38c-.12.69-1.62,1.28-2.11,1.74.03.08.1.09.2.05"/><path class="cls-18" d="M97.52,87.06c.07.66-1.39.98-1.58,1.62"/><path class="cls-18" d="M98.76,88.34c.45.53-.76.96-1.15.94"/><path class="cls-18" d="M91.09,84.93c-.52.42-.64,1.46-.64,2.09"/><path class="cls-18" d="M89.64,84.12c-.62-.17-.78.62-.96,1.04-.34.79-.58,1.63-.53,2.5"/><path class="cls-18" d="M87.51,87.49c-.02.47-.21.92-.21,1.41"/><path class="cls-18" d="M95.09,86.38c.22.42-.27.81-.3,1.24"/><path class="cls-18" d="M92.75,77.77c.09,0,.1.08.19.02-.3.16-.54.4-.79.62"/><path class="cls-18" d="M92.58,75.98c-.08-.11-.42,0-.6.13"/><path class="cls-18" d="M99.69,89.62c-.06,0-.11.02-.17.04"/><path class="cls-18" d="M100.72,89.87s.07.08.13.08"/><path class="cls-18" d="M107.23,92.6c.12.02.18.09.17.21"/><path class="cls-18" d="M108.13,92.26c.08.18.11.37.26.51"/><line class="cls-18" x1="109.62" y1="92.26" x2="109.53" y2="92.17"/><path class="cls-18" d="M106.59,91.53c.06.39-.87.8-1.15,1.02"/><path class="cls-18" d="M107.83,95.58c-.12.18-.25.36-.34.55"/><path class="cls-18" d="M106.81,96.01c-.19.17-.25.46-.38.68"/><path class="cls-18" d="M105.66,96.73c-.12.19-.2.41-.17.64"/><path class="cls-18" d="M113.24,97.5c.41-.07.77,2.26.85,2.68"/><path class="cls-18" d="M112.35,98.82c.41.81,1.47,1.52,1.19,2.56"/><path class="cls-18" d="M112.39,100.65c.08.55.32,1.18.25,1.74-.06.48-.35.86-.12,1.37"/><path class="cls-18" d="M113.62,103.08c.06.21,0,.42,0,.64"/><path class="cls-18" d="M111.58,102.4c-.31.55-.48,1.15-.38,1.79"/><path class="cls-18" d="M112.69,105.55c.27.11-.34,1.04-.47,1.24"/><path class="cls-18" d="M111.32,105.51c.02.51-.35.98-.34,1.53"/><path class="cls-18" d="M110.34,105.08c-.16.37-.36.73-.51,1.11"/><path class="cls-18" d="M110.73,110.58c.15-.13.32-.27.34-.47"/><path class="cls-18" d="M121.42,101.89c-.21.55-.5,1.03-.6,1.62"/><path class="cls-18" d="M122.27,102.52c.16.54-.5,1.18-.47,1.79"/><path class="cls-18" d="M123.13,103.21c.28.7-.67,1.91-1.15,2.34"/><path class="cls-18" d="M123.98,101.8c.09.22.08.46,0,.68"/><path class="cls-18" d="M124.75,101.97c.15.34-.1.83-.13,1.19"/><path class="cls-18" d="M123.94,104.4c-.07.12-.16.23-.26.34"/><path class="cls-18" d="M121,105.46c-.03.13-.06.26-.09.38"/><path class="cls-18" d="M121.68,106.44c-.1.35-.5.69-.77.94"/><line class="cls-18" x1="123.42" y1="100.18" x2="123.51" y2="100.18"/><path class="cls-18" d="M95.86,106.53c.06,0,.09-.06.09,0-.03.46-.68.84-.9,1.24"/><path class="cls-18" d="M97.01,107.38c-.34.66-.97,1.15-1.32,1.83"/><path class="cls-18" d="M97.56,108.79c-.11.89-1.52,1.36-1.75,2.3"/><path class="cls-18" d="M95.56,109.77c-.28.08-.39.8-.55,1.07"/><path class="cls-18" d="M94.71,109.3c.07.19,0,.36-.17.43"/><path class="cls-18" d="M97.61,105.76c-.1.22-.41.46-.6.64"/><path class="cls-18" d="M95.39,105.08c.06-.02.09-.06.09-.13"/><path class="cls-18" d="M95.94,114.24c.08.36-.77.86-.98,1.15"/><path class="cls-18" d="M96.58,115.31c-.31.17-.78.25-.89.64"/><path class="cls-18" d="M96.2,116.46c.04.37-.38.49-.55.77"/><path class="cls-18" d="M95.65,119.86c-.18.03-.29.46-.3.68"/><path class="cls-18" d="M95.39,122.42c.12-.12.21-.29.17-.47"/><path class="cls-18" d="M94.58,127.28c.09.23-.34.63-.47.85"/><path class="cls-18" d="M94.67,128.43s.05.08.03.13c-.19.1-.4.24-.42.47"/><path class="cls-18" d="M94.75,129.54c.03.21-.1.37-.17.55"/><path class="cls-18" d="M95.18,130.64c.07.14.06.27-.04.38"/><path class="cls-18" d="M88.85,159.97c-.31.41-1.2,2.39-.87,3.81"/><path class="cls-18" d="M92.44,160.41c-.76,1.63-.71,2.24-.71,3.81"/><path class="cls-18" d="M85.28,149.79c1.52.4,2.12,1.89,2.12,3.24"/><path class="cls-18" d="M88.01,149.01c1.12.61,1.99,1.25,2.46,2.35"/><path class="cls-18" d="M105.02,145.65c.29.41,1,.55,1.41.83.44.29.76.74.99,1.2.26.5.34,1.04.39,1.61"/><path class="cls-18" d="M108.82,146.44c.77.34,1.82,1.03,2.12,1.86.13.37.01.81.18,1.16"/><path class="cls-18" d="M134.71,155.94c-.03.44,1.04,1.01,1.36,1.29.44.38.81.82,1.16,1.28.37.49.47.89.62,1.4"/><path class="cls-18" d="M139.89,159.42c.3-.63-1.03-2.6-1.65-2.75"/><path class="cls-18" d="M125.71,140.79c.06.47-.21.9-.45,1.29"/><path class="cls-18" d="M126.44,141.29c.18.34-.04.89-.17,1.23"/><path class="cls-18" d="M131.58,154.6c.02-.06.07-.07.06-.15.01.2.13.27.22.43"/><path class="cls-18" d="M132.53,153.43c.19.26.34.56.67.67"/><path class="cls-18" d="M102.33,135.47c.04-.25.53-.53.77-.66.48-.26.6-.27.91-.96.11.14.21.36.38.45.15-.34.11-.78.33-1.07.02.25.05.52.24.67.29-.39.46-.96.45-1.44-.1.32-.09.68,0,1,.39-.25.64-1.35.71-1.8-.11.3-.11.85,0,1.13.66-.17.86-1.72.84-2.28-.01.43-.04.87.18,1.26.35-.45.21-1.28.21-1.84.06.43-.06,1.12.4,1.34.39-.43.16-1.59.16-2.16,0,.21-.06,1.79.4,1.59.31-.14-.37-1.91-.4-2.2.16.54.16,1.21.52,1.69-.09-.71-.18-1.43-.18-2.14-.02.31.03.72.34.81.12-.38.05-.86.05-1.26.05.21.19.27.33.37.13-.37.27-.74.4-1.11.05.41.45.48.72.21.3-.31.02-.74-.04-1.05.22.13.46.28.44.56"/><path class="cls-18" d="M110.78,125.52c.1-.35.57-.59.8-.89.45-.6.94-1.27,1.33-1.89.31-.5,1.11-1.58,1.06-2.19"/><path class="cls-18" d="M101.27,117.52c.1.27-.01.48-.28.61"/><path class="cls-18" d="M101.55,118.59c-.07.36-.56.67-.84.95"/><path class="cls-18" d="M101.33,120.32c-.16.12-.27.27-.34.45"/><path class="cls-18" d="M101.55,121.66c.05.12.03.24-.06.34"/><path class="cls-18" d="M100.37,130.78s0,.27-.06.45"/><path class="cls-18" d="M101.27,129.71c0,.17.05.32.17.45"/><path class="cls-18" d="M102.72,128.15c-.06-.12-.15-.22-.22-.22"/><path class="cls-18" d="M103.17,127.03c-.02.12,0,.23.06.34"/><path class="cls-18" d="M103.73,126.14c.02-.07.05-.11.11-.12.08.03.13.1.17.18"/><path class="cls-18" d="M104.51,125.18c.17-.28.3-.59.4-.89.06.1.26.26.3.34.06-.5-.07-1.19.24-1.62.09.07.31.11.4.21.12-.35-.06-.81.05-1.17.07-.22.21-.29.38-.51.46-.6.76-1.4,1.14-2.05"/><path class="cls-18" d="M108.26,116.74c.29-.27.35-.95.45-1.34"/><path class="cls-18" d="M108.82,113.16c.26.46.37,1.02.56,1.51"/><path class="cls-18" d="M112.06,106.51c0,.36,0,.73,0,1.09-.03-.1-.08-.2-.1-.3.07.6.16,1.4,0,1.99-.16-.17-.23-.41-.23-.65,0,.43.02.85-.06,1.27-.4.16-.32.96-.34,1.33-.13-.06-.25-.13-.33-.33-.27.37-.13,1.09-.29,1.57-.12-.26-.26-.59-.43-.85-.12.09-.18.31-.17.51"/><path class="cls-18" d="M110.78,109.86c.16-.4.11-1.13,0-1.54.11.19.25.35.43.42.08-.46.13-.94.13-1.39.01.02.03.07.05.09-.02-.45-.18-1.54.33-1.66"/><path class="cls-18" d="M74.82,115.9c-.52.06-1.21.35-1.62.67"/><path class="cls-18" d="M75.99,118.08c-.14-.38-.04-.77-.22-1.12"/><path class="cls-18" d="M73.7,118.87c.07-.02.12,0,.15.05-.31.25-.66.45-.99.68"/><path class="cls-18" d="M74.48,119.48c-.09.58-.97.65-1.17,1.17"/><path class="cls-18" d="M74.82,120.88c.06.33-.68.55-.84.95"/><path class="cls-18" d="M74.7,122.11c.05.33-.4.56-.5.89"/><path class="cls-18" d="M75.49,122.84c-.22.24-.52.38-.73.61"/><path class="cls-18" d="M76.21,124.23c.36.05.47.48.56.78"/><path class="cls-18" d="M75.04,124.46c.25.24.55.41.78.67"/><path class="cls-18" d="M74.42,125.24c.09.23.49.47.56.84"/><path class="cls-18" d="M74.37,126.53c.33.19.59.45.89.67"/><path class="cls-18" d="M77.22,128.93c0-.42.07-.88-.06-1.29"/><path class="cls-18" d="M75.88,129.77c.03.27.14.52.22.78"/><path class="cls-18" d="M73.75,117.64c.43.01.83-.21,1.23-.34"/><path class="cls-18" d="M78.79,115.96c-.2-.37-.72-.3-1.06-.28"/><path class="cls-18" d="M76.05,132.68c.39-.17.66.43.78.78"/><path class="cls-18" d="M75.26,135.59c-.06.06-.14.08-.22.06"/><path class="cls-18" d="M73.7,130.67c.27.03.54-.05.78-.17"/><path class="cls-18" d="M74.65,129.49c.26-.07.52-.16.78-.22"/><path class="cls-18" d="M73.53,129.04c.23-.14.48-.23.73-.34"/><path class="cls-18" d="M73.47,128.09c.01-.13.14-.15.28-.11"/><path class="cls-18" d="M74.09,137.54c-.25-.41-.75-.82-.73-1.34"/><path class="cls-18" d="M73.75,141.46c-.05-.27-.19-.46-.17-.73"/><path class="cls-18" d="M75.82,137.21c.4.06.61.61.73.95"/><path class="cls-18" d="M74.98,138.05c.13.43.77.58.78,1.12"/><path class="cls-18" d="M74.37,141.12c-.1-.27-.13-.56-.22-.84"/><path class="cls-18" d="M73.7,143.58c.07-.03.11,0,.11.06-.04.09-.08.19-.11.28"/><path class="cls-18" d="M72.64,146.32c-.2-.26-.11-.64-.06-.95"/><path class="cls-18" d="M73.81,134.47c.85.26,1.86.24,2.74.34"/><path class="cls-18" d="M73.75,132.12c.5.02,1.01-.05,1.51-.06"/><path class="cls-18" d="M73.14,128.65c.35.06.8-.2,1.12-.34"/><path class="cls-18" d="M72.86,126.02c.62-.05,1.33-.28,1.85-.61"/><path class="cls-18" d="M72.58,124.96c.42.12.89-.21,1.29-.34"/><path class="cls-18" d="M72.19,124.12c.56-.15,1.38-.36,1.79-.78"/><path class="cls-18" d="M72.3,123.23c-.05.04-.11.06-.18.05.44-.3,1.4-.42,1.53-1-.46-.18-1.01-.1-1.5-.12,1.12-.29,1.77-1.14.14-1.11"/><path class="cls-18" d="M118.05,114.78c.12-.57.27-1.05.56-1.57"/><path class="cls-18" d="M118.83,114.73c-.35.63-.69,1.51-.45,2.24"/><path class="cls-18" d="M119.39,117.02c-.11-.24-.1.19-.16.34-.2.46-.41,1-.4,1.51"/><path class="cls-18" d="M120.23,117.3c.07.24.06.48.06.73"/><path class="cls-18" d="M121.4,118.14s.04.07.06.11"/><path class="cls-18" d="M119.78,111.54c.07.29-.17.56-.34.78"/><path class="cls-18" d="M118.66,111.93c-.03.2-.11.39-.22.56"/><path class="cls-18" d="M119.84,120.15c-.02-.05-.04-.1-.06-.15-1.05.05-.3,1.79-.05,2.28"/><path class="cls-18" d="M120.34,122.78c.08.24.07.48.06.73"/><path class="cls-18" d="M120.84,120.71c-.26-.14-.5.05-.56.34"/><path class="cls-18" d="M120.68,119.48c-.07.12-.19.22-.34.28"/><path class="cls-18" d="M119.44,119.03c-.14.04-.27.09-.39.17"/><path class="cls-18" d="M118.66,119.98c0,.24-.13.37-.22.61"/><path class="cls-18" d="M102,101.3s-.74.95-.9,1.23"/><path class="cls-18" d="M101.6,96.44c-.16.42-.58.75-.84,1.12"/><path class="cls-18" d="M103.34,98.51c.26-.15.56-.16.78-.34"/><path class="cls-18" d="M91.65,101.02c.13.17.17.39.11.62"/><path class="cls-18" d="M105.52,109.25c.06.36-.25.73-.39,1.06"/><path class="cls-18" d="M102.61,112.55c0-.36.09-.74.34-1.01"/><path class="cls-18" d="M104.12,109.47c.13.42.04.88-.11,1.29"/><path class="cls-18" d="M104.68,108.91c.09.08.17.17.22.28"/><path class="cls-18" d="M106.53,107.9c.06.16.08.33.06.5"/><path class="cls-18" d="M108.26,107.74c-.09-.09-.19-.19-.28-.28"/><path class="cls-18" d="M104.74,111.15c.12.39.05.84-.06,1.23"/><path class="cls-18" d="M103.23,113.5c.1-.23.19-.62.17-.78"/><path class="cls-18" d="M102.95,110.48c.42.32.73.81,1.12,1.18"/><path class="cls-18" d="M102.83,111.71c0,.22.37.25.56.45"/><path class="cls-18" d="M104.46,110.14c.25.08.52.07.78.06"/><path class="cls-18" d="M106.19,109.19c.27.03.55.02.78-.11"/><path class="cls-18" d="M107.31,108.35c.13.04.27.01.39-.06"/><path class="cls-18" d="M102,113.44c-.04.17-.08.33-.11.5"/><path class="cls-18" d="M100.04,115.51c-.05-.29,0-.69.34-.78"/><path class="cls-18" d="M104.62,89c.07.18.07.37,0,.56"/><path class="cls-18" d="M103.23,88.5c.05,0,.11,0,.16,0,0,.22,0,.45,0,.67"/><path class="cls-18" d="M100.43,86.54c.05.06.05.39.06.61"/><path class="cls-18" d="M99.09,85.87c.18.19.13.43-.06.62"/><path class="cls-18" d="M98.31,84.69c-.01.17-.09.33-.22.45"/><path class="cls-18" d="M99.42,84.64c.08.18.08.38,0,.56"/><path class="cls-18" d="M99.65,87.38c.06-.05.11-.05.16,0,0,.1.03.25,0,.34"/><path class="cls-18" d="M101.27,87.49c.09.25-.03.46-.06.73"/><path class="cls-18" d="M102,88.22c.13.26.26.52.39.78"/><path class="cls-18" d="M97.24,82.62c.16.81.48,1.47.28,2.35"/><path class="cls-18" d="M98.7,83.97c.9-.05.19,2.04-.06,2.4"/><path class="cls-18" d="M100.37,85.53c.09.33-.08.64-.17.95"/><path class="cls-18" d="M100.82,86.76c.14.39-.27.67-.45,1.01"/><path class="cls-18" d="M95.84,82.34c.1.02.2.06.28.11"/><path class="cls-18" d="M116.09,82.01c-.13.13-.15.33-.17.56"/><path class="cls-18" d="M114.47,82.29c.09.31.06.63.06.95"/><path class="cls-18" d="M113.52,83.58c.03.21-.03.4-.17.56"/><path class="cls-18" d="M112.34,84.69c-.08.26-.25.48-.45.67"/><path class="cls-18" d="M117.04,81.51c.18.04.29.19.34.39"/><path class="cls-18" d="M115.92,82.85c.23.05.44.14.62.28"/><path class="cls-18" d="M115.14,83.63c.2,0,.34.1.39.28"/><path class="cls-18" d="M114.58,84.25c.04.07.06.14.06.22"/><path class="cls-18" d="M114.36,85.09s.04.07.06.11"/><path class="cls-18" d="M117.82,80.11c.15.13.13.39.06.56"/><path class="cls-18" d="M110.33,85.76c.02-.22.17-.43.34-.56"/><path class="cls-18" d="M105.49,108.65c.65.6.17,2.92,0,3.81"/><path class="cls-18" d="M103.21,109.19c.98.37.43,3.28.33,4.13"/><path class="cls-18" d="M102.34,115.71c0-1.02.23-3.09-.22-3.7"/><path class="cls-18" d="M100.6,112.02c1.17.69,2.82-.07,4.13.54"/><path class="cls-18" d="M101.69,113.76c.39.19.79.44,1.09.76"/><path class="cls-18" d="M101.58,114.41c-.3.72-.04,1.54-.54,2.18"/><path class="cls-18" d="M104.73,109.62c.16.64.25,1.3.22,1.96"/><path class="cls-18" d="M107.99,108.65c.02-.56-.02-1.12.22-1.63"/><path class="cls-18" d="M100.27,119.09c.05-.49-.05-.99-.44-1.3"/><path class="cls-18" d="M100.71,116.8c-.09-.39-.36-.62-.76-.65"/><path class="cls-18" d="M112.02,105.38c.31.09.58.03.76-.22"/><path class="cls-18" d="M114.52,103.75c.12.32.23.65.33.98"/><path class="cls-18" d="M113.76,101.58c.1.59.73.98,1.2,1.3"/><path class="cls-18" d="M112.23,101.9c.45.28,1.01.37,1.2.87"/><path class="cls-18" d="M113.54,105.71c-.55-.34-1.35-.64-1.63-1.2"/><line class="cls-18" x1="113.76" y1="99.19" x2="112.89" y2="99.19"/><path class="cls-18" d="M112.02,100.27c.71.43,1.5.28,2.28.44"/><path class="cls-18" d="M111.36,101.8c.88-.03,1.78,0,2.61.33"/><path class="cls-18" d="M111.8,103.1c.48.02.9.28,1.2.65"/><path class="cls-18" d="M111.36,104.51c.43.17.83.39,1.2.65"/><path class="cls-18" d="M111.8,106.58c.43-.01.83.14,1.09.43"/><path class="cls-18" d="M111.25,108.75c.04.16.12.31.22.44"/><path class="cls-18" d="M110.93,110.6c-.11.36-.22.73-.33,1.09"/><path class="cls-18" d="M110.06,113c-.03.13-.1.2-.22.22"/><path class="cls-18" d="M94.83,105.71c.11-.02.22-.01.32.01.03.22-.06.37-.21.53"/><path class="cls-18" d="M96.9,105.17c-.08.13-.18.42-.22.65"/><path class="cls-18" d="M95.27,107.99c.36-.05.75-.13,1.09-.22"/><path class="cls-18" d="M97.34,108.86c-.13.08-.28.12-.43.11"/><line class="cls-18" x1="97.99" y1="107.67" x2="97.01" y2="107.67"/><path class="cls-18" d="M95.81,104.08c.22,0,.41.04.33.22"/><path class="cls-18" d="M97.99,103.86c-.26.29-.55.54-.87.76"/><path class="cls-18" d="M96.36,113c.07-.06.11-.13.11-.22"/><path class="cls-18" d="M95.27,118.43c.18,0,.18.03,0,.11"/><path class="cls-18" d="M95.92,120.72c-.08.12-.19.2-.33.22"/><path class="cls-18" d="M107.34,93.86c.14.39,0,.78-.33,1.09"/><path class="cls-18" d="M103.21,96.14c.04-.3,0-.6-.11-.87"/><path class="cls-18" d="M104.51,96.79c.24.11.5.15.76.11"/><path class="cls-18" d="M106.14,94.07c-.39.16-.81.16-1.2,0"/><path class="cls-18" d="M102.88,97.55c.37-.13.79-.17,1.2-.11"/><path class="cls-18" d="M104.95,95.38c.03-.26,0-.52-.11-.76"/><path class="cls-18" d="M102.45,100.38c-.2-.14-.42-.29-.65-.43"/><line class="cls-18" x1="102.99" y1="98.97" x2="104.3" y2="98.97"/><path class="cls-18" d="M100.82,98.42c.47.18.72.54,1.09.87"/><path class="cls-18" d="M101.14,100.93c.17,0,.32.09.43.22"/><path class="cls-18" d="M102.12,102.56c0,.09-.04.16-.11.22"/><path class="cls-18" d="M104.4,93.86c.34,0,.63-.17.87-.43"/><path class="cls-18" d="M87.22,108.1c.49-.33.93-.75,1.3-1.2"/><path class="cls-18" d="M84.4,133.11c.59.05,1.2-.37,1.74-.65"/><path class="cls-18" d="M85.05,126.7c.44-.2.94-.26,1.09-.11"/><path class="cls-18" d="M85.37,130.72c.39-.11.77-.3,1.09-.54"/><path class="cls-18" d="M85.59,128.98c.27.03.54-.05.76-.22"/><line class="cls-18" x1="84.94" y1="130.07" x2="86.24" y2="130.07"/><path class="cls-18" d="M86.9,126.91c-.37.26-.79.3-1.2.11"/><path class="cls-18" d="M85.16,122.67c.04.35-.03.68-.22.98"/><path class="cls-18" d="M86.68,123c-.27.45-.47,1.13-.98,1.09"/><path class="cls-18" d="M125.9,74.83c-2.24,1.52-3.62,3.55-3.33,4.35.8,2.19,2.6.97,3.75.26,1.02-.63,2.13-1.51,2.25-2.79.11-1.23-1.48-2.67-2.67-1.81"/><path class="cls-18" d="M128,78.31c3.27.65,0,4.32-1.63,5-1.2.5-2.43.77-2.28-.76.12-1.27.59-1.3,1.09-2.39"/><path class="cls-18" d="M127.67,82.77c2.61,1.3-.33,4.68-2.28,4.24-2.24-.5-.66-2.84.54-3.37"/><path class="cls-18" d="M125.39,88.42c1.3-.33,2.13-.19,2.5.87.29.83-.11,1.85-1.64,2.26-.6.16-1.8.2-2.28-.41-.82-1.05-.11-2.18,1.41-2.72"/><path class="cls-18" d="M44.37,22.23c1.13-.52,2.88-.63,4.15-.17"/><path class="cls-18" d="M54.96,23.61c1.54.35,2.45.85,3.09,2.24"/><path class="cls-18" d="M44.77,19.86c.69-.85,2.04-1.12,3.09-1.12"/><path class="cls-18" d="M56.42,21.4c1.03.24,1.91.77,2.08,1.66"/><path class="cls-18" d="M49.98,27.63c.79.62,1.94.92,2.7.62"/><path class="cls-18" d="M55.23,32.29c-1.5.83-4.71,1.62-6.1,1.31-1.15-.25-3.55-2.82-5.6-3.68,0,0,3.74.42,6.65,1.04,2.91.62,5.05,1.33,5.05,1.33Z"/><path class="cls-18" d="M43.65,29.32c-.16.33-.47.69-.54,1.04"/><path class="cls-18" d="M55.31,31.67c-.14.38.12.77,0,1.16"/><path class="cls-18" d="M38.75,26.54c-.21-.22-1.91,1.13-1.89,1.62"/><path class="cls-18" d="M38.48,27.31c-.04.14-.25.33-.37.49-.27.37-.49.77-.71,1.16"/><path class="cls-18" d="M38.44,30.9c.06-.32.57-.73.46-1.04"/><path class="cls-18" d="M39.41,30.24c.12.37-.19.99-.19,1.39"/><path class="cls-18" d="M38.37,29.09c-.22.12-.5.16-.73.23"/><path class="cls-18" d="M38.33,27.43c-.45-.03-1.23-.22-1.58.15"/><path class="cls-18" d="M58.47,33.18c-.01.21.04.42.23.54"/><path class="cls-18" d="M58.01,33.37c.09.35.05.71.31,1"/><path class="cls-18" d="M57.54,33.52c-.07.53-.08,1.05-.08,1.58"/><path class="cls-18" d="M56.93,34.87c-.05.17-.16.32-.19.5"/><path class="cls-18" d="M62.1,26.39c.13.37-.03,1.06-.12,1.43"/><path class="cls-18" d="M62.95,25.81c-.06.24-.14.52-.15.77"/><path class="cls-18" d="M51.72,13.38c.86.26,1.54.86,1.95,1.65.36.7.41,1.16.41,1.94"/><path class="cls-18" d="M58.12,17.01c.28.63.05,1.42-.08,2.04"/><path class="cls-18" d="M43.73,12.84c1.3.54,1.32,2.34,1.12,3.51"/><path class="cls-18" d="M39.26,39.37c-1.36,1.42-.68,4.1.4,5.46"/></g></svg>