<?xml version="1.0" encoding="UTF-8"?><svg id="Layer_2" xmlns="http://www.w3.org/2000/svg" viewBox="0 0 114.92 224.11"><defs><style>.cls-1{fill:#dfa13a;}.cls-1,.cls-2,.cls-3,.cls-4,.cls-5,.cls-6,.cls-7,.cls-8,.cls-9,.cls-10{stroke-width:0px;}.cls-11{stroke:#000;stroke-linecap:round;stroke-linejoin:round;stroke-width:.79px;}.cls-11,.cls-12{fill:none;}.cls-2{fill:#ddbc38;}.cls-3{fill:#cc2d29;}.cls-4{fill:#f2f4ca;}.cls-5{fill:#231f20;}.cls-6{fill:#ffd350;}.cls-7{fill:#fff;}.cls-8{fill:#6f1b0d;}.cls-9{fill:#52909e;}.cls-12{stroke:#231f20;stroke-miterlimit:10;stroke-width:.2px;}.cls-10{fill:#e9d7bd;}</style></defs><g id="Layer_1-2"><path class="cls-3" d="M33.25,214.11s-.08,3.45-.61,4.52c-.54,1.07-31.37.23-31.37.23,0,0-.76-.25-.84-.84-.15-1.08.26-1.5.23-2.23-.08-1.76,2.15-4.37,5.68-5.9,3.53-1.54,4.6-1.38,7.59-1.99,2.99-.61,3.83-2.15,3.83-2.15l.23-.56s13.2,6.9,13.96,7.58c.76.68,1.3,1.34,1.3,1.34"/><path class="cls-2" d="M33.11,217.88c.23-.52.28-1.12.02-1.63-.3-.56-3.54-.12-4.21-.11-2.43.06-4.86.11-7.29.15-3.52.07-7.05.13-10.58.19,0,0-9.26-.4-9.47-.51-.21-.11-.91-.43-.91-.43,0,0-.64,2.79,0,3.11.64.32,12.34.48,12.34.48,0,0,18.4.16,19.15-.21.4-.2.76-.6.96-1.05"/><path class="cls-3" d="M111.21,211.91c.5.42,1.21,1.4,1.21,2.19,0,1.19,1.07,2.03,1.36,3.17.27,1.07.73,5.79.75,6.18-1.34.39-1.81.15-3.47.23-2.1.1-3.64,0-5.73,0-4.49,0-9-.13-13.48-.39-.16-1.89,0-4.16,1.06-5.72.66-.98,1.6-2.38,2.68-3.01,2.29-1.32,2.23-1.45,1.96-2.7l1.74-1.48-.27,2.84,2.81.38,2.29.57c1.36-.83,2.48-3.39,1.88-4.94.04.14-.05.16-.07.26"/><path class="cls-2" d="M91.69,221.24l.16,2.05,10.95.42,11.73-.26-.3-2.04c-.47.28-1.36.24-2.03.3-1.72.16-3.48.1-5.2-.08-2.57-.27-5.25-.28-7.84-.4-1.67-.08-3.33-.21-5-.21-.62,0-1.6-.22-2.09.23"/><path class="cls-4" d="M83.68,39.59s-4.41,1.83-5.99,1.58c-1.58-.25-2.58.42-4.66-1.25-2.08-1.66-2.41-4.25-2.41-4.25,0,0-10.57,13.49-11.4,17.31-.83,3.83-1.41,4.41-2.08,5.24-.67.83-10.15,38.87-9.99,40.04.17,1.17,2,.17,4.41.33,1.32.09,3.03.63,3.65.73,0,0,.93-10.14,1.01-12.22.08-2.08,2.08-16.65,3-20.31.92-3.66,4.16-10.24,7.91-13.82,3.75-3.58,16.56-13.4,16.56-13.4"/><path class="cls-7" d="M17.94,54.25c.05-.8.95-1.27,1.53-1.6-2.2-.5-1.13-1.7.35-2.42-1.95-.46.34-2,1.39-2.14-1.42-.33-.42-1.13.07-1.64"/><path class="cls-3" d="M17.98,54.61l-.03-.35c0,.11,0,.23.03.35"/><path class="cls-3" d="M46.67,87.97c.39-2.84,3.26-2.05,3.18-1.8-.85,2.47-3.64,18.67-4.04,21.27-.38,2.49-.46,5.73-.61,7.78-3.61,1.26-8.17,2.12-11.15-1.65-2.61-3.29,1.68-8.94,2.67-12.8.94-3.69,3.4-10.31,3.24-10.93,0,0,.67-.15,2.9-.18,1.71-.02,2.4-.72,3.8-1.69"/><path class="cls-1" d="M16.77,211.77c1.65-.49,3.29-1.29,4.5-2.53.31-.32.62-.67.84-1.05.35-.59.32-.61-.23-1-.82-.58-1.81-.88-2.63-1.47-.56-.41-1.11-.99-1.64-.26-.35.49-.39.85-1.03,1.19-.96.52-2.14.95-3.17,1.31-.79.28-1.67.41-2.48.52-.51.07-1.22,0-1.63.27.27.22.65.32.9.59.28.29.36.73.54,1.08.61,1.24,1,1.72,2.42,1.8,1.21.07,2.44-.12,3.6-.47"/><path class="cls-9" d="M25.09,182.41c-.21,1.01-.46,2.01-.78,3.01-.8,2.42-1.72,3.91-3.21,5.88-1.38,1.83-.89,3.01-1.13,5.2-.24,2.15-1.54,2.66-2.77,4.33-.42.58-.82,1.32-.98,1.97-.37,1.52-.73,1.58.59,1.98,1.96.6,3.66,1.68,5.13,2.37,1.51.71,2.9,1.59,4.34,2.41,2.24,1.28,5.59,2.4,6.92,4.82-.14-1.44-.2-6.63.58-8.75,1.1-2.96.59-6.04,1.63-8.81.7-1.84.7-3.82,1.36-5.6,1.53-4.12,4.5-7.48,5.75-11.88.8-2.82,1.26-5.71,1.92-8.53,1.28-5.47,2.91-10.68,2.96-16.39.03-3.55,1.59-5.4,3.95-7.9,3.31-3.51,4.17-7.79,6.12-11.25,1.55-2.76,2-6.26,2.76-9.28.34-1.32,1.2-3.37,2.04-5.07.58,1.19,1.15,2.45,1.7,3.92,1.73,4.58,2.15,9.39,4.74,13.59,1.05,1.71,2.11,5.17,3.15,6.9.65,1.08,1.42,2.04,1.99,3.18.56,1.14.43,1.84.78,2.96.57,1.84,2.29,2.86,3.17,4.53.88,1.7.7,3.64.98,5.53.69,4.52,1.9,8.5,3.22,12.93.74,2.49.86,5.02,1.87,7.44,1.18,2.81,2.77,5.45,4.05,8.19,1.07,2.29,2.29,4.53,3.45,6.78,1.09,2.1,1.08,3.27,1.44,5.52.31,1.99,1.91,2.21,2.17,4.15.33,2.43-.64,4.32,2.12,5.5,2.68-2.17,3.86-3.27,7.71-2.94,3.24.28,3.98,1.87,6.75,2.97.67-3.39-1.46-6.27-2.17-9.29-.38-1.6-1.46-3.27-1.78-4.93-.49-2.52-2.53-3.24-3.16-5.73-.76-2.97-1.67-4.46-1.97-7.5-.38-3.77-.37-9.21-1.18-11.65-1.54-4.62-1.69-9.04-4.5-13.05-2.04-2.9-3.29-6.58-3.99-10.05-.72-3.55-.83-6.83-1.97-10.27-1.08-3.25-1.78-6.51-2.17-11.45-.18-2.22-9.42-23.87-9.4-26.14l-32.13-3.75c-.86,2.84-.78,6.15-1.02,9.09-.14,1.66-.26,3.32-.47,4.97-.18,1.45-.27,2.66-1.83,3.29-.42.17-.96.22-1.41.31-1.39.29-2.66-.43-3.21,1.22-.59,1.77-1.05,3.59-1.48,5.4-.83,3.55-1.48,7.14-2.18,10.72-.33,1.69-.59,3.7-1.09,5.31-.74,2.42-2.31,5.42-2.44,7.98-.17,3.49.25,6.08-.8,9.58-.92,3.09-1.59,6.46-2.66,9.55-.57,1.64-.92,3.4-1.28,5.1-.34,1.61-.73,2.59-.75,4.16-.04,2.39-.94,5.08-1.42,7.43"/><path class="cls-3" d="M98.6,49.48c-.73-2.75-2.64-4.98-4.85-6.67-1.3-1-2.48-2.08-3.72-3.12-.82-.69-1.36-1.66-2.15-2.39-.5-.46-1.07-.86-1.71-1.11-.19-.07-.8-.35-.98-.24-.24.15-.23,1.03-.36,1.3-.32.67-.94,1.36-1.52,1.81-.52.4-.99.89-1.51,1.29-.68.53-1.52.76-2.2,1.32-.62.52-1.12.96-1.6,1.58-.34.44-.84.74-1.29,1.07-.52.38-.7.69-1.08,1.12-.34.38-.91.57-1.28.96-.52.55-1.29.79-1.76,1.38-.12.15-.09.27-.25.44-.22.24-.59.37-.84.59-.47.42-.94.84-1.45,1.23-.55.42-.89.87-1.38,1.34-.42.41-1.03.65-1.42,1.08-.39.42-.76.92-1.09,1.39-.37.53-.9.94-1.28,1.47-.48.68-1.07,1.29-1.61,1.94-2.93,3.5-3.68,8.32-4.84,12.6-.03.12-.07.24-.1.37-.85,2.75-1.96,14.32-2.09,16.96-.08,1.66-.18,3.23-.3,4.9-.1,1.33-.31,2.64-.38,4-.06,1.23.05,2.4-.07,3.63-.18,1.74-.08,3.41,0,5.13.06,1.47.15,2.97.15,4.43,0,1.35-1.5,4.63.29,4.49,1.58-.13,4.31-.27,5.91-.26,1.87.02,3.66-.37,6.43.26,7.97,1.8,10.29,3.09,18,6.17,1.47.59,3.95,2.28,5.4,2.83,1.13.43-.02-5.96-.77-7.46-.76-1.51-2.98-8.62-4.05-10.18-.96-1.41-3.47-6.78-4.31-8.96-.3-.77-.51-1.6-.64-2.42-.03-.21-.06-.98-.07-1.99.61.23,1.23.45,1.86.65,1.33.41,3.71.66,4.9-.24,1.17-.88,1.89-2.68,2.56-3.94.79-1.48,1.08-2.02,2.19-4.05.62-1.14,1.2-2.23,1.58-3.47.35-1.13,2.03-5.43,2.79-8.59.38-1.6.99-5.73,1.13-7.34.22-2.57.42-5.08.53-7.67.11-2.7-.07-4.97-.77-7.6"/><path class="cls-6" d="M81.36,30.86c-.53,1.51.63,1.78,1.43,2.32,1.1.74,2.3.76,3.54,1.07,1.45.36,4.22,2.04,5.2,1.51,1.76-.95,2.71-1.5,3.69-3.77,1.27-2.93,1.98-6.79,1.21-9.8-.68-2.64.23-5.86.23-8.8s-1.01-5.26-2.41-7.69c-1.34-2.32-6.71-5.52-10.58-5.3-2.61.15-4.35.3-6.76,1.21-2.44.91-5.8,3.62-7.61,8.07-.14.35-.68,1.51.31,1.57.61.04,1.53.14,1.49.9-.02.39-1.47,1.58-1.75,1.85-1,.95-2.11,1.98-2.9,3.14-1.36,2-2.56,4.43-3.05,6.8-.2.99-.45,2.04-.36,3.07.11,1.3.68,1.43,1.89,1.57,1.04.11,2.03.28,3.03.6.74.24,1.54.79,2.24.92"/><path class="cls-10" d="M81.59,30.63s.6-2.94.9-4.37c.3-1.43,2.11-4.75,2.56-5.88.45-1.13,1.03-4.93,1.03-4.93,0,0-4.22-2.16-6.67-2.94-2.45-.79-7.75-1.18-7.75-1.18l.27.68c-.14.2-.11,1.19-.22,1.52-.11.34-.24.66-.39.99-.37.8-.97,1.42-1.32,2.21-.61,1.37-.64,3.08-.7,4.56-.06,1.52-.05,2.85.17,4.37.36,2.48.53,4.75,2.42,6.32l.26,1.53-.49,1.67-.86,1.19.23.9c.52.93.76,1.89,1.66,2.64,1.07.89,2.65,1.28,4,1.28,1.75,0,3.45.12,4.82-1.06l2.12-1.52,1.28-1.67-.39-3.14-2.16-.78-1.28-1.08.06-1.05c.15-.08.3-.16.45-.25"/><path class="cls-8" d="M77.63,24.28s-2.41-1.66-3.62-1.81c-1.21-.15-2.34.38-2.34.38,0,0,.11,2.51,1.55,3.03,1.41.52,4.41-1.6,4.41-1.6"/><path class="cls-3" d="M42.02,33.2s2.79,2.19,3.69,3.39c.9,1.21,1.81,2.71,1.81,2.71l.98-1.36s-1.21-2.64-2.86-4.37c-1.66-1.73-3.84-2.56-3.84-2.56"/><path class="cls-7" d="M59.95,18.86c-1.4.07-2.93.21-4.33,0-1.39-.21-2.7-.4-3.91-1.18-.63-.41-1.07-.79-1.52-1.39-.21-.28-1.1-.59-1.23-.92-.33-.83.91-1.01.97-1.7.08-.94-1.17-1.08-1.84-1.35.75.08.9-1.05.53-1.52-.41-.53-1.28-.42-1.85-.3.1-1.27-2.21-2.1-2.5-.69.08-1.03-1.23-.89-1.88-.72-.22.06-.42.26-.61.31-.24.06-.54-.05-.76.06l1.13.38c-.02.09-.07.14-.15.17-.64-.46-2.19-.45-1.67.72-.64-.57-1.58.18-1.28.99-.44.06-2.7,1.14-1.43,1.52-.73.04-1.47,1.22-.75,1.68-.28.33-.61.61-.77,1.05-.16.45.04.58.04.87,0,.59-.43,2.04.79,1.46-.88.56-.2,2.15.91,1.81,0,.9.64,1.22,1.25,1.07.12.63.55.88.36,1.71-.38,1.69-1.73,3.38-3.54,3.63.21-.28-.05-.84-.31-1.07-.51-.43-.74-.13-1.22.08-.17.07-.2.24-.39.3-.34.12-.87-.17-1.18,0-.53.29-.52.92,0,1.26-.86-.03-1.74.17-1.9,1.11-.16.91.42.96.87,1.49.39.46.27-.06.06.59-.11.33-.44.63-.4,1.04.07.73.74.6.98,1.14.22.49-.21.97.3,1.41.53.45,1.69.22,2.33.25-.24,1.52,1.35.82,2.11.98.21.05.46.37.69.45.38.14,1.11.16,1.5.08.54-.11.72-.5,1.18-.6.47-.1.95.45,1.31-.15.36-.6-.36-1-.31-1.53.07-.74.74-.82.16-1.72.32-.17.37-.43.26-.68,1.33.9,2.8,1.58,3.97,2.79.44-.82,1.2-1.54,1.94-2.22,2.16-1.97,4.66-3.41,7.43-4.31,1.3-.42,1.9-1.42,2.98-2.2,1.18-.86,2.95-2.07,3.58-3.39.66-1.41-.25-2.84-1.91-2.75M41.12,30.32s0-.02,0-.02c.01,0,.02.02.03.03-.01,0-.03,0-.04,0"/><path class="cls-7" d="M33.12,86.79c-1.28,1.73-2.94,4.19-4.54,5.35-1.11.8-2.09,1.78-3.17,2.64-.56.44-.99,1.01-1.46,1.54-.39.44-1.16.89-1.38,1.42-.21.49-.06,1.27-.23,1.82-.21.66-.53,1.29-.85,1.91-1.29,2.54-4.16,5.22-7.22,5.22l-3.26.37c.14-.1,2.18-.62.43-.43-1.76.19-4.08-.38-2.9-.57,1.19-.19,4.8-1.61,4.8-1.61,0,0-1.8.9-3.85,1.09-2.04.19-2.28-.85-1.66-.81.62.05,5.69-1.51,3.89-1.23-1.8.27-6.17-1.04-5.7-.9.18.05,2.33-.47,2.33-.47,0,0-6.51-1.85-4.42-1.47,1.33.24,7.6-.29,7.6-.29,0,0-2.14.33-3.75.38-1.61.05-2.42-1.04-1.9-1.04s4.61-.81,2.61-.71c-3.8.19-5.05-1.82-4.27-1.52s6.79.24,5.94.14c-.85-.1-2.67-1.62-2.67-1.62,3.02,1.36,5.5-.61,7.03-.77,1.26-.13,2.23-.33,3.45-.28.82.03,2.15.45,2.94.21.79-.24,1.59-.86,2.11-1.41.64-.7,1.3-1.27,2.04-1.88.77-.65,1.55-1.33,2.26-2.04.66-.65,1.41-1.3,1.96-2.03.61-.81,1.04-1.38,1.57-2.18-.07.04-.13.05-.22.07"/><path class="cls-3" d="M61.46,35.53c-1.48,1.02-3.09,2.73-3.63,4.47-.49,1.55-.15,3.43.06,5,.19,1.37,1.15,3.26-.18,4.25-.6.45-1.15.57-1.82.85-.94.39-1.82,1.08-2.77,1.48-1.22.52-2.03.27-3.13,1.15-.86.69-1.5,1.03-1.63,2.15-.13,1.15-.03,2.16.77,2.94.23.22.76.51.86.81.14.46-.38.65-.35.94.08.65,1.04.6,1.3,1.27.24.62-.09,1.19.28,1.79,1.05,1.71,1.56-1.42,1.9-2.06.32-.62.73-.71,1.25-.25.58.5.76,1.32,1.02,1.97.39-.8.79-1.68,1.09-2.55.33-.99.73-1.78,1.31-2.66,1.11-1.71.97-3.69,2.08-5.41.5-.77.97-1.6,1.31-2.42.27-.63.77-1.19,1.02-1.83.39-.99.81-1.81,1.5-2.66.62-.77.7-1.57,1.25-2.31,1.06-1.44,2.9-2.14,3.4-3.99.22-.81.69-1.77.34-2.6-.35-.82-1.3-1.48-2.17-1.61-1.52-.23-3.81.42-5.06,1.28"/><path class="cls-7" d="M71.89,22.96s1.61.9,2.8,1.14c1.19.24,2.18.43,2.18.43l.66-.52-2.37-1.19-1.66-.43-1.83.46"/><path class="cls-7" d="M49.22,43.75c.56-.49,1.08-1.05,1.65-1.52,1.44-1.2,1.93-.43,3.43-.06,1.44.35,2.78.18,3.94-.98.19-.19.61-.59.63-.87.04-.54-.23-.42-.49-.81-.37-.58-.71-1.23-1.16-1.75-1.25-1.42-1.82-2.37-3.58-2.16-.69.08-1.12.42-1.74.67-.82.32-1.27.97-2.08,1.27-.44.16-.88.18-1.23.5-.19.17-.18.56-.41.67-.75.38-1.38-.38-1.77-.85-.89-1.07-1.5-2.07-2.48-3-.53-.5-.95-1.51-1.86-1.25-.94.27-.14.99-.26,1.74-.58-.08-1.17-.2-1.73-.05-.71.18-.87.27-1.6.16-.81-.12-3.28.12-2.99-1.17-.83-.48-1.98-.09-2.73-.66-.51-.38-.29-.78-.5-1.27-.21-.49-.61-.71-.85-1.15-.58.17-1.4-.09-1.97.17.52.61.07.8-.43.98-.71.26-.95-.06-1.17.76-.17.66.33,1.19-.17,1.74-.37.41-1.01.36-1.49.51.43,1.08.05,1.34-.84,1.96-.93.65-.93.72-.71,1.75.25,1.18-2.02.15-1.87,1.31.2,1.59-1.09,3.52-1.37,4.64-.17.7-.29,1.55-1.04,2.3-.5.5,1.09.94.09,1.19-.25.06-1.09.43-1.58.58,1.17,1.34-.94,1.49-.51,2.81.19.57,1.21.32.75,1-.35.51-1.29,1.21-1.25,1.91.73.14,1.76.91,1.77,1.6,0,.4-.58.77-.52,1.15.06.4.64.4.76.74.29.81-.83,1.14-.81,1.73.02.7.24.7.23,1.35,0,.22-.46.79-.5,1.08-.09.61.74.43.82.85.14.71-.92,1.33-.57,1.98.15.28,1.32.43,1.4.83.08.43-.29.61-.32,1-.05.57.67.77.92,1.25.28.54.1.96.58,1.25.23.13.67.06.82.35.19.38-.33.57-.09,1,.12.22.46.34.69.4,1.42.39.08.66.64,2.44.24.77,1.46,1.23,2.45,3.59.25.6,1.13,1.09.99,1.71-.19.83,1.28,1.53,1.58,2.16.29.62.05.76.23,1.45.23.89.79.71,1.33,1.21.49.45.54,1.48,1.02,1.75.27.15.79-.11,1.08,0,.41.15.41.43.73.69,1.34,1.07,3.39.22,4.93.14,3.46-.17,7.39.3,10.72-.52.85-.21,1.09-.84,1.77-1.25.57-.34,2-.52,1.9-1.46-.7-.32,1.07-2,1.02-2.76-.1-1.55-.39-3.04-.23-4.64.08-.85.15-1.78-.04-2.62-.14-.59-.37-1.03-.38-1.64,0-.51.19-1.01.23-1.52.17-1.88.46-4.65-.81-6.2-.5-.6-1.35-1.15-1.32-2.02.02-.8.7-1.02-.15-1.7-.36-.29-.66-.3-.81-.68-.01-.03.14-.52.06-.77-.26-.77-1.3-.81-1.51-1.61-.15-.59.02-1.8.21-2.4.48-1.49,1.9-2.32,3.3-2.79,1.57-.52,3.23-.81,4.72-1.55.76-.37,1.39-.85,2-1.43.53-.5.59-.93.94-1.53.16-.28.48-.35.65-.6.23-.34.12-.51.41-.81.27-.28.61-.26.83-.62.16-.26.12-.57.3-.83.25-.35.57-.36.89-.58.34-.24.39-.52.67-.78.3-.26.7-.22.99-.43.27-.19.34-.7.54-.84.36-.24,1.57-.58,1.21-.29-.58.47-.48-.07.57-1.01.31-.28.85-.2,1.21-.47.18-.13.39-.47.62-.65.26-.19.64-.27.83-.56.16-.25.01-.61.15-.81.15-.23.59-.34.83-.6.35-.37.49-.73.52-1.21,0-.11-.3-.15-.31-.3,0-.1.15-.15.15-.23,0-.17.08-.37.09-.55.06-1.97-2.24-1.68-3.39-1.26-1.52.56-3.47,1.53-4.78,2.48-2.92,2.11-4.24,5.84-7.85,6.57-1.67.34-3.55.17-5.13-.44-1.06-.41-2.55-2.16-3.36-1.93"/><path class="cls-10" d="M44.35,85.13c.13-1.13-.08-6.58,1.36-6.5,1.88.1,1.53,4.79,1.35,6.51-.16,1.58-.21,3.01-1.81,3.71-1.66.73-3.34.89-5.14.89-1.83,0-3.24-.41-4.6-1.56-1.22-1.03-1.56-1.8-1.56-3.41,0-1.37.11-8.97,2.57-7.24.75.53.52,2.64.52,3.69,0,1.11.23,2.79.15,3.84,0,0,1.36-8.44,2.49-8.52,1.13-.08,1.36,1.51,1.36,1.51l-.23,7.46s.53-7.53.6-8.22c.08-.68.6-1.28,1.36-1.06,1.46.44,1.58,8.89,1.58,8.89"/><path class="cls-10" d="M61.61,73.07c-.28-.45-1.2-.46-1.66-.68-.66-.31-1.53-.53-2.13-.96-1.4-1.01-1.14-2.38-1.56-3.87-.38-1.34-1.34-6.08-1.44-6.41-.9-3.09-2.17.03-2.39.68-.22.65-.24,1.33-.24,2.03,0,.62.39,1.17.29,1.72-.88.21-4.1-4.33-4.53-4.95-.38-.55-3.25-3.44-4.36-3.94-.65-.29-2.66-.31-1.92,1.01-.59,0-1.51-.83-2.11-.4-.53.38-.18,1.08-.34,1.56-.19.57-.86.58-1.1,1.2-.28.71-.19,1.2.22,1.81-.78-.87-1.61.37-1.55,1.15.15,1.76,2.17,3.09,3.19,4.34,1.34,1.63,2.64,3.37,4.14,4.86,1.13,1.13,3.7,2.34,5.58,3.24,2.03.98,3.77,1.36,4.97,2.11,1.21.75,2.41,1.81,2.41,1.81l.6.45c.67-.43,1.79-1.26,2.8-3.09.42-.78,1.7-2.78,1.13-3.69"/><path class="cls-4" d="M63.87,84.15c-1.28-.6-2.66-1.42-3.32-1.88-.73-.52-2.5-1.43-3.32-1.81,0,0,1.71-1.33,2.21-1.99.5-.67,2-3,2.08-3.66s.65-1.22.08-1.73-1.08-.77-1.08-.77c0,0,.67-.5,1.42-.08.75.42,1.66,2,1.66,2l.26,9.93Z"/><path class="cls-3" d="M57.54,82.29s4.16,7.82,5.49,7.66c1.33-.17.92-.58.92-.92s.08-5.16.08-5.16l-7.08-4.08.58,2.5Z"/><path class="cls-1" d="M106.16,209.37c.04-.83-5.23.04-5.79.32-.23.11-.7.24-.88.44-.36.4-.1.42,0,.92.15.73-.13,1.69-.69,2.16.91.34,2.31.17,3.31.35.82.14,1.84.71,2.49.19,1.42-1.15,1.55-3.03,1.55-4.38"/><path class="cls-11" d="M39.55,116.31c-1.46,4.14-2.38,9.59-3.4,14.02-.74,3.23-.69,5.49-1.57,8.27-.63,1.97-1.6,3.7-2.02,5.75-.93,4.5.18,9.31-1.39,13.62-1.63,4.48-2.88,8.86-4.14,13.38-1.31,4.69-1.2,9.43-2.72,14.05-.8,2.42-1.72,3.91-3.21,5.88-1.38,1.83-.89,3.01-1.13,5.2-.24,2.15-1.54,2.66-2.77,4.33-.42.58-.82,1.32-.98,1.97-.37,1.52-.73,1.58.59,1.98,1.96.6,3.66,1.68,5.13,2.37,1.51.71,2.9,1.59,4.34,2.41,2.24,1.28,5.59,2.4,6.92,4.82.2-2.03-.37-4.14-.06-6.06.3-1.84,1.35-6.8,1.63-8.69.7-4.86,1.98-7.38,3.96-11.9,1.25-2.85,2.94-5.38,3.8-8.39.8-2.82,1.26-5.71,1.92-8.54,1.28-5.47,2.91-10.68,2.96-16.39.03-3.55,1.59-5.4,3.95-7.9,3.31-3.51,4.17-7.79,6.12-11.25,1.55-2.76,2-6.26,2.76-9.28.49-1.94.9-3.41,1.92-5.1"/><path class="cls-11" d="M32.26,150.41c1.49.36,2.52,2.32,3.65,3.28.88.75,1.79.94,2.81,1.33"/><path class="cls-11" d="M34.57,156.2c2.45,1.39,3.67,2.83,4.14,5.73.25,1.55.04,3.85.6,5.13"/><path class="cls-11" d="M20.22,194.55c.43,5.47,7.01,10.14,9.41,12.2"/><path class="cls-11" d="M58.52,113.75c2.06,4.11,3.8,6.69,5.47,11.1,1.73,4.58,2.15,9.39,4.74,13.59,1.05,1.71,2.11,5.17,3.15,6.9.65,1.08,1.42,2.04,1.99,3.18.56,1.14.43,1.84.78,2.96.57,1.84,2.29,2.86,3.17,4.53.88,1.7.7,3.64.98,5.53.69,4.52,1.9,8.5,3.22,12.93.74,2.49.86,5.02,1.87,7.44,1.18,2.81,2.77,5.45,4.05,8.19,1.07,2.29,2.29,4.53,3.45,6.78,1.09,2.1,1.09,3.27,1.44,5.52.31,1.99,1.91,2.21,2.17,4.15.33,2.43-.64,4.32,2.12,5.5,2.68-2.17,3.86-3.27,7.71-2.94,3.24.28,3.98,1.87,6.75,2.97.67-3.39-1.46-6.27-2.17-9.29-.38-1.6-1.46-3.27-1.78-4.92-.49-2.52-2.53-3.24-3.16-5.73-.76-2.97-1.67-4.46-1.97-7.5-.38-3.77-.37-9.21-1.18-11.65-1.54-4.62-1.69-9.04-4.5-13.05-2.04-2.9-3.29-6.58-3.99-10.05-.72-3.55-.83-6.83-1.97-10.27-1.08-3.25-1.78-6.51-2.17-11.45-.18-2.22-2.4-5.99-2.38-8.25"/><path class="cls-11" d="M73.07,147.12c2.09,1.19,3.85,3.57,5.78,5.15,1.65,1.35,3.34,3.02,4.13,5.08"/><path class="cls-11" d="M110.19,205.17c-1.12-.21-1.87-1.7-2.96-2.33-1.17-.66-2.4-.45-3.55-.83"/><path class="cls-11" d="M24.79,205.18c0,1.58.76,3.4,1.88,4.53"/><path class="cls-11" d="M46.22,40.7c.81-.24,2.3,1.52,3.36,1.92,1.58.61,3.46.78,5.13.44,3.62-.73,4.93-4.45,7.85-6.57,1.31-.95,3.26-1.92,4.78-2.48,1.15-.42,3.46-.71,3.39,1.26,0,.18-.1.38-.09.55,0,.08-.16.13-.15.23,0,.16.31.19.31.3-.03.47-.17.83-.52,1.2-.24.26-.69.37-.83.6-.13.21.02.56-.15.81-.19.3-.57.37-.83.56-.23.17-.44.52-.62.65-.36.26-.9.19-1.21.47-1.04.94-1.15,1.47-.57,1.01.36-.29-.85.05-1.21.29-.2.13-.28.65-.54.84-.28.2-.69.16-.99.43-.29.25-.34.53-.67.78-.32.23-.64.24-.89.58-.19.26-.14.57-.3.83-.22.36-.56.35-.83.62-.29.3-.18.48-.41.81-.16.25-.48.32-.65.6-.35.6-.41,1.04-.94,1.53-.61.58-1.24,1.06-2,1.43-1.49.73-3.15,1.02-4.72,1.55-1.41.47-2.82,1.3-3.3,2.79-.19.6-.36,1.82-.21,2.4.21.8,1.25.84,1.51,1.6.08.25-.07.74-.06.77.15.38.44.39.81.68,1.07.86.05,1.08.16,1.94.06.5.92.91,1.06,1.58"/><path class="cls-11" d="M66.08,41.66c-1.58,1.36-5.11,7.59-6.18,9.85-.97,2.03-1.44,4.28-2.47,6.33-.79,1.58-1.67,3.11-1.93,4.78"/><path class="cls-11" d="M49.78,85.92c-.35,1.12-2.28,9.47-2.71,11.8-.6,3.24-1.2,9.02-1.43,11.68-.23,2.66.36,5.9-2.21,6.57-2.86.74-9.2-.49-9.96-3.46-.83-3.28,2.14-7.54,3.06-10.57.73-2.39,2.64-9.66,3.58-12.21"/><path class="cls-11" d="M17.76,205.75s-.84,1.54-3.83,2.15-4.06.46-7.59,1.99c-3.53,1.53-5.75,4.14-5.68,5.9.03.73-.38,1.15-.23,2.23.08.59.84.84.84.84,0,0,30.83.84,31.37-.23.54-1.08.61-4.52.61-4.52"/><path class="cls-11" d="M1.04,215.65c.57.72,2.71.56,3.53.6,2.16.11,4.31.25,6.48.25,3.3,0,6.56.06,9.86-.08,2.87-.12,5.73-.09,8.59-.25.95-.05,3.23.28,3.68-.83"/><path class="cls-11" d="M8.94,208.82c1.7.74,2.69,2.52,2.68,4.14,0,.85.15,2.07-.46,3.22"/><path class="cls-11" d="M11.84,212.04c3.42.9,9.03-1.13,10.6-4.44"/><path class="cls-11" d="M11.24,210.51c.83.07,1.89.09,2.76,0,1.03-.1,2.12-.61,3.07-1.02,1.42-.61,3.01-1.54,3.68-2.97"/><path class="cls-11" d="M11.09,208.52c1.11.71,2.92,1.43,4.22,1.61"/><path class="cls-11" d="M14.92,207.83c.46.84,2.64.96,3.53.92"/><path class="cls-11" d="M17,206.75c.79-.03,2.45.2,3.22.23"/><path class="cls-11" d="M13.93,207.75c.05.56-.93,2.35-1.3,2.84"/><path class="cls-11" d="M107.82,217.04c-.44-.35-.85-1.12-1.43-1.58-.97-.76-1.9-1.29-3.12-1.61-2.51-.64-5.39-.61-7.67.71-1.08.62-2.02,2.03-2.68,3.01-1.05,1.55-1.22,3.83-1.06,5.72,4.47.26,8.99.39,13.48.39,2.09,0,3.63.1,5.73,0,1.66-.08,2.12.16,3.47-.23-.02-.39-.49-5.12-.75-6.18-.29-1.14-1.36-1.98-1.36-3.17,0-.78-.7-1.76-1.21-2.19"/><path class="cls-11" d="M97.57,212.07c.22.42.31,1.31-.07,1.66"/><path class="cls-11" d="M92.06,221.26c.49-.45,1.47-.23,2.09-.23,1.67,0,3.33.13,5,.21,2.59.12,5.27.13,7.84.4,1.72.18,3.48.24,5.2.08.67-.06,1.56-.02,2.03-.3"/><path class="cls-11" d="M105.93,209.5c.03-.11.11-.13.07-.26.6,1.55-.52,4.11-1.88,4.94"/><path class="cls-11" d="M103.52,209.58c.75,1.2-.08,3.48-1.21,4.22"/><path class="cls-11" d="M98.85,213.27c.45-.45.82-2.17.38-2.64"/><path class="cls-11" d="M99.9,210.18c1.26.46,2.57,1.59,2.86,2.94"/><path class="cls-11" d="M100.28,213.05c.85-1.01,1.78-2.87,3.17-3.24"/><path class="cls-11" d="M56.79,79.4c0,2.61-.39,5.13-.53,7.76-.08,1.66-.18,3.23-.3,4.9-.1,1.33-.31,2.64-.38,4-.06,1.23.05,2.4-.07,3.64-.18,1.74-.08,3.41,0,5.13.06,1.47.15,2.97.15,4.43,0,1.35-1.5,4.63.29,4.49,1.58-.13,4.31-.27,5.91-.26,1.87.02,3.66-.37,6.43.26,7.97,1.8,10.29,3.09,18,6.17,1.47.59,3.95,2.28,5.4,2.83,1.13.43-.02-5.96-.77-7.46-.76-1.51-2.98-8.62-4.05-10.18-.96-1.41-3.47-6.78-4.31-8.96-.3-.77-.51-1.6-.64-2.42-.12-.77.02-1.43-.32-2.11"/><path class="cls-11" d="M60.71,72.17c2.56-.68,2.69,1.42,2.94,2.73.51,2.67.2,5.55.38,8.26.08,1.15.07,2.34.07,3.49,0,.56.04,2.54-.23,3.02-.64,1.13-2.53-1.11-3.56-2.39-.9-1.13-3.52-6.29-3.15-7.18"/><path class="cls-11" d="M47.37,64.18c.1.19-.84-1.12-.98-1.28-.48-.54-2.56-2.86-3.77-4.22-.41-.47-1.24-1.68-.62-2.13.43-.31,1.15-.03,1.6.17,1.11.49,3.98,3.39,4.36,3.94.43.62,3.65,5.16,4.53,4.95.1-.55-.29-1.1-.29-1.72,0-.7.02-1.38.24-2.03.22-.65,1.49-3.77,2.39-.68.1.33,1.05,5.07,1.44,6.41.42,1.49.16,2.85,1.56,3.87.59.43,1.47.65,2.13.96.46.22,1.38.23,1.66.68.57.91-.71,2.92-1.13,3.69-1.81,3.32-4.01,3.33-3.24,3.69.81.38,2.59,1.29,3.32,1.81.66.47,2.04,1.28,3.32,1.88"/><path class="cls-11" d="M85.13,35.91c2.71.38,3.9,2.92,4.91,3.77,1.24,1.04,2.42,2.12,3.72,3.12,2.2,1.69,4.12,3.92,4.85,6.67.69,2.63.88,4.9.77,7.6-.11,2.59-.31,5.1-.53,7.67-.14,1.62-.75,5.74-1.13,7.34-.75,3.17-2.44,7.47-2.79,8.59-.38,1.24-.96,2.33-1.58,3.47-1.11,2.04-1.39,2.57-2.19,4.05-.67,1.26-1.39,3.06-2.56,3.94-1.19.9-3.57.65-4.9.24-2.77-.85-5.2-2.21-8.13-2.64-1.85-.28-3.58-.16-5.44-.08-1.25.05-2.51.06-3.77.06-.76,0-2.48.34-3.22.1"/><path class="cls-11" d="M83.17,58.3c-.45.24-.48,2.19-.6,2.79-.21.99-.37,1.79-.74,2.73-.57,1.48-.94,2.94-1.45,4.43-.7,2.05-.66,4.33-.76,6.48-.59-.37-1.12-.57-1.66-.8-.95-.42-2.11-.57-3.13-.75-2.35-.42-4.7-.57-7.05-1.02-2.57-.5-6.46-1.94-7.59-.21"/><path class="cls-11" d="M45.93,66.29c-.68-.38-1.9-1.76-2.56-2.41-.42-.41-.82-.96-1.14-1.38-.31-.4-2.21-2.68-2.66-3.08"/><path class="cls-11" d="M39.45,59.28c-.76-2.08,1.28-3.02,3.17-.6"/><line class="cls-11" x1="38.84" y1="62.6" x2="44.05" y2="68.02"/><path class="cls-11" d="M37.87,64.78s5.13,6.34,6.26,7.46c1.13,1.13,3.7,2.34,5.58,3.24,2.04.98,3.77,1.36,4.97,2.11,1.21.75,2.41,1.81,2.41,1.81"/><path class="cls-11" d="M79.62,74.72c1.22.46,2.78,2.07,3.48,2.95"/><path class="cls-11" d="M67.79,84.53c2.14.55,3.71,2.38,5.67,3.3.98.46,3.48,1.91,4.33,2.52"/><path class="cls-11" d="M84.68,36.96c-.38.98-.88,1.35-1.43,1.88-1.1,1.06-2.54,1.67-3.7,2.66-3.37,2.88-5.88,5.53-8.03,7.37-1.37,1.17-2.7,2.24-3.88,3.6-.96,1.1-1.98,2.14-2.93,3.26-1.04,1.23-1.28,2-2.2,3.31-.96,1.38-2.21,3.88-2.71,5.5-.71,2.3-1.03,4.72-1.66,7.01"/><path class="cls-11" d="M46.99,98.55c2.68-.25,5.82.19,8.44.83"/><path class="cls-11" d="M71.04,37.27c.52.93.76,1.89,1.66,2.64,1.07.89,2.65,1.28,4,1.28,1.75,0,3.45.12,4.82-1.06"/><path class="cls-11" d="M69.15,39.6c-.07,1.83,1.95,3.31,3.39,3.77.97.31,3.1.92,4.07.45"/><path class="cls-11" d="M72.01,32.37c0,.73.02,1.42-.15,2.11-.14.57-.64,1.17-.68,1.73"/><path class="cls-11" d="M81.36,30.86c-.53,1.51.63,1.78,1.43,2.32,1.1.74,2.3.76,3.54,1.07,1.45.36,4.22,2.04,5.2,1.51,1.76-.95,2.71-1.5,3.69-3.77,1.27-2.93,1.98-6.79,1.21-9.8-.68-2.64.23-5.86.23-8.8s-1.01-5.26-2.41-7.69c-1.34-2.32-6.71-5.52-10.58-5.3-2.61.15-4.35.3-6.76,1.21-2.44.91-5.8,3.62-7.61,8.07-.14.35-.68,1.51.31,1.57.61.04,1.9-.2,1.85.57-.02.39-1.83,1.91-2.12,2.18-1,.95-2.11,1.98-2.9,3.14-1.36,2-2.56,4.43-3.05,6.8-.2.99-.45,2.04-.36,3.07.11,1.3.68,1.43,1.89,1.57,1.04.11,2.03.28,3.03.6.74.24,1.54.79,2.24.92"/><path class="cls-11" d="M70.36,11.26s7.01.15,11.53,2.11c4.52,1.96,5.2,3.01,5.2,3.01"/><path class="cls-11" d="M85.88,15.93s-.38,3.32-.83,4.45c-.45,1.13-2.26,4.45-2.56,5.88-.3,1.43-.91,4.37-.91,4.37-1.88,1.13-3.33,1.45-4.07,1.51-2.06.15-4.12.99-5.43,0-2.09-1.57-2.24-3.91-2.62-6.48-.22-1.52-.23-2.85-.17-4.37.06-1.47.09-3.19.7-4.56.35-.79.96-1.41,1.32-2.21.15-.33.28-.66.39-.99.11-.33.08-1.32.22-1.52"/><path class="cls-11" d="M84.68,36.66c-.16-.61-.3-1.81-.15-2.56"/><path class="cls-11" d="M66.36,22.42s-1.06,3.32-.53,6.03"/><path class="cls-11" d="M86.26,28.15s-.6,4.07-1.96,5.28"/><path class="cls-11" d="M91.16,22.19s-.68,5.05-1.28,7.09c-.6,2.03-2.34,5.28-2.34,5.28"/><path class="cls-11" d="M91.61,32.37s-1.06,2.64-1.66,3.09"/><path class="cls-11" d="M79.78,12.24s1.13-4.07,3.47-6.26"/><path class="cls-11" d="M73.82,11.34s0-1.43.98-2.86"/><path class="cls-11" d="M83.7,11.64s-1.05,1.43-1.05,1.88"/><path class="cls-11" d="M88.52,1.69s-4.15-.83-5.8,1.13"/><path class="cls-11" d="M83.36,17.42s-2.79-.98-3.92-1.73"/><path class="cls-11" d="M74.09,14.71s-1.81-.23-2.19-.15"/><line class="cls-11" x1="75.52" y1="19.84" x2="73.86" y2="19.46"/><path class="cls-11" d="M77.63,24.28s-2.41-1.66-3.62-1.81c-1.21-.15-2.34.38-2.34.38,0,0,.11,2.51,1.55,3.03,1.41.52,4.41-1.6,4.41-1.6Z"/><path class="cls-5" d="M82.19,20.79c0,.11.09.21.21.21s.21-.09.21-.21-.09-.21-.21-.21-.21.09-.21.21"/><path class="cls-12" d="M82.19,20.79c0,.11.09.21.21.21s.21-.09.21-.21-.09-.21-.21-.21-.21.09-.21.21Z"/><path class="cls-5" d="M81.4,18.6c0,.12.05.28.15.28s.19-.08.19-.19-.08-.19-.19-.19-.15-.01-.15.1"/><path class="cls-12" d="M81.4,18.6c0,.12.05.28.15.28s.19-.08.19-.19-.08-.19-.19-.19-.15-.01-.15.1Z"/><path class="cls-5" d="M72.33,16.51c0,.12.04.28.15.28s.19-.08.19-.19-.08-.19-.19-.19-.15-.01-.15.1"/><path class="cls-12" d="M72.33,16.51c0,.12.04.28.15.28s.19-.08.19-.19-.08-.19-.19-.19-.15-.01-.15.1Z"/><path class="cls-5" d="M70.51,17.85c0,.12.04.28.15.28s.19-.08.19-.19-.08-.19-.19-.19-.15-.01-.15.1"/><path class="cls-12" d="M70.51,17.85c0,.12.04.28.15.28s.19-.08.19-.19-.08-.19-.19-.19-.15-.01-.15.1Z"/><path class="cls-5" d="M78.7,20.16c0,.11.09.21.21.21s.21-.09.21-.21-.09-.21-.21-.21-.21.09-.21.21"/><path class="cls-12" d="M78.7,20.16c0,.11.09.21.21.21s.21-.09.21-.21-.09-.21-.21-.21-.21.09-.21.21Z"/><path class="cls-5" d="M78.14,17.95c0,.11.09.21.21.21s.21-.09.21-.21-.09-.21-.21-.21-.21.09-.21.21"/><path class="cls-12" d="M78.14,17.95c0,.11.09.21.21.21s.21-.09.21-.21-.09-.21-.21-.21-.21.09-.21.21Z"/><path class="cls-11" d="M42.02,33.2s2.79,2.19,3.69,3.39c.9,1.21,1.81,2.71,1.81,2.71l.98-1.36s-1.21-2.64-2.86-4.37c-1.66-1.73-3.84-2.56-3.84-2.56"/><path class="cls-11" d="M47.67,39.6c.54.98,1.31.96,2.03,1.56-.35.29-.73.61-1.2.62"/><path class="cls-11" d="M48.72,37.94c1.75-.42,3.7-2.78,5.66-2.34.98.22,2.25,1.6,2.94,2.34.67.72.8,1.67,1.28,2.42"/><path class="cls-11" d="M50.31,42.54c.54-.05,1.55-1.08,1.87-1.5-.02.12.04.31.02.44.33.09.67,0,.89-.27-.48.74.54,1.07.84.45-.08.38.15.52.51.45.14.35.35.81.69.89"/><path class="cls-11" d="M55.36,37.87c0,.45.68.45.75.98"/><path class="cls-11" d="M57.02,40.21c.27.24.54.48.6.83"/><path class="cls-11" d="M50.01,39.75c.18.22.35.44.53.68"/><path class="cls-11" d="M51.06,38.85c.38.04.63.37.83.68"/><path class="cls-11" d="M60.26,43.67c.27.41.41,1.16,0,1.51"/><path class="cls-11" d="M56.04,48.12c.58.37-.15.82-.45,1.13"/><path class="cls-11" d="M54.6,48.87c.11.39-.22.67-.6.83"/><path class="cls-11" d="M47.67,50.46c.04.4-.46.61-.75.9"/><path class="cls-11" d="M42.32,50.23c-.3.2-.59.42-.9.6"/><path class="cls-11" d="M39.38,49.7c.18.2.24.46.3.75"/><path class="cls-11" d="M21.29,46.46c-.49.51-1.49,1.31-.07,1.64-1.05.14-3.34,1.68-1.39,2.14-1.47.72-2.55,1.93-.35,2.42-.66.38-1.74.93-1.5,1.95.21.89,1.21.62,1.62,1.13.37.47-.27.64-.47,1.19-.1.29-.16.79-.03,1.07.1.21.75.47.76.67.02.52-1.25.61-1.21,1.36.03.47.6.55.61,1.14.01.47-.36.63-.47,1.05-.16.63-.09.43.21.83.23.3.46-.02.56.44.08.38-.48.84-.56,1.21-.19.89.51,1.24,1.3.98,0,.46-.29.85-.3,1.3,0,.83.51.49.85.98.49.7-.23,1.24.64,1.72.35.19.65.06.85.37.11.17-.03.55.07.75.15.32.82.9.99.61"/><path class="cls-11" d="M31.31,31.16c-.47,0-3.26.21-1.66,1-1.31.3-1.53.24-1.66,1.66-.07.75.1.55-.68.9-.47.21-1,.31-1.06.94-.05.51.41.6.05,1.02-.28.33-.98.27-1.32.66-.46.53-.13,1.23-.49,1.75-.43.61-1.46.54-1.92,1.2-.62.91.34.96.44,1.68-1,.44-2.05,1.48-.65,2.26-.73.06-1.75,1.28-.94,1.81"/><path class="cls-11" d="M43.67,21.59c-2.54,1.37-4.67,4.48-7.74,4.9.21-.28-.05-.84-.31-1.07-.51-.43-.74-.13-1.22.08-.17.07-.2.24-.39.3-.34.12-.87-.17-1.18,0-.53.29-.52.92,0,1.26-.86-.03-1.74.17-1.9,1.11-.16.91.42.96.87,1.49.39.46.27-.06.06.59-.11.33-.43.63-.4,1.04.07.73.74.6.98,1.14.22.49-.21.97.3,1.41.53.45,1.69.22,2.33.25-.24,1.52,1.35.82,2.11.98.21.05.46.37.69.45.38.14,1.11.16,1.5.08.54-.11.72-.5,1.18-.6.47-.1.95.45,1.31-.15.36-.6-.36-1-.31-1.53.07-.74.74-.82.16-1.72.75-.39-.01-1.31-.6-1.31.4-1.78,1.62-3.19,2.93-4.42.63-.59,1.3-1.14,1.91-1.76.16-.17.8-.65.5-.6"/><path class="cls-11" d="M45.56,22.27c-1.61.37-3.19,1.69-4.52,2.65-1.19.86-2.34,1.79-3.17,3.01"/><path class="cls-11" d="M36.51,32.29c.2.47.22.81.76.97.48.14.98-.08,1.05-.57-.23.9,1.51,1.08,1.35.43"/><path class="cls-11" d="M33.8,29.13c-.3-.39-.48.27-.3.68"/><path class="cls-11" d="M23.1,50.76c-.04.58-.24,1.28.08,1.81"/><path class="cls-11" d="M25.66,52.34c-.06-.27-.16-.53-.3-.75"/><path class="cls-11" d="M32.82,45.63c.06.07.08.15.07.23-.56.39-1.69.39-2.1.95-.39.52.14,1.13-.24,1.61"/><path class="cls-11" d="M24.98,56.03c-.66-.03-.93.74-.75,1.28"/><path class="cls-11" d="M23.77,60.48c.04.16.09.31.15.45"/><path class="cls-11" d="M45.26,50.46c.04.63-.32.96.44,1.19.39.12,1.12.01,1.37-.29"/><path class="cls-11" d="M48.05,50.83c.51.36,1.04.82,1.74.69.49-.09,1.78-1.35,1.73-1.52"/><path class="cls-11" d="M47.14,52.72c.24.24.19.64.08.98"/><path class="cls-11" d="M45.71,53.47c.1.27.19.54.23.83"/><path class="cls-11" d="M41.11,54.45c.12-.23.17-.49.15-.75"/><path class="cls-11" d="M42.32,54.45c.15.16,0,.32-.23.45"/><path class="cls-11" d="M48.74,14.88c.25-.06,2.3,2.89,2.87,3.22,1.22.72,2.54.71,3.92.77,1.43.06,2.92.1,4.36.15,1.23.04,2.76-.31,2.33,1.43-.39,1.57-2.32,3.46-3.61,4.43-1,.75-5.1,1.5-5.35-.44"/><path class="cls-11" d="M45.94,33.57c2-1.92,3.77-3.73,6.31-4.92.55-.26,1.08-.55,1.62-.83.6-.31,1.11-.31,1.72-.53.99-.36,1.14-1.47,1.96-1.87"/><path class="cls-5" d="M61.01,18.87c-.15.08,2.27-.34,2.02.57-.23.83-.53,1.04-1.18,1.59.08-.45-.3-2.21-.84-2.16"/><path class="cls-11" d="M61.01,18.87c-.15.08,2.27-.34,2.02.57-.23.83-.53,1.04-1.18,1.59.08-.45-.3-2.21-.84-2.16"/><path class="cls-11" d="M49.93,19.63c-.16-.32-.6-.24-.97-.21-.22.97,1.47.75.97.37"/><path class="cls-11" d="M39.45,21.74c.51,1.13-.73,2.54-1.21,3.47"/><path class="cls-11" d="M42.17,9.83c-.02.09-.07.14-.15.17-.64-.46-2.19-.45-1.67.72-.64-.57-1.58.18-1.28.99-.44.06-2.7,1.14-1.43,1.52-.73.04-1.47,1.22-.75,1.68-.28.33-.61.61-.77,1.05-.16.45.04.58.04.87,0,.59-.43,2.04.79,1.46-.88.56-.2,2.15.91,1.81,0,1.4,1.55,1.39,2.14.41,0,.59.6.71,1.09.63.42-.07.84-.33,1.16-.61.15-.13.56-.84.69-.88.36-.12.81.33,1.25.21.64-.18.89-.81.73-1.41.68,0,2.19-.86,1.55-1.67.68-.33,1.62-.44,1.51-1.42.37-.03.57-.32.53-.68.59-.06,1.37-.3,1.43-.99.08-.94-1.17-1.08-1.84-1.35.75.08.9-1.05.54-1.52-.41-.53-1.28-.42-1.85-.3.1-1.27-2.21-2.11-2.5-.69.08-1.03-1.23-.89-1.88-.72-.22.06-.42.26-.61.31-.24.06-.54-.05-.75.06"/><line class="cls-11" x1="44.13" y1="12.62" x2="44.13" y2="13.52"/><path class="cls-11" d="M41.34,12.77c.21.19.2.4,0,.6"/><path class="cls-11" d="M39.91,13.22c-.2.65-.07,1.33.53,1.73"/><path class="cls-11" d="M40.06,18.8c.09-.06.21-.09.3-.16.49.52,2.29.43,2.2-.36.29.38,1.15.08,1.49-.23"/><path class="cls-11" d="M27.17,78.95c.3,1.24.91,2.18,2.24,2.34-.75-.14-.9.87-.81,1.41.15.87.84.93,1.65.93.01.41-.11,1,.07,1.36.36.7,1.48.75,2.17.75-.08.78,1.27,1.35,1.76.82"/><path class="cls-11" d="M44.35,85.13c.13-1.13-.08-6.58,1.36-6.5,1.88.1,1.53,4.79,1.35,6.51-.16,1.58-.21,3.01-1.81,3.71-1.66.73-3.34.89-5.14.89-1.83,0-3.24-.41-4.6-1.56-1.22-1.03-1.56-1.8-1.56-3.41,0-1.37.11-8.97,2.57-7.24.75.53.52,2.64.52,3.69,0,1.11.23,2.79.15,3.84,0,0,1.36-8.44,2.49-8.52,1.13-.08,1.36,1.51,1.36,1.51l-.23,7.46s.53-7.53.6-8.22c.08-.68.6-1.28,1.36-1.06,1.46.44,1.58,8.89,1.58,8.89Z"/><path class="cls-11" d="M41.41,36.97c.53.25.75,1.5.83,2.04"/><path class="cls-11" d="M43.45,36.97c.1.28.26.55.38.83"/><path class="cls-11" d="M29.05,41.34c.93,1.01,2.8,1.29,3.77.23"/><path class="cls-11" d="M30.94,43.37c.5.4,1.12.37,1.73.38"/><path class="cls-11" d="M52.49,76.69c.83.65.57,2.75.68,3.77.08.76-.36,1.92-1.2,2.13.11.89.78,1.35-.25,1.95-.61.36-1.47.23-1.87.66-.11.11-.02.44-.2.62-.17.17-.62.17-.85.21-.54.09-1.21.29-1.73,0"/><path class="cls-11" d="M14.28,106.69c3.06,0,5.93-2.68,7.22-5.22.31-.62.64-1.25.85-1.91.17-.55.02-1.33.23-1.82.22-.52.99-.98,1.38-1.42.47-.53.9-1.1,1.46-1.54,1.08-.85,2.06-1.83,3.17-2.64,1.6-1.16,3.26-3.62,4.54-5.35"/><path class="cls-11" d="M30.63,85.66c.09-.02.15-.03.22-.07-.54.79-.97,1.37-1.57,2.18-.55.74-1.3,1.38-1.96,2.03-.71.7-1.49,1.39-2.26,2.04-.73.62-1.39,1.19-2.04,1.88-.52.56-1.32,1.17-2.11,1.41-.78.24-2.12-.18-2.94-.21-1.22-.05-2.19.15-3.45.28-1.52.16-4.01,2.13-7.03.77"/><path class="cls-11" d="M7.65,99.6c4.07.6,7.08-1.19,8.52-1.36"/><path class="cls-11" d="M3.42,100.36c3.54,2.19,8.85-.51,9.87-.68"/><path class="cls-11" d="M8.25,102.32c.47.16,2.11.38,4.42.07,1.15-.15,2.3-.63,3.49-1.05"/><path class="cls-11" d="M6.51,103.07c2.64,1.06,5.87.27,7.01.15"/><path class="cls-11" d="M8.4,104.8c1.09.96,7.68-1.49,8.59-1.96"/><path class="cls-11" d="M9.45,106.31c.58.06,3.62-.4,4.15-.6,1.45-.56,2.49-.81,3.84-1.58"/><path class="cls-11" d="M4.78,97.49c2.94,1.21,6.66.22,7.31,0,1.96-.68,2.56-.88,3.92-.83"/><path class="cls-11" d="M66.89,34.25c-1.64-.07-4.13.39-5.43,1.28-1.18.82-2.93,2.6-3.32,4.07"/><path class="cls-11" d="M55.4,110.1c-1.25-.37-2.75-4.75-4.34-5.87"/><path class="cls-11" d="M38.11,70.3c.22.8.5,1.48.57,2.35.77-.42.74.18,1.28-.67.36,1.05.89,1.34,1.83,1.47.06-.25-.03-.52.04-.76"/><path class="cls-11" d="M50.07,81.73c.56-.19.83-.69.8-1.33"/><path class="cls-11" d="M49.81,78.81c.21.25.29.52.25.83-.22.14-.53.42-.78.5"/><path class="cls-11" d="M32.53,81.46c-.02-.29-.11-.55-.27-.8"/><path class="cls-11" d="M29.61,78.81c1.3.68,2.57-.45,2.92-.8"/><path class="cls-11" d="M23.58,71.37c-.02-.07,0-.11-.06-.16-.01.56-.15,1.1-.18,1.67-.03.49-.09,1.01.43,1.25.32.14.78.02,1.01-.21-.66,1.08-.22,1.61.97,1.65-.35.32-.52.92-.26,1.36.29.49.92.41,1.38.45-.69.55-.1,1.28.51,1.37"/><path class="cls-11" d="M39.39,59.42c-1.93-.47-1.93,1.39-.55,3.18-.58-.5-1.65-1.22-2.09-.16-.32.77.38,1.5.83,2.05"/></g></svg>