<?xml version="1.0" encoding="UTF-8"?><svg id="Layer_2" xmlns="http://www.w3.org/2000/svg" viewBox="0 0 128.55 250.18"><defs><style>.cls-1{fill:#000;}.cls-1,.cls-2,.cls-3,.cls-4,.cls-5,.cls-6,.cls-7,.cls-8,.cls-9{stroke-width:0px;}.cls-2{fill:#bfae2e;}.cls-3{fill:#ddbc38;}.cls-4{fill:#666c4d;}.cls-5{fill:#cc2d29;}.cls-6{fill:#1a6c99;}.cls-10{stroke-linecap:round;stroke-linejoin:round;stroke-width:.89px;}.cls-10,.cls-11{fill:none;stroke:#000;}.cls-7{fill:#869166;}.cls-11{stroke-miterlimit:10;stroke-width:.22px;}.cls-8{fill:#fff;}.cls-9{fill:#e9d7bd;}</style></defs><g id="Layer_1-2"><path class="cls-2" d="M121.51,222.43c.17.5.33,5.81.66,7.3.33,1.49-6.47,1-6.47,1l-1-3.98,6.8-4.32Z"/><path class="cls-6" d="M87.33,112.56c.94,2.51,12.12,33.23,13.09,36.76,1.29,4.7,1.81,5.23,2.91,8.89,1.07,3.55,2.85,8.26,3.35,11.61.61,4.01,1.29,6.49,3.3,9.58,1.66,2.55,1.79,4.09,3.16,6.87,1.55,3.15,3.35,8.67,3.34,12.11,0,5.77-.07,10.31,2.52,15.52,1.74,3.52,5.48,8.52,3.93,10.06-1.5,1.5-5.24,5.8-7.23,5.43-4.79-.89-7.85-1.68-9.53-3.36-1.03-1.03-.23-4.29-2.22-8.2-2.04-4.01-3.5-7.08-5.01-10.86-.94-2.35-2.54-4.2-3.43-6.4-.76-1.88-1.44-4.38-2.32-6.22-1.09-2.26-.56-2.59-1.11-5.01-.5-2.21-.7-5.96-.6-8.17.27-5.84-2.86-8.35-5.67-13.15-2.48-4.23-6.35-9.5-8.3-14.05-1.85-4.3-4.05-8.24-6.2-12.45-1.34-2.62-.85-6.93-3.2-8.95-2.8-2.4-4.69-.24-5.93,2.23-2.46,4.93-4.42,10.4-5.97,15.69-1.16,3.97-2.14,7.81-4.37,11.6-1.99,3.39-4.98,7.18-6.33,10.84-.81,2.19-1.49,3.62-3.02,5.67-1.72,2.31-1.72,4.51-2.57,7.4-1.34,4.51-.83,9.31-2.13,14-1.35,4.91-3.88,10-6.91,14.13-3.45,4.7-6.96,7.59-6.94,13.93,0,2.67-1.11,4.32-4.15,4.45-1.64.07-4.34-.78-5.94-1.23-1.78-.5-4.27-1.23-5.98-2.08-2.48-1.23-.06-3.52,1.35-5.22,1.29-1.55,2.64-9.28,4.13-15.47,1.6-6.63,1.75-7.25,4.01-13.6.82-2.3,2.14-4.21,2.7-6.52.56-2.3,2.57-3.18,3.33-5.46,1.21-3.62.84-7.05,2.6-12.91.57-1.88.71-2.83,1.27-4.83.72-2.51,2.3-5.4,3.36-7.76.96-2.13,6.94-35.75,14.57-42.39l42.15-2.49Z"/><path class="cls-3" d="M59.61,43.52s.08,7.33,7.8,8.3c2.66.33,3.49-.5,5.14-1.33,1.66-.83,4.65-5.48,4.65-5.48l8.8,69.87s-5.97,1.83-8.63,1.83-10.62-.33-14.27-.66c-3.65-.33-7.97,0-9.46-.33-1.49-.33-3.82-1-3.82-1l1.99-48.13,7.3-23.4"/><path class="cls-5" d="M60.94,64.43c3.49.17,12.95-.83,14.77-.66,1.82.17,5.14,0,5.14,0l-.5,15.77s-5.48.66-9.46,1c-3.98.33-8.96.5-11.62-.17-2.66-.66-7.8-2.49-7.8-2.49l2.16-16.1,7.3,2.66Z"/><path class="cls-10" d="M61.13,47.5c1.45.15,2.99.29,4.44.26"/><path class="cls-4" d="M40.54,99.09c-1.99-.97-4.49-2.24-7.09-1.39-2.7.89-2.77,3.4-3.28,5.65-.42,1.87-1.6,5.6-.14,7.44,1.21,1.52,5.11,2.16,6.67,1.25"/><path class="cls-9" d="M40.78,119.46c-1.26-2.89-2.68-6.02-4.37-8.62-.81-1.25-2.77-2.23-3.36-3.3-.89-1.63-.55-3.76.51-5.1.91-1.15,3.61-2.67,5.05-3.12,2.31-.72,2.44,1.17,3.36,2.46,1.86,2.61,5.15,3.4,7.23,5.88,0,0-1.91,5.42-2.66,6.05-.74.64-5.76,5.76-5.76,5.76"/><path class="cls-10" d="M29.03,82.31c1.71,1.71,3.2,1.92,3.84,4.55"/><path class="cls-7" d="M60.42,36.93c-1.09,2.7-3.45,5.03-5.95,7.59-4.36-.43-6.14-1.49-10.62.66-2.49,1.16-2.83,1.64-2.83,1.64-2.32,1.01-4.61,9.16-5.97,10.81-2.32,2.82-6.97,9.57-8.36,11.73-2.47,3.83-4.94,7.7-7.67,11.33-3.39,4.52-2.2,6.09-1.07,11.2,1.11,5,1.49,8.39,5.75,11.56,1.77,1.32,6.2,7.34,6.33,7.33,0,0-.47-4.7.14-7.44.17-.77.23-4.56,3.28-5.65,3.05-1.09,8.23,1.76,8.23,1.76l-7.8-11.12c.9-2.13,5.73-4.47,8.52-6.68-.08.86-.15,1.73-.19,2.59-.25,5.03-.65,10.02-.42,15.04.13,2.85.27,3.47,2.51,5.16,1.15.86,3.4,2.25,4.84,3.31-.24,1.04-.56,2.06-.99,3.03-1.78,4.07-5.82,6.64-8.57,10.11-3.13,3.95-6.24,7.69-9.11,11.82-1.32,1.89-1.96,1.87-3.33,3.75-1.96,2.69-.96,3.17,1.57,4.6,2.26,1.27,8.35,6.03,11.67,4.99,1.6-.5,1.57-2.02,2.19-3.76.82-2.32.9-3.59,1.81-6.05,2.13-5.73,2.66-9.47,4.8-15.1,1.62-4.26,3.94-11.09,4.79-15.59.87-4.56,1.2-8.73,1.2-13.42,0-6.27-1.02-12.29.24-18.46.97-4.74,1.44-8.15,2.16-14.4.4-3.5-.03-7.38,1.29-10.71,1.42-3.56,3.45-7.59,1.82-11.63h-.26Z"/><path class="cls-7" d="M83.71,118.52s-.07-.14-.18-.39c.08.28.15.43.18.39"/><path class="cls-7" d="M113.69,85.59c-1.31-1.56-1.64-2.72-1.8-4.59-.17-1.96-1.04-4.06-2.33-5.62-1.82-2.19-3.94-4.13-5.34-6.68-1.16-2.12-1.42-4.13-1.87-6.41-.39-2.02-.94-4.26-1.48-6.23-.56-2.06-1.75-4-2.75-5.7,0,0-1.01-1.13-1.76-2-2.06-2.39-4.03-3.4-6.92-4.27-3.1-.93-8.75,1.09-8.92.09-.74-4.43-3.33-5.21-4.52-7.59,0,0-1.8,3.93-.98,6.06.32.82,2.13,4.1,1.64,13.44-.49,9.34,1.31,17.86,1.15,33.92-.15,14.41,7.2,31.51,7.99,38.65.3,2.75,1.14,5.71,2.3,8.21.92,1.98.69,4.09,2.52,5.87,2.18-.08,4.97-1.04,7.3-1.04,2.68,0,4.99.9,7.58.7-3.36-10.98-10.06-21.21-15.35-31.59-1.74-3.42-1.93-8.08-.99-11.83.75-2.99,2.47-5.76,2.58-8.86.06-1.73-.01-3.35-.11-4.96,1.4,2.1,3.88,4.56,5.2,5.54,1.92,1.43,2.25,1.66,1.26,3.88-.3.68-.53,1.67-.98,2.27-.56.75-1.49,1.07-2.13,1.79-.84.97-2.27,4.3-.93,5.23.76-2.32,5.84-2.94,7.68-2.19,2.04.83,4.3,4.81,3.45,7,3.95-2.74,4.31-3.81,7.37-5.9,3.15-2.15,6.18-5.17,6.39-8.85.24-4.14-2.93-5.6-5.24-8.36"/><path class="cls-9" d="M96.32,121.8c2.1-1.43,2.35-3.39,2.79-5.73.45-2.36,1.06-3.43,2.61-5.25,0,0,.9-2.05.59-3.11-.32-1.06-1.11-3.61-2.49-4.3-1.38-.69-2.46-1.4-3.36-1.14l-2.42,1.61c-1.47,1.61-3.13,3.71-4.6,5.3l6.88,12.62Z"/><path class="cls-1" d="M58.31,30.54c-1.29-1.67-.39-1.51-.19-3.4-1.29-.18-1.05-2.62-1.47-3.39-.5-.92-1.35-.67-2.27-1.24-.13-.08-.62-.64-.63-.52.07-.85-.64-1.15-.68-1.94-.04-.71.48-.95.37-1.81-.05-.37-.67-.35-.71-.81-.03-.4.18-.65.21-.99.05-.66.36-.71.33-1.35-.05-1.03-.58-.94-.04-2.05.14-.29.94-.48,1-.85.06-.36-.38-.56-.38-.78,0-.95-.59-.76.04-1.85.34-.58.98-.88,1.31-1.42.26-.42.24-1.06.52-1.43.22-.3,3.02-1.96,3.06-1.27-.06-1.1,0-2.35,1.18-2.6,1.41-.3,1.13,1.05,2.29-.32.79-.94.55-1.7,1.96-1.96,1.49-.27,1.99,1.23,3.28.82.81-.26,1.08-1.18,1.98-.31-.64-.63,1.37-.63,1.38-.63.28,0,1.36.54,1.75.64,1.03.27,3,.36,1.18,1.61.59-.06,4.75-.14,2.79,1.45,1.52-1.33,3.74.46,2.57,2.12,1.48-.43,4.08,1.33,2.14,2.45,1.13.28,2.44,2.15.5,2.2.32.56,1.5.73,1.46,1.61-.04.79-1.15,1.11-1.74,1.47,1.1-.67.63,1.64.6,1.57.17.48.82,1.46.69,2.07-.11.49-.98.83-1.08,1.26-.14.58.38.62.39,1.16,0,.85.16,1.9-.34,2.62-.44.64-1.54.54-1.81,1.14-.26.58.54,1.7.34,2.47-.19.74-.68,1.18-1.16,1.76"/><path class="cls-10" d="M58.31,30.54c-1.29-1.67-.39-1.51-.19-3.4-1.29-.18-1.05-2.62-1.47-3.39-.5-.92-1.35-.67-2.27-1.24-.13-.08-.62-.64-.63-.52.07-.85-.64-1.15-.68-1.94-.04-.71.48-.95.37-1.81-.05-.37-.67-.35-.71-.81-.03-.4.18-.65.21-.99.05-.66.36-.71.33-1.35-.05-1.03-.58-.94-.04-2.05.14-.29.94-.48,1-.85.06-.36-.38-.56-.38-.78,0-.95-.59-.76.04-1.85.34-.58.98-.88,1.31-1.42.26-.42.24-1.06.52-1.43.22-.3,3.02-1.96,3.06-1.27-.06-1.1,0-2.35,1.18-2.6,1.41-.3,1.13,1.05,2.29-.32.79-.94.55-1.7,1.96-1.96,1.49-.27,1.99,1.23,3.28.82.81-.26,1.08-1.18,1.98-.31-.64-.63,1.37-.63,1.38-.63.28,0,1.36.54,1.75.64,1.03.27,3,.36,1.18,1.61.59-.06,4.75-.14,2.79,1.45,1.52-1.33,3.74.46,2.57,2.12,1.48-.43,4.08,1.33,2.14,2.45,1.13.28,2.44,2.15.5,2.2.32.56,1.5.73,1.46,1.61-.04.79-1.15,1.11-1.74,1.47,1.1-.67.63,1.64.6,1.57.17.48.82,1.46.69,2.07-.11.49-.98.83-1.08,1.26-.14.58.38.62.39,1.16,0,.85.16,1.9-.34,2.62-.44.64-1.54.54-1.81,1.14-.26.58.54,1.7.34,2.47-.19.74-.68,1.18-1.16,1.76"/><path class="cls-1" d="M56.18,30.7c-.6.29-.8.81-.63,1.45.32,0,.6.23.93.22-.12.72.24,1.16.98,1.15.45,1.57.79-.21.76-.92-.05-1.32-.18-1.46-1.55-2.06"/><path class="cls-7" d="M110.91,228.52c.41.84.32,2.47.37,3.73.06,1.39-.14,2.57-.37,3.97-.35,2.09-1.78,3.76-2.69,5.66-.8,1.67-1.09,2.6-1.11,4.46-.01.95.65,2.88.65,2.88.74.46,2.98.4,4.36.46,3.81.18,7.5-.19,11.33-.19,1.04,0,2.22-.12,3.25-.28,1.05-.16,1.28-.37,1.3-1.39.04-1.96.29-3.87-.09-5.85-.36-1.86-1.63-3.4-2.21-5.2-.32-.99-.63-1.99-1.04-2.97-.48-1.12-.53-2-.81-3.16-.23-.94-.67-2.97-1.02-2.69-.69.55-4.28.77-6.44,1.44"/><path class="cls-9" d="M79.32,23.69c.17-1.98.3-3.48.3-3.48,0,0-1.44.48-1.92-.72-.48-1.2.96-3.12-.96-2.88-1.92.24-3.36-1.2-3.36-1.2,0,0-.48.24-1.92,0-1.44-.24-1.44-2.64-3.36-1.92-1.92.72-1.44,1.2-2.64,1.92-1.2.72-1.92-1.2-3.36-.24-1.44.96-1.44,1.68-2.88,1.92-1.44.24,1.2,1.68-.48,4.08-1.68,2.4-.72,3.6-.72,3.6,0,.22-.02,1.09-.03,2.23-.13-.14-.27-.24-.39-.29-.46-.18-1.01-2.67-1.24-3.36-.23-.69-2.01-.84-2.01-.84.12.67.26,2.53.98,2.79.22,1.43-.43,2.05,0,3.6.4,1.45,1.4,2.31,2.79,2.63,0,0,0-.02,0-.05.11,1.37.29,2.57.61,3.13.31.55,1.12,1.43,2.18,2.37.09.92.43,4.56.23,5.56-.23,1.15-1.03,4.19-.55,5.01,1.32,2.29,5.64,4.77,7.91,4.55,2.67-.26,7.68-4.19,7.68-5.57s-1.47-3.54-1.43-4.92c.04-1.1.54-3.73.74-4.74,1.61-1.71,2.78-3.41,2.89-3.95.02-.1.04-.28.07-.51,1.57-.94,1.64-2.83,2.39-4.33.55-1.1,1.54-4.43-1.56-4.39"/><path class="cls-8" d="M71.34,23.39c-.22.14-.38.57-.2.8.23.29.92.25,1.23.29.77.1,2.63.14,3.36-.25.75-.4-.38-1.04-1.03-1.39-.44-.24-.97-.32-1.47-.3-.53.02-.81.31-1.29.4"/><path class="cls-8" d="M65.87,23.68c.21.14.37.58.19.81-.23.29-.92.24-1.23.27-.77.09-2.63.1-3.35-.31-.74-.41.4-1.03,1.05-1.38.44-.23.98-.3,1.48-.27.53.03.81.32,1.29.42"/><path class="cls-3" d="M40.86,98.79c-1.14.61-2.59.23-3.82.95-1.14.67-1.86,1.57-2.61,2.57-.67.9-1.44,1.69-1.7,2.78-.28,1.19,1.11,3.03-.37,2.86-.72-.08-2.02-1.76-2.33-2.48-.6-1.43.33-2.29.67-3.69.64-2.62,1.59-4.57,4.85-4.48,1.66.04,3.87.44,4.98,1.66"/><path class="cls-3" d="M96.46,102.27s4.15-1.66,6.14.33c1.99,1.99,2.99,4.98,1.99,6.8-1,1.83-2.99,1.99-2.99,1.99,0,0,2.45-2.96.33-5.48-2.11-2.51-5.48-3.65-5.48-3.65"/><path class="cls-7" d="M8.51,229.44c-1.76,2.23-6.02,9.9-6.9,11.97-.65,1.54-1.54,3.29-1.02,5.02.61,2.02,1.57,1.78,3.55,2.04,4.27.56,7.52.56,12.26,0,1.43-.17,3.43-.19,3.88-1.12.65-1.36.33-3.44.11-4.92-.25-1.67-.69-3.32-.93-5.01-.12-.86-.11-1.69.09-2.51.13-.54.74-2.02.28-2.23"/><path class="cls-10" d="M60.92,37c.11,1.73.42,3.49.25,5.27-.13,1.35-1.14,3.58-.45,4.99.85,1.73,5.34,4.34,7.16,4.61,2.69.41,7.16-2.44,8.1-5.05.66-1.83-.57-3.21-.92-4.79-.35-1.58-.01-3.04-.01-4.67"/><path class="cls-10" d="M61.13,47.5c1.45.15,2.99.29,4.44.26"/><path class="cls-10" d="M71.71,47.54c1.49.47,2.39-.17,3.96-.17"/><path class="cls-10" d="M60.42,36.93c-1.62,4.01-6.95,8.04-9.58,11.58-1.19,1.6-2.1,3.69-1.67,5.75.55,2.6,2.77,2.91,0,4.79-1.97,1.34-3.31,1.28-3.9,3.84-.47,2.05-.02,4.12.29,6.23.78,5.2,1.2,8.73,1.58,13.73.65,8.52,4.61,19.66,1,27.93-1.78,4.07-5.82,6.64-8.57,10.11-3.13,3.95-6.24,7.69-9.11,11.82-1.32,1.89-2.19,2.43-3.56,4.31-1.96,2.69.55,3.34,3.09,4.77,2.25,1.27,9.14,7.24,11.56,3.03.83-1.46,5.48-18.05,7.62-23.68,1.62-4.26,3.94-11.09,4.79-15.59.87-4.56,1.2-8.73,1.2-13.42,0-6.27-1.02-12.29.24-18.46.97-4.74,1.44-8.15,2.16-14.4.4-3.5-.03-7.38,1.29-10.71,1.42-3.56,3.45-7.59,1.82-11.63"/><path class="cls-10" d="M54.45,44.43c-4.51-.46-9.83-.73-13.42,2.4,0,0,2.16,7.1,2.16,11.03,0,2.86.24,3.36.48,5.99.19,2.13.19,4.23,0,6.47-.37,4.41-1.22,8.9-1.44,13.43-.25,5.03-.65,10.02-.42,15.04.13,2.85.27,3.47,2.51,5.16,1.48,1.11,3.65,2.35,4.7,3.39"/><path class="cls-10" d="M40.54,99.09c-1.99-.97-4.49-2.24-7.09-1.39-2.7.89-2.77,3.4-3.28,5.65-.42,1.87-1.6,5.6-.14,7.44,1.21,1.52,5.11,2.16,6.67,1.25"/><path class="cls-10" d="M40.78,119.46c-1.26-2.89-2.68-6.02-4.37-8.62-.81-1.25-2.77-2.23-3.36-3.3-.89-1.63-.55-3.43.51-4.77.91-1.15,2.49-2.82,5.05-3.46,2.35-.58,2.44,1.17,3.36,2.46,1.86,2.61,5.15,3.4,7.23,5.88"/><path class="cls-10" d="M33.39,108.25c-1.09.52-2.75-1.4-3.4-2.45"/><path class="cls-10" d="M41.04,99.7c-1.46-3.13-5.05-7.16-6.56-10.33-1.81-3.8-4.08-4.4-8.32-4.42"/><path class="cls-10" d="M29.03,82.31c1.71,1.71,3.2,1.92,3.84,4.55"/><path class="cls-10" d="M34.07,87.82c1.12-2.65,6.15-3.81,7.91-6.47"/><path class="cls-10" d="M40.91,46.98c-1.86,1.1-3.41,3.8-3.91,5.79-.71,2.8-1.98,5.64-2.52,8.5-.45,2.4-.69,4.54-1.31,6.89-.58,2.22-1.58,3.51-2.46,5.51"/><path class="cls-10" d="M35.99,55.93c-.3,2.01-3.97,5.12-5.09,6.95-1.35,2.2-2.82,4.32-4.21,6.48-2.47,3.83-4.94,7.7-7.67,11.33-3.39,4.52-2.2,6.09-1.07,11.2,1.11,5,1.49,8.39,5.75,11.56,1.77,1.32,6.2,7.34,6.33,7.33"/><path class="cls-10" d="M76,36.6c1.19,2.38,2.62,2.95,4.47,7.05.59,1.31.68,2.85,1.38,4.1.67,1.19,1.76,2.12,2.67,3.07.79.83,2.18,2.13,2.5,3.29.56,2.02-1.98,1.88-2.05,3.6-.06,1.49,4.22,2.48,5.77,5.28.81,1.47-1.05,4.55-1.65,5.53-1.41,2.34-2.26,3.81-3.01,5.8-1.6,4.27-1.85,7.43-2.56,11.28-.81,4.41-1.15,9.45-1.15,13.97,0,3.65-.36,7.31-.16,10.94.08,1.41.24,2.64.49,3.97.26,1.39.85,4.24.98,4.06,0,0-6.06-12.45-5.9-28.51.16-16.06-1.64-24.58-1.15-33.92.49-9.34-1.32-12.61-1.64-13.44-.82-2.13.98-6.06.98-6.06"/><path class="cls-10" d="M80.92,44.47c3.15-.02,5.42-1.3,8.52-.37,2.89.87,4.86,1.88,6.92,4.27.75.87,1.69,1.41,1.56,2.65-.17,1.66-2.27,3.29-2.95,4.79-1.79,3.95-1.55,8.56-2.42,12.78-.49,2.38-.71,4.59-.82,7.01-.12,2.82-.4,3.89-.33,5.73.11,3.02.44,5.72.33,8.8-.11,3.09-1.83,5.87-2.59,8.86-.94,3.75-.75,8.41.99,11.83,5.29,10.38,11.99,20.62,15.35,31.59-2.59.2-4.9-.7-7.58-.7-2.33,0-5.12.96-7.3,1.04-1.83-1.78-1.6-3.89-2.52-5.87-1.16-2.5-1.62-5.53-2.3-8.21-1-3.94-.78-6.37-2.58-11.45"/><path class="cls-10" d="M91.9,85.1c1.37,1.76,3.14,4.29,4.92,5.62,1.92,1.43,2.25,1.66,1.26,3.88-.3.68-.53,1.67-.98,2.27-.56.75-1.49,1.07-2.13,1.79-.84.97-1.9,4.25-.56,5.18,1.54-2.28,5.47-2.89,7.31-2.14,2.04.83,4.3,4.81,3.45,7,3.95-2.74,4.31-3.81,7.37-5.9,3.15-2.15,6.18-5.17,6.39-8.85.24-4.14-2.93-5.6-5.24-8.36-1.31-1.56-1.64-2.72-1.8-4.59-.17-1.96-1.04-4.06-2.33-5.62-1.82-2.19-3.94-4.13-5.34-6.68-1.16-2.12-1.42-4.13-1.87-6.41-.39-2.02-.93-4.26-1.47-6.23-.56-2.06-1.75-4-2.75-5.7"/><path class="cls-10" d="M96.46,102.44c2.6.37,3.19.35,4.78,2.65,1.47,2.13,1.47,4.1.35,6.2,2.08.36,3.53-2.02,3.74-3.74"/><path class="cls-10" d="M94.41,103.84c-1.47,1.61-3.5,3.76-4.97,5.35"/><path class="cls-10" d="M101.73,110.82c-1.56,1.83-2.17,2.89-2.61,5.25-.44,2.33-.7,4.3-2.79,5.73"/><path class="cls-10" d="M51.43,115.08c2.66.94,5.85.45,8.68.69,2.97.26,5.86.8,8.85.95,4.52.22,9.44-.2,13.93-.82"/><path class="cls-10" d="M55.2,79.37c3.93,1.71,9.68.82,13.93.98,2.94.11,5.93-.39,8.68-.33"/><path class="cls-10" d="M57.16,63.47c3.78,1.87,9.02.69,13.07.66,2.08-.02,4.22-.47,6.26-.33"/><path class="cls-10" d="M106.64,81.49c-4.85-.55-7.45,7-8.36,10.49"/><path class="cls-10" d="M106.97,86.08c-2.38-.24-8.25,3.38-8.68,5.9"/><path class="cls-10" d="M106.15,107.71c1.04-3.75,3.83-7,6.72-9.5"/><path class="cls-10" d="M68.63,100.34c3.33,1.38,6.38-.06,9.67-.16"/><path class="cls-10" d="M74.2,95.91c1.15.54,2.4.1,3.6,0"/><path class="cls-10" d="M70.27,111.81c1.74.66,4.73,0,6.68,0,1.48,0,2.53.1,3.97,0"/><path class="cls-10" d="M79.11,27.95c.49-.58.97-.93,1.16-1.67.2-.77-.6-1.89-.34-2.47.27-.6,1.36-.5,1.81-1.14.5-.72.34-1.77.34-2.62,0-.54-.53-.57-.39-1.16.11-.44.98-.77,1.08-1.27.13-.61-.51-1.59-.69-2.07.02.06.5-2.25-.6-1.57.59-.36,1.7-.68,1.74-1.47.05-.88-1.14-1.05-1.46-1.61,1.94-.05.63-1.92-.5-2.2,1.95-1.11-.65-2.88-2.14-2.45,1.17-1.66-1.05-3.45-2.57-2.12,1.96-1.58-2.19-1.51-2.79-1.45,1.82-1.25-.15-1.34-1.18-1.61-.38-.1-1.47-.63-1.75-.64-.02,0-2.03,0-1.38.63-.89-.87-1.17.05-1.98.31-1.29.41-1.79-1.1-3.28-.82-1.41.26-1.17,1.02-1.96,1.96-1.16,1.37-.88.02-2.29.32-1.18.25-1.24,1.5-1.18,2.6-.04-.69-2.83.98-3.06,1.27-.28.37-.26,1-.52,1.43-.33.54-.98.84-1.31,1.42-.63,1.09-.04.89-.04,1.85,0,.22.44.42.38.78-.06.37-.86.55-1,.85-.54,1.11,0,1.02.04,2.05.03.65-.28.69-.33,1.35-.02.34-.24.59-.21.99.04.46.66.44.71.81.11.86-.41,1.1-.37,1.81.04.79.75,1.08.68,1.94.01-.12.5.44.63.52.93.56,1.78.31,2.27,1.24.41.77.01,3.2,1.3,3.37-.2,1.89-1.15,1.37.14,3.04"/><path class="cls-10" d="M58.04,24.77c0,.72-.24,8.15.72,9.83.96,1.68,6.47,6.47,10.07,6.47,3.84,0,9.35-6.95,9.59-8.15.24-1.2,1.2-12.71,1.2-12.71,0,0-1.44.48-1.92-.72-.48-1.2.96-3.12-.96-2.88-1.92.24-3.36-1.2-3.36-1.2,0,0-.48.24-1.92,0-1.44-.24-1.44-2.64-3.36-1.92-1.92.72-1.44,1.2-2.64,1.92-1.2.72-1.92-1.2-3.36-.24-1.44.96-1.44,1.68-2.88,1.92-1.44.24,1.2,1.68-.48,4.08-1.68,2.4-.72,3.6-.72,3.6Z"/><path class="cls-10" d="M54.38,22.51c.12.67.25,2.53.98,2.79.22,1.43-.43,2.05,0,3.6.4,1.45,1.4,2.31,2.79,2.63"/><path class="cls-1" d="M56.07,30.88c-.6.29-.8.81-.63,1.45.32,0,.6.23.93.22-.12.72.24,1.16.98,1.15.45,1.57.9-.25.87-.96-.05-1.32-.29-1.41-1.66-2.01"/><path class="cls-10" d="M56.07,30.88c-.6.29-.8.81-.63,1.45.32,0,.6.23.93.22-.12.72.24,1.16.98,1.15.45,1.57.9-.25.87-.96-.05-1.32-.29-1.41-1.66-2.01"/><path class="cls-10" d="M80.43,23.82c2.25.43,1.01,3.13.45,4.26-.78,1.56-.51,3.53-2.25,4.42"/><path class="cls-10" d="M63.55,32.06c5.41.16,6.39,0,10.48-.81"/><path class="cls-10" d="M67.56,27.11c1.43.35,2.29.16,2.29.16"/><path class="cls-10" d="M61.32,24.25s.84-1.41,2.54-1.41c1.5,0,2.52,1.34,2.52,1.34"/><path class="cls-10" d="M71.21,23.93s.77-1.29,2.15-1.34c2.12-.08,2.57,1.27,2.57,1.27"/><path class="cls-10" d="M59.83,22.75s.26-1.48,1.58-1.51c2.13-.06,3.02,1.32,4.63.8"/><path class="cls-10" d="M70.35,22s1.04.29,2.19-.2c1.15-.49,1.86-1.24,3-.75s1.58,1.49,1.58,1.49"/><path class="cls-10" d="M65.68,18.41s2.13.98,3.77.98"/><line class="cls-10" x1="71.25" y1="33.7" x2="67.98" y2="33.86"/><line class="cls-10" x1="63.04" y1="31.75" x2="63.04" y2="32.59"/><line class="cls-10" x1="74.2" y1="30.42" x2="74.3" y2="31.98"/><path class="cls-1" d="M64.52,23.85c0,.42-.35.76-.77.76s-.77-.34-.77-.76.35-.76.77-.76.77.34.77.76"/><path class="cls-11" d="M64.52,23.85c0,.42-.35.76-.77.76s-.77-.34-.77-.76.35-.76.77-.76.77.34.77.76Z"/><path class="cls-1" d="M74.23,23.63c0,.42-.35.76-.77.76s-.77-.34-.77-.76.35-.76.77-.76.77.34.77.76"/><path class="cls-11" d="M74.23,23.63c0,.42-.35.76-.77.76s-.77-.34-.77-.76.35-.76.77-.76.77.34.77.76Z"/><path class="cls-10" d="M33.76,144.48c-1.29,3.35-2.2,10.83-3.16,12.96-1.06,2.36-2.64,5.24-3.36,7.76-.57,1.99-.71,2.95-1.27,4.82-1.76,5.85-1.39,9.29-2.6,12.91-.76,2.28-2.77,3.15-3.33,5.46-.56,2.31-1.88,4.22-2.7,6.52-2.26,6.35-2.41,6.96-4.01,13.6-1.49,6.19-2.84,13.93-4.13,15.47-1.41,1.69-3.83,3.99-1.35,5.22,1.71.85,4.2,1.58,5.98,2.08,1.61.45,4.3,1.3,5.94,1.23,3.04-.13,4.16-1.79,4.15-4.45-.02-6.34,3.49-9.23,6.94-13.93,3.03-4.13,5.55-9.22,6.91-14.13,1.29-4.7.79-9.5,2.13-14,.86-2.89.86-5.09,2.57-7.4,1.52-2.05,2.21-3.48,3.02-5.67,1.35-3.66,4.34-7.44,6.33-10.84,2.23-3.79,3.21-7.63,4.37-11.6,1.55-5.29,3.5-10.76,5.97-15.69,1.24-2.47,3.13-4.63,5.93-2.23,2.36,2.02,1.86,6.33,3.2,8.95,2.16,4.22,4.36,8.16,6.2,12.45,1.96,4.55,5.82,9.83,8.3,14.05,2.82,4.81,5.94,7.31,5.67,13.15-.1,2.21.1,5.96.6,8.17.55,2.42.03,2.75,1.11,5.01.88,1.84,1.56,4.34,2.32,6.22.89,2.2,2.49,4.05,3.43,6.4,1.51,3.78,2.97,6.85,5.01,10.86,1.99,3.91,1.19,7.17,2.22,8.2,1.69,1.69,5.93,2.58,9.53,3.36,1.98.43,5.73-3.93,7.23-5.43,1.55-1.55-2.19-6.54-3.93-10.06-2.58-5.22-2.52-9.76-2.52-15.52,0-3.45-1.8-8.97-3.34-12.12-1.37-2.78-1.5-4.32-3.16-6.87-2.01-3.1-2.69-5.57-3.3-9.58-.51-3.34-2.28-8.06-3.35-11.61-1.1-3.66-1.62-4.19-2.91-8.89-1.1-4-1.73-5.55-2.51-7.61"/><path class="cls-10" d="M56.13,128.3c4.43.57,8.77,3.65,13.15,2.32,4.36-1.32,7.87-1.8,12.64-1.8"/><path class="cls-10" d="M75.73,131.14c2.98,1.04,5.01.49,7.48,2.84"/><path class="cls-10" d="M73.67,125.46c1.84-.2,5.22-.26,7.74-.26"/><path class="cls-10" d="M76.25,122.37c1.93-.5,4.46-.66,6.45-.52"/><path class="cls-10" d="M64.61,116.43c0,2.98-1.85,12.13,2.1,12.64"/><path class="cls-10" d="M91.23,177.18c1.41,1.39,4.57,2.3,6.68,1.16"/><path class="cls-10" d="M103.32,174.46c.92,2.27-3.57,4.67-5.14,5.36,2.4.26,6.67.67,9.01-.51"/><path class="cls-10" d="M103.58,184.52c1.36,3.04-2.71,5.91-.72,8.97,1.59,2.44,4.64,2.91,5.1,6.2.18,1.28-.7,2.66-.28,3.91.47,1.42,2.37,1.66,3.06,2.83.89,1.52,1.59,5.43,1.86,7.23"/><path class="cls-10" d="M27.76,172.66c1.02,6.04,4.47,7.37,9.8,6.71"/><path class="cls-10" d="M15.13,208.76c1.68.9,5.14,1.9,6.45,3.42,2.38,2.75-1.82,2.19-3.84,2.3-.35,1.75,1.26,2.46,1.21,4.04-1.4.36-2.72,1.33-2.8,2.88"/><path class="cls-10" d="M7.91,225.52c3.06.16,6.42-1.81,10.06-.52"/><path class="cls-10" d="M8.51,229.44c-1.76,2.23-6.02,9.9-6.9,11.97-.65,1.54-1.54,3.29-1.02,5.02.61,2.02,1.57,1.78,3.55,2.04,4.27.56,7.52.56,12.26,0,1.43-.17,3.43-.19,3.88-1.12.65-1.36.33-3.44.11-4.92-.25-1.67-.69-3.32-.93-5.01-.12-.86-.11-1.69.09-2.51.13-.54.74-2.02.28-2.23"/><path class="cls-10" d="M110.91,228.52c.41.84.32,2.47.37,3.73.06,1.39-.14,2.57-.37,3.97-.35,2.09-1.78,3.76-2.69,5.66-.8,1.67-1.09,2.6-1.11,4.46-.01.95.65,2.88.65,2.88.74.46,2.98.4,4.36.46,3.81.18,7.5-.19,11.33-.19,1.04,0,2.22-.12,3.25-.28,1.05-.16,1.28-.37,1.3-1.39.04-1.96.29-3.87-.09-5.85-.36-1.86-1.63-3.4-2.21-5.2-.32-.99-.63-1.99-1.04-2.97-.48-1.12-.53-2-.81-3.16-.23-.94-.67-2.97-1.02-2.69-.69.55-4.14,1.35-4.85.65"/><path class="cls-10" d="M121.58,225.36c.56.42.28,1.92.28,2.6"/><path class="cls-10" d="M107.75,243.28c1.39-1.39,2.86-2.46,3.63-2.99,1.36-.93,2.94-1.58,4.56-1.72,2-.17,4.13-.03,6.01.7,1.55.59,3.15,1.87,4.11,3.08"/><path class="cls-10" d="M1.27,242.35c.8-1.44,1.67-2.27,2.51-2.76,1.39-.82,3.04-1.33,4.63-1.58,3.22-.5,7.75.31,10.01,2.78"/><path class="cls-10" d="M.62,245.04c3.63,1.35,7.9.93,11.69.84,1.88-.05,3.75-.21,5.57-.49,1.04-.16,1.63-.12,2.6-.44"/><path class="cls-10" d="M107.19,246.15c2.09.32,4.58-.2,6.77-.1,1.86.08,3.72.2,5.57.35,3.53.3,5.5.23,8.36-.63"/><path class="cls-10" d="M12.45,231.03c-1.14.86-1.66,2.9-2.24,4.18-.28.62-.96,1.84-.87,2.53"/><path class="cls-10" d="M10.4,230.34c-.69.91-.88,1.47-1.3,2.56-.3.77-.64,1.53-.98,2.28-.38.85-.86,2.01-1.01,2.86"/><path class="cls-10" d="M15.5,231.77c-.91,1.91-1.72,4.14-1.8,6.09"/><path class="cls-10" d="M17.05,232.27c-.56.75-1.18,3.14-1.24,3.85-.07.78-.37,1.74-.12,2.49"/><path class="cls-10" d="M11.27,233.51c.81-.13,3.45-1.19,4.23-1.43"/><path class="cls-10" d="M10.22,235.2c.69-.14,1.55-.23,2.12-.32.56-.1,1.06-.52,1.62-.56"/><path class="cls-10" d="M9.78,237.24c1.06.07,2.44-.65,3.54-.81"/><path class="cls-10" d="M12.27,231.03c.51,1.42.88,2.7,1.8,3.67"/><path class="cls-10" d="M10.65,234.07c.87.29,2.72,2.22,2.61,3.29"/><path class="cls-10" d="M113.82,229.04c.54.39.28,1.88.25,2.56-.06,1.17-.21,2.3-.31,3.47-.14,1.56-.36,2.81-1.06,4.23"/><path class="cls-10" d="M115.68,229.66c.06.62-.02,1.3-.06,1.8-.07.88-.11,1.77-.12,2.66-.02,1.46-.1,2.89-.25,4.31"/><path class="cls-10" d="M119.72,228.79c.39.73.12,2.03.12,2.86,0,.96-.12,1.89-.12,2.86,0,.85.04,1.69,0,2.52-.02.41-.08,1.06.06,1.4"/><path class="cls-10" d="M121.27,228.73c.08,1.28.06,2.73.12,4.16.04.88.04,1.99.13,2.86.06.61.07,2.51.19,3.11"/><path class="cls-10" d="M115.87,229.72c1.05,1,2.51,2.23,3.73,3.05"/><path class="cls-10" d="M115.56,232.95c.78.57,2.49,1.68,3.85,2.86"/><path class="cls-10" d="M115.74,234.94c.69.31,1.61,1.73,2.23,2.17.3.21.99,1.09,1.25,1.06"/><path class="cls-10" d="M119.6,233.39c-.09.45-.94.94-1.31,1.31-.5.5-1,1.01-1.48,1.54-.46.5-1.07,1.02-1.38,1.63"/><path class="cls-10" d="M119.53,229.85c-.96.62-1.81,1.33-2.68,2.07-.26.22-1.06.7-1.05.92"/><path class="cls-1" d="M80.17,31.03c.12.23.35.08.41.31.2.79.09.58-.31,1.02-.06.07-.82-.31-.5.5.09.23.22.42.1.52-.33.27-.5-.17-.73.2-1.13.53-1.11.05-.51-.61.29-.33.54-.85.84-1.2.28-.33.32-.71.69-.95"/><path class="cls-10" d="M80.17,31.03c.12.23.35.08.41.31.2.79.09.58-.31,1.02-.06.07-.82-.31-.5.5.09.23.22.42.1.52-.33.27-.5-.17-.73.2-1.13.53-1.11.05-.51-.61.29-.33.54-.85.84-1.2.28-.33.32-.71.69-.95"/></g></svg>